<?xml version="1.0" encoding="UTF-8"?>
<!DOCTYPE svg PUBLIC "-//W3C//DTD SVG 1.1//EN" "http://www.w3.org/Graphics/SVG/1.1/DTD/svg11.dtd">
<!-- Creator: CorelDRAW -->
<svg xmlns="http://www.w3.org/2000/svg" xml:space="preserve" width="0.787402in" height="0.787402in" version="1.1" style="shape-rendering:geometricPrecision; text-rendering:geometricPrecision; image-rendering:optimizeQuality; fill-rule:evenodd; clip-rule:evenodd"
viewBox="0 0 787.4 787.4"
 xmlns:xlink="http://www.w3.org/1999/xlink"
 xmlns:xodm="http://www.corel.com/coreldraw/odm/2003">
 <defs>
  <style type="text/css">
   <![CDATA[
    .fil0 {fill:black}
   ]]>
  </style>
 </defs>
 <g id="Layer_x0020_1">
  <metadata id="CorelCorpID_0Corel-Layer"/>
  <g id="_2505819082896">
   <g>
    <path class="fil0" d="M215.29 412.59l75.95 37.85 0.1 3.69 0.03 83.8 -0.26 3.85 -75.94 -37.79 0.12 -91.4zm20.93 -23.32c2.67,-2.78 67.51,-35.11 70.36,-35.11 2.88,0 67.72,32.35 70.36,35.11 -8.58,4.37 -66.28,34.46 -70.36,34.46 -4.08,0 -61.78,-30.09 -70.36,-34.46zm-51.28 123.9c1.26,9.45 7.26,13.15 14.5,16.72l62.85 31.42c50.38,25.19 36.75,25.93 87.33,0.63 14.18,-7.09 27.66,-13.83 41.9,-20.95 15.67,-7.83 33.7,-13.52 36.45,-26.39 1.51,-7.05 1.55,-115.68 0.24,-124.98 -1.99,-14.03 -23.41,-21.04 -35.68,-27.17 -14.23,-7.1 -27.72,-13.86 -41.9,-20.95 -50.28,-25.14 -36.59,-25.74 -86.81,-0.63 -13.98,6.99 -27.93,13.96 -41.9,20.95 -11.79,5.89 -33.89,13.54 -36.66,26.22 -1.57,7.15 -1.64,115.14 -0.31,125.12z"/>
    <path class="fil0" d="M443.95 408.31c5.74,-6.92 38.18,-64.26 45.52,-73.1 5.33,15.59 10.24,36.27 14.61,52.8 4.74,17.91 9.55,35.19 14.61,53.06 2.54,8.98 5.6,18.67 2,28.11 -3.08,8.09 -8.41,14.17 -15.86,17.48 -13.04,5.81 -45.61,1.3 -61.05,-0.47l-0.52 30.75c15.47,1.32 29.28,2.87 45.19,2.89 38.11,0.04 106.12,-7.58 120.83,-33.45 3,-5.28 2.39,-10.38 -0.53,-15.43l-21.74 -35.38c-28.55,-46.85 -60.35,-97.17 -87.8,-143.62 -2.42,-4.09 -6.14,-8.16 -13.2,-6 -4.77,1.46 -6.47,6.3 -8.89,10.23 -11.26,18.3 -34.26,54.33 -43.57,71.19 14.87,22.7 7.93,15.89 10.4,40.95z"/>
    <path class="fil0" d="M246.09 331.91c4.95,-0.13 23.54,-11.29 29.93,-14.01 0.81,-12 2.48,-20.35 6.93,-30.25 23.51,-52.25 104.91,-57.27 110.52,-7.81 1.3,11.41 -1.25,22.83 -5.22,32.19 -2.66,6.27 -6.22,13.12 -10.3,18.26l-4.17 6.17c13.92,4.57 34.05,19.37 47.33,22.74 2.32,-6.94 34.71,-55.04 35.15,-59.37 0.49,-4.75 -5.98,-20.59 -7.91,-24.65 -12.18,-25.65 -37.3,-48.46 -69.81,-56.81 -39.33,-10.1 -74.18,3.74 -96.56,23.56 -21.02,18.62 -39.03,47.22 -35.89,89.99z"/>
   </g>
   <path class="fil0" d="M624.17 101.07l0 544.33c0,10.23 -1.85,20 -5.21,28.92 33.61,-1.61 60.65,-32.47 60.65,-69.97l0 -570.47 -55.44 0 -484.44 0c-37.79,0 -68.7,30.91 -68.7,68.7l0 552.18c0,37.79 30.91,68.7 68.7,68.7l415.74 0c28.53,0 53.14,-17.62 63.49,-42.52 -0.91,0.04 -1.83,0.06 -2.76,0.06l-383.74 0c-34.88,0 -63.41,-28.53 -63.41,-63.41l0 -453.11c0,-34.88 28.53,-63.41 63.41,-63.41l391.71 0z"/>
  </g>
 </g>
</svg>
