<svg width="71" height="60" viewBox="0 0 71 60" fill="none" xmlns="http://www.w3.org/2000/svg">
<path fill-rule="evenodd" clip-rule="evenodd" d="M7.2797 55.6852L21.3284 31.3529L35.3761 7.01976L49.4248 31.3529L63.4734 55.6852H35.3761H7.27874H7.2797ZM35.377 59.8929H70.7551L53.0661 29.2544C47.6276 19.8358 42.1892 10.4153 36.7518 0.996701C35.6123 -0.675623 34.5438 0.00597878 33.8756 1.2175L17.689 29.2544L0 59.8929H35.378H35.377Z" fill="white"/>
<path d="M38.0551 27.8759C38.0551 22.1843 36.8559 17.5703 35.3766 17.5703C33.8974 17.5703 32.6982 22.1843 32.6982 27.8759V35.434C32.6982 41.1257 33.8974 45.7397 35.3766 45.7397C36.8559 45.7397 38.0551 41.1257 38.0551 35.434V27.8759Z" fill="white"/>
<path d="M37.2791 48.0113C37.2791 47.3735 36.427 46.8564 35.3759 46.8564C34.3247 46.8564 33.4727 47.3735 33.4727 48.0113V48.858C33.4727 49.4959 34.3247 50.0129 35.3759 50.0129C36.427 50.0129 37.2791 49.4959 37.2791 48.858V48.0113Z" fill="white"/>
</svg>
