<svg width="49" height="54" viewBox="0 0 49 54" fill="none" xmlns="http://www.w3.org/2000/svg">
<path fill-rule="evenodd" clip-rule="evenodd" d="M36.6254 0.0472928C35.4503 0.206653 34.5959 1.2617 34.0257 1.83674C32.4033 3.47066 31.1169 4.5497 29.5982 6.13179C28.1812 7.60635 26.7047 9.271 25.2685 10.6419C24.0417 11.8131 21.4017 14.8505 19.9799 16.3606C19.5988 16.7657 19.3674 17.0413 18.8951 17.5577C16.1015 20.6125 13.2272 23.7104 10.3088 26.5309C7.22338 29.5126 3.98817 32.3264 1.74464 35.6298C-1.42144 40.2925 0.0876806 44.2775 3.34977 48.1367C4.38273 49.3578 6.01089 50.842 7.44514 51.681C8.87458 52.5172 9.35458 52.9156 11.2304 53.4705C12.7597 53.9226 15.3248 54.0359 16.8724 53.2679L17.9975 52.6449C18.0176 52.6305 18.0436 52.6122 18.0637 52.5978L19.4432 51.4794C20.4935 50.6778 21.3277 49.6573 22.2647 48.7377L22.5882 48.4055C22.6036 48.3892 22.6257 48.3652 22.641 48.3489C22.6564 48.3325 22.6785 48.3085 22.6938 48.2922C22.7092 48.2759 22.7313 48.2519 22.7466 48.2356L22.906 48.0676C22.9213 48.0513 22.9434 48.0282 22.9588 48.0119C22.9741 47.9956 22.9962 47.9725 23.0116 47.9553C23.0269 47.9389 23.049 47.9149 23.0634 47.8986L23.3101 47.6001C23.4935 47.3745 23.6202 47.242 23.8228 47.0221L28.6977 41.9792C29.5463 41.2861 30.3422 40.2724 31.1658 39.4314L35.6923 34.6861C35.7067 34.6688 35.7259 34.6429 35.7403 34.6247L39.8577 30.3478C39.8731 30.3306 39.8932 30.3056 39.9076 30.2883C39.9287 30.2634 39.9844 30.1914 40.0046 30.1664C40.667 29.3706 41.4955 28.6534 42.2087 27.8979C42.7492 27.3258 43.8705 26.2198 43.9732 25.304C44.1115 24.0656 42.8596 22.9251 41.5761 23.6701C40.0583 24.5514 38.9735 26.2381 37.8158 27.5427C37.667 27.7098 37.5067 27.9584 37.2599 28.1878L30.8567 34.8656C30.3969 35.2515 30.155 35.5587 29.7758 35.9687C29.3764 36.4007 29.0721 36.6704 28.6324 37.1139C25.6333 40.1389 23.1393 43.1514 20.0221 46.1687C18.8653 47.2881 17.1815 49.6967 15.5994 50.4676C12.8125 51.826 10.6467 50.5722 8.93602 49.4356C7.00834 48.1549 5.84097 47.7748 4.49505 45.032C3.99393 44.0116 3.65409 42.8682 3.50337 41.6596C3.20289 39.2384 4.10625 38.48 5.22081 36.92C5.38497 36.6906 5.95426 35.96 6.19522 35.7258L8.61346 33.2317C8.62978 33.2154 8.65186 33.1923 8.66722 33.177L9.57826 32.2352C9.59554 32.2208 9.61954 32.1987 9.63586 32.1834L13.3165 28.3395C13.3319 28.3232 13.352 28.2982 13.3664 28.281C13.3818 28.2646 13.402 28.2397 13.4173 28.2224L13.736 27.8806C13.7524 27.8624 13.7735 27.8384 13.7879 27.8211C13.8032 27.8029 13.8234 27.7779 13.8378 27.7606C13.8522 27.7434 13.8714 27.7174 13.8868 27.7002L15.657 25.881C15.7712 25.7658 15.8135 25.7274 15.9296 25.6122L25.6285 15.3565C25.6439 15.3401 25.666 15.3171 25.6813 15.2998C25.6967 15.2835 25.7188 15.2595 25.7341 15.2432C25.7495 15.2259 25.7706 15.2029 25.786 15.1856L27.1722 13.7379C27.3057 13.5929 27.3018 13.5977 27.4343 13.4547C27.4497 13.4384 27.4718 13.4144 27.4871 13.398C27.898 12.9555 28.2839 12.415 28.7409 12.0435L29.5022 11.2707C29.5175 11.2544 29.5396 11.2304 29.555 11.214L31.6766 8.97436C31.6919 8.95804 31.714 8.93404 31.7294 8.91772L31.9396 8.69115C31.955 8.67387 31.9761 8.64987 31.9905 8.63355L35.3303 5.21115L36.8529 4.12922C36.995 4.05626 37.1035 4.0025 37.2235 3.94682L37.4567 3.8441C38.2651 3.48314 39.0782 3.25754 39.9959 3.44378C41.1134 3.66938 41.9995 4.15514 42.8827 4.90106C43.6507 5.55003 44.388 6.31803 44.9611 7.18395C46.4116 9.37372 45.8616 11.6403 44.0184 13.3606C43.1985 14.1257 42.7473 14.8659 41.9025 15.6061C41.0174 16.3817 40.6267 17.0729 39.7358 17.9101C38.3659 19.1984 34.6852 23.1402 33.2874 24.6512C31.9895 26.0547 30.611 27.6579 29.0807 29.167C28.6554 29.5856 28.3511 29.8371 27.971 30.2355C27.6897 30.5303 27.3815 31.0074 26.9111 31.4691C26.3821 31.9885 26.2285 32.0135 25.8215 32.5578C25.5277 32.9504 25.1447 33.3507 24.7924 33.7127C23.9447 34.5834 21.3777 37.5114 20.2045 37.9616C18.1204 38.7603 14.793 35.6845 16.3184 33.0954L16.5844 32.7114C16.5978 32.6912 16.616 32.6643 16.6295 32.6432C17.2093 31.7543 17.9226 31.0669 18.6983 30.3517L20.3773 28.7504C20.3937 28.7341 20.4157 28.711 20.4311 28.6957L20.7594 28.3702C20.7757 28.3539 20.7978 28.3318 20.8141 28.3155C20.8295 28.2992 20.8525 28.2762 20.8679 28.2608C20.8833 28.2445 20.9053 28.2214 20.9207 28.2042L22.8906 26.2496C22.9069 26.2333 22.93 26.2112 22.9453 26.1958L24.9114 24.2374C24.9277 24.2211 24.9508 24.199 24.9661 24.1827L26.5396 22.5939C26.5569 22.5795 26.5809 22.5584 26.5981 22.544L29.7182 19.448C29.7335 19.4317 29.7546 19.4067 29.77 19.3904L31.2369 17.911C31.2513 17.8928 31.2714 17.8688 31.2858 17.8505L31.7274 17.2179C31.7447 17.1901 31.7937 17.1065 31.809 17.0768C33.0369 14.8265 31.593 13.2022 29.2055 14.7939C27.8548 15.6953 26.1124 18.0109 24.8317 19.2531C24.0033 20.0576 23.4714 20.7747 22.7111 21.4928C21.8394 22.3146 21.3402 23.0355 20.5319 23.7814L16.256 28.3366C14.722 30.0522 13.6612 30.2749 13.0554 33.8471C12.6196 36.4122 14.1421 38.3005 16.0276 39.6032C16.9645 40.2503 17.5789 41.0288 18.8077 41.1853C20.1921 41.362 21.6532 41.2621 22.7649 40.7418C23.2881 40.497 23.7604 39.8346 24.1482 39.3901L24.6714 38.8247C24.6877 38.8093 24.7127 38.7882 24.7281 38.7728L25.0477 38.4253C25.0564 38.4138 25.1831 38.241 25.1879 38.2362L29.0174 34.3386C29.0327 34.3223 29.0548 34.2983 29.0702 34.2819L29.1758 34.1696C29.1911 34.1533 29.2132 34.1293 29.2286 34.113L32.3649 30.8154C32.3802 30.799 32.4023 30.7751 32.4177 30.7587L33.7002 29.4243C33.7156 29.408 33.7377 29.384 33.753 29.3677L35.1758 27.8499C35.1921 27.8336 35.2151 27.8115 35.2305 27.7962L35.6625 27.3546C35.6779 27.3382 35.6999 27.3142 35.7143 27.2979C35.7297 27.2816 35.7518 27.2576 35.7662 27.2413C35.7815 27.225 35.8036 27.201 35.818 27.1846L36.7617 26.169C37.5518 25.2982 38.4129 24.5341 39.1262 23.623L40.7236 21.9497C40.739 21.9334 40.7601 21.9094 40.7755 21.8931C40.7908 21.8768 40.8129 21.8528 40.8273 21.8365L42.1521 20.4358C42.1675 20.4195 42.1895 20.3955 42.2039 20.3792L42.467 20.0969C42.4823 20.0806 42.5044 20.0566 42.5198 20.0403C42.5352 20.024 42.5572 20 42.5726 19.9837C42.588 19.9673 42.61 19.9433 42.6254 19.927L44.3361 18.1529C44.3524 18.1366 44.3736 18.1117 44.3899 18.0953C44.4052 18.079 44.4273 18.0541 44.4427 18.0377L46.978 15.2307C46.9838 15.2221 47.1134 15.0425 47.1144 15.0406C47.2084 14.9043 47.2401 14.8409 47.3352 14.7113L48.2539 13.3443C48.5553 12.846 48.7195 12.3468 48.8462 11.7545C49.2264 9.98236 48.5716 7.84059 47.8536 6.36699C46.236 3.04538 40.4059 -0.462469 36.6235 0.0501726L36.6254 0.0472928Z" fill="white"/>
</svg>
