<svg width="31" height="38" viewBox="0 0 31 38" fill="none" xmlns="http://www.w3.org/2000/svg">
<path fill-rule="evenodd" clip-rule="evenodd" d="M6.07698 15.9134C6.07698 18.0776 8.16511 20.0935 10.4068 20.0935H10.8626C13.1043 20.0935 15.1924 18.0776 15.1924 15.9134V5.2067H26.055C27.2455 5.2067 27.8022 5.88191 27.8022 7.04004V32.7802C27.8022 33.9384 27.2455 34.6136 26.055 34.6136H4.86157C3.65336 34.6136 3.03848 34.02 3.03848 32.8536V6.96671C3.03848 5.80028 3.65336 5.2067 4.86157 5.2067H12.154V15.4001C12.154 17.1428 10.4721 17.6277 9.51122 16.6314C9.22318 16.3328 9.11546 15.9543 9.11546 15.4001V8.6534H6.07698V15.9134ZM18.155 20.1668H24.6877V17.2334H18.155V20.1668ZM18.155 14.3734H24.6877V11.4401H18.155V14.3734ZM6.07698 31.6802H18.6107V28.7469H6.07698V31.6802ZM6.07698 25.8868H24.6877V22.9535H6.07698V25.8868ZM6.68467 2.27334C4.45979 2.27334 3.38591 2.10055 1.98861 3.01981C1.02181 3.65586 0 4.9161 0 6.45338V33.3669C0 35.531 2.08813 37.5469 4.32985 37.5469H26.5108C28.6915 37.5469 30.8407 35.5309 30.8407 33.3669V6.45338C30.8407 4.62577 29.2553 2.80515 27.3778 2.38968C26.2995 2.15107 16.2323 2.27334 14.5847 2.27334C14.3561 1.32583 12.4634 0 10.8626 0C9.63617 0 9.09464 0.129856 8.11114 0.717115C7.68466 0.971773 6.80393 1.77914 6.68467 2.27334Z" fill="white"/>
</svg>
