<svg width="63" height="75" viewBox="0 0 63 75" fill="none" xmlns="http://www.w3.org/2000/svg">
<path fill-rule="evenodd" clip-rule="evenodd" d="M0.280066 68.026C0.890628 71.9006 2.97479 73.5941 7.12008 73.9829C10.6471 74.3131 39.8024 74.0097 44.8827 74.0117C54.7813 74.0165 62.2626 75.7502 62.7753 66.5486C63.5077 53.3822 55.1068 40.184 42.1496 36.5562C35.9394 34.8176 25.7365 34.8455 19.5368 36.7626C6.81672 40.6986 -1.67642 55.6055 0.280066 68.0251V68.026Z" fill="white"/>
<path fill-rule="evenodd" clip-rule="evenodd" d="M27.9632 0.374937C18.4073 2.4591 12.8393 11.5062 14.5289 20.1222C15.9891 27.567 24.4457 35.9161 34.3117 33.591C42.247 31.7209 49.6141 24.1955 47.7075 13.7017C46.281 5.84983 37.927 -1.79851 27.9632 0.374937Z" fill="white"/>
</svg>
