<svg width="54" height="36" viewBox="0 0 54 36" fill="none" xmlns="http://www.w3.org/2000/svg">
<path fill-rule="evenodd" clip-rule="evenodd" d="M34.9199 30.9509C34.6338 29.795 33.7218 29.0961 33.1007 28.4923L24.0449 19.6305L43.8853 19.594C47.9912 19.4606 49.6079 24.5256 49.6521 29.4629C49.6828 32.9554 51.6901 35.4408 52.5973 35.7739C52.8258 35.8574 55.8806 15.5342 44.9423 15.6868L23.3384 15.6887L34.22 4.98568C36.6277 2.21031 33.0517 -2.22298 29.4114 1.30887L20.8011 9.82602C20.0619 10.5383 19.4014 11.1815 18.6603 11.891C17.6801 12.8308 14.9912 15.1463 14.5784 16.3224C13.698 18.828 16.0702 19.9963 17.5275 21.6052C18.9905 23.22 30.0613 33.997 30.5221 34.2523C32.8712 35.5522 35.5583 33.5189 34.9218 30.9509H34.9199Z" fill="white"/>
<path fill-rule="evenodd" clip-rule="evenodd" d="M20.5525 3.60263C20.2885 4.8276 19.3918 5.47656 18.7602 6.08136L16.6232 8.25097C15.4779 9.35689 10.9448 13.6078 10.1009 14.5505C9.6651 15.0372 9.4875 15.2417 9.05646 15.6593C7.62797 17.0407 7.10861 17.1895 7.89005 17.9432L17.6504 27.4673C19.0702 28.8334 21.3886 30.404 20.4027 32.851C20.0619 33.6958 19.1038 34.4946 17.997 34.629C16.4734 34.8133 15.7333 33.9819 15.0709 33.3301C14.3403 32.612 13.6712 31.9707 12.931 31.2641L10.7902 29.0974C10.0357 28.3678 9.3579 27.7083 8.59949 26.9797C7.12877 25.5685 5.75213 24.1899 4.26892 22.796C3.88684 22.4369 3.60268 22.0529 3.22444 21.6872C2.83372 21.3099 2.51884 21.0056 2.12908 20.6283C1.5358 20.0561 0.507634 19.2699 0.163953 18.2782C-0.619409 16.0145 1.57804 14.5159 3.08236 13.0711L7.41389 8.78761C8.65709 7.58185 15.4846 0.748548 16.0875 0.432707C18.405 -0.783616 21.115 0.997188 20.5534 3.6036L20.5525 3.60263Z" fill="white"/>
</svg>
