<?xml version="1.0" encoding="UTF-8"?>
<!DOCTYPE svg PUBLIC "-//W3C//DTD SVG 1.1//EN" "http://www.w3.org/Graphics/SVG/1.1/DTD/svg11.dtd">
<!-- Creator: CorelDRAW -->
<svg xmlns="http://www.w3.org/2000/svg" xml:space="preserve" width="0.787402in" height="0.787402in" version="1.1" style="shape-rendering:geometricPrecision; text-rendering:geometricPrecision; image-rendering:optimizeQuality; fill-rule:evenodd; clip-rule:evenodd"
viewBox="0 0 787.4 787.4"
 xmlns:xlink="http://www.w3.org/1999/xlink"
 xmlns:xodm="http://www.corel.com/coreldraw/odm/2003">
 <defs>
  <style type="text/css">
   <![CDATA[
    .fil0 {fill:black}
   ]]>
  </style>
 </defs>
 <g id="Layer_x0020_1">
  <metadata id="CorelCorpID_0Corel-Layer"/>
  <path class="fil0" d="M335.6 653.72l110.17 0c-3.31,6.91 -3.14,9.06 -8.26,15.35 -5,6.15 -5.66,6.81 -11.8,11.8 -23.56,19.15 -59.8,15.32 -81.85,-11.8 -5.11,-6.29 -4.94,-8.44 -8.26,-15.35zm51.34 -592.79l7.48 0c17.76,1.08 35.09,9.9 45.88,26.44 11.93,18.28 9.4,34.12 9.4,62.74 7.75,0.65 23.68,9.74 30.18,13.09 8.82,4.55 17.08,11.19 24.73,17.24 16.67,13.18 27.69,28.03 39.53,45.72 28.49,42.57 25.16,93.23 24.89,144.29 -0.06,12.43 1.34,28.59 3.02,40.25 3.45,23.87 9.99,42.45 20.13,63.81 2.77,5.84 4.6,8.04 7.77,13.21l17.59 25.69c22.74,29.73 19.43,20.41 35.44,27.52 30.9,13.73 43.53,52.69 26.66,83.08 -3.9,7.02 -8.82,11.81 -14.54,16.94 -5.52,4.94 -12.63,8.19 -20.82,10.66 -14.34,4.33 -134.95,2.13 -156.56,2.13 -4.92,10.26 -7.67,35.5 -32.02,54.54 -18.48,14.44 -38.07,22.52 -57.77,24.15l-15.04 0c-19.83,-1.65 -39.51,-9.86 -57.99,-24.72 -10.09,-8.11 -21.58,-25.18 -26.21,-38.05 -1.45,-4.02 -3.35,-12.35 -5.06,-15.92 -22.93,0 -141.91,2.44 -157.57,-2.44 -23.34,-7.27 -41.78,-29.66 -41.78,-52.65 0,-56.21 45.33,-59.04 51.41,-64l19.23 -22.74c3.19,-4.26 5.74,-7.47 8.85,-12.14l16.24 -27.04c38.84,-87.85 12.52,-124.35 25.72,-185.44 8.68,-40.17 32.19,-82.61 62.72,-106.46 14.5,-11.33 34.93,-26.45 53.22,-30.71 0,-28.61 -2.53,-44.45 9.39,-62.74 10.79,-16.55 28.12,-25.36 45.88,-26.44zm-229.7 514.1l466.89 0c31.15,0 31.15,39.34 0,39.34l-466.89 0c-31.15,0 -31.15,-39.34 0,-39.34zm426.23 -39.35l-385.58 0c4.91,-9.28 15.61,-20.6 26.23,-41.96 40.15,-80.74 21.26,-107.44 28.65,-177.25 2.26,-21.35 2.72,-33.46 13.3,-54.9 12.01,-24.34 25.42,-40.88 46.66,-56.95 15.57,-11.78 41.19,-22.21 61.08,-24.16 41.87,-4.11 84.19,8.44 113.6,38.17 30.13,30.45 37.56,54.94 42.09,95.61 6.11,54.78 -10.97,82.28 16.69,155.12 3.74,9.85 6.21,14.68 10.61,23.49 11,22.07 21.54,33.14 26.67,42.84zm-212.46 -411.8c0,-15.34 10.55,-27.31 26.01,-22.14 14.76,4.94 13.33,19.57 13.33,39.19 -5.12,-2.88 -31.78,-1.31 -39.34,-1.31l0 -15.74z"/>
 </g>
</svg>
