<svg width="51" height="61" viewBox="0 0 51 61" fill="none" xmlns="http://www.w3.org/2000/svg">
<path fill-rule="evenodd" clip-rule="evenodd" d="M9.29135 13.9769C9.44207 13.8175 10.019 13.8943 10.2369 13.8953L13.2946 13.8962C14.6539 13.8962 16.0133 13.8924 17.3726 13.8933C20.0674 13.8933 22.7698 13.877 25.4636 13.8953C26.8642 13.9049 40.8293 13.8185 41.6761 13.9125C41.8028 14.2485 41.726 31.8051 41.726 33.7568L41.7327 53.0615C41.7318 53.385 41.7452 53.4109 41.6405 53.5895C41.63 54.2451 41.1135 54.8384 40.7679 55.1149C40.2802 55.5056 39.6226 55.5757 38.8402 55.5738L24.6331 55.568C21.4776 55.5709 18.3019 55.6016 15.1483 55.5699C14.0261 55.5584 11.4226 55.7495 10.572 55.3376C9.16367 54.6551 9.28175 53.3571 9.27695 51.9142C9.25967 45.5926 9.24335 39.2489 9.28079 32.9283L9.27695 18.6569C9.27599 17.1574 9.20591 15.4495 9.28847 13.9759L9.29135 13.9769ZM18.5391 7.12533C18.5391 6.26709 18.8568 5.69109 19.2168 5.33781C19.5586 5.00181 20.0165 4.65908 21.0043 4.65908L27.8213 4.66293C29.6972 4.65429 31.1938 4.41045 32.0741 5.69205C32.5964 6.45429 32.4543 8.20534 32.4264 9.28918C30.878 9.30262 19.1621 9.33622 18.54 9.26998V7.12533H18.5391ZM4.65742 13.9164C4.61134 16.7148 4.65358 19.5506 4.65358 22.351L4.6603 51.7213C4.6603 53.1085 4.60942 54.2749 5.04046 55.5152C5.7307 57.5034 7.37422 59.1181 9.22031 59.7661L10.4002 60.0896C11.629 60.3066 24.2031 60.2048 25.5269 60.1923C29.7279 60.1549 33.9624 60.2317 38.1423 60.1943C39.5065 60.1818 40.2121 60.2615 41.4956 59.8583L42.6073 59.3696C43.5692 58.8522 44.5638 58.0592 45.1119 57.1587L45.9615 55.4058C46.4223 54.0647 46.3167 52.9539 46.3167 51.5312V18.0194C46.3129 17.2255 46.2121 14.5058 46.3446 13.9164L50.9459 13.9097L50.9756 9.29398L37.0633 9.28726C37.0469 8.42518 37.0911 7.53045 37.0527 6.67797C36.8962 3.19028 34.1314 0.260354 30.6274 0.0558734C29.0031 -0.0391668 27.1128 0.0289933 25.4645 0.0385933C21.9922 0.0597134 18.901 -0.427007 16.5778 1.54292C16.1832 1.877 15.5496 2.46452 15.2837 2.86676C13.6546 5.32725 13.9646 6.21621 13.9166 9.29398L0.0714845 9.32758C-0.0216357 9.62806 -0.0216362 13.5122 0.059004 13.9193L4.65838 13.9173L4.65742 13.9164Z" fill="white"/>
<path fill-rule="evenodd" clip-rule="evenodd" d="M32.4346 50.972C32.7888 50.8779 36.6605 50.8904 37.0829 50.9797L37.0589 18.5748L32.4509 18.5518L32.4346 50.971V50.972Z" fill="white"/>
<path fill-rule="evenodd" clip-rule="evenodd" d="M23.1758 50.9374C24.0791 50.9585 27.3124 50.8663 27.8376 50.9729C27.683 50.1991 27.8059 47.897 27.7982 46.9514C27.7444 40.2525 27.876 33.3876 27.8001 26.6944C27.7809 25.0288 27.8971 19.673 27.7838 18.569L23.1921 18.5479L23.1767 50.9374H23.1758Z" fill="white"/>
<path fill-rule="evenodd" clip-rule="evenodd" d="M13.918 50.9393L18.5125 50.9403L18.5413 18.5488L13.94 18.5517L13.918 50.9393Z" fill="white"/>
<path fill-rule="evenodd" clip-rule="evenodd" d="M41.6422 53.5894C41.7468 53.4108 41.7334 53.3849 41.7343 53.0614L41.7276 33.7567C41.7276 31.805 41.8044 14.2485 41.6777 13.9125C40.83 13.8184 26.8658 13.9048 25.4652 13.8952C22.7704 13.877 20.069 13.8933 17.3743 13.8933C16.0149 13.8933 14.6555 13.8962 13.2962 13.8962L10.2386 13.8952C10.0207 13.8933 9.44369 13.8175 9.29297 13.9768L41.6566 13.9634C41.7526 14.6315 41.6479 15.6453 41.6642 16.3691C41.7161 18.6828 41.6556 21.4629 41.6623 23.8178C41.6815 30.3228 41.7161 37.1494 41.6623 43.6332C41.6479 45.2892 41.7036 46.9606 41.6633 48.607C41.6259 50.1727 41.7939 52.1024 41.6441 53.5894H41.6422Z" fill="white"/>
</svg>
