<?xml version="1.0" encoding="UTF-8"?>
<!DOCTYPE svg PUBLIC "-//W3C//DTD SVG 1.1//EN" "http://www.w3.org/Graphics/SVG/1.1/DTD/svg11.dtd">
<!-- Creator: CorelDRAW -->
<svg xmlns="http://www.w3.org/2000/svg" xml:space="preserve" width="0.787402in" height="0.787402in" version="1.1" style="shape-rendering:geometricPrecision; text-rendering:geometricPrecision; image-rendering:optimizeQuality; fill-rule:evenodd; clip-rule:evenodd"
viewBox="0 0 787.4 787.4"
 xmlns:xlink="http://www.w3.org/1999/xlink"
 xmlns:xodm="http://www.corel.com/coreldraw/odm/2003">
 <defs>
  <style type="text/css">
   <![CDATA[
    .fil0 {fill:black}
   ]]>
  </style>
 </defs>
 <g id="Layer_x0020_1">
  <metadata id="CorelCorpID_0Corel-Layer"/>
  <path class="fil0" d="M107.17 450.89c13.87,-3.24 80.12,-0.56 99.6,-0.65 20.17,-0.1 16.58,0.17 27.63,22.25 18.63,37.26 31.61,74.74 63.38,90.69 27.68,13.89 58.38,9.87 91.8,9.87 29.95,0 68.46,3.73 92.98,-8.71 34.12,-17.32 43.99,-49.51 63.72,-88.98 2.89,-5.77 5.77,-11.53 8.59,-17.32 4.38,-8.98 5.59,-7.89 17.48,-7.82 33.98,0.2 68.02,0.02 102.02,0.02 3.08,15.98 0.17,69.85 -1.97,87.47 -3.28,27.06 -8.85,49.58 -19.97,71.2 -46.64,90.74 -192.35,71.57 -291.64,71.57 -55.86,0 -117.84,3.6 -167.48,-15.83 -27.3,-10.69 -49.05,-29.38 -61.17,-51.06 -4.72,-8.45 -13.89,-35.71 -39.33,-21.67 -9.74,5.38 -13.59,18.87 -7.32,32.38 4.44,9.56 12.03,21.61 17.3,28.71 13.08,17.61 27.07,29.69 48.28,42.39 40.22,24.06 96.63,30.93 150.7,31.2 60.76,0.3 122.07,0.54 182.81,-0.03 122.12,-1.14 196.74,-37.88 224.98,-138.25 14.94,-53.12 11.6,-113.74 11.6,-170.3 0,-72.5 3.72,-168.73 -49.26,-224.72 -34.01,-35.95 -65.84,-52.68 -120.64,-60.87 -34.46,-5.15 -38.98,36.61 -13.84,44.17 27.15,8.17 63.79,8.76 94.99,40.31 51.43,52 37.76,137.34 43.11,187.66 -28.7,-3 -71.44,-0.44 -101.7,-0.49 -17.18,-0.03 -28.3,1.43 -40.55,9.39 -11.7,7.61 -14.69,14.41 -22.26,29.59 -5.72,11.47 -11.05,22.11 -16.79,33.59 -12.96,25.91 -18.3,49.85 -51.33,50.26l-102.32 0c-33.5,-0.25 -38.93,-23.7 -51.47,-48.77 -5.75,-11.51 -11.51,-22.95 -17.28,-34.54 -14.39,-28.92 -27.14,-39.57 -62.19,-39.52 -16.84,0.03 -91.85,-0.99 -101.72,0.49 -5.42,-26.61 1.11,-98.84 9.72,-128.96 16.52,-57.74 53.89,-85.53 112.54,-96.25 10.68,-1.95 19.93,-2.9 25.09,-9.32 5.33,-6.65 6.83,-18.7 2.05,-27.15 -9.49,-16.8 -32.07,-10.01 -51.81,-5.3 -17.57,4.19 -36.77,11.07 -51.08,19.38 -16.5,9.57 -28.24,18.23 -39.02,30.1 -10.96,12.06 -19.81,22.89 -28.58,40.52 -34.65,69.61 -25.69,171.13 -25.99,250.89 -0.04,11.61 0.85,21.95 7.56,27.52 5.98,4.96 17.88,7.6 26.36,2.98 18.16,-9.9 11.03,-35.93 12.42,-58.12z"/>
 </g>
</svg>
