<svg width="26" height="34" viewBox="0 0 26 34" fill="none" xmlns="http://www.w3.org/2000/svg">
<path fill-rule="evenodd" clip-rule="evenodd" d="M2.67264 29.528H25.2696C26.2996 29.528 24.8773 30.5926 24.8773 31.6637C24.8773 32.7349 26.2962 33.4357 25.2696 33.4357H2.67264C1.64264 33.4357 0.799967 32.5565 0.799967 31.4819C0.799967 30.4072 1.64264 29.528 2.67264 29.528Z" fill="#271C1C" fill-opacity="0.38"/>
<path fill-rule="evenodd" clip-rule="evenodd" d="M1.0394 31.7802H24.4995C24.5608 31.7802 24.611 31.8315 24.611 31.8942C24.611 31.9571 24.5608 32.0083 24.4995 32.0083H1.0394C0.977957 32.0083 0.927962 31.9569 0.927962 31.8942C0.927962 31.8313 0.977957 31.7802 1.0394 31.7802Z" fill="white" fill-opacity="0.6"/>
<path fill-rule="evenodd" clip-rule="evenodd" d="M1.22819 32.1871H24.7596C24.821 32.1871 24.871 32.2384 24.871 32.3011C24.871 32.364 24.821 32.4151 24.7596 32.4151H1.22819C1.16675 32.4151 1.11675 32.3638 1.11675 32.3011C1.11675 32.2382 1.16695 32.1871 1.22819 32.1871Z" fill="white" fill-opacity="0.8"/>
<path fill-rule="evenodd" clip-rule="evenodd" d="M1.51298 32.5841H24.9402C25.0016 32.5841 25.0516 32.6355 25.0516 32.6982C25.0516 32.761 25.0014 32.8122 24.9402 32.8122H1.51298C1.45174 32.8122 1.40154 32.7608 1.40154 32.6982C1.40154 32.6353 1.45174 32.5841 1.51298 32.5841Z" fill="white" fill-opacity="0.6"/>
<path fill-rule="evenodd" clip-rule="evenodd" d="M2.16915 32.9812H25.3468C25.4082 32.9812 25.4584 33.0325 25.4584 33.0952C25.4584 33.1581 25.4082 33.2092 25.3468 33.2092H2.16915C2.10771 33.2092 2.05752 33.1579 2.05752 33.0952C2.05752 33.0323 2.10771 32.9812 2.16915 32.9812Z" fill="white" fill-opacity="0.9"/>
<path fill-rule="evenodd" clip-rule="evenodd" d="M1.0074 31.1978H24.7251C24.7864 31.1978 24.8366 31.1464 24.8366 31.0837C24.8366 31.0208 24.7864 30.9697 24.7251 30.9697H1.0074C0.945958 30.9697 0.895964 31.0211 0.895964 31.0837C0.895964 31.1466 0.945958 31.1978 1.0074 31.1978Z" fill="white" fill-opacity="0.9"/>
<path fill-rule="evenodd" clip-rule="evenodd" d="M0.978598 31.6046H24.5588C24.6202 31.6046 24.6702 31.5533 24.6702 31.4906C24.6702 31.4277 24.62 31.3766 24.5588 31.3766H0.978598C0.917159 31.3766 0.867165 31.4279 0.867165 31.4906C0.867165 31.5535 0.91736 31.6046 0.978598 31.6046Z" fill="white" fill-opacity="0.8"/>
<path fill-rule="evenodd" clip-rule="evenodd" d="M1.19939 30.7909H24.8816C24.943 30.7909 24.993 30.7395 24.993 30.6768C24.993 30.614 24.9428 30.5628 24.8816 30.5628H1.19939C1.13815 30.5628 1.08796 30.6142 1.08796 30.6768C1.08796 30.7397 1.13815 30.7909 1.19939 30.7909Z" fill="white" fill-opacity="0.7"/>
<path fill-rule="evenodd" clip-rule="evenodd" d="M1.48098 30.3938H25.064C25.1254 30.3938 25.1754 30.3425 25.1754 30.2798C25.1754 30.2169 25.1252 30.1658 25.064 30.1658H1.48098C1.41954 30.1658 1.36954 30.2171 1.36954 30.2798C1.36954 30.3427 1.41974 30.3938 1.48098 30.3938Z" fill="white" fill-opacity="0.79"/>
<path fill-rule="evenodd" clip-rule="evenodd" d="M2.14335 29.9959H25.3212C25.3826 29.9959 25.4326 29.9446 25.4326 29.8819C25.4326 29.819 25.3824 29.7679 25.3212 29.7679H2.14335C2.08191 29.7679 2.03192 29.8192 2.03192 29.8819C2.03192 29.9448 2.08211 29.9959 2.14335 29.9959Z" fill="white"/>
<path fill-rule="evenodd" clip-rule="evenodd" d="M25.9992 28.9901L25.9761 3.34493C25.9745 1.50511 24.5052 0 22.7076 0H3.26408C1.46891 0 0 1.50326 0 3.34041V32.1709C0 33.1707 0.799305 33.9889 1.7763 33.9889C9.7284 33.9926 17.6805 33.9963 25.6326 34C25.8536 33.9075 25.9621 33.6406 25.6382 33.4327L2.69648 33.4388C1.65202 33.4391 0.797298 32.559 0.797298 31.4831C0.797298 30.4077 1.65182 29.5276 2.69648 29.5276C10.2755 29.5276 17.8548 29.5276 25.434 29.5276C26.0412 29.5276 25.9998 29.5823 25.9992 28.9901Z" fill="white"/>
</svg>
