<?xml version="1.0" encoding="UTF-8"?>
<!DOCTYPE svg PUBLIC "-//W3C//DTD SVG 1.1//EN" "http://www.w3.org/Graphics/SVG/1.1/DTD/svg11.dtd">
<!-- Creator: CorelDRAW -->
<svg xmlns="http://www.w3.org/2000/svg" xml:space="preserve" width="0.787402in" height="0.787402in" version="1.1" style="shape-rendering:geometricPrecision; text-rendering:geometricPrecision; image-rendering:optimizeQuality; fill-rule:evenodd; clip-rule:evenodd"
viewBox="0 0 787.4 787.4"
 xmlns:xlink="http://www.w3.org/1999/xlink"
 xmlns:xodm="http://www.corel.com/coreldraw/odm/2003">
 <defs>
  <style type="text/css">
   <![CDATA[
    .fil6 {fill:none}
    .fil5 {fill:#FFFBD6}
    .fil3 {fill:#493D4A}
    .fil0 {fill:#E0DAE7}
    .fil4 {fill:#E6E6E6}
    .fil1 {fill:url(#id1)}
    .fil2 {fill:url(#id2)}
   ]]>
  </style>
    <clipPath id="id0">
     <path d="M100.41 508.05l583.62 6.02c6.07,0.06 12.19,-8.29 11.11,-18.2l-33.05 -304.46c-1.07,-9.91 -4.91,-18.42 -10.98,-18.43l-515.13 -0.52c-6.07,-0.01 -9.94,8.33 -11.11,18.2l-35.44 298.96c-1.17,9.87 4.91,18.37 10.98,18.43z"/>
    </clipPath>
  <linearGradient id="id1" gradientUnits="userSpaceOnUse" x1="402.76" y1="613.3" x2="384" y2="217.84">
   <stop offset="0" style="stop-opacity:1; stop-color:#AAA1D1"/>
   <stop offset="1" style="stop-opacity:1; stop-color:#FEFEFE"/>
  </linearGradient>
  <linearGradient id="id2" gradientUnits="userSpaceOnUse" x1="404.45" y1="577.02" x2="377.79" y2="173.51">
   <stop offset="0" style="stop-opacity:1; stop-color:#6C6080"/>
   <stop offset="1" style="stop-opacity:1; stop-color:#FEFEFE"/>
  </linearGradient>
 </defs>
 <g id="Layer_x0020_1">
  <metadata id="CorelCorpID_0Corel-Layer"/>
  <g id="_2505760710576">
   <path class="fil0" d="M69.45 636.8l642.37 6.82c6.69,0.07 13.42,-9.39 12.24,-20.63l-36.37 -345c-1.19,-11.24 -5.41,-20.88 -12.09,-20.88l-566.99 -0.59c-6.68,-0 -10.95,9.44 -12.23,20.63l-39.01 338.78c-1.29,11.19 5.39,20.81 12.08,20.88z"/>
   <path class="fil1" d="M74.64 602.3l637.35 6.82c6.63,0.07 13.31,-9.39 12.14,-20.63l-36.09 -345c-1.17,-11.24 -5.37,-20.88 -11.99,-20.88l-562.56 -0.59c-6.63,-0 -10.86,9.44 -12.14,20.63l-38.7 338.78c-1.28,11.19 5.35,20.81 11.99,20.88z"/>
   <path class="fil2" d="M78.03 561.99l626.06 6.82c6.52,0.07 13.08,-9.39 11.93,-20.63l-35.45 -345c-1.15,-11.23 -5.27,-20.87 -11.78,-20.88l-552.59 -0.59c-6.51,-0.01 -10.67,9.44 -11.93,20.63l-38.02 338.77c-1.25,11.19 5.26,20.81 11.78,20.88z"/>
   <path class="fil3" d="M82.13 529.99l618.87 6.82c6.44,0.07 12.93,-9.39 11.78,-20.63l-35.04 -345c-1.14,-11.23 -5.21,-20.88 -11.64,-20.88l-546.24 -0.59c-6.43,-0.01 -10.54,9.44 -11.78,20.62l-37.58 338.78c-1.24,11.19 5.2,20.81 11.64,20.88z"/>
   <path class="fil4" d="M100.41 508.05l583.62 6.02c6.07,0.06 12.19,-8.29 11.11,-18.2l-33.05 -304.46c-1.07,-9.91 -4.91,-18.42 -10.98,-18.43l-515.13 -0.52c-6.07,-0.01 -9.94,8.33 -11.11,18.2l-35.44 298.96c-1.17,9.87 4.91,18.37 10.98,18.43z"/>
   <g style="clip-path:url(#id0)">
    <g>
     <circle class="fil5" cx="596.5" cy="292.24" r="36.05"/>
    </g>
   </g>
   <path class="fil6" d="M100.41 508.05l583.62 6.02c6.07,0.06 12.19,-8.29 11.11,-18.2l-33.05 -304.46c-1.07,-9.91 -4.91,-18.42 -10.98,-18.43l-515.13 -0.52c-6.07,-0.01 -9.94,8.33 -11.11,18.2l-35.44 298.96c-1.17,9.87 4.91,18.37 10.98,18.43z"/>
  </g>
 </g>
</svg>
