<svg width="56" height="37" viewBox="0 0 56 37" fill="none" xmlns="http://www.w3.org/2000/svg">
<path fill-rule="evenodd" clip-rule="evenodd" d="M5.04318 0H50.8391C53.4791 0 55.6391 2.16001 55.6391 4.80001V8.24258H0.244124V4.80001C0.244124 2.16001 2.40317 0 5.04414 0H5.04318ZM55.6391 13.6925V31.7943C55.6391 34.4343 53.4801 36.5943 50.8391 36.5943H5.04318C2.40317 36.5943 0.243164 34.4343 0.243164 31.7943V13.6925H55.6382H55.6391Z" fill="#3E3E3E"/>
<path fill-rule="evenodd" clip-rule="evenodd" d="M7.19521 18.6025H21.4733C22.6599 18.6025 23.6305 19.5731 23.6305 20.7597C23.6305 21.9472 22.6599 22.9168 21.4733 22.9168H7.19521C6.00865 22.9168 5.03809 21.9462 5.03809 20.7597C5.03809 19.5731 6.00865 18.6025 7.19521 18.6025Z" fill="#E6E6E6" fill-opacity="0.85098"/>
<path fill-rule="evenodd" clip-rule="evenodd" d="M5.96043 31.1895H12.8955C13.4725 31.1895 13.9429 31.6608 13.9429 32.2368C13.9429 32.8128 13.4715 33.2842 12.8955 33.2842H5.96043C5.38347 33.2842 4.91211 32.8128 4.91211 32.2368C4.91211 31.6608 5.38347 31.1895 5.96043 31.1895Z" fill="white" fill-opacity="0.811765"/>
<path fill-rule="evenodd" clip-rule="evenodd" d="M18.2866 31.2256H25.2217C25.7986 31.2256 26.269 31.6969 26.269 32.2729C26.269 32.8489 25.7977 33.3203 25.2217 33.3203H18.2866C17.7096 33.3203 17.2383 32.8489 17.2383 32.2729C17.2383 31.6969 17.7096 31.2256 18.2866 31.2256Z" fill="white" fill-opacity="0.811765"/>
<path fill-rule="evenodd" clip-rule="evenodd" d="M31.2593 31.4121H38.1943C38.7713 31.4121 39.2417 31.8835 39.2417 32.4595C39.2417 33.0355 38.7703 33.5068 38.1943 33.5068H31.2593C30.6823 33.5068 30.2109 33.0355 30.2109 32.4595C30.2109 31.8835 30.6823 31.4121 31.2593 31.4121Z" fill="white" fill-opacity="0.811765"/>
<path fill-rule="evenodd" clip-rule="evenodd" d="M41.8071 31.582H48.7422C49.3191 31.582 49.7895 32.0534 49.7895 32.6294C49.7895 33.2054 49.3182 33.6768 48.7422 33.6768H41.8071C41.2301 33.6768 40.7588 33.2054 40.7588 32.6294C40.7588 32.0534 41.2301 31.582 41.8071 31.582Z" fill="white" fill-opacity="0.811765"/>
<path fill-rule="evenodd" clip-rule="evenodd" d="M41.4461 22.0507L44.5507 18.947C45.1728 18.3249 46.1904 18.3249 46.8134 18.947L49.9171 22.0507C50.5392 22.6728 50.5392 23.6904 49.9171 24.3134L46.8134 27.4171C46.1913 28.0392 45.1728 28.0392 44.5507 27.4171L41.4461 24.3134C40.824 23.6914 40.824 22.6738 41.4461 22.0507Z" fill="white" fill-opacity="0.85098"/>
<path fill-rule="evenodd" clip-rule="evenodd" d="M37.322 22.0507L40.4267 18.947C41.0488 18.3249 42.0664 18.3249 42.6894 18.947L45.7931 22.0507C46.4152 22.6728 46.4152 23.6904 45.7931 24.3134L42.6894 27.4171C42.0673 28.0392 41.0488 28.0392 40.4267 27.4171L37.322 24.3134C36.6999 23.6914 36.6999 22.6738 37.322 22.0507Z" fill="white" fill-opacity="0.890196"/>
</svg>
