<svg width="53" height="53" viewBox="0 0 53 53" fill="none" xmlns="http://www.w3.org/2000/svg">
<path fill-rule="evenodd" clip-rule="evenodd" d="M23.8603 33.7914C24.3816 32.5261 24.6783 32.9361 24.7032 32.9389C24.9403 33.4919 24.5439 33.9162 23.8603 33.7914ZM33.9749 28.1783C33.3874 28.5911 33.4047 28.2109 32.8104 27.7501C31.3052 26.5818 31.6018 25.7552 33.036 27.1837C33.4009 27.5476 33.6533 27.8682 33.9749 28.1792V28.1783ZM31.0824 25.9309L31.6988 25.9549C31.718 26.0087 32.0828 26.241 31.5884 26.4522C30.9912 26.7066 31.1362 26.0413 31.0824 25.9309ZM32.4812 23.1767C32.7845 22.2771 35.2268 20.1354 36.037 19.4442C37.2284 18.4275 36.6389 18.6503 37.9388 17.7527C38.6722 17.2467 39.2645 16.6256 40.0277 16.064C39.6629 16.6928 36.6725 19.2647 35.5887 20.5338L32.4812 23.1767ZM44.3708 12.1117C43.9801 12.9152 42.4422 14.0624 41.6962 14.5846C42.1244 13.8762 43.7036 12.4582 44.3708 12.1117ZM14.8997 10.9443L19.3071 15.4698C20.6213 16.9798 22.9464 19.0919 23.5637 20.2074C22.9464 19.8675 22.861 19.6583 22.2994 19.1341C20.8498 17.7805 19.2226 16.1782 17.9669 14.5818L14.8997 10.9443ZM44.3708 12.1117C44.5772 11.4771 50.8921 6.13278 51.4931 5.69118C52.0134 5.3091 51.9807 5.5203 52.1622 4.81086C52.9475 1.74653 50.415 0.535006 48.7321 2.24477C48.35 2.63357 48.2723 2.75069 47.8873 2.99837C47.2134 2.68541 47.4015 2.58077 46.909 2.14685C46.479 2.53181 46.2486 2.71037 45.7618 3.20573L41.9401 6.51198L45.5602 2.83421C45.9836 2.43293 46.6383 2.10461 46.67 1.43357C45.3471 0.616606 44.2162 2.04893 43.5548 2.70845C43.0738 3.18845 42.7935 3.37661 42.3577 3.89789C41.9247 4.41534 41.6098 4.78494 41.1452 5.24862C38.7605 7.62846 35.6185 9.77407 33.2799 12.0762L28.141 16.8397C27.2223 17.6163 26.6117 18.2634 25.5125 19.1101C24.4997 18.729 22.2216 15.6339 21.0447 14.9091L24.2107 18.4179C24.7781 18.9891 25.285 19.1485 24.9835 19.4903C24.5055 19.8195 24.8108 19.8176 24.3221 19.3568C23.4351 18.5197 19.9819 14.3734 17.9227 12.4102C17.3659 11.8784 15.9202 10.4509 15.3115 10.0649C15.5333 9.46975 15.5429 9.91231 15.7445 9.25951L11.4254 4.55837C10.1707 3.29213 8.84207 1.01501 6.41134 0.573405C6.77038 1.35101 9.97487 5.28318 10.4616 5.86014L14.9006 10.9443C14.3054 10.473 13.645 9.57151 13.1074 9.02623L5.96206 1.14077C5.22574 0.205725 4.96654 -0.120676 3.30765 0.0386841C2.12493 0.151964 1.44717 0.777886 1.54605 2.08541C1.65933 3.58397 2.50797 3.48797 2.99949 4.47774C2.59053 5.26398 2.69613 4.75038 2.17773 5.33214C3.7723 7.28862 5.62414 9.12223 7.19663 11.0749C6.32014 10.1658 5.34574 9.30751 4.41838 8.31967C3.88078 7.7475 2.03757 5.6211 1.50285 5.59614C0.187648 7.17054 3.66286 9.61183 4.92046 10.8944C5.77486 11.7661 6.33454 12.2365 7.1515 13.2762C8.93423 15.5446 17.9131 25.2349 18.2127 25.8291L12.5093 32.1248C10.116 34.7629 5.90158 38.3025 3.42478 41.145C2.51661 42.1876 1.57389 43.2004 0.755969 44.4532C-1.20244 47.4532 0.873088 48.7435 4.35598 47.2084C5.43886 46.7313 5.53006 46.2321 6.37006 46.8426C6.08686 47.7585 5.0779 47.889 4.79278 49.0007C4.54414 49.9703 6.08014 50.8238 6.67342 51.0292C7.06991 50.1412 10.2725 47.8065 11.5272 47.0289C12.9595 46.1418 19.1429 39.5946 20.6386 38.0317C21.3048 37.3367 22.1823 36.5457 22.884 35.8391C23.6626 35.0548 24.3615 34.2263 25.1717 33.5053C25.8725 33.8548 32.0568 39.7434 33.1733 40.8849C33.7215 41.4445 34.1237 41.8746 34.7353 42.3978C37.1391 44.4503 40.1276 48.6388 44.3122 51.4353C45.5622 52.2705 47.8172 53.0606 47.8633 50.5915C47.9151 47.841 45.9154 47.0567 46.8639 45.9882C47.4668 46.1006 47.0655 45.9383 47.511 46.3626C49.2044 47.9774 49.4195 47.9793 50.7923 46.1418C50.9919 45.875 50.8508 46.1303 51.0169 45.8126C50.3718 44.9198 49.5519 44.2497 48.7618 43.2302C48.0226 42.2759 47.5446 41.4436 46.8169 40.3914C45.7714 38.8785 36.5189 30.3786 34.8044 28.4912C34.165 27.7876 32.7548 26.5837 32.4792 25.9242C32.9861 25.5652 34.0239 24.512 34.2927 24.0195C34.0882 24.1501 31.6383 26.6471 31.9695 25.3674C32.0636 25.0035 35.1529 22.3511 35.6261 21.9421C37.0594 20.7037 41.1673 16.6755 42.2674 15.2749C42.759 15.559 42.4882 15.5706 43.1238 15.7568C44.39 14.2794 46.2476 12.8221 47.7183 11.4819C49.3993 9.95071 51.2185 8.65855 51.6927 6.46302C49.7459 7.35774 45.3567 11.6538 44.3718 12.1126L44.3708 12.1117Z" fill="white"/>
</svg>
