<svg width="70" height="75" viewBox="0 0 70 75" fill="none" xmlns="http://www.w3.org/2000/svg">
<path d="M42.3098 68.9629H31.0586V73.5719H42.3098V68.9629Z" fill="white"/>
<path fill-rule="evenodd" clip-rule="evenodd" d="M5.72257 39.2852L37.6052 7.40258L59.188 28.9854L27.3053 60.868L5.72257 39.2852ZM38.4049 0L0 38.4049L28.3201 66.7259L66.725 28.321L38.4049 0Z" fill="white"/>
<path fill-rule="evenodd" clip-rule="evenodd" d="M10.7578 68.2236V74.2947H45.2411V68.2236H10.7578ZM13.6858 73.5728V68.9465H42.3131V73.5728H13.6858Z" fill="white"/>
<path fill-rule="evenodd" clip-rule="evenodd" d="M8.67188 40.576C21.294 30.6409 31.4403 44.4889 44.4348 42.5565L33.6502 53.4083L27.2182 60.1591L18.9861 51.6602L8.67188 40.575V40.576Z" fill="white"/>
<path fill-rule="evenodd" clip-rule="evenodd" d="M64.1306 33.5168C66.8781 32.9264 72.4308 36.6138 68.5927 42.7079C64.7546 48.801 65.4842 50.9553 64.5856 51.8529C63.6871 52.7514 60.9693 48.3719 59.6695 42.7079C58.3687 37.0429 61.3831 34.1072 64.1315 33.5168H64.1306Z" fill="white"/>
</svg>
