<?xml version="1.0" encoding="UTF-8"?>
<!DOCTYPE svg PUBLIC "-//W3C//DTD SVG 1.1//EN" "http://www.w3.org/Graphics/SVG/1.1/DTD/svg11.dtd">
<!-- Creator: CorelDRAW -->
<svg xmlns="http://www.w3.org/2000/svg" xml:space="preserve" width="0.787402in" height="0.787402in" version="1.1" style="shape-rendering:geometricPrecision; text-rendering:geometricPrecision; image-rendering:optimizeQuality; fill-rule:evenodd; clip-rule:evenodd"
viewBox="0 0 787.4 787.4"
 xmlns:xlink="http://www.w3.org/1999/xlink"
 xmlns:xodm="http://www.corel.com/coreldraw/odm/2003">
 <defs>
  <style type="text/css">
   <![CDATA[
    .fil0 {fill:black}
   ]]>
  </style>
 </defs>
 <g id="Layer_x0020_1">
  <metadata id="CorelCorpID_0Corel-Layer"/>
  <g id="_2505791974560">
   <path class="fil0" d="M487.75 667.2c-37.44,3.6 -71.25,-8.75 -92.7,-26.61 -10.01,-8.33 -18.94,-18.89 -25.51,-34.69 -1.74,-4.19 -7.34,-18.51 -5.27,-22.65 0.94,-1.89 12.81,-11.85 15.66,-14.76 18.83,-19.2 17.48,-19.41 34.88,-8.98 14.19,8.5 22.83,14.22 30,30.08 6.03,13.34 8.44,30.48 15.07,44.93 3.36,7.32 7.78,13.36 12.27,18.42 5.05,5.69 10.44,8.57 15.59,14.26zm-149.22 -93.5c-4.49,-2.67 -4.08,-2.96 -7.09,-7.02 1.6,-3.36 50.26,-48.8 54.4,-50.79 3.77,2.33 5.46,3.64 6.82,9.35 -12.16,8.4 -43.76,42.48 -54.13,48.46zm-215.95 -313.66c16.98,10.07 109.52,100.98 123.8,117.48l41.38 48.11c17.19,20.23 37.13,48.2 51.56,69.91 4.2,6.33 9.91,13.08 11.34,20.79 -6.06,4.02 -13.32,13.45 -19.8,16.05 -25.95,-19.69 -41.18,-35.39 -61.92,-58.52 -50.66,-56.51 -96.06,-129.69 -135.44,-194.33 -4.42,-7.25 -7.85,-12.12 -10.91,-19.48zm190.96 288.05c-2.1,7.07 -11.41,17.31 -0.17,33.53 5.58,8.05 13.63,15.74 28.9,15.69 17.78,63.6 69,93.43 134.35,93.72 12.03,0.06 24.47,-0.78 35.22,-4.78 8.52,-3.17 18.85,-10.17 14.5,-22.16 -4.94,-13.62 -30.28,-10.2 -43.91,-36.75 -9.24,-17.99 -11.54,-42.79 -22.13,-58.41 -6.1,-8.99 -11.05,-13.43 -19.36,-20.35 -4.87,-4.06 -18.67,-12.45 -26.11,-14.85 2.14,-16.98 -1.66,-25.62 -11.01,-33.64 -17.46,-14.98 -28.56,-4.48 -36.03,-2.17 -5.72,-14.13 -34.94,-51.76 -45.13,-66.26 -17.27,-24.57 -66.42,-78.11 -86.62,-98.77 -11.01,-11.26 -44.09,-44.3 -56.51,-54.7l-80.39 -67.99c-5.27,-4.67 -16.26,-16.37 -25.85,-8.46 -8.33,6.86 -0.98,17.3 2.98,25.01 21.21,41.35 86.21,146.96 113.99,183.98 5.19,6.91 10.16,14.41 15.51,21.48 24.02,31.71 74.95,96.73 107.76,115.87z"/>
   <path class="fil0" d="M397.5 118.72c112.02,-8.74 195.46,49.95 239.36,104.93 89.76,112.42 76.68,277.27 -25.97,375 -13.19,12.56 -31.13,26.7 -49.54,37.39 -3.7,2.15 -10.62,5.33 -12.9,8.85 -3.51,5.43 -1.45,13.18 2.69,16.08 9.01,6.31 23.26,-5.03 29.59,-9.35 19.7,-13.44 32.8,-23.08 48.63,-38.34 44.47,-42.85 77.66,-104.3 87.64,-171.87 29.45,-199.48 -141,-371.51 -338.95,-344.18 -71.98,9.94 -127.2,40.78 -174.64,86.28 -8.22,7.89 -40.58,38.78 -30.54,51.47 3.72,4.7 11.92,4.9 16.74,1.17 3.05,-2.36 6.95,-9.17 9.37,-12.35 6.28,-8.28 13.69,-16.36 20.3,-23.16 9.27,-9.55 36.2,-31.42 48.25,-38.71 37.35,-22.59 76.31,-39.02 129.98,-43.21z"/>
   <path class="fil0" d="M330.41 210.5c25.04,-4.18 45.53,14.68 48.83,35.48 8.88,55.99 -76.45,69.49 -84.8,13.3 -3.82,-25.72 14.9,-45.27 35.96,-48.78zm-6.66 -22.39c-86.95,18.22 -58.76,146.93 26.63,129.55 31.31,-6.37 59.75,-38.67 51.33,-78.52 -6.58,-31.17 -38.1,-59.38 -77.96,-51.03z"/>
   <path class="fil0" d="M553 412.54c55.71,-8.02 67.2,76.77 11.82,84.93 -26.59,3.92 -46.3,-15.62 -48.86,-37.49 -2.93,-25.06 15.21,-44.3 37.04,-47.44zm-60.4 48.02c2.6,34.82 33.27,63.93 72.29,60.4 34.55,-3.12 62.98,-33.44 59.75,-71.82 -2.91,-34.57 -33.21,-63.86 -72.5,-60.11 -33.76,3.22 -62.4,33.29 -59.54,71.54z"/>
   <path class="fil0" d="M509.37 239.81c24.81,-4.06 45.57,14.94 48.71,35.56 3.89,25.61 -15.2,46.02 -35.67,49.12 -56.52,8.58 -69.2,-75.5 -13.04,-84.69zm-7.72 -22.11c-31.09,7.7 -59.69,36.91 -50.6,79.12 6.53,30.31 39.49,58.98 79.28,49.93 30.86,-7.02 58.86,-38.95 50,-79.39 -6.62,-30.24 -39.77,-59.3 -78.69,-49.67z"/>
   <path class="fil0" d="M132.54 383.84c4.42,-19.01 -15.07,-22.4 -20.74,-11.84 -3.44,6.42 -6.41,31.05 -6.79,39.92 -1.21,28.47 3.54,56.45 13.07,79.76 45.05,110.19 136.08,70.51 143.73,58.38 4.59,-7.28 0.14,-14.73 -4.88,-16.86 -7.34,-3.12 -12.07,1.21 -17.19,3.83 -68,34.79 -128.22,-62.8 -107.21,-153.18z"/>
  </g>
 </g>
</svg>
