<svg width="14" height="16" viewBox="0 0 14 16" fill="none" xmlns="http://www.w3.org/2000/svg">
<path fill-rule="evenodd" clip-rule="evenodd" d="M6.63108 9.08193C6.32772 8.66529 0.575384 0.725113 0.0464224 0.0233517C-0.0130977 0.0934318 -0.00541642 0.0703912 0.0147436 0.205752C0.339224 2.40896 2.71331 14.8583 2.86787 15.0896C3.18371 15.2164 3.62723 14.1834 3.79235 13.9107C4.85988 12.1271 5.55492 10.8608 6.63108 9.08193Z" fill="#B0AAE3"/>
<path fill-rule="evenodd" clip-rule="evenodd" d="M6.61668 9.09153C6.31428 8.67393 0.549464 0.744314 0.0464224 0.0233517C0.131863 -0.0112084 0.105941 -0.0112095 0.228821 0.0492707C2.22275 1.04095 13.3223 7.15617 13.4951 7.37505C13.5181 7.71489 12.3988 7.81569 12.0887 7.88865C10.0621 8.35041 8.64132 8.61921 6.61668 9.09153Z" fill="#CDBBE6"/>
</svg>
