<?xml version="1.0" encoding="UTF-8"?>
<!DOCTYPE svg PUBLIC "-//W3C//DTD SVG 1.1//EN" "http://www.w3.org/Graphics/SVG/1.1/DTD/svg11.dtd">
<!-- Creator: CorelDRAW -->
<svg xmlns="http://www.w3.org/2000/svg" xml:space="preserve" width="0.787402in" height="0.787402in" version="1.1" style="shape-rendering:geometricPrecision; text-rendering:geometricPrecision; image-rendering:optimizeQuality; fill-rule:evenodd; clip-rule:evenodd"
viewBox="0 0 787.4 787.4"
 xmlns:xlink="http://www.w3.org/1999/xlink"
 xmlns:xodm="http://www.corel.com/coreldraw/odm/2003">
 <defs>
  <style type="text/css">
   <![CDATA[
    .fil2 {fill:none}
    .fil1 {fill:black}
    .fil4 {fill:white;fill-opacity:0.811765}
    .fil3 {fill:#E6E6E6;fill-opacity:0.850980}
    .fil5 {fill:white;fill-opacity:0.850980}
    .fil0 {fill:black;fill-opacity:0.890196}
    .fil6 {fill:white;fill-opacity:0.890196}
   ]]>
  </style>
 </defs>
 <g id="Layer_x0020_1">
  <metadata id="CorelCorpID_0Corel-Layer"/>
  <g id="_2505800992352">
   <path class="fil0" d="M205.43 643.19c-10.93,-5.03 -13.87,-5.41 -26.38,-13.32 -24.44,-22.91 -9.92,-47.08 -17.21,-91.2 0.02,-47.16 0.91,-95.46 -0.06,-142.39l0.11 -65.94c0.43,-27.35 0.69,-38.33 16.33,-53.7 14.28,-14.04 29.93,-14.27 54.37,-14.26l410.63 -0.47c-6.33,-21.01 -11.78,-42.27 -18.5,-65.73 -18.82,-65.75 -58.98,-49.57 -104.8,-36.78 -21,5.86 -42.65,11.76 -64.52,18.11 -109.45,31.83 -217.33,59.7 -325.08,90.37 -25.74,7.33 -41.76,8.91 -55.6,27.15 -15.21,20.07 -8.22,42.73 -1.91,66.29l54.01 194.34c10.64,36.51 10.78,68.2 41.4,83.52 7.35,3.68 28.36,9.37 37.22,4.02z"/>
   <g>
    <path class="fil1" d="M211.89 262.42l477.04 0c27.5,0 50,22.5 50,50l0 35.86 -577.03 0 0 -35.86c0,-27.5 22.49,-50 50,-50zm527.04 142.63l0 188.56c0,27.5 -22.49,50 -50,50l-477.04 0c-27.5,0 -50,-22.5 -50,-50l0 -188.56 577.03 0z"/>
    <rect class="fil2" x="159.36" y="348.27" width="577.03" height="56.78"/>
    <path class="fil3" d="M234.31 456.2l148.73 0c12.36,0 22.47,10.11 22.47,22.47l0 0c0,12.37 -10.11,22.47 -22.47,22.47l-148.73 0c-12.36,0 -22.47,-10.11 -22.47,-22.47l0 -0c0,-12.36 10.11,-22.47 22.47,-22.47z"/>
    <path class="fil4" d="M221.45 587.31l72.24 0c6.01,0 10.91,4.91 10.91,10.91l0 0c0,6 -4.91,10.91 -10.91,10.91l-72.24 0c-6.01,0 -10.92,-4.91 -10.92,-10.91l0 -0c0,-6 4.91,-10.91 10.92,-10.91z"/>
    <path class="fil4" d="M349.85 587.69l72.24 0c6.01,0 10.91,4.91 10.91,10.91l0 0c0,6 -4.91,10.91 -10.91,10.91l-72.24 0c-6.01,0 -10.92,-4.91 -10.92,-10.91l0 -0c0,-6 4.91,-10.91 10.92,-10.91z"/>
    <path class="fil4" d="M484.98 589.63l72.24 0c6.01,0 10.91,4.91 10.91,10.91l0 0c0,6 -4.91,10.91 -10.91,10.91l-72.24 0c-6.01,0 -10.92,-4.91 -10.92,-10.91l0 -0c0,-6 4.91,-10.91 10.92,-10.91z"/>
    <path class="fil4" d="M594.85 591.4l72.24 0c6.01,0 10.91,4.91 10.91,10.91l0 0c0,6 -4.91,10.91 -10.91,10.91l-72.24 0c-6.01,0 -10.92,-4.91 -10.92,-10.91l0 -0c0,-6 4.91,-10.91 10.92,-10.91z"/>
    <path class="fil5" d="M591.09 492.11l32.34 -32.33c6.48,-6.48 17.08,-6.48 23.57,0l32.33 32.33c6.48,6.48 6.48,17.08 0,23.57l-32.33 32.33c-6.48,6.48 -17.09,6.48 -23.57,0l-32.34 -32.33c-6.48,-6.48 -6.48,-17.08 0,-23.57z"/>
    <path class="fil6" d="M548.13 492.11l32.34 -32.33c6.48,-6.48 17.08,-6.48 23.57,0l32.33 32.33c6.48,6.48 6.48,17.08 0,23.57l-32.33 32.33c-6.48,6.48 -17.09,6.48 -23.57,0l-32.34 -32.33c-6.48,-6.48 -6.48,-17.08 0,-23.57z"/>
   </g>
  </g>
 </g>
</svg>
