<svg width="20" height="18" viewBox="0 0 20 18" fill="none" xmlns="http://www.w3.org/2000/svg">
<path d="M1.53765 13.3072C1.41333 13.3072 1.24638 13.2071 1.03679 13.0064C0.827199 12.8058 0.64072 12.5439 0.477751 12.2207C0.314782 11.8975 0.233098 11.5575 0.233098 11.2012C0.233098 11.1342 0.236684 11.0672 0.245052 11.0002C0.252622 10.9332 0.264177 10.8666 0.279717 10.7995C0.341877 10.5544 0.411607 10.3484 0.489307 10.1809C0.566608 10.0138 0.70288 9.83563 0.896531 9.64604C1.09098 9.45646 1.38185 9.21167 1.77035 8.91054C2.15845 8.60979 2.69039 8.21387 3.36578 7.72354C4.04116 7.2332 4.90701 6.60886 5.96293 5.8509L0.0932391 2.00626C0.0310796 1.80564 0 1.57151 0 1.30388C0 0.96963 0.0816839 0.6685 0.244653 0.401252C0.407623 0.133624 0.683356 0 1.07106 0C1.28861 0 1.55239 0.0555814 1.86319 0.167125C2.17399 0.278669 2.52304 0.456834 2.91114 0.702001L7.82572 3.74489C8.46246 4.14615 8.96332 4.64752 9.32791 5.2494C9.69289 5.85128 9.87539 6.40862 9.87539 6.92103C9.87539 7.14374 9.75505 7.40033 9.51439 7.69003C9.27372 7.97974 9.03663 8.21387 8.80394 8.39204L1.81617 13.2063C1.76955 13.2288 1.72333 13.2512 1.67671 13.2733C1.63009 13.2958 1.58347 13.3068 1.53685 13.3068L1.53765 13.3072Z" fill="white"/>
<path d="M18.5979 15.3213H7.94474C7.17057 15.3213 6.54297 15.9209 6.54297 16.6606C6.54297 17.4002 7.17057 17.9999 7.94474 17.9999H18.5979C19.3721 17.9999 19.9997 17.4002 19.9997 16.6606C19.9997 15.9209 19.3721 15.3213 18.5979 15.3213Z" fill="white"/>
</svg>
