<svg width="39" height="39" viewBox="0 0 39 39" fill="none" xmlns="http://www.w3.org/2000/svg">
<path fill-rule="evenodd" clip-rule="evenodd" d="M5.56641 24.9317L8.53733 27.9257C14.1443 22.3312 18.786 17.071 25.3611 11.2025C26.5446 10.2868 28.2748 11.2368 27.9532 12.8564C27.7868 13.6953 26.3524 14.8886 25.7219 15.5205C20.8314 20.4222 15.7535 25.3728 10.9448 30.3066L13.943 33.3125L34.8353 12.4021L26.4258 3.99609L5.56641 24.9317Z" fill="white"/>
<path fill-rule="evenodd" clip-rule="evenodd" d="M27.9659 2.48898C27.9387 2.75741 32.7998 7.47874 33.3814 8.06383C35.5086 10.205 36.8899 12.5985 38.6697 7.98065C39.8336 4.96149 37.7231 2.22055 35.4876 0.685456C33.0787 -0.969174 28.1491 0.664485 27.9659 2.48898Z" fill="white"/>
<path fill-rule="evenodd" clip-rule="evenodd" d="M4.43829 26.4987C3.99719 27.081 2.8256 30.391 2.4579 31.3123C1.37649 34.0211 1.51979 33.1886 3.62181 35.3081C5.7441 37.4492 4.96467 37.5387 7.70421 36.4405C8.56962 36.0938 11.9117 34.8991 12.4283 34.4916L4.43899 26.498L4.43829 26.4987Z" fill="white"/>
<path fill-rule="evenodd" clip-rule="evenodd" d="M0.881909 35.3857C0.44361 36.1288 -0.442774 37.9379 0.264655 38.6663C1.00424 39.4276 2.7819 38.4266 3.60607 38.0491L0.881909 35.3857Z" fill="white"/>
</svg>
