<?xml version="1.0" encoding="UTF-8"?>
<!DOCTYPE svg PUBLIC "-//W3C//DTD SVG 1.1//EN" "http://www.w3.org/Graphics/SVG/1.1/DTD/svg11.dtd">
<!-- Creator: CorelDRAW -->
<svg xmlns="http://www.w3.org/2000/svg" xml:space="preserve" width="0.787402in" height="0.787402in" version="1.1" style="shape-rendering:geometricPrecision; text-rendering:geometricPrecision; image-rendering:optimizeQuality; fill-rule:evenodd; clip-rule:evenodd"
viewBox="0 0 787.4 787.4"
 xmlns:xlink="http://www.w3.org/1999/xlink"
 xmlns:xodm="http://www.corel.com/coreldraw/odm/2003">
 <defs>
  <style type="text/css">
   <![CDATA[
    .fil0 {fill:black}
   ]]>
  </style>
 </defs>
 <g id="Layer_x0020_1">
  <metadata id="CorelCorpID_0Corel-Layer"/>
  <g id="_2505619544672">
   <path class="fil0" d="M276.95 582.51l126.26 0.2 49.65 126.77 -224.86 0.1 48.95 -127.07zm190.28 115.79l-44.15 -113.44c-5.43,-13.2 -1.01,-15.16 15.07,-38.03l24.57 -36.05c5.7,-7.92 11.37,-16.07 17,-23.03l94.93 54 -52.07 78.5c-9.49,13.44 -18.56,25.84 -27.11,39.02l-28.24 39.04zm-361.69 -156.91c18.31,-6.77 79.83,-48.45 96.85,-53.75 2.74,7.62 25.03,38.6 32.15,48.87 19.06,27.48 28.24,33.93 22.06,49.11 -3.5,8.59 -39,106.89 -46.31,112.83 -3.6,-8.87 -56.2,-82.51 -66.02,-97.36 -6.83,-10.33 -37.1,-53.42 -38.73,-59.7zm-4.62 -271.61c12.33,4.56 76.52,46.09 93.77,52.66l0.01 148.53c-18.63,6.61 -75.02,45.74 -93.82,52.67l0.05 -253.86zm4.63 -17.76c1.44,-5.66 9.19,-16.46 12.56,-21.6 9.99,-15.29 88.4,-126.03 92.14,-135.49 5.55,4.48 9.81,19.65 13.19,28.38l33.71 85.81c3.09,7.59 4.35,7.37 0.59,13.89 -8.89,15.39 -51.54,73 -55.37,82.74 -19.57,-6.13 -74.56,-45.53 -96.8,-53.72zm122.44 -168.21l224.91 0.13 -49.61 126.83 -126.34 0.1 -48.96 -127.07zm-144.97 182.48l0 260.81c0,19.59 0.4,16.4 9.84,29.81 33.04,46.93 66.54,99.62 99.04,145.25 5.2,7.31 11.8,20.91 18.31,24.02 10.13,3.11 253.8,2.25 259.7,-0.31 7.85,-3.99 48.41,-69.65 57.66,-82.24l42.69 -62.06c6.93,-10.56 26.24,-33.67 26.87,-45.12 0.59,-10.77 -0.07,-24 -0.07,-35.06l0.05 -174.52c0.14,-15.76 0.96,-23.52 -16.12,-19.22 -5.03,30.84 -2.05,163.1 -1.76,215.29 -6.4,-0.55 -16.54,-8.45 -23.31,-12.11 -8.24,-4.46 -15.2,-8.74 -23.39,-13.32 -16.7,-9.33 -32.21,-19.33 -47.12,-27.82 0.02,-25.15 2.72,-132.15 -2.13,-147 -5.55,-1.48 -8.34,-1.44 -13.64,0.23 -7.25,18.94 2.14,131.92 -2.85,149.89l-63.04 91.66 -129.5 0.2c-7.37,-14.86 -22.22,-33.2 -31.34,-47.56 -5.4,-8.5 -10.76,-16.43 -16.1,-24.32 -4.93,-7.3 -14.37,-16.52 -14.37,-26.31l0 -139.59c0,-9.19 54.51,-87.02 63.64,-98.25l112.97 -0.02c19.47,-0 12.79,-4.25 31.05,23.15 3.75,5.63 7.72,11.54 11.26,16.33 5.13,6.96 9.43,7.2 16.72,4.05 2.89,-11.59 -0.67,-13.02 -6.95,-21.24 -4.73,-6.2 -7.7,-12.38 -12.33,-18.88 -6.38,-8.96 -10.97,-9.41 -6.85,-20.81 2.77,-7.65 6.35,-16 9.41,-23.76 11.88,-30.17 26.65,-63.33 35.85,-92.42 3.39,2.26 1.02,-0.24 4.51,3.96l81.78 120.39c4.63,6.71 10.28,13.61 14.42,20.44 5.27,8.69 7.88,14.67 19.78,8.73 3.17,-12.13 -7.09,-21.91 -16.54,-35.87 -7.78,-11.5 -14.26,-21.17 -22.56,-32.48 -19.89,-27.08 -48.15,-73.21 -67.68,-99.52 -13.17,-17.74 -5.93,-14.66 -40.44,-14.64 -67.5,0.04 -158.27,-1.94 -222.42,-0.11 -12.46,0.35 -11.19,3.49 -16.18,11.35 -3.68,5.79 -7.57,9.62 -11.49,16.05 -7.02,11.52 -16.07,22.98 -22.98,33.93 -3.99,6.33 -7.34,10.24 -11.37,16.19l-67.65 99.53c-6.58,8.71 -5.35,10.24 -5.35,23.29z"/>
   <path class="fil0" d="M320.35 498.85c12.4,5.52 14.56,-2.59 33.13,-18.28 6.6,-5.57 8.37,-7.04 15.04,-14.39 5.11,-5.64 9.88,-8.76 15.44,-13.92l46.11 -42.12c6.77,-6.06 10.67,-8.04 7.71,-20.21 -11.8,-4.6 -21.13,5.19 -33.54,18.29l-60.19 57.36c-15.83,13.82 -26.08,21.29 -23.71,33.28z"/>
   <path class="fil0" d="M379.81 323.19c-12.48,-4.18 -14.5,3.63 -33.57,19.71 -6.1,5.15 -8.92,8.81 -14.8,14.52l-30.31 28.46c-5.44,4.83 -10.85,8.69 -15.8,13.65 -14.32,14.37 -30.22,24.69 -20.33,33.08 9.17,7.79 25.79,-14.65 31.72,-19.81l76.68 -70.34c6.63,-5.74 10.44,-8.09 6.41,-19.28z"/>
   <path class="fil0" d="M519.69 308.43c-4.58,3.57 -3.84,2.84 -4.17,10.96 -0.39,9.49 -2.44,46.77 15.02,31.78 3.94,-3.39 8.66,-57.98 -10.85,-42.73z"/>
   <path class="fil0" d="M590.86 280.87c-8.09,-5.4 -18.61,-3.52 -31.01,-3.48 -22.64,0.17 -19.93,17.5 -1.95,17.84 16.71,0.31 36.75,5.11 32.96,-14.36z"/>
   <path class="fil0" d="M469.85 295.11c13,0 23.93,1.45 33.56,-2.39 4.56,-19.85 -13.54,-15.52 -30.02,-15.46 -21.74,0.09 -22.32,17.84 -3.54,17.84z"/>
   <path class="fil0" d="M531.22 219.8c-13,-3.02 -15.64,1.5 -15.67,15.14 -0.02,9.07 -1.78,25.16 4.21,29.36 19.35,13.59 13.83,-37.19 11.46,-44.5z"/>
   <path class="fil0" d="M647.16 200.16c0,-7.79 0.21,-14.44 -2.28,-20.77 -19.25,-6.24 -17.62,15.09 -15.59,31.91 0.78,6.45 4.57,12.71 12.02,9.84 7.7,-2.97 5.85,-12.55 5.85,-20.98z"/>
   <path class="fil0" d="M693.1 168.62c7.41,-4.23 5.98,-7.09 3.14,-14.56 -10.58,-2.9 -40.14,-5.8 -41.48,6.28 -1.57,14.16 33.86,11.03 38.34,8.28z"/>
   <path class="fil0" d="M618.75 168.73c13.28,-24.76 -34.38,-16.46 -37.15,-14.57 -8.13,5.54 -3.45,15.28 7.56,16.05 8.05,0.56 23.17,0.15 29.6,-1.48z"/>
   <path class="fil0" d="M629.22 119.34c0,8.59 -1.89,29.66 12.04,24.49 8.67,-3.22 9.62,-40.09 -1.08,-42.65 -11.44,-2.74 -10.96,8.82 -10.96,18.17z"/>
  </g>
 </g>
</svg>
