<svg width="47" height="47" viewBox="0 0 47 47" fill="none" xmlns="http://www.w3.org/2000/svg">
<path fill-rule="evenodd" clip-rule="evenodd" d="M0.9936 44.1731V39.4508C0.9936 38.5811 1.58016 37.8764 2.30496 37.8764H7.55136C8.27616 37.8764 8.86368 38.5811 8.86368 39.4508V44.1731C8.86368 45.0428 8.27616 45.7465 7.55136 45.7465H2.30496C1.58016 45.7465 0.9936 45.0419 0.9936 44.1731ZM9.85632 44.7692V38.8547C9.85632 37.766 9.12096 36.8828 8.21376 36.8828H1.64256C0.735361 36.8828 0 37.7651 0 38.8547V44.7692C0 45.8579 0.735361 46.7401 1.64256 46.7401H8.21376C9.12096 46.7401 9.85632 45.8579 9.85632 44.7692Z" fill="white"/>
<path fill-rule="evenodd" clip-rule="evenodd" d="M12.8462 44.1731V39.4508C12.8462 38.5811 13.4337 37.8764 14.1585 37.8764H19.4049C20.1297 37.8764 20.7162 38.5811 20.7162 39.4508V44.1731C20.7162 45.0428 20.1297 45.7465 19.4049 45.7465H14.1585C13.4337 45.7465 12.8462 45.0419 12.8462 44.1731ZM21.7089 44.7692V38.8547C21.7089 37.766 20.9735 36.8828 20.0663 36.8828H13.4961C12.5889 36.8828 11.8535 37.7651 11.8535 38.8547V44.7692C11.8535 45.8579 12.5889 46.7401 13.4961 46.7401H20.0663C20.9745 46.7401 21.7089 45.8579 21.7089 44.7692Z" fill="white"/>
<path fill-rule="evenodd" clip-rule="evenodd" d="M0.9936 32.3205V27.5983C0.9936 26.7285 1.58016 26.0248 2.30496 26.0248H7.55136C8.27616 26.0248 8.86368 26.7295 8.86368 27.5983V32.3205C8.86368 33.1903 8.27616 33.894 7.55136 33.894H2.30496C1.58016 33.894 0.9936 33.1893 0.9936 32.3205ZM9.85632 32.9167V27.0021C9.85632 25.9135 9.12096 25.0303 8.21376 25.0303H1.64256C0.735361 25.0303 0 25.9125 0 27.0021V32.9167C0 34.0053 0.735361 34.8876 1.64256 34.8876H8.21376C9.12096 34.8876 9.85632 34.0053 9.85632 32.9167Z" fill="white"/>
<path fill-rule="evenodd" clip-rule="evenodd" d="M15.668 34.4109L12.3292 31.072C11.7138 30.4567 11.6312 29.5437 12.1439 29.0311L15.8533 25.3216C16.366 24.81 17.2789 24.8925 17.8943 25.5069L21.2332 28.8458C21.8476 29.4602 21.9301 30.3731 21.4184 30.8858L17.709 34.5952C17.1973 35.1069 16.2834 35.0243 15.669 34.4099L15.668 34.4109ZM22.3564 28.5655L18.1746 24.3837C17.4047 23.6138 16.2604 23.5091 15.6191 24.1514L10.9727 28.7978C10.3304 29.44 10.4351 30.5834 11.205 31.3533L15.3868 35.5351C16.1567 36.305 17.301 36.4087 17.9423 35.7674L22.5887 31.121C23.2309 30.4788 23.1263 29.3354 22.3564 28.5655Z" fill="white"/>
<path fill-rule="evenodd" clip-rule="evenodd" d="M0.99264 20.4416V15.7203C0.99264 14.8506 1.58016 14.1459 2.304 14.1459H7.5504C8.2752 14.1459 8.86176 14.8506 8.86176 15.7203V20.4416C8.86176 21.3114 8.2752 22.015 7.5504 22.015H2.304C1.58016 22.015 0.99264 21.3104 0.99264 20.4416ZM9.85536 21.0378V15.1232C9.85536 14.0346 9.12 13.1514 8.2128 13.1514H1.64256C0.73536 13.1514 0 14.0336 0 15.1232V21.0378C0 22.1264 0.73536 23.0086 1.64256 23.0086H8.2128C9.12 23.0086 9.85536 22.1264 9.85536 21.0378Z" fill="white"/>
<path fill-rule="evenodd" clip-rule="evenodd" d="M12.8462 20.4416V15.7203C12.8462 14.8506 13.4327 14.1459 14.1575 14.1459H19.4039C20.1287 14.1459 20.7162 14.8506 20.7162 15.7203V20.4416C20.7162 21.3114 20.1287 22.015 19.4039 22.015H14.1575C13.4327 22.015 12.8462 21.3104 12.8462 20.4416ZM21.7089 21.0378V15.1232C21.7089 14.0346 20.9735 13.1514 20.0663 13.1514H13.4961C12.5889 13.1514 11.8535 14.0336 11.8535 15.1232V21.0378C11.8535 22.1264 12.5889 23.0086 13.4961 23.0086H20.0663C20.9735 23.0086 21.7089 22.1264 21.7089 21.0378Z" fill="white"/>
<path fill-rule="evenodd" clip-rule="evenodd" d="M0.99264 8.59004V3.86876C0.99264 2.999 1.58016 2.29436 2.304 2.29436H7.5504C8.2752 2.29436 8.86176 2.999 8.86176 3.86876V8.59004C8.86176 9.45981 8.2752 10.1635 7.5504 10.1635H2.304C1.58016 10.1635 0.99264 9.45885 0.99264 8.59004ZM9.85536 9.1862V3.27164C9.85536 2.183 9.12 1.2998 8.2128 1.2998H1.64256C0.73536 1.2998 0 2.18204 0 3.27164V9.1862C0 10.2748 0.73536 11.1571 1.64256 11.1571H8.2128C9.12 11.1571 9.85536 10.2748 9.85536 9.1862Z" fill="white"/>
<path fill-rule="evenodd" clip-rule="evenodd" d="M15.6686 10.6804L12.3297 7.34156C11.7144 6.7262 11.6318 5.81324 12.1445 5.3006L15.8539 1.59116C16.3665 1.07948 17.2795 1.16204 17.8949 1.77644L21.2337 5.11532C21.8481 5.72972 21.9317 6.64364 21.419 7.15532L17.7096 10.8648C17.1979 11.3774 16.284 11.2939 15.6696 10.6795L15.6686 10.6804ZM22.3569 4.835L18.1752 0.653241C17.4053 -0.116679 16.2609 -0.221319 15.6197 0.420921L10.9733 5.06732C10.332 5.7086 10.4357 6.85292 11.2056 7.62284L15.3873 11.8046C16.1573 12.5745 17.3006 12.6782 17.9429 12.0369L22.5893 7.39052C23.2315 6.74828 23.1269 5.60492 22.3569 4.835Z" fill="white"/>
<path fill-rule="evenodd" clip-rule="evenodd" d="M24.7475 44.1926V39.4713C24.7475 38.6015 25.3341 37.8969 26.0589 37.8969H31.3053C32.0301 37.8969 32.6166 38.6015 32.6166 39.4713V44.1926C32.6166 45.0623 32.0301 45.766 31.3053 45.766H26.0589C25.3341 45.766 24.7475 45.0614 24.7475 44.1926ZM33.6102 44.7887V38.8742C33.6102 37.7855 32.8749 36.9023 31.9677 36.9023H25.3974C24.4902 36.9023 23.7549 37.7846 23.7549 38.8742V44.7887C23.7549 45.8774 24.4902 46.7596 25.3974 46.7596H31.9677C32.8749 46.7596 33.6102 45.8774 33.6102 44.7887Z" fill="white"/>
<path fill-rule="evenodd" clip-rule="evenodd" d="M36.601 44.1926V39.4713C36.601 38.6015 37.1876 37.8969 37.9124 37.8969H43.1588C43.8836 37.8969 44.4711 38.6015 44.4711 39.4713V44.1926C44.4711 45.0623 43.8836 45.766 43.1588 45.766H37.9124C37.1876 45.766 36.601 45.0614 36.601 44.1926ZM45.4637 44.7887V38.8742C45.4637 37.7855 44.7284 36.9023 43.8212 36.9023H37.25C36.3428 36.9023 35.6074 37.7846 35.6074 38.8742V44.7887C35.6074 45.8774 36.3428 46.7596 37.25 46.7596H43.8212C44.7284 46.7596 45.4637 45.8774 45.4637 44.7887Z" fill="white"/>
<path fill-rule="evenodd" clip-rule="evenodd" d="M24.7475 32.3391V27.6168C24.7475 26.7471 25.3341 26.0424 26.0589 26.0424H31.3053C32.0301 26.0424 32.6166 26.7471 32.6166 27.6168V32.3391C32.6166 33.2079 32.0301 33.9125 31.3053 33.9125H26.0589C25.3341 33.9125 24.7475 33.2079 24.7475 32.3391ZM33.6102 32.9352V27.0216C33.6102 25.932 32.8749 25.0498 31.9677 25.0498H25.3974C24.4902 25.0498 23.7549 25.932 23.7549 27.0216V32.9352C23.7549 34.0239 24.4902 34.9061 25.3974 34.9061H31.9677C32.8749 34.9061 33.6102 34.0239 33.6102 32.9352Z" fill="white"/>
<path fill-rule="evenodd" clip-rule="evenodd" d="M39.4225 34.43L36.0836 31.0912C35.4692 30.4758 35.3857 29.5628 35.8984 29.0502L39.6078 25.3408C40.1204 24.8281 41.0334 24.9116 41.6488 25.526L44.9876 28.8649C45.602 29.4793 45.6856 30.3932 45.1729 30.9049L41.4635 34.6144C40.9518 35.127 40.0379 35.0435 39.4235 34.4291L39.4225 34.43ZM46.1108 28.5846L41.9291 24.4028C41.1592 23.6329 40.0148 23.5292 39.3736 24.1705L34.7272 28.8169C34.0859 29.4582 34.1896 30.6025 34.9595 31.3724L39.1412 35.5542C39.9112 36.3241 41.0545 36.4278 41.6968 35.7865L46.3432 31.1401C46.9854 30.4979 46.8808 29.3545 46.1108 28.5846Z" fill="white"/>
<path fill-rule="evenodd" clip-rule="evenodd" d="M24.7465 20.4612V15.7389C24.7465 14.8692 25.3341 14.1645 26.0589 14.1645H31.3053C32.0301 14.1645 32.6166 14.8692 32.6166 15.7389V20.4612C32.6166 21.33 32.0301 22.0346 31.3053 22.0346H26.0589C25.3341 22.0346 24.7465 21.33 24.7465 20.4612ZM33.6093 21.0573V15.1437C33.6093 14.0541 32.8739 13.1719 31.9667 13.1719H25.3955C24.4883 13.1719 23.7529 14.0541 23.7529 15.1437V21.0573C23.7529 22.146 24.4883 23.0282 25.3955 23.0282H31.9667C32.8739 23.0282 33.6093 22.146 33.6093 21.0573Z" fill="white"/>
<path fill-rule="evenodd" clip-rule="evenodd" d="M36.6001 20.4612V15.7389C36.6001 14.8692 37.1876 14.1645 37.9114 14.1645H43.1578C43.8826 14.1645 44.4692 14.8692 44.4692 15.7389V20.4612C44.4692 21.33 43.8826 22.0346 43.1578 22.0346H37.9114C37.1876 22.0346 36.6001 21.33 36.6001 20.4612ZM45.4628 21.0573V15.1437C45.4628 14.0541 44.7274 13.1719 43.8202 13.1719H37.25C36.3428 13.1719 35.6074 14.0541 35.6074 15.1437V21.0573C35.6074 22.146 36.3428 23.0282 37.25 23.0282H43.8202C44.7274 23.0282 45.4628 22.146 45.4628 21.0573Z" fill="white"/>
<path fill-rule="evenodd" clip-rule="evenodd" d="M24.7465 8.60862V3.88638C24.7465 3.01662 25.3341 2.31198 26.0589 2.31198H31.3053C32.0301 2.31198 32.6166 3.01662 32.6166 3.88638V8.60862C32.6166 9.47742 32.0301 10.1821 31.3053 10.1821H26.0589C25.3341 10.1821 24.7465 9.47742 24.7465 8.60862ZM33.6093 9.20478V3.29118C33.6093 2.20254 32.8739 1.31934 31.9667 1.31934H25.3955C24.4883 1.31934 23.7529 2.20254 23.7529 3.29118V9.20478C23.7529 10.2934 24.4883 11.1766 25.3955 11.1766H31.9667C32.8739 11.1766 33.6093 10.2934 33.6093 9.20478Z" fill="white"/>
<path fill-rule="evenodd" clip-rule="evenodd" d="M39.4219 10.699L36.0831 7.36012C35.4677 6.74476 35.3851 5.8318 35.8978 5.31916L39.6072 1.60972C40.1189 1.09708 41.0328 1.1806 41.6482 1.795L44.9871 5.13388C45.6015 5.74828 45.685 6.66124 45.1723 7.17388L41.4629 10.8833C40.9503 11.395 40.0373 11.3124 39.4229 10.698L39.4219 10.699ZM46.1103 4.85356L41.9285 0.671795C41.1586 -0.0981248 40.0143 -0.202765 39.373 0.439475L34.7266 5.08588C34.0843 5.72812 34.189 6.87148 34.9589 7.6414L39.1407 11.8232C39.9106 12.5931 41.0549 12.6968 41.6962 12.0555L46.3426 7.40908C46.9848 6.7678 46.8802 5.62348 46.1103 4.85356Z" fill="white"/>
</svg>
