<svg width="62" height="32" viewBox="0 0 62 32" fill="none" xmlns="http://www.w3.org/2000/svg">
<path fill-rule="evenodd" clip-rule="evenodd" d="M44.3089 21.4556C44.5144 20.6962 44.8417 19.9887 45.0568 19.1247C45.2507 18.3452 45.3928 17.4255 45.434 16.5894C45.4571 15.1935 45.436 14.1817 45.1748 12.8261C44.954 11.6857 44.5796 10.7535 44.2628 9.81462L43.0484 7.63061L41.6449 5.67989C41.9953 5.92469 42.8324 6.19541 43.3105 6.40085C45.5579 7.36565 47.5163 8.60597 49.5188 9.8703C49.8443 10.0757 53.5278 12.6428 53.5921 12.9135C54.0011 13.1324 54.8968 13.9301 55.2347 14.2469C55.5448 14.5369 55.7253 14.677 56.0085 14.9257C56.3109 15.1906 56.4145 15.4162 56.7621 15.6246C56.7765 15.879 56.7841 15.6908 56.6901 15.7503C56.7016 15.8588 56.7227 15.8348 56.6133 15.8089C56.6296 15.9241 56.6507 15.8991 56.5365 15.8674C56.5537 15.9903 56.5758 15.9634 56.4539 15.926C56.4808 16.0556 56.5048 16.0316 56.3771 15.9942C56.4126 16.119 56.4318 16.0921 56.3041 16.0604C56.3368 16.1881 56.355 16.142 56.2129 16.1775C56.1918 16.4146 54.0232 18.1686 53.8849 18.2607L51.7259 19.983C51.3525 20.2498 50.9742 20.4822 50.5941 20.7884C50.3445 20.989 50.2398 21.0332 50.0113 21.1753C49.7272 21.3519 49.6744 21.4441 49.3902 21.5766C49.2961 21.6831 48.9467 21.8847 48.77 22.0047C48.5416 22.1593 48.34 22.3158 48.0952 22.357C47.7275 22.9225 42.4667 25.4454 41.5259 25.7238C41.7198 25.3475 41.6161 25.5183 41.9396 25.1996C42.1451 24.9971 42.1979 24.9011 42.3495 24.7091C43.3432 23.4524 44.2715 21.4998 44.3099 21.4546L44.3089 21.4556ZM7.94786 18.469L6.28898 17.0847C6.0509 16.8361 5.68225 16.5913 5.12833 16.0354C4.98145 15.8876 4.90561 15.8588 4.78081 15.6918L5.47009 15.0774C5.53441 14.8018 7.5437 13.1861 7.6685 13.1401C7.84994 12.9068 8.7581 12.1964 9.04322 12.0053C9.28514 11.8421 9.52802 11.6617 9.7613 11.4754C10.5437 10.8514 12.5952 9.46326 13.4132 8.97366C15 8.02421 18.3408 6.13973 20.0266 5.65301C20.0161 5.67125 20.0055 5.69621 19.9978 5.70965L19.1962 6.67349C18.9322 7.00661 18.7325 7.28789 18.4704 7.67189C18.0461 8.29205 17.3252 9.82518 17.2359 9.92982C17.0285 10.6901 16.7021 11.3785 16.4861 12.2588C16.296 13.0345 16.1501 13.9628 16.1117 14.7932C16.0868 16.1602 16.1069 17.1711 16.3594 18.4988C16.4564 19.0086 16.584 19.5577 16.7463 20.0434C16.8548 20.3698 17.1917 21.1801 17.1994 21.4278L17.282 21.5679L19.8999 25.7036C19.5188 25.4348 18.7392 25.1977 18.2343 24.9817C16.9863 24.4479 14.5335 23.1289 13.5005 22.455C10.6512 20.5974 10.5341 20.4889 8.19362 18.7052C8.0381 18.5871 7.9901 18.6188 7.94786 18.469ZM19.5351 15.662C19.5341 13.9397 19.9959 12.0015 20.8061 10.4972C20.8589 10.3993 20.9127 10.285 20.9741 10.1852L21.1853 9.93654C21.2468 9.51414 22.5293 8.05109 22.7933 7.78325C23.09 7.48181 24.4253 6.29333 24.8948 6.16661C25.2183 5.75957 26.8253 5.14229 27.4916 4.94453C28.5284 4.6354 29.6017 4.45781 30.7441 4.45685C31.9134 4.49429 32.833 4.59509 33.89 4.90325C34.4497 5.06549 35.9991 5.63093 36.3035 5.95541L36.4331 6.04661L36.5377 6.06485C37.7847 6.64661 39.7729 8.67798 40.4027 9.92598L40.4199 10.0306L40.5083 10.1631C40.8299 10.4482 41.4078 12.0341 41.5623 12.5765C41.8695 13.6527 41.9684 14.535 42.0087 15.7254C42.0097 16.8889 41.8167 17.9919 41.5057 19.0287C41.307 19.6902 40.7262 21.2367 40.2971 21.5708C40.1876 22.0076 38.9953 23.3593 38.7169 23.6387C38.4203 23.9353 37.107 25.1017 36.6491 25.2188C36.3102 25.6556 34.7444 26.2374 34.0532 26.4419C33.027 26.7462 31.9306 26.9334 30.8007 26.9295C29.6276 26.8902 28.7175 26.7923 27.6548 26.4841C27.1018 26.3238 25.5341 25.7497 25.2423 25.43L25.1117 25.3398L25.0071 25.3215C24.2497 24.9702 23.7629 24.4393 23.2637 24.0332L21.8209 22.5039C21.554 22.1334 21.1882 21.6284 21.0365 21.2242C20.7217 20.9458 20.1351 19.3465 19.9815 18.8108C19.6743 17.7346 19.5764 16.8486 19.5351 15.6639V15.662ZM24.9677 0.582275C24.0394 0.865476 22.9594 1.02676 21.9956 1.31956C21.4753 1.477 19.5514 2.1778 19.2548 2.197L19.0896 2.27476C18.8429 2.44084 17.8992 2.7682 17.5277 2.93044C15.2919 3.90964 12.2477 5.49941 10.32 6.85109C9.87555 7.16213 9.43298 7.43765 8.99138 7.73813C8.73314 7.91381 8.58434 8.01941 8.34626 8.19798C8.17442 8.32662 7.88162 8.57334 7.70594 8.65974L5.81665 10.0901C5.76577 10.2428 5.02081 10.7948 4.85473 10.9282L2.03329 13.4818C1.88352 13.7065 1.224 14.3775 0.985922 14.5926C0.754562 14.8018 0.665281 14.9526 0.468481 15.183C0.25824 15.4297 0.0864002 15.4489 0 15.7609C0.10848 15.7522 0.0816002 15.7321 0.0547201 15.8425C0.1728 15.829 0.14592 15.8089 0.10848 15.925C0.23808 15.9049 0.210241 15.8809 0.17472 16.0105C0.304321 15.9759 0.25824 15.9577 0.28992 16.1036C0.447361 16.1199 0.425281 16.1535 0.555842 16.3119C0.663362 16.4415 0.722882 16.5366 0.838082 16.6585C1.06176 16.8966 1.21536 17.0271 1.41792 17.2546L4.85569 20.4495C5.13985 20.6482 5.83586 21.1926 6.00962 21.4671C6.25826 21.5151 6.61634 21.8742 6.85058 22.0527C7.03586 22.1948 7.54946 22.5865 7.61282 22.6854C7.7741 22.7804 7.86818 22.8111 8.03906 22.9379C10.0253 24.4067 11.3799 25.2399 13.5984 26.5129L14.6669 27.0831C15.3764 27.3769 16.1444 27.8271 16.9104 28.1679C17.304 28.3427 17.6717 28.502 18.0653 28.671C18.4157 28.8207 18.936 28.9724 19.224 29.1558C20.1284 29.4025 21.0884 29.799 22.0465 30.0841C22.9844 30.3635 24.0481 30.6371 25.0455 30.8128C27.2324 31.2092 28.8452 31.3081 31.0993 31.3801C32.8666 31.4118 34.8923 31.1315 36.5732 30.7993C37.4929 30.5238 38.5489 30.3625 39.4945 30.0793C40.4459 29.7932 41.3809 29.4217 42.2823 29.1644L45.3428 27.8444C48.196 26.4572 50.5 25.1075 53.0392 23.3007C53.2456 23.1539 53.4961 22.9081 53.7333 22.8476C53.8398 22.6441 53.9857 22.5769 54.1845 22.4406C54.3889 22.3004 54.4667 22.2178 54.6875 22.047C55.0686 21.7522 55.3614 21.5036 55.7262 21.2905L58.5621 18.8002C58.9038 18.5084 59.1698 18.1263 59.5096 17.8969L61.0456 16.238C61.2818 15.9903 61.3778 15.9855 61.5323 15.6908C61.4334 15.4988 61.3941 15.4758 61.253 15.2761C61.0965 15.2588 61.1166 15.2242 60.987 15.0678C60.8901 14.9506 60.8392 14.8729 60.7374 14.7577C60.5589 14.5561 60.3678 14.3948 60.1883 14.1989L60.1144 14.1385L60.0472 14.0674L59.9858 13.9945L59.9147 13.9205L59.8456 13.8533L59.7736 13.7861L59.7074 13.718L59.6354 13.6479L59.5778 13.5778C59.1246 13.1977 58.8491 12.8319 58.5966 12.6169L56.5441 10.7967C56.356 10.6268 56.211 10.5538 56.0017 10.3733C55.7694 10.1727 55.7089 10.19 55.5342 9.91542C55.3393 9.87606 55.2597 9.76182 55.0936 9.62166C54.9102 9.46806 54.8593 9.45462 54.6923 9.32982C54.5195 9.20022 53.9848 8.7807 53.9301 8.69622C53.8043 8.66742 53.8216 8.7087 53.8446 8.59638C53.5336 8.53974 53.3915 8.34294 53.1179 8.14134C52.9182 7.99445 52.6926 7.83029 52.4622 7.69013L51.1432 6.79733C50.2772 6.18101 49.3067 5.67221 48.3496 5.09813C47.4395 4.55285 46.372 4.0402 45.388 3.56596L42.3207 2.2258C41.4231 1.98484 40.4526 1.5826 39.4983 1.29844C38.5614 1.01908 37.4948 0.741635 36.4974 0.569795C34.3201 0.172354 32.6938 0.0734733 30.4455 0.00243311C28.6753 -0.029247 26.6554 0.252994 24.9706 0.583235L24.9677 0.582275Z" fill="white"/>
<path fill-rule="evenodd" clip-rule="evenodd" d="M27.7479 9.96438L27.4494 10.1545C27.6346 10.3157 28.1934 10.5682 28.4439 10.7554C29.9799 11.9036 29.857 14.9372 27.6836 15.7868C26.9809 16.0614 25.7578 16.1641 25.1655 15.6889C24.7364 15.5324 24.6615 15.3865 24.3293 15.1446L24.337 16.1756C24.361 16.6748 24.4484 17.1097 24.5933 17.5772C24.698 17.9113 24.9812 18.4825 25.0205 18.711C25.2375 18.9087 25.3921 19.261 25.5677 19.5039C26.1917 20.365 26.1562 20.2479 26.9069 20.8604C27.1652 21.0706 27.5242 21.1878 27.7431 21.4383C27.9524 21.469 28.6023 21.7791 28.9316 21.879C29.402 22.023 29.8455 22.0969 30.3495 22.1295C31.0551 22.1334 31.5975 22.1295 32.2695 21.9596C32.8753 21.806 33.2996 21.5631 33.7911 21.4191C33.8689 21.3193 34.4142 21.0303 34.587 20.8969C34.8769 20.6732 35.1159 20.5004 35.3444 20.271C35.5451 20.0703 35.7841 19.7794 35.9723 19.5174C36.0999 19.3388 36.3735 18.8031 36.4935 18.7206C36.5732 18.4393 36.7047 18.2252 36.8094 17.9343C36.9044 17.6674 36.9793 17.4226 37.0484 17.1394C37.2087 16.4828 37.2174 15.8962 37.1934 15.2031C37.1684 14.7087 37.0724 14.2623 36.9351 13.8054C36.8305 13.455 36.5502 12.9116 36.5079 12.6706C36.2804 12.4633 36.1067 12.0783 35.9377 11.8297C35.09 10.5884 34.059 10.2553 33.7854 9.9423C33.577 9.91254 32.8762 9.58422 32.5441 9.48534C32.0948 9.3519 31.6638 9.28278 31.1799 9.2511C30.4839 9.24726 29.9252 9.25494 29.2609 9.41526C28.6484 9.5631 28.2442 9.80886 27.7479 9.96246V9.96438Z" fill="white"/>
</svg>
