<svg width="64" height="72" viewBox="0 0 64 72" fill="none" xmlns="http://www.w3.org/2000/svg">
<path fill-rule="evenodd" clip-rule="evenodd" d="M5.63696 50.879L5.38736 51.142C5.34128 51.2879 4.20655 52.607 3.99823 52.8931C1.05583 56.9318 0.991505 60.599 0.457743 65.4249C0.350223 66.3955 0.259023 67.3708 0.163023 68.3433C0.0996623 68.9856 -0.306418 70.6454 0.466384 70.9037C1.13839 71.1283 11.5957 70.9632 13.2229 70.9632L61.3881 70.9622C62.7657 70.9613 63.1977 71.1273 63.0345 69.5328C62.6669 65.9395 62.3981 61.5955 61.6291 58.1135C61.0445 55.463 58.7635 51.9263 56.6851 50.2002C52.2556 46.5206 49.031 45.334 43.5369 44.0725C42.3955 43.8105 41.7878 44.5247 42.5356 45.4588C43.0598 46.1126 45.1055 48.7074 44.7801 49.4783C44.4019 50.374 42.9014 49.7423 42.1219 49.8412C40.9996 49.9833 41.6255 51.3446 41.8291 52.0223C42.1641 53.1407 42.5337 53.4326 41.542 54.1699C39.1007 55.9852 36.6268 57.8639 34.149 59.6217C31.3449 61.6108 31.8412 61.7779 30.2649 60.5606C29.0601 59.6303 27.7957 58.7375 26.6101 57.7967C20.0802 52.6175 20.9903 54.719 21.6959 50.9414C21.9628 49.5177 20.6975 49.8249 19.7384 49.8959C17.1243 50.0908 18.5346 48.2783 19.7356 46.5311C20.1714 45.8966 20.9125 45.3446 20.8684 44.5305C20.374 43.6655 19.6396 44.0428 18.7794 44.2405C18.0171 44.4153 17.2683 44.6034 16.5195 44.8262C13.4053 45.7497 11.4335 46.6444 8.7368 48.3753L5.636 50.878L5.63696 50.879Z" fill="white"/>
<path fill-rule="evenodd" clip-rule="evenodd" d="M30.6495 0.0431596C22.8466 0.652761 16.7986 7.01758 14.6501 14.2426C12.973 19.8807 13.4904 22.4544 13.9166 27.8007C14.556 35.8311 11.1451 33.601 10.5403 35.6938C10.259 36.6701 10.9771 37.5975 11.6184 38.2474C15.1147 41.786 18.3317 41.5076 22.548 39.3303C24.8319 38.1505 25.4328 37.0829 23.5368 34.9709C21.4709 32.6708 19.4338 27.7162 18.7167 24.6941C18.2069 22.5447 18.7589 20.712 20.365 19.2019C22.1448 17.5286 23.5522 17.6333 25.7122 16.9949C27.6034 16.4362 29.4821 15.2659 31.3973 15.0816C32.8604 14.9414 36.3135 15.383 37.2332 16.6685C37.9445 17.664 38.7078 20.8723 41.7414 23.4951C42.4806 24.1335 43.2687 24.4925 43.4847 25.5504C43.7785 26.9923 42.6082 30.0797 41.9516 31.4372C41.535 32.2983 41.0694 33.0212 40.549 33.818C39.0111 36.1719 36.4556 37.6081 41.8719 39.9946C43.8486 40.8663 46.1305 41.2657 48.2166 40.5245C50.1817 39.8276 54.6563 36.2967 51.5564 34.6301C50.5273 34.0772 50.1001 34.0148 49.5971 32.8292C47.8547 28.7252 51.5027 22.2595 47.9487 12.7546C45.3452 5.79261 38.5311 -0.574122 30.6505 0.0412396L30.6495 0.0431596Z" fill="white"/>
<path fill-rule="evenodd" clip-rule="evenodd" d="M41.1991 46.9114C41.5178 45.8343 40.192 45.0001 39.3703 45.7633C38.6916 46.394 38.3124 46.9095 37.5127 47.498C33.5219 50.4298 27.8243 49.897 24.4787 46.1415C23.7971 45.3764 22.6154 45.2151 22.3053 46.2788C21.7379 48.2218 29.6205 54.3678 37.3418 50.2474C38.3364 49.7166 40.8823 47.9857 41.2 46.9124L41.1991 46.9114Z" fill="white"/>
<path fill-rule="evenodd" clip-rule="evenodd" d="M5.3877 51.1419L5.6373 50.8789L5.3877 51.1419Z" fill="white"/>
</svg>
