<?xml version="1.0" encoding="UTF-8"?>
<!DOCTYPE svg PUBLIC "-//W3C//DTD SVG 1.1//EN" "http://www.w3.org/Graphics/SVG/1.1/DTD/svg11.dtd">
<!-- Creator: CorelDRAW -->
<svg xmlns="http://www.w3.org/2000/svg" xml:space="preserve" width="0.787402in" height="0.787402in" version="1.1" style="shape-rendering:geometricPrecision; text-rendering:geometricPrecision; image-rendering:optimizeQuality; fill-rule:evenodd; clip-rule:evenodd"
viewBox="0 0 787.4 787.4"
 xmlns:xlink="http://www.w3.org/1999/xlink"
 xmlns:xodm="http://www.corel.com/coreldraw/odm/2003">
 <defs>
  <style type="text/css">
   <![CDATA[
    .fil0 {fill:black}
   ]]>
  </style>
 </defs>
 <g id="Layer_x0020_1">
  <metadata id="CorelCorpID_0Corel-Layer"/>
  <g id="_2505757117040">
   <path class="fil0" d="M112.9 261.96l-0.44 -85.63c0.23,-32.99 30.96,-25.42 60.28,-25.42l427.91 0.05c25.52,0 63.64,-6.93 67.8,17.74l0.42 85.29c-0.29,32.81 -31.21,25.35 -60.19,25.35 -57.06,0 -114.11,0.01 -171.17,0.02l-299.59 0.07c-14.25,-0.11 -23.17,-6.51 -25.02,-17.46zm-42.72 2.68c2.86,28.85 24.31,50.42 50.57,56 20.58,4.37 80.62,1.47 105.48,1.47l320.93 0.04c32.26,0 75.88,2.49 106.78,-0.39 29.1,-2.71 50.88,-24.17 56.32,-50.58 2.91,-14.13 2.58,-88.89 0.96,-105.37 -2.85,-28.87 -24.51,-51.04 -50.49,-56.24 -21.59,-4.33 -79.99,-1.36 -105.55,-1.36 -71.32,0.01 -142.64,0.02 -213.96,0.03 -19.79,0 -199.12,-1.02 -213.75,0.4 -28.77,2.79 -50.82,24.31 -56.24,50.55 -2.84,13.76 -2.67,89.23 -1.06,105.46z"/>
   <path class="fil0" d="M113.09 629.7c2.66,21.81 16.02,37.89 28.62,45.74 21.06,13.13 38,10.46 64.66,10.46l374.21 0.01c27.53,0 43.11,1.57 62.4,-12.54 34.65,-25.36 25.9,-72.89 25.9,-123.9l-0.26 -187.08c-1.2,-9.59 -8.85,-17.7 -18.71,-18.72 -29.96,-3.08 -23.9,34.82 -23.9,50.68 -0.01,49.93 -0.01,99.85 -0.01,149.77 0,101.43 9.57,98.91 -50.77,98.91l-374.42 0.02c-28.78,0 -45.58,3.01 -45.47,-29.26l-0.02 -224.58c0,-10.53 1.8,-26.5 -2.92,-34.66 -3.88,-6.72 -13.3,-13.89 -25.29,-9.81 -20.18,6.86 -14.53,36.63 -14.54,60.3 0,31.89 -1.42,208.82 0.51,224.67z"/>
   <path class="fil0" d="M294.82 486.61c1.22,7.33 7.39,13.66 13.15,15.86 8.15,3.11 75.2,1.55 86.74,1.55 17.46,0 73.71,3.02 83.74,-4.5 4.82,-3.61 9.75,-10.98 8.2,-20.59 -3.07,-18.94 -21.56,-17.76 -41.12,-17.76l-117.67 0.01c-16.57,-0.03 -36.82,2.74 -33.04,25.42z"/>
  </g>
 </g>
</svg>
