<svg width="71" height="46" viewBox="0 0 71 46" fill="none" xmlns="http://www.w3.org/2000/svg">
<path fill-rule="evenodd" clip-rule="evenodd" d="M46.4161 32.9552C47.2696 33.0435 47.8235 33.2355 48.7912 33.2038C49.3067 33.1866 50.7188 32.7872 50.9656 32.9197L51.7163 33.4957C51.9707 33.6954 52.2049 33.8355 52.4987 34.0333C53.0238 34.3875 53.5825 34.6506 54.1211 35.0211C53.1093 35.9725 50.8936 36.8499 49.0235 36.8931C48.7441 36.6061 48.5492 36.2826 48.2881 35.9139L46.4161 32.9552ZM51.6721 32.457C52.036 32.3168 52.4526 31.952 52.7099 31.855C53.0229 31.737 53.8312 31.8944 54.2277 31.9107C55.3566 31.9578 56.2417 31.8474 57.3333 31.7437C57.1921 32.071 56.5134 32.8026 56.2293 33.1328C55.8933 33.5245 55.4142 34.1168 54.9313 34.3683C54.0222 33.9622 52.1944 32.9907 51.6721 32.457ZM47.9905 36.872C46.8865 36.8682 42.9716 35.8851 42.5022 35.3216C42.2679 35.0403 40.8635 30.8086 40.6532 30.1318C40.9777 30.2797 41.403 30.584 41.7419 30.7981C42.1047 31.0275 42.4811 31.255 42.8708 31.4576C45.4158 32.7834 45.1153 32.0912 45.9832 33.6282C46.1944 34.0035 46.4382 34.4125 46.6465 34.7542L47.9905 36.871V36.872ZM15.29 29.7517C16.561 29.2592 17.3597 28.8185 18.8948 28.5257C20.0996 28.2963 22.2289 28.1705 23.3866 28.4595C23.5729 28.7984 23.69 29.3984 23.8695 29.816L24.3553 29.7094C24.4493 29.3878 24.2266 28.9453 24.1364 28.5718C25.4468 28.7648 27.2583 29.3523 28.3844 29.8515C27.7028 30.1434 26.6391 30.4083 25.9009 30.6301L13.512 34.4106C12.5626 34.6966 9.17666 35.9187 8.41058 35.6787C8.8157 35.1066 9.31202 34.6304 9.79395 34.1168C10.32 33.5571 10.7347 33.175 11.28 32.6451C12.0557 31.8915 13.728 30.4803 14.665 30.127C15.0048 30.6714 15.0759 31.8666 15.4426 32.3686C16.6042 32.409 15.4109 31.1571 15.2909 29.7517H15.29ZM44.8302 28.3155C44.3089 27.9065 43.4564 27.3862 42.8699 26.792C40.9028 24.7981 39.7835 23.7469 38.6612 20.5875C37.1127 16.2281 37.6619 11.6508 39.8699 7.83193L42.0999 4.93273C44.4318 2.48184 47.8177 0.797998 51.435 0.438957C53.1813 0.266157 56.2523 0.437997 57.5329 1.12152C51.8363 0.605998 48.531 0.460077 43.9508 3.82873C43.5822 4.10041 43.372 4.30201 43.0331 4.61785C41.931 5.64505 41.9358 5.72857 41.0343 6.81913C40.8596 7.03033 40.8635 7.07929 40.7214 7.28473C37.5179 11.934 37.4055 17.984 40.2097 22.9232C41.3204 24.8806 42.1623 25.3357 43.1886 26.6317C43.3384 26.8198 43.4536 26.8822 43.6187 27.0531L44.4635 27.919C44.8158 28.303 45.0472 28.2262 44.8302 28.3136V28.3155ZM20.8004 19.4921C23.8465 19.4883 24.3677 19.9462 26.8426 20.792L27.2007 27.4889C24.4417 26.7958 23.7303 26.2765 20.378 26.4205L20.8004 19.4912V19.4921ZM41.4587 34.8704C40.8942 34.737 39.3591 33.801 38.7467 33.4803C37.8462 33.008 37.0033 32.4685 36.1239 31.9837C35.859 31.8378 35.6334 31.7955 35.5287 31.4874C35.3079 30.8384 34.4516 25.9088 34.4334 25.5574L38.5422 28.6313C39.7959 29.5165 39.5886 29.2285 39.9351 30.3469C40.3854 31.7994 41.115 33.6406 41.4587 34.8704ZM3.87361 40.5632C3.95713 39.8538 4.30081 38.7229 4.48513 37.9818C5.34817 34.5075 5.21761 34.2771 6.98594 31.1533C7.38722 30.4448 7.8029 29.7805 8.17826 29.1574C8.75906 28.1945 9.4013 27.2989 10.0944 26.4118C10.2375 26.2285 10.2451 26.1699 10.4199 25.9568C10.8259 25.4614 11.8887 24.1309 12.265 23.8899C12.025 25.6697 11.6391 27.4957 11.3491 29.3072C11.0621 31.1034 11.3549 30.536 10.4189 31.4768L9.29282 32.6806C8.45378 33.6262 7.63682 34.7715 6.87362 35.7824C6.73346 35.9686 6.71522 36.0464 6.57026 36.2586C6.47234 36.4016 6.34754 36.5446 6.24098 36.703C5.57665 37.688 4.22209 40.0899 3.87361 40.5632ZM41.1486 23.671C40.5927 23.0048 39.866 21.5811 39.4868 20.5385C37.8385 16.0121 38.4903 11.0307 41.1822 7.27993C41.8983 6.28249 42.482 5.53273 43.4574 4.73305C43.6868 4.54489 43.8337 4.39513 44.0833 4.19545C45.0337 3.43224 46.6292 2.53944 47.8696 2.07384C48.7816 1.73112 50.6718 1.18488 51.7115 1.24728C51.0568 1.24824 48.9304 2.08824 48.3169 2.36472C47.211 2.86296 45.7518 3.78457 44.8273 4.62649C44.6027 4.83097 44.4136 4.94905 44.186 5.15449C43.7252 5.57209 43.5121 5.87449 43.1185 6.34201C42.3793 7.22137 41.7889 7.98266 41.2388 9.0473C39.4235 12.5638 38.8254 16.4057 39.8967 20.4348C40.3623 22.1849 40.6715 22.4249 41.1495 23.672L41.1486 23.671ZM29.0602 28.2406C28.1434 27.8297 28.2164 28.1753 28.1348 27.0944C27.9985 25.2934 27.8199 23.0153 27.7978 21.2633C28.4698 21.4755 33.3438 24.4457 33.4935 24.968L33.9169 27.5849C34.1098 28.7485 34.3719 29.9101 34.5486 31.0544C34.0954 30.8614 33.6644 30.5619 33.2026 30.3171C31.753 29.5481 30.6068 28.9337 29.0602 28.2406ZM12.2352 29.8198C12.4186 28.2233 12.8506 25.7005 13.1511 24.0253C13.3997 22.6371 13.2048 22.9328 13.7597 22.4576C15.3917 21.0636 17.52 19.9011 19.7991 19.5929L19.3748 26.5184C17.6064 26.9801 17.2272 26.9043 15.4263 27.7779C14.8704 28.0477 14.2148 28.4201 13.7501 28.7437L12.2352 29.8198ZM3.02593 20.3763C3.17665 19.6313 3.14785 19.878 4.84609 19.352C4.75681 20.0556 4.49569 19.9616 3.02593 20.3763ZM2.94913 20.815C9.07202 18.8153 15.7584 16.9577 21.9937 14.9897L28.3316 13.0774L30.7258 20.9494C30.5002 20.8784 29.7217 20.3312 29.4442 20.1584C29.1236 19.9577 28.4132 19.6265 28.1876 19.3817C28.2164 19.3731 28.4094 19.3155 28.417 19.3126L28.5236 18.6848C28.0657 18.702 27.914 18.8614 27.5454 18.9238C27.1671 18.9881 25.801 18.2825 24.9821 18.0108C23.4145 17.4915 22.6282 17.5241 20.9607 17.3427L27.4388 15.3804C27.4599 14.3724 26.7399 14.934 24.8353 15.4966L16.2615 18.1174C14.3453 18.7097 12.4109 19.2723 10.4832 19.879C9.57987 20.1632 5.23681 21.367 4.81249 21.6617C4.82113 21.8825 4.88353 22.0246 4.96801 22.1638C5.43169 22.1581 14.6573 19.208 15.7853 18.9401L12.3812 21.6992C12.1949 21.8941 12.0768 22.0246 11.9069 22.2358C11.7399 22.4432 11.5853 22.5641 11.4231 22.7609C11.0957 23.1574 10.8231 23.5433 10.4957 23.936C10.1808 24.3152 9.66146 24.3718 9.09026 24.5475C8.04962 24.8681 6.9965 25.2013 5.99522 25.4806C6.03074 26.0729 6.1421 26.1238 6.67394 25.9501C7.00418 25.8416 7.2893 25.7619 7.62818 25.6563C8.25698 25.4605 8.9981 25.1993 9.62978 25.0601C9.49922 25.3395 9.27554 25.5814 9.12386 25.831C8.0669 27.5696 7.54274 28.328 6.47522 30.2576L6.04226 30.9978L2.94625 20.814L2.94913 20.815ZM5.15425 19.7273C5.33281 19.0563 5.28865 19.2108 5.95586 19.0092C6.2285 18.9276 6.75074 18.7328 7.00418 18.7232C6.80354 19.3318 6.94466 19.2022 6.27074 19.398C5.90306 19.5046 5.53249 19.64 5.15425 19.7273ZM53.8302 1.31928C62.5058 0.761518 69.3851 7.30681 69.9698 15.2787C70.3672 20.6873 68.141 25.1254 64.1406 28.3741C59.3378 32.2726 52.2184 32.5856 46.8529 29.2573C46.0052 28.7312 44.3608 27.4227 43.755 26.6835C43.4785 26.3465 43.1972 26.0528 42.8977 25.6765C42.627 25.3366 42.3889 24.968 42.1297 24.5792C39.5147 20.6585 39.0769 15.3171 40.7732 10.9155C41.1044 10.0563 41.5873 9.08474 42.0471 8.38106C43.1934 6.62617 43.6744 6.20665 45.1211 4.84729C47.1438 2.94456 50.858 1.51128 53.8302 1.32024V1.31928ZM7.29794 19.0668C7.52546 18.1481 7.6877 18.6675 8.3021 18.246C9.28514 17.5702 7.49282 16.0496 8.67938 15.6675C9.05762 15.5456 9.67778 15.3372 10.0781 15.271L8.93762 18.5859L7.2989 19.0678L7.29794 19.0668ZM2.65249 15.15C2.87521 14.9561 3.15361 14.9139 3.47521 14.816C5.02849 14.3417 4.65313 14.383 5.78977 14.8198C5.97025 14.8889 7.28354 15.3315 7.33346 15.3737C7.49666 15.512 7.77986 16.6342 7.8461 16.9203C7.49858 16.8492 7.13474 16.8396 7.00034 17.1824C6.81698 17.648 7.1117 17.8332 7.33442 18.0214L3.81793 19.0592C4.02337 18.7155 3.92161 18.4726 3.74497 18.2067C3.06625 18.0358 3.08257 18.1472 2.76577 18.5446L2.02177 16.0726C2.76193 16.6044 3.45217 15.5398 2.65441 15.1491L2.65249 15.15ZM9.44066 18.4198C9.60386 17.6595 9.99651 16.686 10.2509 15.918C10.5168 15.1155 10.272 15.0828 12.1978 14.6153C12.0548 15.3488 11.6333 16.3827 11.3895 17.1334C11.136 17.9139 11.2935 17.982 9.44066 18.4208V18.4198ZM0.446401 14.8236C0.918723 14.5961 1.48512 14.1833 1.94305 14.024C1.8048 15.4601 1.4208 14.7065 1.31328 15.4496C1.24896 15.8921 1.63008 16.4864 1.6368 16.9395C1.46688 16.7561 0.528961 15.0915 0.446401 14.8236ZM11.5747 17.7545C11.7783 16.9721 12.1325 16.0505 12.3956 15.2614C12.6298 14.5548 12.3898 14.3859 14.3492 13.9577C14.1629 14.7372 13.7866 15.6742 13.5207 16.471C13.3258 17.0556 13.4429 17.2169 12.8256 17.4032C12.4493 17.5164 11.9626 17.6931 11.5747 17.7555V17.7545ZM13.7357 17.1123C13.825 16.5296 14.3136 15.272 14.5229 14.6643C14.8589 13.686 14.6544 13.8396 15.1738 13.6908C15.6288 13.5603 16.0234 13.398 16.4871 13.3107C16.2903 14.12 15.9341 15.0185 15.6701 15.8163C15.3888 16.6688 15.6922 16.5833 13.7367 17.1123H13.7357ZM2.25217 14.6748C2.26657 14.4934 2.29057 13.9817 2.35681 13.8416C2.42593 13.6956 2.61793 13.616 2.79457 13.5142C3.15553 13.3059 3.50497 13.0553 3.89665 12.9324L3.74977 14.2438L2.25313 14.6739L2.25217 14.6748ZM15.8573 16.4489C16.0868 15.6118 16.4112 14.7555 16.682 13.9491C16.9229 13.231 16.6023 13.1139 18.625 12.6473C18.4695 13.3683 18.0682 14.3705 17.8253 15.0963C17.5152 16.0265 17.664 15.9334 17.1764 16.0745C16.7453 16.1984 16.2836 16.3683 15.8583 16.448L15.8573 16.4489ZM4.14721 14.1094C4.17121 13.7926 4.20577 13.4892 4.23649 13.1724C4.28161 12.7164 4.21921 12.7241 4.53313 12.5321C4.86337 12.3305 5.51233 11.9369 5.83969 11.838C5.59681 14.9148 5.69953 14.12 4.91905 13.9731C4.62721 13.9184 4.42465 14.0518 4.14721 14.1094ZM27.5242 10.4374L28.2001 12.7116L26.5537 13.1859L27.5242 10.4374ZM19.0368 12.6521C19.1981 12.3459 20.4356 12.0531 20.7687 12.0214C20.5297 12.8268 20.2196 13.686 19.9489 14.5001C19.7386 15.1328 19.8711 15.2585 19.2567 15.4342C18.8458 15.5513 18.4196 15.702 18.002 15.8057L19.0368 12.6521ZM5.9693 14.3417C5.98562 13.6611 6.10658 12.5407 6.20738 11.8553C6.26018 11.4991 6.1949 11.6124 6.46946 11.4387L7.79234 10.7455L7.43522 14.2044C6.88322 14.4416 6.65282 14.8294 5.96834 14.3417H5.9693ZM20.1457 15.1433C20.33 14.3552 20.7005 13.4124 20.9607 12.631C21.2823 11.6623 20.9338 11.9359 22.8884 11.3417C22.8721 11.7276 22.273 13.2924 22.1117 13.7859C21.7988 14.7459 21.9553 14.623 21.4637 14.768C21.0212 14.8995 20.5892 15.0483 20.1447 15.1433H20.1457ZM22.2788 14.4982C22.4679 13.712 22.8404 12.7759 23.1044 11.9763C23.3069 11.3638 23.1841 11.2265 23.809 11.0518C24.2132 10.9385 24.6682 10.7638 25.0532 10.7014C24.8477 11.5001 24.4916 12.3871 24.2343 13.1878C24.0116 13.8838 24.2122 14.096 22.2778 14.4972L22.2788 14.4982ZM24.4301 13.8444C24.5866 13.0812 25.0052 12.079 25.2529 11.3244C25.4871 10.6111 25.1991 10.4835 27.2065 10.0419L26.1188 13.3452L24.4301 13.8435V13.8444ZM7.84322 13.9337C7.88546 13.0073 8.03906 12.0099 8.1293 11.0748C8.20898 10.2569 8.14562 10.4796 9.73155 9.6329C9.70275 10.5295 9.5357 11.5635 9.44738 12.4755C9.37058 13.2636 9.4253 13.0707 8.82338 13.398C8.48066 13.5843 8.17058 13.7542 7.84322 13.9327V13.9337ZM9.79778 12.8326C9.80354 11.983 9.99843 10.8655 10.08 9.98618C10.153 9.20186 10.0627 9.36506 11.6832 8.53466C11.6477 9.4505 11.4836 10.4575 11.3981 11.3859C11.3184 12.246 11.3712 11.9571 9.79778 12.8326ZM13.6378 7.43353C13.585 8.37434 13.4304 9.36314 13.344 10.3068C13.2797 11.0201 13.3028 10.8972 12.7047 11.215C12.3754 11.3907 12.0864 11.5769 11.7341 11.7343L12.0999 8.2745L13.6378 7.43257V7.43353ZM15.5933 6.33433C15.5098 7.28473 15.3888 8.20826 15.3034 9.15962C15.2362 9.90554 15.2794 9.77978 14.6928 10.0966C14.3607 10.2751 14.066 10.4911 13.682 10.6207L14.0487 7.18105L15.5924 6.33529L15.5933 6.33433ZM17.5479 5.23609L17.1562 8.64794C16.994 8.8505 16.7165 8.96954 16.4381 9.12122C16.1588 9.2729 15.9236 9.43802 15.6308 9.53594L15.9956 6.08665L17.5479 5.23609ZM17.5872 8.4377C17.6602 7.48249 17.7984 6.53593 17.8858 5.57401C17.953 4.83673 17.9232 4.98361 18.5127 4.66585C18.8324 4.49401 19.1376 4.30393 19.5024 4.13977L19.0964 7.56409C18.8861 7.8041 17.9252 8.31674 17.5872 8.43674V8.4377ZM23.8215 2.35704C23.834 2.37144 23.8503 2.39064 23.8628 2.40696L24.1018 2.80344C24.3476 3.26328 24.7479 3.86617 24.9303 4.33561L23.4375 5.14969L23.8215 2.35704ZM19.5389 7.34425C19.6138 6.37945 19.7473 5.45593 19.8337 4.49401C19.9047 3.70008 19.8634 3.90265 20.4596 3.58009C20.8119 3.38904 21.0721 3.20376 21.4493 3.04152L21.0884 6.47929C20.8157 6.67801 19.8634 7.22041 19.5389 7.34521V7.34425ZM21.4935 6.24793C21.5473 5.30905 21.6951 4.35193 21.7796 3.40728C21.8516 2.59704 21.7796 2.8188 22.3959 2.48568C22.7357 2.30136 23.0314 2.09304 23.3991 1.95192L23.0391 5.39545L21.4935 6.24793ZM7.16834 14.8246C7.3661 14.6115 7.53026 14.5616 7.76066 14.4329L11.736 12.1903C14.7216 10.4796 18.0116 8.74874 20.8887 7.03993L24.3178 5.10553C24.6519 4.92409 25.1319 4.68313 25.3901 4.49785C25.369 4.28761 24.0481 1.71576 23.6823 1.40088C23.3309 1.45944 15.6567 5.82265 14.7072 6.37561L8.79746 9.7145C7.82594 10.2444 6.85058 10.7955 5.85986 11.3647C4.89313 11.9206 0.508801 14.2736 0 14.7286C0.1008 15.3728 1.41888 17.1056 1.728 18.102C2.13313 19.4048 2.54113 20.7305 2.93089 22.0323C3.70849 24.631 4.50433 27.3037 5.32321 29.8986C5.59969 30.7731 5.91938 31.3549 5.66594 31.8502C4.36225 34.4077 4.53505 34.663 3.76225 37.641C3.46945 38.7699 1.71936 45.2077 1.79136 45.777C2.21089 45.7482 2.12929 45.6964 2.32225 45.2989L3.22465 43.5565C4.11841 41.8554 5.52865 39.5907 6.63266 38.0269C6.8141 37.7706 7.8749 36.0982 8.21186 36.0512C8.37026 36.0291 8.74562 36.1395 9.0653 36.1078C9.30338 36.0848 9.53762 36.007 9.75362 35.9408L28.897 30.1194C29.7178 30.0714 37.2673 34.2666 38.3607 34.8752C41.0766 36.3843 45.4897 38.4253 49.3316 38.169C53.0718 37.9184 56.0805 35.5501 58.0897 32.7344C58.3192 32.4128 58.6494 32.0259 58.8347 31.6918C59.1112 31.1936 59.1045 31.3674 59.9906 31.0611C60.8594 30.7616 61.7243 30.368 62.4616 29.9552C63.4782 29.3869 63.3918 29.3619 64.0984 28.8742C66.3583 27.3152 68.1285 24.919 69.197 22.3875C72.1586 15.3632 69.5973 7.5449 63.2114 3.34008C62.259 2.7132 58.8606 1.12632 57.7163 0.750958C51.6347 -1.24201 44.8043 0.839279 40.8692 5.72089C37.1924 10.2819 36.4254 16.2915 38.7015 21.7107C39.7028 24.0934 41.6113 26.4704 43.5793 27.8739C44.7985 28.7427 45.6798 29.2928 47.0987 29.8746C47.5432 30.057 47.858 30.2624 48.2996 30.4602L50.9406 31.4451C50.5211 31.7936 49.2212 31.9674 48.5588 31.9683C46.3067 31.9741 44.0238 30.801 42.2564 29.6624C40.3902 28.4595 36.7873 25.7187 35.2187 24.3382C35.1131 24.2451 34.9863 24.1213 34.8471 24.0128C34.5726 23.7997 34.2913 23.6038 34.0138 23.3657C33.5233 22.9453 32.9415 22.5363 32.3636 22.1379C31.1146 21.2758 31.274 21.4246 31.0158 20.6115L27.7047 9.77402C27.6106 9.57818 27.7086 9.70682 27.5617 9.57722C27.3092 9.52538 9.92643 14.8995 8.0573 15.4659C7.6733 14.9811 8.08994 15.0108 7.1693 14.8246H7.16834Z" fill="white"/>
<path fill-rule="evenodd" clip-rule="evenodd" d="M53.9885 2.17523C57.0423 2.00147 60.0375 2.76755 62.498 4.34579C63.8535 5.2146 63.4849 5.0562 64.5178 5.90004C64.9028 6.21396 65.0813 6.45204 65.426 6.78324C66.0778 7.41012 66.507 8.1282 66.9697 8.81364C67.2414 9.21589 67.4132 9.52021 67.6292 9.94357C72.3073 19.1346 66.0692 30.142 55.8452 30.7977C47.6419 31.3238 41.0381 25.0482 40.5571 17.4421C40.0349 9.19381 46.3575 2.60915 53.9904 2.17427L53.9885 2.17523ZM40.1683 17.134C40.2336 19.2306 40.8547 21.3522 41.663 23.0034C42.0461 23.7839 42.6134 24.7151 43.0445 25.2758C43.4323 25.7807 44.3059 26.8185 44.7571 27.214C45.9898 28.295 47.3347 29.2924 49.2605 30.0988C51.097 30.8678 53.2608 31.2575 55.4602 31.1884C59.2416 31.0684 63.2612 29.206 65.5498 26.6015C66.9284 25.0338 67.5006 24.3234 68.4615 22.126C69.2334 20.3596 69.6538 18.0441 69.5684 15.8898C69.3678 10.8085 66.8151 7.26804 63.9524 4.91123C63.6164 4.63475 63.2362 4.38419 62.8599 4.13651C53.3981 -2.11502 39.7776 4.60883 40.1674 17.134H40.1683Z" fill="white"/>
<path fill-rule="evenodd" clip-rule="evenodd" d="M56.332 27.3114C55.3365 27.4016 53.7467 27.4909 52.8779 27.2L52.7598 26.5242C54.3515 26.7056 55.0984 26.7853 56.7045 26.5578C56.6411 26.89 56.4654 27.0983 56.332 27.3114ZM53.0411 25.4259C53.6526 25.4605 54.1796 25.5786 54.8372 25.5796C55.4257 25.5805 56.2168 25.4154 56.691 25.448L56.8475 26.0682L54.8372 26.3476C54.099 26.3456 53.5134 26.2448 52.8184 26.1412L53.0401 25.4269L53.0411 25.4259ZM56.3176 25.064C55.5774 25.3242 54.2084 25.1773 53.403 25.0967C53.62 24.5821 54.7902 24.2135 55.6926 24.5994C55.9163 24.6954 56.2043 24.8643 56.3176 25.064ZM54.147 23.5635C50.1294 24.5571 51.724 30.4919 55.6254 29.5069C59.5144 28.5258 58.0638 22.5949 54.147 23.5635Z" fill="white"/>
<path fill-rule="evenodd" clip-rule="evenodd" d="M60.7333 10.0725C60.9675 10.277 61.22 10.5928 61.4053 10.732C60.7438 10.7042 60.0075 10.035 59.9317 9.43697C60.1352 9.53681 59.9883 9.45329 60.1966 9.60305C60.2638 9.65201 60.3147 9.68849 60.3742 9.73553C60.5192 9.85361 60.5998 9.95633 60.7333 10.0725ZM59.9528 8.99441C59.995 8.68433 60.0862 8.42608 60.2158 8.22736C61.1 8.72944 62.1877 9.71729 62.7368 10.5851C62.5045 10.6994 62.2193 10.7838 61.8891 10.7886C61.6453 10.2933 60.5384 9.22097 59.9518 8.99441H59.9528ZM62.3633 8.59889C62.6149 8.83121 63.3905 9.58577 63.547 9.90545C63.4232 10.203 63.3445 10.2683 63.0305 10.3806C62.0081 8.8888 61.5022 8.8216 60.4597 7.87792L60.9809 7.46704C61.5233 7.73488 62.0014 8.26384 62.3633 8.59889ZM63.7793 9.50897C63.5326 9.31217 63.0689 8.58352 61.4139 7.2904C61.5637 7.08784 62.2625 7.15024 62.4958 7.30096C63.1889 7.75216 64.2929 8.60273 63.7793 9.50897ZM61.243 6.31216C59.8222 6.71728 58.5598 8.11504 59.0581 10.0398C60.0555 13.8943 65.9806 12.4936 65.0053 8.52881C64.6482 7.07728 63.115 5.77744 61.243 6.31216Z" fill="white"/>
<path fill-rule="evenodd" clip-rule="evenodd" d="M52.8528 6.87273C53.519 6.52137 55.7443 6.64425 56.5421 6.77673C56.4192 7.08297 56.2608 7.21833 56.1014 7.42762C55.5081 7.49674 54.7641 7.36809 54.0672 7.43529C53.7081 7.46985 53.231 7.6705 52.8528 6.87273ZM52.775 6.45129C52.7645 5.88585 52.7251 5.76393 53.2627 5.68905C54.1737 5.56137 56.0496 5.46057 56.8272 5.78697L56.7408 6.33993L55.7328 6.29865C54.2064 6.17097 53.9059 6.40809 52.7741 6.45033L52.775 6.45129ZM53.0765 5.32809C53.4345 4.64649 53.7629 4.53513 54.7632 4.53513C55.8893 4.53513 56.2713 4.51401 56.664 5.33961C55.1779 5.18025 54.5049 5.27337 53.0765 5.32809ZM54.4627 3.34376C50.3846 3.91977 51.3053 10.0455 55.343 9.40906C59.2771 8.7889 58.4525 2.7812 54.4627 3.34376Z" fill="white"/>
<path fill-rule="evenodd" clip-rule="evenodd" d="M46.9272 10.6825C47.196 10.1785 48.9268 8.47065 49.5259 8.22681C49.6526 8.47737 49.6661 8.74041 49.6392 9.08409C48.2501 9.85209 47.9409 11.3324 46.9272 10.6825ZM46.0084 10.1382C46.1899 9.91257 46.3838 9.57657 46.594 9.35385C47.1326 8.78361 48.1022 7.80441 48.7752 7.46553C49.0325 7.58841 49.1409 7.67385 49.2734 7.88313C49.2187 7.93977 49.2235 7.93305 49.1361 8.00409C49.1179 8.01849 49.0622 8.06073 49.044 8.07513C46.7092 9.86937 47.2401 9.89817 46.5019 10.5625L46.0084 10.1372V10.1382ZM45.6801 9.83097C45.6024 9.36537 45.5294 9.01881 45.778 8.69337L47.148 7.34553C47.4168 7.12857 47.8209 7.12185 48.2328 7.23033C48.2731 7.36665 48.3038 7.25337 48.1531 7.41177C48.1003 7.46745 48.0379 7.50105 47.9774 7.54809C46.6363 8.58393 45.9998 9.61209 45.6811 9.83194L45.6801 9.83097ZM47.266 6.23768C45.706 6.50072 44.3438 7.87545 44.6846 9.79449C44.9496 11.2863 46.4452 12.6265 48.2808 12.2751C49.7688 11.991 51.0398 10.5913 50.7326 8.72889C50.4926 7.26873 49.0056 5.94296 47.2651 6.23768H47.266Z" fill="white"/>
<path fill-rule="evenodd" clip-rule="evenodd" d="M62.1446 25.1532C62.4259 24.8335 62.7734 24.6108 63.0749 24.2824L63.9648 23.2408C63.8208 24.3084 63.1776 24.9967 62.1446 25.1532ZM60.744 24.9189L62.2109 23.6498C62.6515 23.1957 63.0749 22.5189 63.2717 22.3L63.5011 22.1023L63.8774 22.6341C63.6662 22.9634 63.5011 23.1727 63.2477 23.4415C62.8531 23.8591 62.351 24.5042 61.7894 24.9372C61.3593 25.2693 61.224 25.0908 60.744 24.918V24.9189ZM60.4051 24.6309C60.264 24.4744 60.0662 24.3276 59.9721 24.052C60.0595 23.9378 61.0617 23.2428 61.8941 22.2434C62.0592 22.0447 62.2694 21.7452 62.4585 21.5925C62.76 21.6645 62.8953 21.6866 63.097 21.8757C62.9097 22.3202 62.2214 23.0421 61.8816 23.3973C61.1645 24.1461 61.2518 23.9503 60.8045 24.3429C60.5837 24.5359 60.6499 24.5061 60.4061 24.6309H60.4051ZM59.9299 23.5519C59.9625 22.998 60.2448 22.4316 60.4934 22.1637C60.7795 21.8556 61.32 21.6108 61.9353 21.5455C61.4669 22.3087 60.6653 23.1074 59.9299 23.5519ZM61.247 20.694C59.8445 21.0511 58.5609 22.542 59.0553 24.4216C60.0653 28.2597 66.0019 26.8773 65.0016 22.9106C64.6291 21.4332 63.1613 20.2053 61.247 20.694Z" fill="white"/>
<path fill-rule="evenodd" clip-rule="evenodd" d="M46.2111 17.1312C46.0403 16.7165 46.1017 15.5837 46.2889 15.167C46.7075 15.5808 46.8524 16.4592 46.2111 17.1312ZM45.8195 17.5968C45.59 17.7091 45.4067 17.8512 45.1062 17.9242C44.9871 16.5053 45.0159 15.864 45.206 14.4758C45.5017 14.5277 45.7119 14.6294 45.9049 14.8022C45.8876 15.2429 45.8003 15.6729 45.782 16.1232C45.7619 16.6349 45.8223 17.1024 45.8195 17.5968ZM44.7471 18.0221L44.1116 18.0096C43.8169 17.4566 43.9667 15.5779 44.0713 14.8387C44.1481 14.2963 44.2681 14.3942 44.8451 14.3894C44.6435 15.8227 44.5964 16.5562 44.7471 18.023V18.0221ZM43.6614 17.8493C42.807 17.5267 42.8953 17.1917 42.9164 16.201C42.9366 15.2717 43.0623 14.9673 43.7305 14.6361C43.5903 15.8294 43.5539 16.6349 43.6614 17.8483V17.8493ZM44.2297 13.4649C42.6707 13.728 41.3286 15.1162 41.6588 17.0131C42.3558 21.0192 48.4287 19.9411 47.7049 15.9504C47.438 14.4835 46.0028 13.1645 44.2287 13.4649H44.2297Z" fill="white"/>
<path fill-rule="evenodd" clip-rule="evenodd" d="M47.6364 25.1671C47.0901 25.2305 46.4815 24.9588 46.1829 24.7025C45.7509 24.3329 45.5992 24.0055 45.6885 23.1722L45.9775 23.4295C46.0802 23.5553 46.084 23.5812 46.1752 23.6993L47.6354 25.1661L47.6364 25.1671ZM48.8008 24.7524C48.7557 24.7946 48.7384 24.8157 48.6655 24.8695C48.654 24.8781 48.5224 24.9597 48.5186 24.9617C48.389 25.0269 48.3036 25.0471 48.1538 25.0788C47.3733 24.5018 46.3365 23.513 45.894 22.6442L46.2866 22.1344C46.6831 22.5453 46.9624 23.0215 47.1372 23.2049C47.2725 23.3469 47.3349 23.3834 47.453 23.5092C48.1797 24.2839 48.2268 24.2167 48.8008 24.7533V24.7524ZM49.5266 23.7789C49.4412 24.1802 49.2981 24.2676 49.108 24.4836C48.8152 24.3156 48.653 24.1053 48.3909 23.897C47.6085 23.2759 47.1967 22.7172 46.637 21.8954C46.8463 21.7063 47.046 21.641 47.405 21.6016C47.6306 22.1988 48.9794 23.5524 49.5256 23.7799L49.5266 23.7789ZM49.6764 23.4228C49.42 23.3921 48.7951 22.7988 48.6012 22.5962C48.3381 22.3216 48.0357 21.9098 47.8015 21.5767C48.5445 21.5018 49.7906 22.1805 49.6773 23.4228H49.6764ZM47.3359 20.6138C43.2645 21.2464 44.2015 27.2801 48.2191 26.6781C49.7484 26.4487 51.0645 24.9818 50.7775 23.1405C50.5461 21.6506 49.0985 20.3402 47.3349 20.6148L47.3359 20.6138Z" fill="white"/>
<path fill-rule="evenodd" clip-rule="evenodd" d="M63.3523 15.0027C63.7295 15.4155 63.5731 17.109 63.5222 17.563C63.2812 17.5957 63.4598 17.659 63.2121 17.4738C62.3692 16.8402 63.047 15.5355 63.3523 15.0027ZM66.0239 14.7339C67.32 15.2869 66.8016 17.1493 66.1084 17.4786C66.1833 16.4475 66.1142 15.7352 66.0239 14.7339ZM63.7958 14.7061L64.4783 14.4094C64.7481 15.2101 64.9113 17.2664 64.5571 18.0114L63.8937 17.8866C63.8505 17.467 63.9695 16.772 63.9571 16.2786C63.9427 15.7074 63.8486 15.2427 63.7958 14.7051V14.7061ZM64.9871 18.0075C65.1359 16.5723 65.0975 15.8014 64.894 14.3835L65.6025 14.4795C65.7263 15.4827 65.9356 16.8008 65.6899 17.8126L64.9871 18.0075ZM64.4438 13.4667C60.3033 14.2021 61.4908 20.2347 65.4489 19.5128C66.9628 19.2363 68.2512 17.7954 67.9315 15.9464C67.6771 14.4757 66.215 13.1518 64.4438 13.4667Z" fill="white"/>
<path fill-rule="evenodd" clip-rule="evenodd" d="M54.5106 13.6711C56.1436 13.4599 57.4809 14.6772 57.6729 16.0731C57.9071 17.7809 56.7042 19.0759 55.2978 19.2958C51.5087 19.8862 50.7781 14.155 54.5097 13.6711H54.5106ZM54.1506 12.9866C53.038 13.2266 52.3976 13.7508 51.9551 14.4074C50.7781 16.1518 51.1487 18.0468 52.7567 19.3755C53.4037 19.9102 54.5125 20.2068 55.5407 20.0062C57.2773 19.6663 58.8047 17.9604 58.3794 15.7735C58.0463 14.0609 56.2818 12.5287 54.1516 12.9876L54.1506 12.9866Z" fill="white"/>
<path fill-rule="evenodd" clip-rule="evenodd" d="M53.2208 17.5989C53.2659 17.5624 55.2521 16.8722 55.1715 15.1557C55.351 16.2444 54.8922 17.0815 54.0483 17.5855C53.6288 17.836 53.552 17.8207 53.2198 17.5989H53.2208ZM52.8809 17.2111C52.207 15.6482 53.3984 14.453 54.6377 14.2965C54.8057 15.1375 54.8969 15.5906 54.4035 16.3087C54.1184 16.7234 53.6605 17.1237 52.8809 17.212V17.2111ZM54.0243 18.029C54.6541 17.6517 55.064 17.358 55.3654 16.6476C55.7398 15.7691 55.6064 15.1499 55.3049 14.3253C57.9642 14.7957 56.6029 18.9074 54.0243 18.029ZM52.3059 16.8232C52.6813 20.0796 57.8144 19.6562 57.4352 16.1983C57.0723 12.8949 51.8998 13.2923 52.3059 16.8232Z" fill="white"/>
</svg>
