<?xml version="1.0" encoding="UTF-8"?>
<!DOCTYPE svg PUBLIC "-//W3C//DTD SVG 1.1//EN" "http://www.w3.org/Graphics/SVG/1.1/DTD/svg11.dtd">
<!-- Creator: CorelDRAW -->
<svg xmlns="http://www.w3.org/2000/svg" xml:space="preserve" width="0.787402in" height="0.787402in" version="1.1" style="shape-rendering:geometricPrecision; text-rendering:geometricPrecision; image-rendering:optimizeQuality; fill-rule:evenodd; clip-rule:evenodd"
viewBox="0 0 787.4 787.4"
 xmlns:xlink="http://www.w3.org/1999/xlink"
 xmlns:xodm="http://www.corel.com/coreldraw/odm/2003">
 <defs>
  <style type="text/css">
   <![CDATA[
    .fil0 {fill:#1A1A1A}
   ]]>
  </style>
 </defs>
 <g id="Layer_x0020_1">
  <metadata id="CorelCorpID_0Corel-Layer"/>
  <g id="_2505799913904">
   <path class="fil0" d="M507.46 501.51c8.89,0.92 14.66,2.92 24.74,2.59 5.37,-0.18 20.08,-4.34 22.65,-2.96l7.82 6c2.65,2.08 5.09,3.54 8.15,5.6 5.47,3.69 11.29,6.43 16.9,10.29 -10.54,9.91 -33.62,19.05 -53.1,19.5 -2.91,-2.99 -4.94,-6.36 -7.66,-10.2l-19.5 -30.82zm54.75 -5.19c3.79,-1.46 8.13,-5.26 10.81,-6.27 3.26,-1.23 11.68,0.41 15.81,0.58 11.76,0.49 20.98,-0.66 32.35,-1.74 -1.47,3.41 -8.54,11.03 -11.5,14.47 -3.5,4.08 -8.49,10.25 -13.52,12.87 -9.47,-4.23 -28.51,-14.35 -33.95,-19.91zm-38.35 45.99c-11.5,-0.04 -52.28,-10.28 -57.17,-16.15 -2.44,-2.93 -17.07,-47.01 -19.26,-54.06 3.38,1.54 7.81,4.71 11.34,6.94 3.78,2.39 7.7,4.76 11.76,6.87 26.51,13.81 23.38,6.6 32.42,22.61 2.2,3.91 4.74,8.17 6.91,11.73l14 22.05zm-340.63 -74.17c13.24,-5.13 21.56,-9.72 37.55,-12.77 12.55,-2.39 34.73,-3.7 46.79,-0.69 1.94,3.53 3.16,9.78 5.03,14.13l5.06 -1.11c0.98,-3.35 -1.34,-7.96 -2.28,-11.85 13.65,2.01 32.52,8.13 44.25,13.33 -7.1,3.04 -18.18,5.8 -25.87,8.11l-129.05 39.38c-9.89,2.98 -45.16,15.71 -53.14,13.21 4.22,-5.96 9.39,-10.92 14.41,-16.27 5.48,-5.83 9.8,-9.81 15.48,-15.33 8.08,-7.85 25.5,-22.55 35.26,-26.23 3.54,5.67 4.28,18.12 8.1,23.35 12.1,0.42 -0.33,-12.62 -1.58,-27.26zm307.71 -14.96c-5.43,-4.26 -14.31,-9.68 -20.42,-15.87 -20.49,-20.77 -32.15,-31.72 -43.84,-64.63 -16.13,-45.41 -10.41,-93.09 12.59,-132.87l23.23 -30.2c24.29,-25.53 59.56,-43.07 97.24,-46.81 18.19,-1.8 50.18,-0.01 63.52,7.11 -59.34,-5.37 -93.77,-6.89 -141.48,28.2 -3.84,2.83 -6.03,4.93 -9.56,8.22 -11.48,10.7 -11.43,11.57 -20.82,22.93 -1.82,2.2 -1.78,2.71 -3.26,4.85 -33.37,48.43 -34.54,111.45 -5.33,162.9 11.57,20.39 20.34,25.13 31.03,38.63 1.56,1.96 2.76,2.61 4.48,4.39l8.8 9.02c3.67,4 6.08,3.2 3.82,4.11zm-250.31 -91.91c31.73,-0.04 37.16,4.73 62.94,13.54l3.73 69.76c-28.74,-7.22 -36.15,-12.63 -71.07,-11.13l4.4 -72.18zm215.19 160.19c-5.88,-1.39 -21.87,-11.14 -28.25,-14.48 -9.38,-4.92 -18.16,-10.54 -27.32,-15.59 -2.76,-1.52 -5.11,-1.96 -6.2,-5.17 -2.3,-6.76 -11.22,-58.11 -11.41,-61.77l42.8 32.02c13.06,9.22 10.9,6.22 14.51,17.87 4.69,15.13 12.29,34.31 15.87,47.12zm-391.51 59.3c0.87,-7.39 4.45,-19.17 6.37,-26.89 8.99,-36.19 7.63,-38.59 26.05,-71.13 4.18,-7.38 8.51,-14.3 12.42,-20.79 6.05,-10.03 12.74,-19.36 19.96,-28.6 1.49,-1.91 1.57,-2.52 3.39,-4.74 4.23,-5.16 15.3,-19.02 19.22,-21.53 -2.5,18.54 -6.52,37.56 -9.54,56.43 -2.99,18.71 0.06,12.8 -9.69,22.6l-11.73 12.54c-8.74,9.85 -17.25,21.78 -25.2,32.31 -1.46,1.94 -1.65,2.75 -3.16,4.96 -1.02,1.49 -2.32,2.98 -3.43,4.63 -6.92,10.26 -21.03,35.28 -24.66,40.21zm388.28 -175.96c-5.79,-6.94 -13.36,-21.77 -17.31,-32.63 -17.17,-47.15 -10.38,-99.04 17.66,-138.11 7.46,-10.39 13.54,-18.2 23.7,-26.53 2.39,-1.96 3.92,-3.52 6.52,-5.6 9.9,-7.95 26.52,-17.25 39.44,-22.1 9.5,-3.57 29.19,-9.26 40.02,-8.61 -6.82,0.01 -28.97,8.76 -35.36,11.64 -11.52,5.19 -26.72,14.79 -36.35,23.56 -2.34,2.13 -4.31,3.36 -6.68,5.5 -4.8,4.35 -7.02,7.5 -11.12,12.37 -7.7,9.16 -13.85,17.09 -19.58,28.18 -18.91,36.63 -25.14,76.65 -13.98,118.62 4.85,18.23 8.07,20.73 13.05,33.72zm-125.92 47.6c-9.55,-4.28 -8.79,-0.68 -9.64,-11.94 -1.42,-18.76 -3.28,-42.49 -3.51,-60.74 7,2.21 57.77,33.15 59.33,38.59l4.41 27.26c2.01,12.12 4.74,24.22 6.58,36.14 -4.72,-2.01 -9.21,-5.13 -14.02,-7.68 -15.1,-8.01 -27.04,-14.41 -43.15,-21.63zm-175.26 16.45c1.91,-16.63 6.41,-42.91 9.54,-60.36 2.59,-14.46 0.56,-11.38 6.34,-16.33 17,-14.52 39.17,-26.63 62.91,-29.84l-4.42 72.14c-18.42,4.81 -22.37,4.02 -41.13,13.12 -5.79,2.81 -12.62,6.69 -17.46,10.06l-15.78 11.21zm-95.93 -98.37c1.57,-7.76 1.27,-5.19 18.96,-10.67 -0.93,7.33 -3.65,6.35 -18.96,10.67zm-0.8 4.57c63.78,-20.83 133.43,-40.18 198.38,-60.68l66.02 -19.92 24.94 82c-2.35,-0.74 -10.46,-6.44 -13.35,-8.24 -3.34,-2.09 -10.74,-5.54 -13.09,-8.09 0.3,-0.09 2.31,-0.69 2.39,-0.72l1.11 -6.54c-4.77,0.18 -6.35,1.84 -10.19,2.49 -3.94,0.67 -18.17,-6.68 -26.7,-9.51 -16.33,-5.41 -24.52,-5.07 -41.89,-6.96l67.48 -20.44c0.22,-10.5 -7.28,-4.65 -27.12,1.21l-89.31 27.3c-19.96,6.17 -40.11,12.03 -60.19,18.35 -9.41,2.96 -54.65,15.5 -59.07,18.57 0.09,2.3 0.74,3.78 1.62,5.23 4.83,-0.06 100.93,-30.79 112.68,-33.58l-35.46 28.74c-1.94,2.03 -3.17,3.39 -4.94,5.59 -1.74,2.16 -3.35,3.42 -5.04,5.47 -3.41,4.13 -6.25,8.15 -9.66,12.24 -3.28,3.95 -8.69,4.54 -14.64,6.37 -10.84,3.34 -21.81,6.81 -32.24,9.72 0.37,6.17 1.53,6.7 7.07,4.89 3.44,-1.13 6.41,-1.96 9.94,-3.06 6.55,-2.04 14.27,-4.76 20.85,-6.21 -1.36,2.91 -3.69,5.43 -5.27,8.03 -11.01,18.11 -16.47,26.01 -27.59,46.11l-4.51 7.71 -32.25 -106.08zm22.97 -11.33c1.86,-6.99 1.4,-5.38 8.35,-7.48 2.84,-0.85 8.28,-2.88 10.92,-2.98 -2.09,6.34 -0.62,4.99 -7.64,7.03 -3.83,1.11 -7.69,2.52 -11.63,3.43zm507.04 -191.75c90.37,-5.81 162.03,62.37 168.12,145.41 4.14,56.34 -19.05,102.57 -60.72,136.41 -50.03,40.61 -124.19,43.87 -180.08,9.2 -8.83,-5.48 -25.96,-19.11 -32.27,-26.81 -2.88,-3.51 -5.81,-6.57 -8.93,-10.49 -2.82,-3.54 -5.3,-7.38 -8,-11.43 -27.24,-40.84 -31.8,-96.48 -14.13,-142.33 3.45,-8.95 8.48,-19.07 13.27,-26.4 11.94,-18.28 16.95,-22.65 32.02,-36.81 21.07,-19.82 59.76,-34.75 90.72,-36.74zm-484.71 184.87c2.37,-9.57 4.06,-4.16 10.46,-8.55 10.24,-7.04 -8.43,-22.88 3.93,-26.86 3.94,-1.27 10.4,-3.44 14.57,-4.13l-11.88 34.53 -17.07 5.02zm-48.39 -40.8c2.32,-2.02 5.22,-2.46 8.57,-3.48 16.18,-4.94 12.27,-4.51 24.11,0.04 1.88,0.72 15.56,5.33 16.08,5.77 1.7,1.44 4.65,13.13 5.34,16.11 -3.62,-0.74 -7.41,-0.84 -8.81,2.73 -1.91,4.85 1.16,6.78 3.48,8.74l-36.63 10.81c2.14,-3.58 1.08,-6.11 -0.76,-8.88 -7.07,-1.78 -6.9,-0.62 -10.2,3.52l-7.75 -25.75c7.71,5.54 14.9,-5.55 6.59,-9.62zm70.71 34.06c1.7,-7.92 5.79,-18.06 8.44,-26.06 2.77,-8.36 0.22,-8.7 20.28,-13.57 -1.49,7.64 -5.88,18.41 -8.42,26.23 -2.64,8.13 -1,8.84 -20.3,13.41zm-93.69 -37.46c4.92,-2.37 10.82,-6.67 15.59,-8.33 -1.44,14.96 -5.44,7.11 -6.56,14.85 -0.67,4.61 3.3,10.8 3.37,15.52 -1.77,-1.91 -11.54,-19.25 -12.4,-22.04zm115.92 30.53c2.12,-8.15 5.81,-17.75 8.55,-25.97 2.44,-7.36 -0.06,-9.12 20.35,-13.58 -1.94,8.12 -5.86,17.88 -8.63,26.18 -2.03,6.09 -0.81,7.77 -7.24,9.71 -3.92,1.18 -8.99,3.02 -13.03,3.67zm22.51 -6.69c0.93,-6.07 6.02,-19.17 8.2,-25.5 3.5,-10.19 1.37,-8.59 6.78,-10.14 4.74,-1.36 8.85,-3.05 13.68,-3.96 -2.05,8.43 -5.76,17.79 -8.51,26.1 -2.93,8.88 0.23,7.99 -20.14,13.5zm-119.62 -25.39c0.15,-1.89 0.4,-7.22 1.09,-8.68 0.72,-1.52 2.72,-2.35 4.56,-3.41 3.76,-2.17 7.4,-4.78 11.48,-6.06l-1.53 13.66 -15.59 4.48zm141.72 18.48c2.39,-8.72 5.77,-17.64 8.59,-26.04 2.51,-7.48 -0.83,-8.7 20.24,-13.56 -1.62,7.51 -5.8,17.95 -8.33,25.51 -3.23,9.69 -1.68,8.72 -6.76,10.19 -4.49,1.29 -9.3,3.06 -13.73,3.89zm-121.98 -24.37c0.25,-3.3 0.61,-6.46 0.93,-9.76 0.47,-4.75 -0.18,-4.67 3.09,-6.67 3.44,-2.1 10.2,-6.2 13.61,-7.23 -2.53,32.05 -1.46,23.77 -9.59,22.24 -3.04,-0.57 -5.15,0.82 -8.04,1.42zm243.51 -38.25l7.04 23.69 -17.15 4.94 10.11 -28.63zm-88.41 23.07c1.68,-3.19 14.57,-6.24 18.04,-6.57 -2.49,8.39 -5.72,17.34 -8.54,25.82 -2.19,6.59 -0.81,7.9 -7.21,9.73 -4.28,1.22 -8.72,2.79 -13.07,3.87l10.78 -32.85zm-136.12 17.6c0.17,-7.09 1.43,-18.76 2.48,-25.9 0.55,-3.71 -0.13,-2.53 2.73,-4.34l13.78 -7.22 -3.72 36.03c-5.75,2.47 -8.15,6.51 -15.28,1.43zm147.67 8.35c1.92,-8.21 5.78,-18.03 8.49,-26.17 3.35,-10.09 -0.28,-7.24 20.08,-13.43 -0.17,4.02 -6.41,20.32 -8.09,25.46 -3.26,10 -1.63,8.72 -6.75,10.23 -4.61,1.37 -9.11,2.92 -13.74,3.91zm22.22 -6.72c1.97,-8.19 5.85,-17.94 8.6,-26.27 2.11,-6.38 0.83,-7.81 7.34,-9.63 4.21,-1.18 8.95,-3 12.96,-3.65 -2.14,8.32 -5.85,17.56 -8.53,25.9 -2.32,7.25 -0.23,9.46 -20.38,13.64zm22.41 -6.81c1.63,-7.95 5.99,-18.39 8.57,-26.25 2.44,-7.43 -0.56,-8.76 20.35,-13.36l-11.33 34.41 -17.59 5.19zm-172.78 0.93c0.44,-9.65 2.04,-20.04 2.98,-29.78 0.83,-8.52 0.17,-6.2 16.69,-15.02 -0.3,9.34 -2.04,20.11 -2.96,29.61 -0.8,8.21 -0.23,6.2 -6.5,9.61 -3.57,1.94 -6.8,3.71 -10.21,5.57zm20.36 -11.47c0.06,-8.85 2.09,-20.49 2.94,-29.65 0.76,-8.17 -0.18,-6.47 16.7,-15.12 -0.37,9.54 -2.08,20.03 -2.97,29.7 -0.83,8.96 -0.28,5.95 -16.67,15.07zm40 -56.24c-0.55,9.8 -2.16,20.1 -3.06,29.93 -0.67,7.43 -0.43,6.15 -6.66,9.46 -3.43,1.83 -6.44,3.77 -10.11,5.41l3.81 -36.04 16.02 -8.77zm20.37 -11.45c-0.87,9.9 -2.13,19.52 -3.02,29.43 -0.7,7.77 -0.25,6.46 -6.36,9.76 -3.46,1.86 -6.53,4.11 -10.53,5.46l3.82 -35.83 16.08 -8.81zm20.36 -11.44l-4.08 35.54c-1.69,2.11 -4.58,3.35 -7.48,4.93 -2.91,1.58 -5.36,3.3 -8.41,4.32l3.8 -35.93 16.17 -8.86zm0.41 33.35c0.76,-9.95 2.2,-19.81 3.11,-29.83 0.7,-7.68 0.39,-6.15 6.53,-9.46 3.33,-1.79 6.51,-3.77 10.31,-5.48l-4.23 35.67c-2.19,2.5 -12.2,7.84 -15.72,9.09zm64.94 -63.34c0.13,0.15 0.3,0.35 0.43,0.52l2.49 4.13c2.56,4.79 6.73,11.07 8.63,15.96l-15.55 8.48 4 -29.09zm-44.61 51.95c0.78,-10.05 2.17,-19.67 3.07,-29.69 0.74,-8.27 0.31,-6.16 6.52,-9.52 3.67,-1.99 6.38,-3.92 10.31,-5.61l-3.76 35.81c-2.84,2.07 -12.76,7.72 -16.14,9.02zm20.36 -11.42c0.56,-9.78 2.1,-19.75 2.98,-29.59 0.75,-8.44 0,-6.13 6.42,-9.6 3.54,-1.92 6.62,-4.09 10.45,-5.56l-3.75 35.87 -16.1 8.88zm-149.22 89.34c2.06,-2.22 3.77,-2.74 6.17,-4.08l41.41 -23.36c31.1,-17.82 65.37,-35.85 95.34,-53.65l35.72 -20.15c3.48,-1.89 8.48,-4.4 11.17,-6.33 -0.22,-2.19 -13.98,-28.98 -17.79,-32.26 -3.66,0.61 -83.6,46.06 -93.49,51.82l-61.56 34.78c-10.12,5.52 -20.28,11.26 -30.6,17.19 -10.07,5.79 -55.74,30.3 -61.04,35.04 1.05,6.71 14.78,24.76 18,35.14 4.22,13.57 8.47,27.38 12.53,40.94 8.1,27.07 16.39,54.91 24.92,81.94 2.88,9.11 6.21,15.17 3.57,20.33 -13.58,26.64 -11.78,29.3 -19.83,60.32 -3.05,11.76 -21.28,78.82 -20.53,84.75 4.37,-0.3 3.52,-0.84 5.53,-4.98l9.4 -18.15c9.31,-17.72 24,-41.31 35.5,-57.6 1.89,-2.67 12.94,-20.09 16.45,-20.58 1.65,-0.23 5.56,0.92 8.89,0.59 2.48,-0.24 4.92,-1.05 7.17,-1.74l199.41 -60.64c8.55,-0.5 87.19,43.2 98.58,49.54 28.29,15.72 74.26,36.98 114.28,34.31 38.96,-2.61 70.3,-27.28 91.23,-56.61 2.39,-3.35 5.83,-7.38 7.76,-10.86 2.88,-5.19 2.81,-3.38 12.04,-6.57 9.05,-3.12 18.06,-7.22 25.74,-11.52 10.59,-5.92 9.69,-6.18 17.05,-11.26 23.54,-16.24 41.98,-41.2 53.11,-67.57 30.85,-73.17 4.17,-154.61 -62.35,-198.41 -9.92,-6.53 -45.32,-23.06 -57.24,-26.97 -63.35,-20.76 -134.5,0.92 -175.49,51.77 -38.3,47.51 -46.29,110.11 -22.58,166.56 10.43,24.82 30.31,49.58 50.81,64.2 12.7,9.05 21.88,14.78 36.66,20.84 4.63,1.9 7.91,4.04 12.51,6.1l27.51 10.26c-4.37,3.63 -17.91,5.44 -24.81,5.45 -23.46,0.06 -47.24,-12.16 -65.65,-24.02 -19.44,-12.53 -56.97,-41.08 -73.31,-55.46 -1.1,-0.97 -2.42,-2.26 -3.87,-3.39 -2.86,-2.22 -5.79,-4.26 -8.68,-6.74 -5.11,-4.38 -11.17,-8.64 -17.19,-12.79 -13.01,-8.98 -11.35,-7.43 -14.04,-15.9l-34.49 -112.89c-0.98,-2.04 0.04,-0.7 -1.49,-2.05 -2.63,-0.54 -183.7,55.44 -203.17,61.34 -4,-5.05 0.34,-4.74 -9.25,-6.68z"/>
   <path class="fil0" d="M586.34 180.89c31.81,-1.81 63.01,6.17 88.64,22.61 14.12,9.05 10.28,7.4 21.04,16.19 4.01,3.27 5.87,5.75 9.46,9.2 6.79,6.53 11.26,14.01 16.08,21.15 2.83,4.19 4.62,7.36 6.87,11.77 48.73,95.74 -16.25,210.4 -122.75,217.23 -85.45,5.48 -154.24,-59.89 -159.25,-139.12 -5.44,-85.92 60.42,-154.51 139.93,-159.04zm-143.96 155.82c0.68,21.84 7.15,43.94 15.57,61.14 3.99,8.13 9.9,17.83 14.39,23.67 4.04,5.26 13.14,16.07 17.84,20.19 12.84,11.26 26.85,21.65 46.91,30.05 19.13,8.01 41.67,12.07 64.58,11.35 39.39,-1.25 81.26,-20.65 105.1,-47.78 14.36,-16.33 20.32,-23.73 30.33,-46.62 8.04,-18.4 12.42,-42.52 11.53,-64.96 -2.09,-52.93 -28.68,-89.81 -58.5,-114.36 -3.5,-2.88 -7.46,-5.49 -11.38,-8.07 -98.56,-65.12 -240.44,4.92 -236.38,135.39z"/>
   <g>
    <path class="fil0" d="M610.75 442.72c-10.37,0.94 -26.93,1.87 -35.98,-1.16l-1.23 -7.04c16.58,1.89 24.36,2.72 41.09,0.35 -0.66,3.46 -2.49,5.63 -3.88,7.85zm-34.28 -19.64c6.37,0.36 11.86,1.59 18.71,1.6 6.13,0.01 14.37,-1.71 19.31,-1.37l1.63 6.46 -20.94 2.91c-7.69,-0.02 -13.79,-1.07 -21.03,-2.15l2.31 -7.44zm34.13 -3.77c-7.71,2.71 -21.97,1.18 -30.36,0.34 2.26,-5.36 14.45,-9.2 23.85,-5.18 2.33,1 5.33,2.76 6.51,4.84zm-22.61 -15.63c-41.85,10.35 -25.24,72.17 15.4,61.91 40.51,-10.22 25.4,-72 -15.4,-61.91z"/>
    <path class="fil0" d="M656.59 263.15c2.44,2.13 5.07,5.42 7,6.87 -6.89,-0.29 -14.56,-7.26 -15.35,-13.49 2.12,1.04 0.59,0.17 2.76,1.73 0.7,0.51 1.23,0.89 1.85,1.38 1.51,1.23 2.35,2.3 3.74,3.51zm-8.13 -11.23c0.44,-3.23 1.39,-5.92 2.74,-7.99 9.21,5.23 20.54,15.52 26.26,24.56 -2.42,1.19 -5.39,2.07 -8.83,2.12 -2.54,-5.16 -14.07,-16.33 -20.18,-18.69zm25.11 -4.12c2.62,2.42 10.7,10.28 12.33,13.61 -1.29,3.1 -2.11,3.78 -5.38,4.95 -10.65,-15.54 -15.92,-16.24 -26.78,-26.07l5.43 -4.28c5.65,2.79 10.63,8.3 14.4,11.79zm14.75 9.48c-2.57,-2.05 -7.4,-9.64 -24.64,-23.11 1.56,-2.11 8.84,-1.46 11.27,0.11 7.22,4.7 18.72,13.56 13.37,23zm-26.42 -33.3c-14.8,4.22 -27.95,18.78 -22.76,38.83 10.39,40.15 72.11,25.56 61.95,-15.74 -3.72,-15.12 -19.69,-28.66 -39.19,-23.09z"/>
    <path class="fil0" d="M574.5 229.82c6.94,-3.66 30.12,-2.38 38.43,-1 -1.28,3.19 -2.93,4.6 -4.59,6.78 -6.18,0.72 -13.93,-0.62 -21.19,0.08 -3.74,0.36 -8.71,2.45 -12.65,-5.86zm-0.81 -4.39c-0.11,-5.89 -0.52,-7.16 5.08,-7.94 9.49,-1.33 29.03,-2.38 37.13,1.02l-0.9 5.76 -10.5 -0.43c-15.9,-1.33 -19.03,1.14 -30.82,1.58zm3.14 -11.7c3.73,-7.1 7.15,-8.26 17.57,-8.26 11.73,0 15.71,-0.22 19.8,8.38 -15.48,-1.66 -22.49,-0.69 -37.37,-0.12zm14.44 -20.67c-42.48,6 -32.89,69.81 9.17,63.18 40.98,-6.46 32.39,-69.04 -9.17,-63.18z"/>
    <path class="fil0" d="M512.78 269.5c2.8,-5.25 20.83,-23.04 27.07,-25.58 1.32,2.61 1.46,5.35 1.18,8.93 -14.47,8 -17.69,23.42 -28.25,16.65zm-9.57 -5.67c1.89,-2.35 3.91,-5.85 6.1,-8.17 5.61,-5.94 15.71,-16.14 22.72,-19.67 2.68,1.28 3.81,2.17 5.19,4.35 -0.57,0.59 -0.52,0.52 -1.43,1.26 -0.19,0.15 -0.77,0.59 -0.96,0.74 -24.32,18.69 -18.79,18.99 -26.48,25.91l-5.14 -4.43zm-3.42 -3.2c-0.81,-4.85 -1.57,-8.46 1.02,-11.85l14.27 -14.04c2.8,-2.26 7.01,-2.33 11.3,-1.2 0.42,1.42 0.74,0.24 -0.83,1.89 -0.55,0.58 -1.2,0.93 -1.83,1.42 -13.97,10.79 -20.6,21.5 -23.92,23.79zm16.52 -37.43c-16.25,2.74 -30.44,17.06 -26.89,37.05 2.76,15.54 18.34,29.5 37.46,25.84 15.5,-2.96 28.74,-17.54 25.54,-36.94 -2.5,-15.21 -17.99,-29.02 -36.12,-25.95z"/>
    <path class="fil0" d="M671.29 420.24c2.93,-3.33 6.55,-5.65 9.69,-9.07l9.27 -10.85c-1.5,11.12 -8.2,18.29 -18.96,19.92zm-14.59 -2.44l15.28 -13.22c4.59,-4.73 9,-11.78 11.05,-14.06l2.39 -2.06 3.92 5.54c-2.2,3.43 -3.92,5.61 -6.56,8.41 -4.11,4.35 -9.34,11.07 -15.19,15.58 -4.48,3.46 -5.89,1.6 -10.89,-0.2zm-3.53 -3c-1.47,-1.63 -3.53,-3.16 -4.51,-6.03 0.91,-1.19 11.35,-8.43 20.02,-18.84 1.72,-2.07 3.91,-5.19 5.88,-6.78 3.14,0.75 4.55,0.98 6.65,2.95 -1.95,4.63 -9.12,12.15 -12.66,15.85 -7.47,7.8 -6.56,5.76 -11.22,9.85 -2.3,2.01 -1.61,1.7 -4.15,3zm-4.95 -11.24c0.34,-5.77 3.28,-11.67 5.87,-14.46 2.98,-3.21 8.61,-5.76 15.02,-6.44 -4.88,7.95 -13.23,16.27 -20.89,20.9zm13.72 -29.77c-14.61,3.72 -27.98,19.25 -22.83,38.83 10.52,39.98 72.36,25.58 61.94,-15.74 -3.88,-15.39 -19.17,-28.18 -39.11,-23.09z"/>
    <path class="fil0" d="M505.32 336.68c-1.78,-4.32 -1.14,-16.12 0.81,-20.46 4.36,4.31 5.87,13.46 -0.81,20.46zm-4.08 4.85c-2.39,1.17 -4.3,2.65 -7.43,3.41 -1.24,-14.78 -0.94,-21.46 1.04,-35.92 3.08,0.54 5.27,1.6 7.28,3.4 -0.18,4.59 -1.09,9.07 -1.28,13.76 -0.21,5.33 0.42,10.2 0.39,15.35zm-11.17 4.43l-6.62 -0.13c-3.07,-5.76 -1.51,-25.33 -0.42,-33.03 0.8,-5.65 2.05,-4.63 8.06,-4.68 -2.1,14.93 -2.59,22.57 -1.02,37.85zm-11.31 -1.8c-8.9,-3.36 -7.98,-6.85 -7.76,-17.17 0.21,-9.68 1.52,-12.85 8.48,-16.3 -1.46,12.43 -1.84,20.82 -0.72,33.46zm5.92 -45.67c-16.24,2.74 -30.22,17.2 -26.78,36.96 7.26,41.73 70.52,30.5 62.98,-11.07 -2.78,-15.28 -17.73,-29.02 -36.21,-25.89z"/>
    <path class="fil0" d="M520.17 420.39c-5.69,0.66 -12.03,-2.17 -15.14,-4.84 -4.5,-3.85 -6.08,-7.26 -5.15,-15.94l3.01 2.68c1.07,1.31 1.11,1.58 2.06,2.81l15.21 15.28zm12.13 -4.32c-0.47,0.44 -0.65,0.66 -1.41,1.22 -0.12,0.09 -1.49,0.94 -1.53,0.96 -1.35,0.68 -2.24,0.89 -3.8,1.22 -8.13,-6.01 -18.93,-16.31 -23.54,-25.36l4.09 -5.31c4.13,4.28 7.04,9.24 8.86,11.15 1.41,1.48 2.06,1.86 3.29,3.17 7.57,8.07 8.06,7.37 14.04,12.96zm7.56 -10.14c-0.89,4.18 -2.38,5.09 -4.36,7.34 -3.05,-1.75 -4.74,-3.94 -7.47,-6.11 -8.15,-6.47 -12.44,-12.29 -18.27,-20.85 2.18,-1.97 4.26,-2.65 8,-3.06 2.35,6.22 16.4,20.32 22.09,22.69zm1.56 -3.71c-2.67,-0.32 -9.18,-6.5 -11.2,-8.61 -2.74,-2.86 -5.89,-7.15 -8.33,-10.62 7.74,-0.78 20.72,6.29 19.54,19.23zm-24.38 -29.26c-42.41,6.59 -32.65,69.44 9.2,63.17 15.93,-2.39 29.64,-17.67 26.65,-36.85 -2.41,-15.52 -17.49,-29.17 -35.86,-26.31z"/>
    <path class="fil0" d="M683.87 314.51c3.93,4.3 2.3,21.94 1.77,26.67 -2.51,0.34 -0.65,1 -3.23,-0.93 -8.78,-6.6 -1.72,-20.19 1.46,-25.74zm27.83 -2.8c13.5,5.76 8.1,25.16 0.88,28.59 0.78,-10.74 0.06,-18.16 -0.88,-28.59zm-23.21 -0.29l7.11 -3.09c2.81,8.34 4.51,29.76 0.82,37.52l-6.91 -1.3c-0.45,-4.37 0.79,-11.61 0.66,-16.75 -0.15,-5.95 -1.13,-10.79 -1.68,-16.39zm12.41 34.39c1.55,-14.95 1.15,-22.98 -0.97,-37.75l7.38 1c1.29,10.45 3.47,24.18 0.91,34.72l-7.32 2.03zm-5.66 -47.3c-43.13,7.66 -30.76,70.5 10.47,62.98 15.77,-2.88 29.19,-17.89 25.86,-37.15 -2.65,-15.32 -17.88,-29.11 -36.33,-25.83z"/>
   </g>
   <path class="fil0" d="M591.78 300.63c17.01,-2.2 30.94,10.48 32.94,25.02 2.44,17.79 -10.09,31.28 -24.74,33.57 -39.47,6.15 -47.08,-53.55 -8.21,-58.59zm-3.75 -7.13c-11.59,2.5 -18.26,7.96 -22.87,14.8 -12.26,18.17 -8.4,37.91 8.35,51.75 6.74,5.57 18.29,8.66 29,6.57 18.09,-3.54 34,-21.31 29.57,-44.09 -3.47,-17.84 -21.85,-33.8 -44.04,-29.02z"/>
   <path class="fil0" d="M578.34 341.55c0.47,-0.38 21.16,-7.57 20.32,-25.45 1.87,11.34 -2.91,20.06 -11.7,25.31 -4.37,2.61 -5.17,2.45 -8.63,0.14zm-3.54 -4.04c-7.02,-16.28 5.39,-28.73 18.3,-30.36 1.75,8.76 2.7,13.48 -2.44,20.96 -2.97,4.32 -7.74,8.49 -15.86,9.41zm11.91 8.52c6.56,-3.93 10.83,-6.99 13.97,-14.39 3.9,-9.15 2.51,-15.6 -0.63,-24.19 27.7,4.9 13.52,47.73 -13.34,38.58zm-17.9 -12.56c3.91,33.92 57.38,29.51 53.43,-6.51 -3.78,-34.41 -57.66,-30.27 -53.43,6.51z"/>
  </g>
 </g>
</svg>
