<svg width="60" height="47" viewBox="0 0 60 47" fill="none" xmlns="http://www.w3.org/2000/svg">
<path fill-rule="evenodd" clip-rule="evenodd" d="M48.0521 24.9405C46.9673 24.6871 41.7852 24.8973 40.2617 24.8896C38.6844 24.882 38.9638 24.9021 38.1007 26.6301C36.6434 29.5447 35.6278 32.4775 33.1433 33.7245C30.9775 34.8113 28.5765 34.4964 25.9625 34.4964C23.6191 34.4964 20.6066 34.7882 18.6895 33.8148C16.0197 32.4602 15.2479 29.9421 13.7042 26.8548C13.4786 26.4036 13.253 25.9524 13.0322 25.5002C12.6895 24.7975 12.5954 24.8829 11.6651 24.8877C9.00689 24.904 6.34385 24.8896 3.68464 24.8896C3.44368 26.1405 3.6712 30.354 3.8392 31.7325C4.09552 33.8493 4.53136 35.6109 5.40112 37.3025C9.05009 44.4007 20.4472 42.9012 28.2146 42.9012C32.5846 42.9012 37.4326 43.1825 41.3158 41.6628C43.4518 40.8266 45.1519 39.3646 46.1004 37.6692C46.47 37.0077 47.1862 34.8756 49.1772 35.9748C49.9395 36.3962 50.2409 37.4513 49.7494 38.5082C49.4019 39.2561 48.8086 40.1988 48.3968 40.7537C47.3734 42.1313 46.279 43.0759 44.6191 44.0695C41.4732 45.9521 37.0601 46.4887 32.8313 46.5108C28.0773 46.5338 23.2821 46.5531 18.5311 46.5089C8.97905 46.4196 3.14128 43.5454 0.932311 35.6945C-0.236972 31.5386 0.0251085 26.7972 0.0251085 22.3735C0.0251085 16.7027 -0.265772 9.17439 3.8776 4.79486C6.53872 1.98205 9.02801 0.673571 13.3144 0.0342092C16.0101 -0.368032 16.3644 2.8979 14.3973 3.48926C12.2728 4.12862 9.40721 4.1747 6.96593 6.64287C2.94256 10.7114 4.01296 17.3863 3.59344 21.3223C5.83888 21.088 9.18161 21.2877 11.549 21.2839C12.893 21.2819 13.7627 21.3952 14.7208 22.0183C15.6367 22.6135 15.8699 23.1453 16.4623 24.3328C16.9096 25.2304 17.3263 26.0628 17.7756 26.9604C18.7893 28.9869 19.2069 30.8599 21.7903 30.8925H29.7938C32.4146 30.8733 32.839 29.0388 33.8201 27.0775C34.2703 26.177 34.7206 25.2823 35.1718 24.3751C36.2978 22.1133 37.2943 21.2791 40.0361 21.2839C41.3532 21.2858 47.2207 21.2061 47.9936 21.3223C48.4169 19.24 47.9072 13.5904 47.2323 11.2346C45.9401 6.71679 43.0169 4.54334 38.429 3.70526C37.5938 3.55262 36.87 3.47774 36.4668 2.97566C36.0492 2.4563 35.933 1.51357 36.3065 0.852132C37.0495 -0.462112 38.8159 0.0687695 40.3587 0.43645C41.7334 0.764771 43.2348 1.30333 44.3551 1.95325C45.6454 2.70206 46.5651 3.37886 47.408 4.30718C48.2652 5.25086 48.9574 6.09758 49.6438 7.47711C52.3539 12.9222 51.6531 20.8634 51.6771 27.1024C51.6809 28.0106 51.6108 28.8199 51.0857 29.2548C50.6182 29.6426 49.687 29.85 49.0236 29.488C47.6028 28.7143 48.1606 26.6781 48.0521 24.9424V24.9405Z" fill="white"/>
<path fill-rule="evenodd" clip-rule="evenodd" d="M54.1777 34.4845C53.2955 35.4877 52.1713 36.0858 52.3105 37.2263C52.4814 38.6211 54.0405 38.9936 55.0513 38.0231C55.8712 37.2368 56.6104 36.465 57.4158 35.6586C59.0478 34.0246 60.5224 33.1846 58.6725 31.4307L55.1032 27.8595C54.7489 27.5149 54.2689 27.1213 53.4961 27.3008C52.8539 27.4496 52.4421 27.8624 52.323 28.5325C52.1137 29.7142 53.2638 30.3123 54.1787 31.352C52.0581 31.5142 46.6705 31.3683 43.9633 31.3693C42.8276 31.3693 42.0068 31.7571 42.0068 32.9178C42.0068 34.0179 42.7806 34.4595 43.8664 34.4663C46.7147 34.4845 51.8862 34.3079 54.1787 34.4835L54.1777 34.4845Z" fill="white"/>
</svg>
