<svg width="54" height="36" viewBox="0 0 54 36" fill="none" xmlns="http://www.w3.org/2000/svg">
<path fill-rule="evenodd" clip-rule="evenodd" d="M18.2403 30.9509C18.5264 29.795 19.4384 29.0961 20.0595 28.4923L29.1152 19.6305L9.27484 19.594C5.16891 19.4606 3.55226 24.5256 3.5081 29.4629C3.47738 32.9554 1.47002 35.4408 0.562816 35.7739C0.334335 35.8574 -2.72039 15.5342 8.21787 15.6868L29.8218 15.6887L18.9401 4.98568C16.5325 2.21032 20.1085 -2.22298 23.7488 1.30887L32.3591 9.82602C33.0983 10.5383 33.7587 11.1815 34.4999 11.891C35.48 12.8308 38.169 15.1463 38.5818 16.3224C39.4621 18.828 37.0899 19.9963 35.6327 21.6052C34.1696 23.22 23.0989 33.997 22.6381 34.2523C20.2889 35.5522 17.6019 33.5189 18.2384 30.9509H18.2403Z" fill="white"/>
<path fill-rule="evenodd" clip-rule="evenodd" d="M32.6077 3.60263C32.8717 4.8276 33.7683 5.47656 34.4 6.08136L36.537 8.25097C37.6822 9.35689 42.2154 13.6078 43.0592 14.5505C43.4951 15.0372 43.6727 15.2417 44.1037 15.6593C45.5322 17.0407 46.0515 17.1895 45.2701 17.9432L35.5098 27.4673C34.0899 28.8334 31.7715 30.404 32.7574 32.851C33.0982 33.6958 34.0563 34.4946 35.1632 34.629C36.6867 34.8133 37.4269 33.9819 38.0893 33.3301C38.8198 32.612 39.489 31.9707 40.2291 31.2641L42.3699 29.0974C43.1245 28.3678 43.8023 27.7083 44.5607 26.9797C46.0314 25.5685 47.408 24.1899 48.8912 22.796C49.2733 22.4369 49.5575 22.0529 49.9357 21.6872C50.3264 21.3099 50.6413 21.0056 51.0311 20.6283C51.6244 20.0561 52.6525 19.2699 52.9962 18.2782C53.7796 16.0145 51.5821 14.5159 50.0778 13.0711L45.7463 8.78761C44.5031 7.58185 37.6755 0.748548 37.0726 0.432707C34.7552 -0.783616 32.0451 0.997188 32.6067 3.60359L32.6077 3.60263Z" fill="white"/>
</svg>
