<svg width="69" height="68" viewBox="0 0 69 68" fill="none" xmlns="http://www.w3.org/2000/svg">
<path fill-rule="evenodd" clip-rule="evenodd" d="M21.01 7.77629C20.5713 8.12285 20.3495 8.54621 20.0798 9.15293C19.0286 11.5193 18.5649 10.5277 17.6779 11.3667C17.2295 11.7901 16.8945 12.152 16.2667 11.5837C16.187 11.1209 16.3175 11.1747 16.3655 10.7878C15.875 10.3366 15.6916 10.4029 14.9332 10.2377C12.5802 9.72509 15.3988 8.00381 16.1639 7.46429C16.5441 7.19645 16.9473 6.96412 17.3841 6.6982C18.0743 6.27868 20.2622 4.88284 20.7268 4.14844C20.3534 4.26364 20.7192 4.1302 20.3726 4.26172C19.2484 4.6918 18.0398 5.49916 17.0251 6.09436C16.4183 6.45052 15.8942 6.7702 15.3143 7.16573L13.7467 8.30909C13.4903 8.49533 13.1687 8.72285 12.9374 8.93213L10.81 10.9462C10.5518 11.2112 10.3742 11.4272 10.1198 11.6873L9.11752 12.7568C9.00616 12.9046 8.96296 12.9824 8.84008 13.1149C7.87912 14.143 7.2388 15.1712 6.47271 16.3222C4.20999 19.7226 1.92806 25.2186 1.55078 29.2909C2.00486 29.4445 2.34566 29.9091 2.60294 30.297C2.68838 30.4266 2.75558 30.4832 2.84486 30.6119C4.71111 33.3056 6.30087 31.3587 8.97064 33.9594C9.80968 34.7764 10.4884 35.6548 11.5924 36.3508C14.0769 37.9175 12.5678 39.1357 11.8862 40.9165C11.3562 42.2989 11.8487 42.9873 12.3652 44.0951C13.1044 45.6829 14.4292 47.6653 15.9863 48.5226C18.6196 49.9732 18.6158 49.979 19.2484 53.289C19.4567 54.3806 19.7851 55.4183 20.0865 56.4311C20.6827 58.4395 21.4728 60.515 22.5009 62.0625C23.0808 62.9361 23.6318 63.4151 24.6408 63.9009C25.404 64.2676 26.7489 64.7592 27.6014 64.8936L26.4331 63.8644C25.5422 63.1099 24.8856 62.0107 25.1505 60.7051C25.3032 59.9534 25.643 59.8843 26.075 59.4839C27.3249 58.3252 24.9662 58.0103 27.0302 56.5367C28.2513 55.6641 28.3579 55.4951 28.2523 53.5338C28.1659 51.9354 29.4293 52.0094 30.6523 51.4881C31.9377 50.939 32.0385 50.0769 31.7813 48.489C31.3579 45.8836 33.8097 45.8673 33.8337 44.1383C33.8433 43.4308 33.4267 42.9921 33.0849 42.7194C31.3761 41.361 28.0929 42.1261 26.8929 40.0833C26.3457 39.1511 26.1345 37.7754 25.1323 37.4538C24.1809 37.1495 22.6267 38.2132 21.731 36.8058C21.492 36.4304 21.0705 35.6836 20.8084 35.4964C20.2305 35.0826 19.5892 35.3783 18.8481 35.313C17.6471 35.2084 17.2977 33.7194 15.6513 34.5661C15.131 34.834 14.7911 35.1872 14.3255 35.4714C13.2071 36.1549 12.0311 36.0311 11.362 34.9962C10.9866 34.4154 11.2564 33.7674 11.0462 33.153C10.8244 32.8362 9.17704 33.0032 8.77 31.928C8.59432 31.4634 8.75848 30.9575 8.91976 30.5408C9.00616 30.3181 9.22312 29.7565 9.19144 29.5011C9.08488 28.64 7.70152 30.0205 7.3204 30.2154C5.27751 31.2589 3.46983 28.5507 5.21703 25.5651C5.57415 24.9546 5.80839 24.3018 6.67527 24.1549C7.74472 23.9744 7.45288 24.4851 9.17032 23.7949C11.4282 22.8877 11.6759 25.2723 12.5102 25.8483C12.8606 24.4035 12.4151 22.9165 13.4155 22.0688C14.3467 21.2797 16.0564 20.9149 16.4337 20.4973C16.306 19.6112 16.3387 18.8586 16.9281 18.4918C18.0839 17.7738 18.6686 18.249 19.0958 17.8765C19.4942 17.5299 19.2244 16.7965 20.1748 16.1734C20.7758 15.7789 21.2856 15.8585 21.8606 15.7625C22.2417 15.6982 22.2244 15.632 22.2945 15.5619C22.1342 15.2326 21.9518 15.2672 21.7454 14.9753C21.1627 14.1526 22.5412 13.5814 23.3265 13.4355C24.322 13.2502 26.7316 13.5593 26.4955 12.2192C26.1192 11.7517 25.6065 11.9955 25.0977 11.696C24.54 11.3677 24.4286 10.8867 24.2692 10.6381C24.2193 10.6678 24.3028 11.12 24.106 10.5613C24.106 10.5593 24.0811 10.3021 24.0801 10.3011C24.06 10.0083 24.0436 9.84221 24.0734 9.54749L23.8104 9.43037C23.602 9.57725 22.6881 9.53405 22.1947 9.45341C22.1956 9.46205 22.3473 9.49277 22.0382 9.27581C21.6926 9.03389 21.3739 8.96285 21.7003 7.82621C21.7924 7.92989 21.7867 7.68893 21.7771 7.96541L21.8606 7.82141L21.7166 7.55837C21.6955 7.56029 21.4728 7.57949 21.4718 7.57949C21.2011 7.56317 21.562 7.66877 21.3355 7.53341L21.2347 7.61021L20.9793 7.93661C20.9688 7.91933 20.94 7.96445 20.9208 7.97885C20.9966 7.85789 20.9419 7.84637 21.0091 7.77437L21.01 7.77629Z" fill="#9999FF"/>
<path fill-rule="evenodd" clip-rule="evenodd" d="M64.6798 22.101C65.3038 23.8703 65.395 24.0047 65.9028 25.9094C67.7691 32.9135 67.0212 40.8345 64.1153 47.3673C63.2436 49.3258 61.5703 52.0694 60.2878 53.6486C60.2014 52.7203 60.3991 52.4678 60.0151 51.527C59.7828 50.9597 59.4727 50.447 59.3057 49.847C58.6567 47.5257 60.9607 46.3094 58.795 43.6809L58.0135 42.6307C56.9124 41.0784 58.5396 40.1673 57.5613 38.7043C57.1428 38.0793 56.8682 37.9257 56.4161 37.4601C54.7524 35.7465 52.4753 37.2393 51.0881 37.7712C50.4621 38.0112 49.7421 38.1849 49.0365 37.9171C48.449 37.6944 48.0564 37.3728 47.5965 36.9686C47.0637 36.5001 45.0631 35.0812 44.8759 34.8288C43.9524 33.5875 45.016 32.2127 45.0775 30.8467C45.1466 29.3126 43.8132 28.1404 45.16 27.0671C46.289 26.1695 46.5952 26.2031 47.6666 24.7986C48.4912 23.7167 48.522 22.967 50.1751 22.4447C50.7924 22.2498 51.3837 22.0962 52.0068 21.8879C52.6337 21.6786 53.177 21.4847 53.8625 21.3522C56.657 20.8127 58.9217 24.2639 61.2026 23.4383C61.5828 23.301 61.675 23.1993 61.8622 22.9151C62.4468 22.0319 62.5486 22.1654 64.6788 22.1001L64.6798 22.101ZM48.8397 19.8028C48.1677 19.4841 47.3565 18.9177 47.0368 18.3407C46.624 17.5958 47.0138 16.2978 47.4448 15.8985C47.9229 15.4559 48.9271 15.2226 49.5223 14.7177C50.2989 14.0601 50.0042 13.0185 50.4765 12.4002C50.6388 12.1871 51.2426 11.9874 51.5095 11.7599C52.3485 11.0466 52.7642 8.76469 51.9309 8.19829C50.9508 7.53205 50.4612 7.82005 49.9408 8.75701C49.6567 9.26965 49.6644 9.39925 49.1738 9.67093C48.2532 10.1807 47.0973 10.2412 47.1693 9.03253C47.1991 8.52949 47.5639 8.43541 48.0256 8.27509C49.4657 7.77685 49.1767 7.70101 48.6804 6.53652C49.2602 6.37428 49.7709 5.87796 49.9293 5.34132C50.752 5.5794 54.569 8.28661 55.4829 9.18229C56.8922 10.5618 56.8692 10.1365 58.265 11.8117C58.41 11.9855 58.4916 12.0095 58.6318 12.1631C58.8458 12.3973 59.0954 12.7525 59.2893 13.0165C59.4065 13.1759 59.5351 13.2719 59.6666 13.4332C60.1764 14.0581 62.2231 17.0572 62.3969 17.5689C61.6126 17.879 60.9281 18.333 59.8596 18.2505C57.8493 18.093 56.5677 15.0873 52.6365 17.6706C51.2426 18.5865 50.9028 20.781 48.8388 19.8009L48.8397 19.8028ZM21.0102 7.77589L21.0765 7.68949L21.159 7.66069L21.2358 7.61173L21.3366 7.53493C21.5565 7.42933 21.6515 7.37269 21.9424 7.40053L21.8617 7.82197L21.7782 7.96597C21.711 8.75125 21.7609 9.10549 22.4685 9.32149C23.1798 9.53845 23.5437 9.34837 24.1408 9.21877L24.2713 10.6396C24.4307 10.8882 24.5411 11.3682 25.0998 11.6975C25.6086 11.997 26.1213 11.7522 26.4976 12.2207C26.7338 13.5609 24.3241 13.2517 23.3286 13.437C22.5433 13.5829 21.1648 14.1541 21.7475 14.9769C21.9539 15.2677 22.1363 15.2341 22.2966 15.5634C22.2265 15.6335 22.2438 15.7007 21.8627 15.7641C21.2877 15.8601 20.7779 15.7813 20.1769 16.1749C19.2265 16.798 19.4953 17.5314 19.0979 17.878C18.6707 18.2495 18.086 17.7743 16.9302 18.4934C16.3408 18.8591 16.3081 19.6127 16.4358 20.4988C16.0585 20.9164 14.3488 21.2812 13.4176 22.0703C12.4172 22.918 12.8627 24.405 12.5123 25.8499C11.678 25.2738 11.4303 22.8892 9.17242 23.7964C7.45498 24.4866 7.74682 23.9759 6.67738 24.1564C5.81049 24.3033 5.57625 24.9561 5.21913 25.5667C3.47289 28.5523 5.27961 31.2604 7.3225 30.2169C7.70362 30.022 9.08794 28.6415 9.19354 29.5027C9.22522 29.759 9.00826 30.3196 8.92186 30.5423C8.76058 30.9599 8.59642 31.4649 8.7721 31.9295C9.17914 33.0047 10.8265 32.8377 11.0483 33.1545C11.2585 33.7689 10.9887 34.4169 11.3641 34.9977C12.0323 36.0336 13.2092 36.1564 14.3276 35.4729C14.7932 35.1888 15.1331 34.8345 15.6534 34.5676C17.2998 33.7209 17.6492 35.2099 18.8502 35.3145C19.5913 35.3788 20.2336 35.0841 20.8105 35.4979C21.0726 35.6851 21.4941 36.432 21.7331 36.8073C22.6278 38.2147 24.183 37.151 25.1344 37.4553C26.1366 37.776 26.3478 39.1516 26.895 40.0848C28.0941 42.1277 31.3782 41.3625 33.087 42.7209C33.4288 42.9926 33.8464 43.4313 33.8358 44.1398C33.8118 45.8688 31.36 45.8851 31.7834 48.4906C32.0416 50.0784 31.9398 50.9405 30.6544 51.4896C29.4314 52.0118 28.168 51.9379 28.2544 53.5354C28.36 55.4966 28.2534 55.6656 27.0323 56.5382C24.9683 58.0118 27.327 58.3267 26.0771 59.4855C25.6451 59.8867 25.3053 59.9559 25.1526 60.7066C24.8877 62.0122 25.5433 63.1114 26.4352 63.8659L27.6035 64.8951C26.7501 64.7616 25.4061 64.2691 24.6429 63.9024C23.6339 63.4167 23.0829 62.9376 22.503 62.064C21.4758 60.5165 20.6848 58.441 20.0886 56.4326C19.7881 55.4198 19.4589 54.3821 19.2505 53.2906C18.6179 49.9805 18.6217 49.9747 15.9884 48.5241C14.4313 47.6659 13.1065 45.6835 12.3673 44.0966C11.8508 42.9888 11.3593 42.2995 11.8883 40.918C12.5699 39.1372 14.079 37.92 11.5945 36.3523C10.4905 35.6563 9.81178 34.7779 8.97274 33.9609C6.30298 31.3603 4.71321 33.3071 2.84697 30.6134C2.75769 30.4847 2.69049 30.4271 2.60505 30.2985C2.34777 29.9107 2.00696 29.4451 1.55288 29.2924C1.93016 25.2201 4.21209 19.7241 6.47482 16.3237C7.2409 15.1727 7.88122 14.1445 8.84218 13.1164C8.96506 12.9849 9.00826 12.9061 9.11962 12.7583L10.1219 11.6889C10.3763 11.4287 10.5539 11.2127 10.8121 10.9477L12.9395 8.93365C13.1699 8.72437 13.4924 8.49589 13.7488 8.31061L15.3164 7.16725C15.8963 6.77173 16.4204 6.45204 17.0272 6.09588C18.0409 5.50068 19.2496 4.69332 20.3747 4.26324C20.7213 4.13172 20.3555 4.26516 20.7289 4.14996C20.2653 4.88436 18.0764 6.2802 17.3862 6.69973C16.9494 6.96469 16.5452 7.19797 16.166 7.46581C15.4 8.00533 12.5824 9.72661 14.9353 10.2393C15.6937 10.4044 15.8771 10.3381 16.3676 10.7893C16.3196 11.1762 16.1891 11.1225 16.2688 11.5852C16.8966 12.1535 17.2316 11.7916 17.68 11.3682C18.567 10.5292 19.0307 11.5209 20.0819 9.15445C20.3517 8.54773 20.5725 8.12437 21.0121 7.77781L21.0102 7.77589ZM47.1108 3.94932L49.3668 4.93716C49.2362 5.23764 49.4023 5.04564 49.122 5.24244C48.8407 5.4402 48.5297 5.62548 48.1946 5.70804C47.5581 6.18228 46.9351 6.25428 48.0429 7.34581C47.2538 7.61941 46.4445 7.78069 46.2631 8.67061C45.9021 10.4457 47.6896 11.7772 49.6634 10.4745C50.849 9.69205 50.5389 9.05557 51.1697 8.82229C51.6506 9.08341 51.8762 10.0626 51.4212 10.6396C51.0852 11.0649 50.3297 11.3202 49.9024 11.6716C49.3975 12.0873 49.4618 12.8255 49.2093 13.5177C48.9367 14.2645 48.4519 14.3039 47.7156 14.6591C45.5373 15.7093 44.8605 19.0108 48.4125 20.6274C51.8157 22.1769 51.6775 18.2198 54.8513 17.6476C56.4209 17.3654 57.4913 18.3974 58.6702 18.8841C60.4769 19.629 61.4196 18.8198 62.8942 18.4242C63.1918 18.886 64.0068 20.5065 64.1441 21.1305C63.4874 21.2409 62.563 21.2495 61.9985 21.4684C60.4106 22.0828 62.2452 23.9193 57.1505 21.1266C54.666 19.7654 53.7674 20.4105 51.2628 21.1516C48.1533 22.0713 48.6698 21.9532 46.8564 24.3042C45.8292 25.6367 44.9508 25.9795 44.2596 26.7263C42.7946 28.3103 44.009 29.3116 44.1117 30.4454C44.2576 32.0591 43.0941 33.0892 43.7584 34.7587C44.2605 36.0211 45.4068 36.4204 46.3447 37.1788C47.1837 37.8566 48.064 38.8646 49.5732 38.9731C52.4983 39.1843 54.5393 35.7187 56.7281 39.2169C57.3684 40.2403 55.89 41.1984 57.2695 43.2134C58.0183 44.3069 59.0484 45.2227 58.6836 46.7232C58.5127 47.424 58.2285 47.8608 58.193 48.6749C58.1585 49.4621 58.3255 50.1619 58.6154 50.7859C58.8353 51.2592 59.2826 52.0387 59.3518 52.6003C59.4295 53.231 59.2826 54.3091 59.2913 55.0464C59.1185 55.681 54.8148 59.5123 53.6205 60.3667C52.1508 61.4189 51.834 61.6032 50.3028 62.5421C49.1824 63.2285 47.8384 63.8275 46.5568 64.369C44.009 65.4452 40.8938 66.2804 37.8007 66.6164C34.721 66.9514 30.5027 66.9101 27.6717 66.1719L25.2611 65.593C24.9414 65.5104 24.7283 65.4883 24.4912 65.2992C23.7155 65.3328 20.0742 63.6547 19.311 63.2688C17.3075 62.2589 16.5164 61.6973 14.7558 60.4963C12.1225 58.7002 9.3145 55.7549 7.4137 53.1907C5.37753 50.4442 3.74265 47.2915 2.50521 43.4573C1.54712 40.4899 1.12664 37.0051 1.18136 33.7929L1.33016 31.2403C1.34456 31.1039 1.34936 30.9119 1.3676 30.7871L1.52216 30.4252C2.05112 31.0953 2.73657 32.1263 3.24537 32.4431C4.62873 33.3033 6.05914 33.0345 7.47994 33.9417C8.58202 34.6454 9.22042 35.7676 10.4492 36.7036C11.6867 37.6464 12.2771 37.8134 11.8316 38.9404C11.4812 39.8265 10.8399 40.6012 10.7094 41.6323C10.5241 43.1049 12.3155 46.0838 12.952 46.9478C15.9971 51.0864 17.4534 48.3801 18.2262 53.0496C18.7072 55.9517 20.5869 62.0448 22.7209 63.8352C23.9209 64.8423 24.6429 64.8682 25.1229 65.1965C26.1136 65.4183 26.777 65.8263 27.903 65.9357C28.792 66.0375 29.2384 65.5594 28.7421 64.8221C28.0211 63.7527 26.6512 63.1834 26.2854 62.1763C25.4166 59.785 27.7178 60.7056 27.353 58.5658C27.1446 57.3389 27.1514 57.5539 27.9971 56.9453C29.7472 55.6858 29.1002 54.3725 29.2643 53.1283C30.951 52.4602 33.303 51.647 32.8413 49.1213C32.5398 47.4729 32.5936 47.3414 33.5402 46.4141C34.0413 45.9235 34.9831 44.9798 34.769 43.7472C34.5818 42.6672 33.8522 42.0009 33.0938 41.6045C32.2259 41.1504 31.144 40.9238 30.0784 40.7251C28.8198 40.4908 28.073 40.27 27.5786 39.3964C27.04 38.4432 26.9565 37.5734 26.1414 36.935C24.9261 35.9846 23.7059 36.8947 22.8937 36.5184C22.1526 36.1737 21.8963 34.7904 21.0544 34.4649C20.4688 34.2383 19.8736 34.4179 19.2467 34.391C17.6108 34.3209 17.3881 32.4518 15.0188 33.864C14.5235 34.1596 13.2937 35.4192 12.4825 34.8307C11.5686 34.1673 12.6937 32.5833 11.2422 32.1791C10.7305 32.0361 10.0431 32.0899 9.76283 31.7366C9.19162 31.0147 11.1231 29.3327 9.48922 28.3535C9.2281 28.1971 8.92282 28.2547 8.62522 28.2172L6.66682 29.5103C5.69049 29.7148 5.29113 28.3718 5.49369 27.4435C5.62425 26.8415 6.15418 25.5935 6.50458 25.27C6.9289 24.8793 7.50874 25.3823 9.36826 24.7785C9.74459 24.4031 10.3225 24.574 10.5951 24.8582C10.8937 25.1702 11.102 25.5388 11.3439 25.943C11.5436 26.279 11.8854 26.8012 12.1955 26.9251C12.7868 27.1612 13.2016 26.5996 13.3542 26.2329C13.7296 25.3324 13.3561 23.7839 13.8832 23.015C14.3881 22.2777 15.3664 22.1404 16.3456 21.7362C18.3433 20.9126 16.9254 20.2463 17.3449 19.39C17.7472 18.5692 19.2208 19.415 19.9677 18.2802C20.2614 17.8348 20.2125 17.4498 20.607 17.0822C21.2041 16.5273 22.8025 17.0236 23.2499 15.9849C23.5101 15.3801 23.0329 14.9346 22.8294 14.6101C23.7971 13.8037 26.3977 14.7753 27.3328 13.1461C27.6371 12.6162 27.4192 11.8146 27.1456 11.494C26.8202 11.1129 26.2825 11.1282 25.7161 10.9343C25.1181 10.7289 25.1257 10.1778 25.1555 9.43573C25.2477 7.16341 23.8528 8.84341 22.6854 8.30581C22.7545 8.05141 23.3325 6.76981 22.2352 6.45877C20.9853 6.10452 19.5904 7.56949 19.0653 8.93269C18.9155 9.32053 18.8185 9.68725 18.5478 9.85045C18.3299 9.98197 17.7414 10.1989 17.5148 10.2114C17.464 10.2729 17.5014 10.5685 17.1222 10.2143C16.888 9.99541 16.8457 9.92725 16.4732 9.74869C15.951 9.49909 15.6467 9.51829 15.3721 9.27637C15.4988 9.03925 15.398 9.15829 15.6092 8.97589C16.1622 8.49781 17.7251 7.59541 18.4307 7.17973L18.9654 6.84085C19.1411 6.72757 19.2908 6.6306 19.551 6.53268C19.5693 6.44916 19.5222 6.50196 19.6384 6.40596C19.8083 6.26484 19.9129 6.27924 20.2845 5.93172L22.4137 3.68244C22.9888 3.02292 23.0953 3.08916 24.303 2.70612C25.0547 2.46803 25.8246 2.18003 26.6032 2.02835C27.2608 3.00948 27.6928 2.59764 28.7133 3.06324C28.2323 3.59028 27.4749 3.66996 27.3482 4.65588C27.232 5.56212 27.7427 6.39444 28.1747 6.79957C30.0294 8.53621 30.473 6.54036 31.4195 5.4498C33.0621 3.5586 34.6461 4.51188 35.6608 3.79572C36.3155 3.333 36.3309 2.87316 37.2938 2.48147C38.0397 2.17811 38.8701 2.07251 39.2599 1.51283C40.5578 1.62227 42.2483 2.16563 43.4148 2.53332C44.0733 2.74164 46.8362 3.65556 47.1098 3.94932H47.1108ZM27.7667 1.80083C30.1082 1.00499 34.9293 1.18547 37.4445 1.32371L37.0941 1.49555C35.9219 1.91699 36.0746 2.17331 35.4957 2.75796C34.7709 3.48948 32.4938 2.84724 30.8301 4.69332C30.1235 5.47764 29.7232 6.50388 29.3594 6.49044C28.9917 6.35988 28.3725 5.73012 28.2755 5.26356C28.1325 4.57332 28.8496 4.2258 29.1626 3.90612C30.8032 2.23283 28.1843 2.01491 27.7667 1.80083ZM31.5194 0.0920286C26.7587 0.429949 22.0355 1.92083 18.3481 3.91476C16.3225 5.01012 14.92 5.853 13.1516 7.23637L12.0112 8.16373C10.8294 9.12469 10.2774 9.62389 9.25882 10.7481L7.0777 13.342C6.97114 13.4783 6.95674 13.5253 6.84154 13.6665C5.23545 15.6287 3.14073 19.6578 2.29785 21.8582C0.628401 26.2175 -0.271122 31.3286 0.0725594 36.504C0.49208 42.8189 2.41113 47.5017 5.37465 52.3661C5.52153 52.607 5.64345 52.7251 5.80377 52.9699C5.90266 53.1206 5.90073 53.1619 6.01113 53.3222L6.6985 54.2266C8.00602 55.8307 8.61754 56.7043 10.1977 58.2096C10.5894 58.5831 10.9359 58.8058 11.3334 59.2215L13.6624 61.1127C16.311 62.9962 18.6169 64.4208 21.8608 65.6506C31.624 69.3533 42.16 68.4596 51.1793 63.337C51.6362 63.0778 52.0836 62.7552 52.5069 62.52C52.9495 62.2743 53.3364 61.9527 53.7943 61.657L58.9476 57.2573C59.0042 57.192 58.9927 57.2045 59.0561 57.1277C59.1166 57.0547 59.1396 57.025 59.202 56.952L59.5697 56.5238C59.5802 56.5123 59.5985 56.497 59.61 56.4854C59.6206 56.4739 59.6378 56.4566 59.6484 56.4451L62.2039 53.1082L63.8167 50.4998C64.0961 50.016 64.3121 49.6022 64.5627 49.0992C69.5451 39.096 69.3031 26.5737 63.4404 16.9862C62.4996 15.4482 61.5454 13.9497 60.3799 12.5644L58.913 10.845C58.4887 10.4274 58.2468 10.1269 57.8647 9.74293C56.37 8.23861 53.6781 6.13236 51.9338 5.08884C45.7495 1.39091 39.1975 -0.450373 31.5174 0.0939487L31.5194 0.0920286Z" fill="#9999FF"/>
<path fill-rule="evenodd" clip-rule="evenodd" d="M64.6802 22.1013C62.55 22.1656 62.4473 22.0332 61.8636 22.9164C61.6754 23.2005 61.5833 23.3023 61.2041 23.4396C58.9231 24.2652 56.6594 20.8139 53.8639 21.3535C53.1784 21.486 52.6351 21.6799 52.0082 21.8892C51.3851 22.0975 50.7938 22.2511 50.1765 22.446C48.5234 22.9682 48.4927 23.718 47.668 24.7999C46.5967 26.2053 46.2904 26.1708 45.1615 27.0684C43.8146 28.1407 45.148 29.3128 45.0789 30.8479C45.0175 32.2149 43.9538 33.5887 44.8773 34.83C45.0645 35.0825 47.0651 36.5013 47.5979 36.9698C48.0578 37.374 48.4504 37.6956 49.0379 37.9183C49.7435 38.1852 50.4626 38.0124 51.0895 37.7724C52.4767 37.2396 54.7538 35.7468 56.4175 37.4614C56.8687 37.926 57.1442 38.0796 57.5628 38.7055C58.541 40.1686 56.9138 41.0786 58.0149 42.6319L58.7964 43.6822C60.9621 46.3107 58.6581 47.5279 59.3071 49.8483C59.4751 50.4483 59.7852 50.9609 60.0165 51.5283C60.4005 52.4691 60.2028 52.7216 60.2892 53.6499C61.5717 52.0697 63.245 49.327 64.1167 47.3686C67.0236 40.8358 67.7714 32.9148 65.9042 25.9106C65.3964 24.006 65.3052 23.8716 64.6812 22.1023L64.6802 22.1013Z" fill="#9999FF"/>
<path fill-rule="evenodd" clip-rule="evenodd" d="M48.6793 6.53801C49.1756 7.70249 49.4655 7.77833 48.0245 8.27657C47.5628 8.43689 47.198 8.53097 47.1682 9.03402C47.0962 10.2427 48.2521 10.1822 49.1727 9.67242C49.6633 9.40074 49.6556 9.27114 49.9397 8.7585C50.4601 7.82153 50.9497 7.53353 51.9298 8.19977C52.7631 8.76617 52.3474 11.0481 51.5084 11.7614C51.2405 11.9889 50.6377 12.1886 50.4754 12.4017C50.0031 13.0199 50.2988 14.0615 49.5212 14.7192C48.926 15.2241 47.9218 15.4564 47.4437 15.9C47.0127 16.2984 46.6229 17.5972 47.0357 18.3422C47.3554 18.9192 48.1666 19.4856 48.8386 19.8043C50.9036 20.7844 51.2425 18.5899 52.6364 17.674C56.5676 15.0907 57.8492 18.0964 59.8594 18.2539C60.9279 18.3374 61.6124 17.8824 62.3967 17.5723C62.223 17.0606 60.1762 14.0615 59.6665 13.4366C59.535 13.2753 59.4073 13.1793 59.2892 13.0199C59.0953 12.7559 58.8457 12.3998 58.6316 12.1665C58.4914 12.0129 58.4098 11.9889 58.2649 11.8151C56.869 10.1399 56.8921 10.5652 55.4828 9.1857C54.5689 8.29001 50.7509 5.58377 49.9292 5.34473C49.7708 5.88137 49.2601 6.37769 48.6802 6.53993L48.6793 6.53801Z" fill="#9999FF"/>
<path fill-rule="evenodd" clip-rule="evenodd" d="M27.7666 1.80041C28.1852 2.01353 30.8041 2.23145 29.1624 3.9057C28.8495 4.22538 28.1324 4.5729 28.2754 5.26314C28.3724 5.7297 28.9916 6.3585 29.3592 6.49002C29.7231 6.50346 30.1234 5.47722 30.83 4.6929C32.4937 2.84682 34.7708 3.48906 35.4956 2.75753C36.0745 2.17385 35.9218 1.91657 37.094 1.49513L37.4444 1.32329C34.9292 1.18505 30.109 1.00457 27.7666 1.80041Z" fill="#9999FF"/>
<path fill-rule="evenodd" clip-rule="evenodd" d="M8.62477 28.2151C8.20525 28.1786 8.26093 28.3005 8.03245 28.4666C7.74253 28.6768 7.87405 28.4484 7.50637 28.818C7.3326 28.9917 6.5694 29.5351 6.23916 29.3527C6.19308 29.3277 6.27852 29.297 6.05484 29.1338C5.76972 28.9255 6.00588 29.3892 5.80332 28.8391C5.42796 27.8196 5.619 27.1216 6.1422 26.178C6.52332 25.4906 6.4446 25.2746 7.46605 25.2717C7.85293 25.2708 8.14861 25.3216 8.51629 25.1968C8.56237 25.1805 8.80621 25.0893 8.91373 25.0471C9.03277 25.001 9.04237 25 9.13645 24.9434L9.30925 24.8215C9.32461 24.81 9.34861 24.7917 9.36877 24.7754C7.50924 25.3802 6.92844 24.8762 6.50508 25.2669C6.15468 25.5904 5.62476 26.8384 5.4942 27.4404C5.2926 28.3687 5.69196 29.7127 6.66732 29.5072L8.62573 28.2141L8.62477 28.2151Z" fill="#9999FF"/>
<path fill-rule="evenodd" clip-rule="evenodd" d="M17.5157 10.209C17.1423 10.0948 17.2489 10.067 17.1279 9.91624L16.3119 9.40551C16.0517 9.36903 15.9961 9.42087 15.638 9.30375C15.71 9.01575 15.6649 9.08679 16.2562 8.67303C16.3945 8.57703 16.4261 8.58183 16.5538 8.49063C16.9426 8.21319 17.198 8.03367 17.653 7.83975L19.55 6.53223C19.2908 6.63015 19.1401 6.72711 18.9644 6.84039L18.4297 7.17927C17.7241 7.59495 16.1612 8.49735 15.6082 8.97543C15.397 9.15783 15.4978 9.03879 15.3711 9.27591C15.6466 9.51783 15.95 9.49767 16.4722 9.74823C16.8457 9.9268 16.8869 9.99496 17.1212 10.2138C17.5004 10.5681 17.4629 10.2724 17.5138 10.211L17.5157 10.209Z" fill="#9999FF"/>
<path fill-rule="evenodd" clip-rule="evenodd" d="M24.2703 10.6397L24.1398 9.21886C23.5427 9.34846 23.1779 9.53855 22.4675 9.32158C21.7599 9.10462 21.711 8.75134 21.7772 7.96606C21.7868 7.68958 21.7926 7.93054 21.7004 7.82686C21.374 8.9635 21.6927 9.03454 22.0383 9.27646C22.3475 9.49343 22.1958 9.46175 22.1948 9.45407C22.6892 9.53471 23.6031 9.57791 23.8105 9.43103L24.0735 9.54815C24.0438 9.84287 24.0601 10.0099 24.0803 10.3017C24.0803 10.3037 24.1052 10.5609 24.1062 10.5619C24.303 11.1206 24.2204 10.6685 24.2694 10.6387L24.2703 10.6397ZM21.3356 7.53502C21.5622 7.66942 21.2003 7.56478 21.4719 7.5811C21.4729 7.5811 21.6956 7.56094 21.7167 7.55998L21.8607 7.82302L21.9414 7.40158C21.6505 7.37374 21.5555 7.43038 21.3356 7.53598V7.53502ZM21.158 7.66078L21.0755 7.68958L21.0092 7.77598C20.942 7.84798 20.9967 7.8595 20.9209 7.98046C20.9401 7.96606 20.9689 7.92094 20.9795 7.93822L21.2348 7.61182L21.158 7.66078Z" fill="#9999FF"/>
<path fill-rule="evenodd" clip-rule="evenodd" d="M24.4902 65.298C24.7273 65.4871 24.9405 65.5092 25.2601 65.5918L27.6707 66.1707L27.9011 65.9335C26.775 65.8231 26.1117 65.4161 25.1209 65.1943C25.2525 65.4084 25.0182 65.2279 25.3696 65.4161C25.4157 65.4411 25.551 65.491 25.6201 65.5284C25.1939 65.4526 24.903 65.2846 24.4893 65.299L24.4902 65.298Z" fill="#9999FF"/>
<path fill-rule="evenodd" clip-rule="evenodd" d="M48.1942 5.70794C48.5292 5.62538 48.8403 5.4401 49.1216 5.24234C49.4028 5.04458 49.2358 5.23658 49.3664 4.93706L47.1104 3.94922C47.1267 3.9665 47.1526 3.96746 47.1641 3.99914C47.1756 4.0337 47.2745 4.08362 47.2755 4.08458L47.7161 4.37066C47.8822 4.45322 48.5033 4.54058 48.1164 4.69418C48.7011 4.76042 48.199 4.67114 48.5494 4.8833C48.8556 5.06858 48.7481 4.89962 48.9382 5.22218C48.7164 5.36426 48.5398 5.3681 48.3296 5.5601L48.1961 5.70794H48.1942Z" fill="#9999FF"/>
</svg>
