<svg width="48" height="66" viewBox="0 0 48 66" fill="none" xmlns="http://www.w3.org/2000/svg">
<path fill-rule="evenodd" clip-rule="evenodd" d="M2.22625 45.6074C1.95649 39.7284 2.22145 33.3261 2.19937 27.3827C2.19265 25.5357 2.25409 24.8618 4.29601 25.1402C7.67906 25.6019 10.6771 28.3811 10.8874 32.2797C10.9671 33.7629 10.8471 35.298 10.9018 36.7754C10.969 38.5965 12.9101 38.4545 13.0704 37.0365L13.08 9.70238C13.08 6.50845 12.4868 3.63996 15.0029 2.51004C16.248 1.95132 17.6026 2.2998 18.4589 2.96604C19.3921 3.69276 19.6148 4.82557 19.6109 6.43837C19.5975 12.5123 19.61 18.5882 19.61 24.6621C19.61 26.1271 19.5514 27.7091 19.6052 29.1597C19.6724 30.9808 21.6135 30.8388 21.7738 29.4208C22.058 26.9219 21.1277 22.8151 22.4161 20.9402C23.8349 18.8742 27.2113 19.3254 28.1012 21.7495C28.7281 23.4573 27.7335 29.417 28.7233 30.2407C29.2244 30.6573 29.8897 30.4903 30.2151 30.1024C31.2586 28.8592 29.2378 22.025 31.7991 20.2624C32.8609 19.5318 34.153 19.3946 35.3694 20.056C38.2782 21.639 36.5751 27.6506 37.0647 29.656C37.1895 30.1677 37.7367 30.6621 38.4337 30.4404C39.6606 30.0496 39.0126 27.9107 39.3006 26.6647C39.8737 24.1792 42.8958 23.0224 44.7947 24.9107C46.252 26.3603 45.723 30.6391 45.723 33.0957C45.723 38.2826 46.2452 45.8311 44.8043 50.4007C43.3566 54.9924 40.0772 58.5089 36.7038 60.5259C31.7214 63.5048 27.5185 63.1755 21.1057 63.1534C13.7232 63.1275 7.2653 59.2615 4.10689 52.8122C3.09793 50.7511 2.34817 48.2542 2.22625 45.6074ZM10.8999 26.4707C9.38691 25.3168 8.41058 23.4506 4.44385 22.9639C-0.189118 22.3955 0.0249625 25.8736 0.0249625 28.3351C0.0249625 31.6452 0.0249625 34.9533 0.0249625 38.2634C0.0249625 44.4708 -0.463678 49.7172 2.88289 55.1259C4.48033 57.7073 5.2973 58.5675 7.37762 60.4251C11.0189 63.6766 15.8295 65.3297 22.1933 65.3278C29.2513 65.3259 33.4705 65.3691 38.6084 61.89C42.1527 59.491 45.4331 55.9092 47.0305 50.585C48.3198 46.289 47.8974 36.6756 47.8974 31.7364C47.8974 28.2957 48.3822 25.5002 46.2971 23.4093C45.5713 22.6826 44.4337 21.9693 42.9851 21.8416C41.1697 21.6813 40.3825 22.2832 39.1911 22.9543C39.1028 20.2749 37.6273 18.4998 35.6075 17.776C32.0343 16.4963 30.145 19.0653 29.402 19.5779C28.874 19.1853 28.659 18.7763 27.9908 18.3242C25.3997 16.5731 23.3501 17.7933 21.8074 18.5286C21.6212 15.3088 22.0301 6.61693 21.7153 4.62877C21.1565 1.10076 16.7962 -1.49125 13.3229 0.969236C12.0346 1.88124 10.9479 3.2982 10.9066 5.61853C10.7875 12.4057 10.9863 19.575 10.9008 26.4717L10.8999 26.4707Z" fill="white"/>
<path fill-rule="evenodd" clip-rule="evenodd" d="M17.0614 43.6819C16.0237 44.1802 16.3462 45.5165 16.3462 46.8317L16.3453 54.4484C16.3395 55.4804 16.447 57.1296 17.8582 56.5143C18.799 56.1044 18.5197 54.4666 18.5197 53.3597L18.5206 45.7431C18.5264 44.7341 18.3872 43.0445 17.0614 43.6819Z" fill="white"/>
<path fill-rule="evenodd" clip-rule="evenodd" d="M30.1171 43.6819C29.0793 44.1802 29.4019 45.5165 29.4019 46.8317L29.4009 54.4484C29.3952 55.4804 29.5027 57.1296 30.9139 56.5143C31.8547 56.1044 31.5753 54.4666 31.5753 53.3597L31.5763 45.7431C31.5821 44.7341 31.4429 43.0445 30.1171 43.6819Z" fill="white"/>
<path fill-rule="evenodd" clip-rule="evenodd" d="M23.5888 43.6819C22.551 44.1802 22.8736 45.5165 22.8736 46.8317L22.8726 54.4484C22.8669 55.4804 22.9744 57.1296 24.3856 56.5143C25.3264 56.1044 25.047 54.4666 25.047 53.3597L25.048 45.7431C25.0537 44.7341 24.9145 43.0445 23.5888 43.6819Z" fill="white"/>
</svg>
