<svg width="30" height="32" viewBox="0 0 30 32" fill="none" xmlns="http://www.w3.org/2000/svg">
<path d="M12.6926 0.0232551C12.6374 0.036587 12.3753 0.0765824 12.1132 0.116578C9.07798 0.596523 6.62224 2.94292 6.18076 5.7826C6.029 6.80915 6.24974 8.24899 6.70502 9.31553C6.81539 9.5555 7.00853 10.0488 7.1327 10.4221C7.94669 12.6751 9.34012 14.355 11.0922 15.2082C11.5751 15.4482 12.3615 15.6881 12.6788 15.7015C12.7616 15.7015 12.2787 15.7548 11.6027 15.7948C8.12604 16.0214 5.93242 16.5947 4.11131 17.7812C2.33158 18.9278 1.17269 20.7009 0.56565 23.1673C0.234538 24.4871 0.0965744 25.8603 0.0275928 28.0334L0 29.5132L0.469075 29.7265C2.23501 30.5131 5.2702 31.0864 9.24354 31.3797C10.2645 31.4597 16.39 31.4997 16.459 31.433C16.4728 31.4197 16.2107 31.113 15.8658 30.7798C14.5965 29.5132 13.7687 27.9801 13.3962 26.2336C13.2307 25.4204 13.2445 23.6872 13.4238 22.874C13.5066 22.5407 13.5618 22.2474 13.5618 22.2341C13.5618 22.2207 13.4928 22.2607 13.3962 22.3407C13.2583 22.474 13.2307 22.474 13.1479 22.394C13.1065 22.3407 11.989 21.2342 10.6922 19.9277C9.36771 18.5945 8.34678 17.5146 8.37437 17.4879C8.44335 17.4346 9.36771 17.2746 10.3472 17.168C11.3544 17.048 15.5761 17.0746 16.5556 17.1946L17.2868 17.2746L17.6317 17.0613C17.8249 16.9413 18.2387 16.728 18.5561 16.5814L19.1355 16.3281L18.4871 16.1947C17.5765 16.0081 16.4866 15.8748 15.0794 15.7948C14.0723 15.7281 13.9205 15.7148 14.2102 15.6748C14.9552 15.5682 15.9348 15.1282 16.7349 14.5149C17.8249 13.6884 18.8596 12.2752 19.4114 10.8487C19.4942 10.6354 19.6598 10.2888 19.7563 10.0754C20.1978 9.23554 20.4324 7.78237 20.3772 6.35587C20.2944 4.59607 19.6322 3.11624 18.4043 1.91637C17.3282 0.876491 16.0175 0.263228 14.4448 0.0499187C14.0309 -0.00340852 12.9272 -0.0167403 12.6926 0.0232551ZM18.3215 6.26255C18.6112 6.50252 18.7354 8.24899 18.5285 9.19554C17.8662 12.1952 15.6588 14.4483 13.3548 14.4483C11.5061 14.4483 9.60225 12.9151 8.6503 10.622C8.41576 10.0488 8.20882 9.35553 8.13983 8.84892C8.09844 8.54229 8.09844 8.52895 8.20882 8.55562C9.57465 8.9689 10.5266 9.08889 11.4372 8.98224C12.4995 8.84892 13.2583 8.51562 14.1826 7.76904C15.2311 6.9158 16.1141 6.40919 16.8591 6.23588C17.2868 6.12923 18.1836 6.14256 18.3215 6.26255Z" fill="white"/>
<path d="M21.2463 17.8079C16.9557 18.5411 14.3068 22.754 15.645 26.7269C16.4452 29.0999 18.5009 30.8464 21.1084 31.3797C21.6051 31.473 23.233 31.473 23.7159 31.3797C26.6545 30.7664 28.7929 28.7 29.4276 25.8603C29.5241 25.3804 29.5241 23.8072 29.4276 23.3406C28.7791 20.4209 26.5165 18.3012 23.5365 17.8079C22.8605 17.6879 21.9362 17.6879 21.2463 17.8079ZM23.3434 19.7943C24.0332 19.9543 24.5161 20.2343 24.9989 20.7142C25.468 21.1808 25.7026 21.5941 25.8819 22.2474C26.2682 23.7006 25.6612 25.327 24.4609 26.087C24.2677 26.2069 23.9504 26.3536 23.7849 26.3936L23.4676 26.4736V27.5668H21.4257V25.1137L22.2121 25.0871C22.9019 25.0737 23.0261 25.0471 23.3158 24.9004C23.7987 24.6605 23.9918 24.4738 24.2402 24.0339C24.4333 23.6739 24.4609 23.6072 24.4609 23.1273C24.4609 22.6473 24.4471 22.5674 24.2264 22.2074C23.8263 21.5008 23.0951 21.1142 22.2949 21.1675C21.3015 21.2475 20.6117 21.9808 20.46 23.1406L20.391 23.6206H18.8734L18.9148 23.1673C19.0113 22.1141 19.3838 21.3008 20.0461 20.6609C20.9014 19.7943 22.1017 19.4877 23.3434 19.7943ZM22.9295 28.66C23.3986 28.8733 23.5779 29.4599 23.3296 30.0065C23.1089 30.4598 22.5018 30.6331 21.9362 30.3931C21.7292 30.2998 21.6326 30.2198 21.5361 30.0065C21.2877 29.4599 21.4533 28.8733 21.9362 28.66C22.0879 28.5933 22.3087 28.54 22.4328 28.54C22.557 28.54 22.7777 28.5933 22.9295 28.66Z" fill="white"/>
</svg>
