<svg width="31" height="31" viewBox="0 0 31 31" fill="none" xmlns="http://www.w3.org/2000/svg">
<path fill-rule="evenodd" clip-rule="evenodd" d="M25.6395 18.7311L23.5009 18.7141C23.3642 21.1159 22.4367 23.1803 21.3551 24.6395C18.7582 28.1434 14.0435 29.6521 9.79487 28.4271C5.86922 27.2954 2.86344 23.8478 2.25139 19.7327C1.726 16.1998 2.95547 13.0877 5.17854 10.7337C6.50853 9.32508 8.35006 8.24751 10.3743 7.77663C10.9354 7.64617 11.51 7.55816 12.0984 7.51795C12.936 7.46032 13.347 7.39286 13.364 8.30648L15.269 6.44574L13.3863 4.51709C13.3341 5.85647 12.55 5.05365 9.73367 5.73227C8.50777 6.02757 7.19609 6.58111 6.2722 7.15117C1.83948 9.8871 -0.659233 14.7447 0.15163 20.1643C0.422365 21.971 1.2024 23.98 2.21922 25.3815C3.32182 26.9014 4.28324 27.962 5.90541 28.9792C6.92312 29.6172 7.95781 30.127 9.25921 30.5005C12.1283 31.3243 14.9393 31.1201 17.5845 30.0885C22.3108 28.2452 25.3375 23.808 25.6395 18.7311Z" fill="white"/>
<path fill-rule="evenodd" clip-rule="evenodd" d="M24.653 7.49875H29.9645L29.9314 7.55772V8.55979H24.6534L24.5945 8.59285L24.6534 7.4983L24.653 7.49875ZM22.4563 7.49875H23.5093V8.5933L23.4503 8.56024H22.5148L22.4554 8.5933L22.4563 7.49875ZM20.3186 7.49875H21.3716V8.5933L21.3126 8.56024H20.3771L20.3181 8.5933L20.319 7.49875H20.3186ZM19.241 9.62933H31.0001V6.42251L19.2334 6.41357L19.241 9.62933Z" fill="white"/>
<path fill-rule="evenodd" clip-rule="evenodd" d="M24.5864 1.08517H29.9645L29.9314 1.14414V2.14622H24.6535L24.5945 2.17928L24.5869 1.08473L24.5864 1.08517ZM22.4559 1.08517H23.5098V2.17973L23.4508 2.14667H22.5153L22.4559 2.17973V1.08517ZM20.3208 1.08517H21.3716V2.17973L21.3126 2.14667H20.3771L20.3181 2.17973L20.3208 1.08517ZM19.241 3.21575H31.0001V0.00893517L19.2334 0L19.241 3.21575Z" fill="white"/>
<path fill-rule="evenodd" clip-rule="evenodd" d="M20.3144 11.203L20.3086 11.7673H29.9308L29.9313 10.6978L29.3666 10.7027L29.3795 11.203H20.3144Z" fill="black" fill-opacity="0.701961"/>
<path fill-rule="evenodd" clip-rule="evenodd" d="M20.3144 4.78893L20.3086 5.35363H29.8973L29.9313 4.2832L29.3666 4.28856L29.3965 4.78893H20.3144Z" fill="black" fill-opacity="0.470588"/>
<path fill-rule="evenodd" clip-rule="evenodd" d="M20.3145 4.78894H29.3966L29.3666 4.28857L20.3194 4.29349L20.3145 4.78894Z" fill="white"/>
<path fill-rule="evenodd" clip-rule="evenodd" d="M20.3145 11.203H29.3796L29.3666 10.7026L20.3194 10.7076L20.3145 11.203Z" fill="white"/>
<path fill-rule="evenodd" clip-rule="evenodd" d="M9.18627 15.7401C9.09022 15.7017 8.84808 15.4448 8.75962 15.3612C8.62023 15.2294 8.49201 15.0096 8.70065 14.8113C8.91062 14.6111 9.10273 14.7653 9.2305 14.8903C9.35247 15.0101 9.52313 15.1495 9.62543 15.271C9.58076 15.3612 9.28322 15.5868 9.18627 15.7401ZM16.8973 15.3742C16.9223 15.2844 16.9348 15.2848 16.9992 15.2259C17.0438 15.1843 17.0702 15.1629 17.1149 15.12C17.2163 15.0221 17.4611 14.7599 17.5898 14.7313C17.8547 14.6728 18.0495 14.9006 17.9851 15.1472C17.9431 15.3076 17.4674 15.7396 17.3548 15.8098C17.2904 15.7749 17.2891 15.7566 17.235 15.7003C17.193 15.6565 17.1676 15.632 17.1265 15.5886C17.0528 15.51 16.9853 15.4314 16.8973 15.3742ZM12.3498 13.2726L12.3587 13.9673C12.306 14.0102 11.811 14.1023 11.6921 14.1376C11.2941 14.256 10.8424 14.4405 10.4948 14.6513C10.3974 14.7103 10.3121 14.7586 10.2339 14.8117C10.1374 14.8778 10.0659 14.9368 9.98239 14.9922C9.77465 14.8274 9.56468 14.5522 9.33772 14.4061C8.99551 14.1858 8.61978 14.2912 8.39551 14.5057C8.18688 14.7058 8.05866 15.0838 8.25568 15.422C8.3486 15.5815 8.425 15.6369 8.54562 15.753C8.63274 15.8366 8.79268 16.0037 8.88158 16.0591C8.86684 16.139 8.53982 16.6166 8.4804 16.7225C7.49262 18.4939 7.61637 20.6401 8.73594 22.3364C9.85105 24.027 11.8498 24.9719 13.9585 24.6868C14.2297 24.6502 14.4906 24.5943 14.7466 24.5179C14.827 24.4938 15.0231 24.4433 15.0875 24.3955C15.1992 24.3129 15.1871 24.1141 15.0852 24.0466C14.9441 23.9528 14.6251 24.1127 14.3173 24.1806C14.0814 24.2329 13.6999 24.2999 13.4465 24.2892C13.4465 24.0734 13.4573 23.8572 13.4644 23.6432C13.4716 23.4162 13.4975 23.1692 13.2473 23.1763C13.0177 23.183 13.0378 23.3984 13.0315 23.6204C13.0253 23.8451 13.0199 24.0748 13.0092 24.2941C12.3529 24.274 11.756 24.1101 11.2288 23.884C10.9559 23.767 10.7544 23.6401 10.5234 23.5011C10.405 23.4296 9.9605 23.0879 9.9261 23.0209C10.0883 22.8712 10.1964 22.7689 10.355 22.6166C10.4488 22.5263 10.7602 22.3208 10.5511 22.1189C10.3639 21.9375 10.1379 22.2078 10.0449 22.3052C9.89706 22.4602 9.72193 22.5795 9.60488 22.718C8.98478 22.1028 8.33341 20.939 8.26551 19.6577C8.80787 19.6519 9.40876 19.8006 9.38821 19.4459C9.37078 19.1421 8.77749 19.2632 8.25702 19.2167C8.23155 18.6069 8.42277 17.9202 8.62649 17.423C8.81859 16.9535 9.1827 16.3517 9.47175 16.072C9.7541 16.2463 10.1709 17.0643 10.4533 16.7627C10.7128 16.4857 9.94442 16.0381 9.78046 15.7262C10.2071 15.3527 10.5668 15.0753 11.1082 14.8193C11.5501 14.6107 12.3305 14.3578 12.9091 14.365C12.9319 14.9252 12.7487 15.5895 13.0923 15.5989C13.346 15.6056 13.3192 15.3371 13.3246 15.1151C13.3304 14.8658 13.3407 14.6165 13.3469 14.3676C13.7374 14.2618 14.8659 14.6143 15.1871 14.7505C15.6124 14.9314 15.8952 15.1119 16.2383 15.3648C16.3317 15.4336 16.4581 15.5395 16.5452 15.6257C16.514 15.6878 16.166 15.9961 16.0712 16.097C15.9721 16.2029 15.5865 16.4267 15.7987 16.6488C15.9037 16.7587 16.0234 16.7301 16.1231 16.6372C16.212 16.5545 16.287 16.4848 16.3786 16.404L16.866 15.9492C17.6063 16.7497 18.074 17.624 18.1956 19.1135C18.0106 19.1363 17.6876 19.1064 17.4875 19.1015C17.2569 19.0957 16.9567 19.0416 16.9643 19.3119C16.971 19.5581 17.2315 19.5272 17.4656 19.5344C17.7041 19.542 17.9445 19.5447 18.1844 19.5567C18.1947 19.747 18.1554 20.0093 18.1241 20.1956C18.0866 20.4172 18.1889 20.6178 18.4212 20.5132C18.5624 20.4493 18.5691 20.1849 18.5941 19.9936C18.7335 18.917 18.5204 17.7335 18.0169 16.8074L17.6273 16.1596C17.7224 16.0926 17.8632 15.9371 17.9548 15.8491C18.0602 15.7477 18.2036 15.6297 18.2854 15.5131C18.5083 15.1955 18.4533 14.7581 18.2183 14.5186C18.0102 14.3064 17.5652 14.1822 17.2471 14.4096C17.1104 14.5075 16.7427 14.8926 16.5551 15.0498C16.4546 15.0011 16.3808 14.9247 16.2812 14.8559C15.6401 14.4128 14.6711 14.0196 13.8857 13.9615V13.2726C13.8857 13.1029 13.7941 12.9782 13.6034 13.0238C13.3992 13.0725 13.4501 13.416 13.4501 13.6948V13.9218L12.7858 13.9316C12.7804 13.6988 12.8171 13.2186 12.7469 13.1038C12.6576 12.9577 12.3489 12.959 12.3484 13.2726H12.3498Z" fill="white"/>
<path fill-rule="evenodd" clip-rule="evenodd" d="M13.4957 19.4904C13.3549 19.9032 12.7076 19.7079 12.8657 19.2643C13.0038 18.8779 13.6377 19.0749 13.4957 19.4904ZM12.9904 16.8031L12.9895 18.6241C12.9846 18.6281 12.977 18.6272 12.9743 18.6353L12.8358 18.7018C12.57 18.8256 12.3823 19.133 12.4154 19.4689C12.4315 19.6333 12.5186 19.7245 12.5458 19.8594C12.3019 20.0336 11.5518 20.7788 11.2503 21.0241C10.9125 21.2988 11.1707 21.4708 11.273 21.4811C11.4424 21.4985 12.0517 20.8767 12.1938 20.7453C12.3408 20.609 12.4887 20.4969 12.6294 20.3607C13.0136 19.9894 12.8769 20.1529 13.1807 20.1529C13.5765 20.1529 13.8723 19.8777 13.9335 19.5297C14.0452 18.8957 13.4934 18.7068 13.4233 18.646C13.4067 18.1523 13.421 17.6328 13.421 17.136C13.421 16.9287 13.472 16.5663 13.3438 16.46C13.2669 16.3961 13.1235 16.4051 13.0525 16.4757C12.9703 16.557 12.9904 16.6682 12.9904 16.8031Z" fill="white"/>
<path fill-rule="evenodd" clip-rule="evenodd" d="M18.98 17.4649C18.7996 17.5422 18.8 17.7607 18.9546 17.8482C19.362 18.0796 19.6935 18.1891 19.9254 18.7864C20.2408 19.5995 19.778 20.2513 19.3736 20.5967C18.7236 21.152 17.6335 21.5576 16.7181 21.7618C16.5439 21.8007 16.3299 21.8105 16.27 21.9544C16.1874 22.1518 16.3612 22.2774 16.5738 22.2385C17.9069 21.9941 19.375 21.3401 20 20.5788C20.6911 19.7371 20.5955 18.5608 19.8097 17.8804C19.7092 17.7933 19.1967 17.3715 18.98 17.4645V17.4649Z" fill="white"/>
<path fill-rule="evenodd" clip-rule="evenodd" d="M12.1606 12.3328L12.1526 12.2511L12.1539 11.807L12.1566 11.7194H14.079L14.0803 12.3185C13.9602 12.3703 12.4121 12.3453 12.1606 12.3333V12.3328ZM11.7192 11.8508C11.7192 12.3766 11.6397 12.7711 12.1584 12.7711H14.0902C14.6182 12.7711 14.5164 12.331 14.5177 11.8731C14.5195 11.2548 14.3596 11.287 13.7797 11.287C13.3427 11.287 12.9063 11.287 12.4693 11.287C11.9028 11.287 11.7192 11.2401 11.7192 11.8508Z" fill="white"/>
<path fill-rule="evenodd" clip-rule="evenodd" d="M21.0858 19.8459C21.0858 21.1442 20.216 21.8643 19.2559 22.2575C18.5871 22.5313 17.9523 22.6998 17.2196 22.8436C17.0708 22.8727 16.9354 22.9222 16.9587 23.1059C16.998 23.4164 17.4966 23.2314 17.7351 23.1782C18.2963 23.054 18.8417 22.903 19.3376 22.6935C20.3379 22.2709 21.1702 21.6477 21.4374 20.5741C21.483 20.3905 21.7117 19.2039 21.1926 19.4197C21.0362 19.4845 21.0854 19.6578 21.0854 19.8459H21.0858Z" fill="white"/>
<path fill-rule="evenodd" clip-rule="evenodd" d="M14.808 22.9515C14.947 22.7817 15.1292 22.6084 15.2843 22.4386L16.486 21.1528C16.5602 21.0018 16.4574 20.8593 16.3314 20.8414C16.1706 20.8187 16.0924 20.9522 16.0259 21.0264L15.2927 21.8033C14.9666 22.1594 14.6391 22.4869 14.309 22.8402C13.9596 23.2146 14.4032 23.2807 14.5878 23.3419C14.8482 23.4282 15.0926 23.5028 15.3468 23.5841C15.8583 23.748 16.3551 23.9044 16.8609 24.0693C17.2821 24.2069 17.3568 23.7918 17.0883 23.6859C16.864 23.5975 16.5705 23.522 16.3319 23.4456C16.0777 23.3638 15.8306 23.2816 15.5746 23.203C15.3602 23.1369 14.997 23.0368 14.8076 22.9515H14.808Z" fill="white"/>
<path fill-rule="evenodd" clip-rule="evenodd" d="M2.96243 19.148C2.82081 19.1878 2.73369 19.3593 2.84985 19.496C2.94009 19.6028 3.14783 19.5706 3.32117 19.5706C3.82109 19.5706 6.53201 19.5934 6.63656 19.559C6.74646 19.5228 6.83715 19.3553 6.74244 19.2222C6.65934 19.1056 6.45026 19.1395 6.27424 19.1395C5.74706 19.1395 3.0978 19.1096 2.96243 19.148Z" fill="white"/>
<path fill-rule="evenodd" clip-rule="evenodd" d="M4.05144 20.9018C3.92322 20.9326 3.82807 21.0484 3.89731 21.2003C3.95762 21.3325 4.10014 21.3303 4.27616 21.3298C4.63803 21.328 7.18946 21.3495 7.30964 21.3222C7.43026 21.295 7.52051 21.1685 7.46154 21.014C7.40882 20.8768 7.2529 20.8933 7.0742 20.8938C6.72171 20.8951 4.16447 20.8746 4.05144 20.9023V20.9018Z" fill="white"/>
<path fill-rule="evenodd" clip-rule="evenodd" d="M4.69798 17.8165H6.80757C7.01978 17.8165 7.27398 17.8581 7.3133 17.6405C7.36289 17.3662 7.09707 17.3805 6.87414 17.3805H4.69798C4.30797 17.3805 4.30484 17.8165 4.69798 17.8165Z" fill="white"/>
</svg>
