<svg width="41" height="37" viewBox="0 0 41 37" fill="none" xmlns="http://www.w3.org/2000/svg">
<path fill-rule="evenodd" clip-rule="evenodd" d="M4.38257 20.9024C5.74999 20.6112 6.57679 19.6828 7.29117 19.0505L19.7524 8.05426C20.4645 7.39754 20.6871 7.57833 21.3049 8.14612L35.1017 20.189C38.3851 22.64 43.6299 18.9997 39.4515 15.2939L29.3754 6.52875C28.5327 5.77625 27.7717 5.10389 26.9324 4.34944C25.8205 3.35165 23.0812 0.614322 21.6899 0.194097C18.7257 -0.702058 17.3435 1.71277 15.44 3.19627C13.5297 4.68562 0.780046 15.9555 0.477943 16.4246C-1.05983 18.8159 1.34564 21.5513 4.38371 20.9034L4.38257 20.9024Z" fill="white"/>
<path fill-rule="evenodd" clip-rule="evenodd" d="M11 3.80475V31.3144C11 32.8243 9.65032 34.0596 8.00049 34.0596C6.35067 34.0596 5 32.8243 5 31.3144V3.80475C5 2.29481 6.34968 1.05957 8.00049 1.05957C9.64933 1.05957 11 2.29481 11 3.80475Z" fill="white"/>
<path fill-rule="evenodd" clip-rule="evenodd" d="M36.8389 37H5.16112C3.4224 37 2 35.6503 2 34.0005C2 32.3507 3.4224 31 5.16112 31H36.8389C38.5776 31 40 32.3497 40 34.0005C40 35.6493 38.5776 37 36.8389 37Z" fill="white"/>
<path fill-rule="evenodd" clip-rule="evenodd" d="M37 15.6637V32.3363C37 33.2514 35.6503 34 34.0005 34C32.3507 34 31 33.2514 31 32.3363V15.6637C31 14.7486 32.3497 14 34.0005 14C35.6493 14 37 14.7486 37 15.6637Z" fill="white"/>
</svg>
