<svg width="45" height="45" viewBox="0 0 45 45" fill="none" xmlns="http://www.w3.org/2000/svg">
<path fill-rule="evenodd" clip-rule="evenodd" d="M3.20885 26.195C4.15242 25.9743 8.65938 26.1569 9.9846 26.1508C11.3568 26.1439 11.1125 26.1623 11.8643 27.6666C13.1316 30.205 14.0147 32.7584 16.176 33.8451C18.059 34.7914 20.1475 34.5175 22.4211 34.5175C24.4586 34.5175 27.0784 34.7716 28.7465 33.9241C31.0676 32.7441 31.7391 30.5511 33.0813 27.8621C33.2779 27.469 33.4738 27.0766 33.6657 26.6822C33.9636 26.0704 34.046 26.1446 34.8548 26.1494C37.1665 26.163 39.4822 26.1508 41.7952 26.1508C42.0047 27.2394 41.8068 30.9095 41.6612 32.1099C41.4381 33.9534 41.0591 35.4876 40.3026 36.9606C37.1297 43.1424 27.2172 41.8364 20.4625 41.8364C16.6624 41.8364 12.4459 42.0817 9.06892 40.758C7.21171 40.0297 5.73207 38.7564 4.90755 37.2794C4.58645 36.7037 3.96262 34.8466 2.23195 35.8031C1.56934 36.1696 1.30743 37.0886 1.73397 38.009C2.03602 38.6603 2.55237 39.4813 2.91088 39.965C3.80071 41.1647 4.75244 41.9877 6.19535 42.8529C8.9315 44.4921 12.769 44.9601 16.4474 44.9785C20.5809 44.9989 24.7518 45.0153 28.8839 44.9764C37.1916 44.8988 42.268 42.3958 44.1892 35.5578C45.2055 31.9389 44.9783 27.809 44.9783 23.9557C44.9783 19.0164 45.2314 12.4605 41.6272 8.64607C39.3135 6.19688 37.1481 5.05711 33.4201 4.49914C31.0758 4.14828 30.7683 6.99329 32.4786 7.50834C34.3256 8.06494 36.8182 8.10513 38.9407 10.2546C42.4394 13.7972 41.5095 19.6112 41.8734 23.0394C39.921 22.835 37.0134 23.0094 34.9548 23.006C33.7861 23.0039 33.0296 23.1034 32.1962 23.6457C31.4003 24.1642 31.1969 24.6274 30.6819 25.6616C30.2928 26.443 29.9302 27.1679 29.5397 27.95C28.658 29.7152 28.2947 31.3462 26.0477 31.3741H19.0869C16.808 31.3571 16.4386 29.7595 15.5855 28.0515C15.1943 27.2674 14.8024 26.488 14.4099 25.6984C13.431 23.7281 12.5636 23.0026 10.1792 23.006C9.03354 23.008 3.93065 22.9385 3.25919 23.0394C2.89047 21.2265 3.33471 16.3056 3.92044 14.2536C5.04429 10.32 7.58655 8.42669 11.5765 7.69637C12.303 7.56352 12.9323 7.4988 13.2833 7.06142C13.6459 6.60837 13.748 5.78743 13.4228 5.21176C12.7772 4.06721 11.2411 4.5298 9.8982 4.85068C8.70292 5.13613 7.39675 5.60485 6.42325 6.17099C5.30076 6.82297 4.50209 7.41296 3.76874 8.22163C3.02313 9.04325 2.42107 9.78107 1.82445 10.9822C-0.532772 15.7245 0.0767727 22.6408 0.0563638 28.0747C0.0536426 28.8656 0.114189 29.5701 0.570667 29.9495C0.977484 30.2875 1.78704 30.4673 2.36393 30.1526C3.59934 29.4781 3.11429 27.7047 3.20885 26.193V26.195Z" fill="white"/>
<path fill-rule="evenodd" clip-rule="evenodd" d="M20.9292 12.3699C19.9108 11.4727 19.3046 10.3302 18.1475 10.4726C16.7318 10.6456 16.3535 12.2303 17.3386 13.2576C18.1366 14.0901 18.9196 14.8423 19.7373 15.6605C21.3952 17.3194 22.2483 18.8182 24.0273 16.9372L27.6512 13.3094C28.0009 12.949 28.4009 12.4619 28.2186 11.6757C28.0675 11.0237 27.6485 10.6047 26.9682 10.4841C25.7688 10.2709 25.1627 11.44 24.1062 12.3706C23.9415 10.2157 24.0892 4.74031 24.0885 1.98864C24.0878 0.834563 23.6946 0 22.5177 0C21.4013 0 20.9537 0.786192 20.9469 1.88918C20.9285 4.78392 21.1074 10.0413 20.9292 12.3699Z" fill="white"/>
</svg>
