<svg width="305" height="320" viewBox="0 0 305 320" fill="none" xmlns="http://www.w3.org/2000/svg">
<g filter="url(#filter0_d_1_2)">
<path fill-rule="evenodd" clip-rule="evenodd" d="M4.77118 99.0504C42.6886 66.3669 79.0424 33.7494 116.961 1.0637C119.344 -0.886566 122.583 -0.327278 122.583 4.18501L123.047 72.096C106.991 87.2092 90.459 101.783 74.4015 116.896C70.2627 118.043 67.5907 115.116 65.2208 116.497L4 161.554L4.77118 99.0504Z" fill="url(#paint0_linear_1_2)"/>
<path fill-rule="evenodd" clip-rule="evenodd" d="M129.736 72.2734L129.438 3.78646C156.556 27.6049 186.023 54.8551 213.141 78.6747C228.066 81.0246 237.189 90.1273 242.69 100.845C242.98 130.922 218.993 140.325 205.794 140.618L129.736 72.2734Z" fill="url(#paint1_linear_1_2)"/>
<path fill-rule="evenodd" clip-rule="evenodd" d="M58.5027 136.319L101.396 176.318C103.235 178.033 102.258 183.204 100.365 184.837L65.4603 214.967C63.5669 216.601 57.7411 216.549 55.8456 214.91L10.1026 175.388C8.20714 173.75 7.44869 167.297 9.4612 165.824L49.4603 136.538C51.4728 135.064 56.6657 134.606 58.5027 136.319Z" fill="url(#paint2_linear_1_2)"/>
<path fill-rule="evenodd" clip-rule="evenodd" d="M94.374 215.027L116.801 192.887C127.05 182.768 136.692 170.02 150.096 181.571L240.807 259.745C258.501 274.992 231.689 324.923 198.64 308.852L184.037 296.838L178.677 264.636C178.464 263.355 152.137 239.102 142.835 231.267C137.449 226.731 128.672 246.764 123.223 251.216L51.8805 309.514C30.9503 315.288 -1.99651 310.639 6.59706 261.677C18.5317 249.807 28.692 242.8 41.9977 231.29C71.4631 236.632 75.2148 233.943 94.374 215.027Z" fill="url(#paint3_linear_1_2)"/>
<path fill-rule="evenodd" clip-rule="evenodd" d="M94.374 215.027C75.8179 234.519 71.4631 236.633 41.9977 231.29C28.692 242.8 18.5317 249.807 6.59706 261.677C-1.99651 310.639 30.9503 315.288 51.8805 309.514L120.26 253.664L119.844 188.273L94.374 215.027Z" fill="#726696"/>
<path fill-rule="evenodd" clip-rule="evenodd" d="M138.912 259.078L184.037 296.838C184.756 259.369 173.559 253.183 144.045 229.963C142.853 230.037 141.807 230.119 140.686 230.198C139.99 243.571 139.836 247.431 138.912 259.078Z" fill="#816CA9"/>
<path fill-rule="evenodd" clip-rule="evenodd" d="M120.995 70.3189C109.332 81.8598 66.5468 116.06 66.9032 116.125C68.1849 116.361 73.3491 117.825 74.4798 116.802L123.047 72.096L123.03 69.3355C123.03 68.9514 121.245 70.0722 120.995 70.3189Z" fill="url(#paint4_linear_1_2)"/>
<path fill-rule="evenodd" clip-rule="evenodd" d="M215.221 84.3444C225.491 87.403 239.535 97.3798 241.256 102.871C245.49 116.38 224.421 137.079 209.445 135.35C179.663 131.91 194.493 78.1723 215.221 84.3444Z" fill="#9C7BFF"/>
<path d="M213.488 176.153L213.558 187.983C213.558 193.536 212.858 197.199 211.458 198.973C210.058 200.699 207.514 201.563 203.828 201.563H193.538V194.913H198.718C199.884 194.913 200.654 194.773 201.028 194.493C201.401 194.213 201.588 193.676 201.588 192.883V159.703C201.588 158.863 201.401 158.303 201.028 158.023C200.654 157.743 199.884 157.603 198.718 157.603H193.538V150.953H204.528C207.934 150.953 210.291 151.746 211.598 153.333C212.951 154.873 213.628 157.906 213.628 162.433L213.488 176.153ZM191.438 201.633H184.088C182.548 201.633 181.521 201.376 181.008 200.863C180.494 200.303 180.238 199.229 180.238 197.643V154.943C180.238 153.356 180.494 152.306 181.008 151.793C181.521 151.233 182.548 150.953 184.088 150.953H191.438V201.633ZM234.504 201.563H227.154C225.567 201.563 224.517 201.306 224.004 200.793C223.537 200.279 223.304 199.206 223.304 197.573V154.943C223.304 153.309 223.537 152.236 224.004 151.723C224.517 151.209 225.567 150.953 227.154 150.953H234.504V201.563ZM256.134 191.763V197.713C256.134 199.299 255.877 200.349 255.364 200.863C254.851 201.329 253.777 201.563 252.144 201.563H237.304V191.763H256.134ZM251.934 171.113V175.313C251.934 176.993 251.771 178.066 251.444 178.533C251.117 178.953 250.184 179.163 248.644 179.163H237.304V171.113H251.934ZM255.434 150.953V156.903C255.434 158.489 255.177 159.539 254.664 160.053C254.151 160.519 253.077 160.753 251.444 160.753H237.304V150.953H255.434ZM267.691 150.953C269.278 150.953 270.351 151.209 270.911 151.723C271.518 152.236 271.938 153.309 272.171 154.943L276.791 192.183C276.931 193.303 277.234 194.026 277.701 194.353C278.168 194.679 278.914 194.866 279.941 194.913L279.871 201.563H276.791C272.684 201.563 269.978 200.559 268.671 198.553C267.971 197.479 267.481 196.429 267.201 195.403C266.921 194.329 266.664 192.836 266.431 190.923L260.971 150.953H267.691ZM285.961 201.563H281.621L289.251 154.943C289.438 153.356 289.834 152.306 290.441 151.793C291.048 151.233 292.144 150.953 293.731 150.953H300.381L293.381 192.323C293.054 194.096 292.774 195.403 292.541 196.243C292.354 197.083 292.004 197.993 291.491 198.973C290.978 199.953 290.278 200.629 289.391 201.003C288.504 201.376 287.361 201.563 285.961 201.563Z" fill="url(#paint5_linear_1_2)"/>
</g>
<defs>
<filter id="filter0_d_1_2" x="0" y="0" width="304.381" height="320" filterUnits="userSpaceOnUse" color-interpolation-filters="sRGB">
<feFlood flood-opacity="0" result="BackgroundImageFix"/>
<feColorMatrix in="SourceAlpha" type="matrix" values="0 0 0 0 0 0 0 0 0 0 0 0 0 0 0 0 0 0 127 0" result="hardAlpha"/>
<feOffset dy="4"/>
<feGaussianBlur stdDeviation="2"/>
<feComposite in2="hardAlpha" operator="out"/>
<feColorMatrix type="matrix" values="0 0 0 0 0 0 0 0 0 0 0 0 0 0 0 0 0 0 0.25 0"/>
<feBlend mode="normal" in2="BackgroundImageFix" result="effect1_dropShadow_1_2"/>
<feBlend mode="normal" in="SourceGraphic" in2="effect1_dropShadow_1_2" result="shape"/>
</filter>
<linearGradient id="paint0_linear_1_2" x1="125.215" y1="0" x2="125.215" y2="312" gradientUnits="userSpaceOnUse">
<stop stop-color="#352C44"/>
<stop offset="1" stop-color="#7A61A8"/>
</linearGradient>
<linearGradient id="paint1_linear_1_2" x1="125.215" y1="0" x2="125.215" y2="312" gradientUnits="userSpaceOnUse">
<stop stop-color="#352C44"/>
<stop offset="1" stop-color="#7A61A8"/>
</linearGradient>
<linearGradient id="paint2_linear_1_2" x1="125.215" y1="0" x2="125.215" y2="312" gradientUnits="userSpaceOnUse">
<stop stop-color="#352C44"/>
<stop offset="1" stop-color="#7A61A8"/>
</linearGradient>
<linearGradient id="paint3_linear_1_2" x1="125.215" y1="0" x2="125.215" y2="312" gradientUnits="userSpaceOnUse">
<stop stop-color="#352C44"/>
<stop offset="1" stop-color="#7A61A8"/>
</linearGradient>
<linearGradient id="paint4_linear_1_2" x1="125.215" y1="0" x2="125.215" y2="312" gradientUnits="userSpaceOnUse">
<stop stop-color="#352C44"/>
<stop offset="1" stop-color="#7A61A8"/>
</linearGradient>
<linearGradient id="paint5_linear_1_2" x1="241.854" y1="125.436" x2="241.854" y2="225.399" gradientUnits="userSpaceOnUse">
<stop stop-color="#352C44"/>
<stop offset="1" stop-color="#7A61A8"/>
</linearGradient>
</defs>
</svg>
