<?xml version="1.0" encoding="UTF-8"?>
<svg id="Layer_1" xmlns="http://www.w3.org/2000/svg" version="1.1" xmlns:xlink="http://www.w3.org/1999/xlink" viewBox="0 0 1282 748">
  <!-- Generator: Adobe Illustrator 29.2.1, SVG Export Plug-In . SVG Version: 2.1.0 Build 116)  -->
  <defs>
    <style>
      .st0 {
        fill: url(#linear-gradient10);
      }

      .st1 {
        fill: url(#linear-gradient1);
      }

      .st2 {
        fill: url(#linear-gradient9);
      }

      .st3 {
        fill: url(#linear-gradient6);
      }

      .st3, .st4, .st5, .st6, .st7, .st8, .st9, .st10, .st11, .st12 {
        fill-rule: evenodd;
      }

      .st13 {
        fill: url(#linear-gradient11);
      }

      .st4 {
        fill: #726696;
      }

      .st5 {
        fill: url(#linear-gradient8);
      }

      .st6 {
        fill: url(#linear-gradient5);
      }

      .st14 {
        fill: url(#linear-gradient3);
      }

      .st7 {
        fill: url(#linear-gradient7);
      }

      .st8 {
        fill: url(#linear-gradient4);
      }

      .st9 {
        fill: url(#linear-gradient12);
      }

      .st15 {
        fill: url(#linear-gradient);
      }

      .st10 {
        fill: #9c7bff;
      }

      .st11 {
        fill: #816ca9;
      }

      .st12 {
        fill: url(#linear-gradient2);
      }
    </style>
    <linearGradient id="linear-gradient" x1="1100.2" y1="660.3" x2="1100.2" y2="490.6" gradientTransform="translate(0 750) scale(1 -1)" gradientUnits="userSpaceOnUse">
      <stop offset="0" stop-color="#352c44"/>
      <stop offset="1" stop-color="#7a61a8"/>
    </linearGradient>
    <linearGradient id="linear-gradient1" x1="585.4" y1="660.3" x2="585.4" y2="490.6" gradientTransform="translate(0 750) scale(1 -1)" gradientUnits="userSpaceOnUse">
      <stop offset="0" stop-color="#352c44"/>
      <stop offset="1" stop-color="#7a61a8"/>
    </linearGradient>
    <linearGradient id="linear-gradient2" x1="817" y1="660.3" x2="817" y2="490.6" gradientTransform="translate(0 750) scale(1 -1)" gradientUnits="userSpaceOnUse">
      <stop offset="0" stop-color="#352c44"/>
      <stop offset="1" stop-color="#7a61a8"/>
    </linearGradient>
    <linearGradient id="linear-gradient3" x1="850.3" y1="660.3" x2="850.3" y2="490.6" gradientTransform="translate(0 750) scale(1 -1)" gradientUnits="userSpaceOnUse">
      <stop offset="0" stop-color="#352c44"/>
      <stop offset="1" stop-color="#7a61a8"/>
    </linearGradient>
    <linearGradient id="linear-gradient4" x1="240.4" y1="667.3" x2="240.4" y2="213.5" gradientTransform="translate(0 750) scale(1 -1)" gradientUnits="userSpaceOnUse">
      <stop offset="0" stop-color="#352c44"/>
      <stop offset="1" stop-color="#7a61a8"/>
    </linearGradient>
    <linearGradient id="linear-gradient5" x1="427.4" y1="667.3" x2="427.4" y2="213.5" gradientTransform="translate(0 750) scale(1 -1)" gradientUnits="userSpaceOnUse">
      <stop offset="0" stop-color="#352c44"/>
      <stop offset="1" stop-color="#7a61a8"/>
    </linearGradient>
    <linearGradient id="linear-gradient6" x1="227.9" y1="667.3" x2="227.9" y2="213.5" gradientTransform="translate(0 750) scale(1 -1)" gradientUnits="userSpaceOnUse">
      <stop offset="0" stop-color="#352c44"/>
      <stop offset="1" stop-color="#7a61a8"/>
    </linearGradient>
    <linearGradient id="linear-gradient7" x1="335.5" y1="667.3" x2="335.5" y2="213.5" gradientTransform="translate(0 750) scale(1 -1)" gradientUnits="userSpaceOnUse">
      <stop offset="0" stop-color="#352c44"/>
      <stop offset="1" stop-color="#7a61a8"/>
    </linearGradient>
    <linearGradient id="linear-gradient8" x1="288.4" y1="667.3" x2="288.4" y2="213.5" gradientTransform="translate(0 750) scale(1 -1)" gradientUnits="userSpaceOnUse">
      <stop offset="0" stop-color="#352c44"/>
      <stop offset="1" stop-color="#7a61a8"/>
    </linearGradient>
    <linearGradient id="linear-gradient9" x1="149.5" y1="614.6" x2="1132.5" y2="614.6" gradientUnits="userSpaceOnUse">
      <stop offset="0" stop-color="#dbbaff"/>
      <stop offset="1" stop-color="#6c64bc"/>
    </linearGradient>
    <linearGradient id="linear-gradient10" x1="861.4" y1="338.3" x2="624.7" y2="338.3" gradientTransform="translate(0 750) scale(1 -1)" gradientUnits="userSpaceOnUse">
      <stop offset="0" stop-color="#dbbaff"/>
      <stop offset="1" stop-color="#6c64bc"/>
    </linearGradient>
    <linearGradient id="linear-gradient11" x1="870.8" y1="452.1" x2="927.7" y2="452.1" gradientTransform="matrix(1,0,0,1,0,0)" xlink:href="#linear-gradient10"/>
    <linearGradient id="linear-gradient12" x1="880.8" y1="452.6" x2="901" y2="426.9" gradientTransform="translate(0 750) scale(1 -1)" gradientUnits="userSpaceOnUse">
      <stop offset="0" stop-color="#53d6ed"/>
      <stop offset="1" stop-color="#165182"/>
    </linearGradient>
  </defs>
  <g>
    <path class="st15" d="M1132.5,259.4h-64.3.1V109.2h-.3,60.7v18l-59.1,22.6,54.1,33.9v17.9h-55.6l64.3,39.8v18Z"/>
    <path class="st1" d="M634.2,243.2v16.2c-7.1-7.3-79.6-83.6-80.6-83.6v83.6h-17V89.7h17v79.8l80.6-79.8v16.4l-68.9,65,68.9,72.1Z"/>
    <path class="st12" d="M807.1,88.2h19.9v18h-19.9v-18Z"/>
    <path class="st14" d="M724.2,259.4h-89.9V89.7h86.2v18h-66.3v56.5h61.3v17.9h-61.3v59.4h70.1v18ZM806.2,127.7h-23.2l-2.9,131.7h-19.9l2.9-131.7h-48.9v-18h92v18ZM827,259.4h-19.9V109.7h19.9v149.7ZM960.6,109.7l-60.7,149.7-68.4-149.7h22.1l50.4,109.5c1.9-4,29.7-98.9,35.1-109.5h21.4ZM1066.3,259.4h-89.9V109.3h86.2v18h-66.3v36.9h61.3v17.9h-61.3v59.4h70.1v18Z"/>
  </g>
  <path class="st8" d="M150.7,226.8c57.9-47.5,113.4-95,171.3-142.5,3.6-2.8,8.6-2,8.6,4.5l.7,98.8c-24.5,22-49.7,43.2-74.3,65.2-6.3,1.7-10.4-2.6-14-.6l-93.5,65.5,1.2-90.9Z"/>
  <path class="st6" d="M341.5,187.8l-.5-99.6c41.4,34.6,86.4,74.3,127.8,108.9,22.8,3.4,36.7,16.7,45.1,32.2.4,43.7-36.2,57.4-56.3,57.9l-116.1-99.4Z"/>
  <path class="st3" d="M232.7,281l65.5,58.2c2.8,2.5,1.3,10-1.6,12.4l-53.3,43.8c-2.9,2.4-11.8,2.3-14.7,0l-69.8-57.5c-2.9-2.4-4.1-11.8-1-13.9l61.1-42.6c3.1-2.1,11-2.8,13.8-.3Z"/>
  <path class="st7" d="M287.5,395.5l34.2-32.2c15.6-14.7,30.4-33.3,50.8-16.5l138.5,113.7c27,22.2-13.9,94.8-64.4,71.4l-22.3-17.5-8.2-46.8c-.3-1.9-40.5-37.1-54.7-48.5-8.2-6.6-21.6,22.5-29.9,29l-108.9,84.8c-32,8.4-82.2,1.6-69.1-69.6,18.2-17.3,33.7-27.5,54-44.2,45,7.8,50.7,3.9,80-23.7Z"/>
  <path class="st4" d="M287.5,395.5c-28.3,28.4-35,31.4-80,23.7-20.3,16.7-35.8,26.9-54,44.2-13.1,71.2,37.2,78,69.1,69.6l104.4-81.2-.6-95.1-38.9,38.9Z"/>
  <path class="st11" d="M355.5,459.5l68.9,54.9c1.1-54.5-16-63.5-61.1-97.3-1.8.1-3.4.2-5.1.3-1.1,19.5-1.3,25.1-2.7,42Z"/>
  <path class="st5" d="M328.1,185c-17.8,16.8-83.1,66.5-82.6,66.6,2,.3,9.8,2.5,11.6,1l74.1-65v-4c0-.6-2.8,1.1-3.1,1.4Z"/>
  <path class="st10" d="M472,205.4c15.7,4.4,37.1,19,39.7,26.9,6.5,19.6-25.7,49.8-48.6,47.2-45.5-5-22.8-83.2,8.8-74.2Z"/>
  <path class="st2" d="M200.6,591.6c-.6-2-1.4-3.8-2.5-5.3-1-1.6-2.3-3-3.7-4.1-1.4-1.1-3.1-2-5-2.5-1.9-.6-3.9-.9-6.1-.9-3.9,0-7.5,1-10.5,3.1s-5.5,5-7.3,9c-1.7,3.9-2.6,8.7-2.6,14.4s.9,10.5,2.6,14.5c1.7,4,4.2,7,7.3,9,3.1,2,6.7,3.1,10.8,3.1s7-.7,9.7-2.2c2.8-1.5,4.9-3.6,6.3-6.3,1.5-2.7,2.2-5.9,2.2-9.6l3,.5h-19.9v-10.7h29.8v9.1c0,6.5-1.3,12-4,16.8s-6.4,8.3-11,10.9c-4.7,2.5-10.1,3.8-16.1,3.8s-12.7-1.6-17.8-4.7c-5.1-3.1-9.1-7.6-11.9-13.4-2.8-5.8-4.3-12.7-4.3-20.6s.8-11.5,2.5-16.3c1.7-4.8,4.1-8.9,7.1-12.2,3-3.4,6.6-5.9,10.7-7.7,4.1-1.8,8.5-2.7,13.3-2.7s7.9.6,11.4,1.8c3.5,1.2,6.6,2.9,9.4,5.2,2.8,2.2,5,4.9,6.8,8,1.8,3.1,2.9,6.5,3.5,10.2h-13.6ZM230.5,642.9v-56.6h13v56.6h-13ZM237,578.3c-2.1,0-3.8-.7-5.3-2.1-1.5-1.4-2.2-3.1-2.2-5.1s.7-3.7,2.2-5.1c1.5-1.4,3.3-2.1,5.3-2.1s3.9.7,5.3,2.1c1.5,1.4,2.2,3.1,2.2,5.1s-.7,3.7-2.2,5.1c-1.5,1.4-3.2,2.1-5.3,2.1ZM306.1,586.3l-19.6,56.6h-14.3l-19.6-56.6h13.8l12.7,42h.6l12.7-42h13.8ZM337.6,644c-5.5,0-10.3-1.2-14.3-3.5-4-2.4-7.1-5.7-9.2-10.1-2.2-4.4-3.2-9.5-3.2-15.4s1.1-10.9,3.2-15.3c2.2-4.4,5.2-7.9,9.1-10.3,3.9-2.5,8.5-3.7,13.7-3.7s6.6.6,9.6,1.7c3,1.1,5.7,2.8,8,5.2,2.3,2.3,4.2,5.3,5.5,8.9,1.3,3.6,2,7.9,2,12.8v4.1h-45.2v-9h32.7c0-2.6-.6-4.8-1.6-6.8-1.1-2-2.5-3.6-4.4-4.8-1.9-1.2-4-1.7-6.5-1.7s-5,.7-7,2c-2,1.3-3.6,3-4.7,5.2-1.1,2.1-1.7,4.4-1.7,7v7.8c0,3.3.6,6.1,1.8,8.5,1.2,2.3,2.8,4.1,4.9,5.4,2.1,1.2,4.6,1.8,7.4,1.8s3.6-.3,5.1-.8c1.5-.6,2.9-1.4,4-2.5s2-2.4,2.5-4l12.1,1.4c-.8,3.3-2.2,6.2-4.4,8.6-2.1,2.4-4.9,4.3-8.2,5.7-3.3,1.3-7.1,2-11.4,2ZM398.1,642.9v-56.6h13v56.6h-13ZM404.6,578.3c-2.1,0-3.8-.7-5.3-2.1-1.5-1.4-2.2-3.1-2.2-5.1s.7-3.7,2.2-5.1c1.5-1.4,3.3-2.1,5.3-2.1s3.8.7,5.3,2.1c1.5,1.4,2.2,3.1,2.2,5.1s-.7,3.7-2.2,5.1c-1.5,1.4-3.2,2.1-5.3,2.1ZM424.4,642.9v-56.6h12.4v9.6h.6c1.1-3.2,3-5.8,5.7-7.6,2.7-1.8,5.8-2.8,9.5-2.8s6.9.9,9.4,2.8c2.6,1.8,4.4,4.4,5.5,7.6h.6c1.2-3.1,3.3-5.6,6.2-7.5,2.9-1.9,6.4-2.8,10.4-2.8s9.2,1.6,12.4,4.9c3.2,3.3,4.8,8.1,4.8,14.4v38h-13v-35.9c0-3.5-.9-6.1-2.7-7.7-1.8-1.6-4-2.5-6.7-2.5s-5.6,1-7.4,3c-1.7,2-2.6,4.6-2.6,7.8v35.3h-12.7v-36.5c0-2.9-.9-5.3-2.6-7-1.7-1.7-3.9-2.6-6.7-2.6s-3.6.5-5.1,1.5c-1.5,1-2.7,2.3-3.7,4.1-.9,1.7-1.4,3.8-1.4,6.1v34.4h-13ZM531,644.1c-3.5,0-6.6-.6-9.4-1.9-2.8-1.3-5-3.2-6.6-5.7-1.6-2.5-2.4-5.6-2.4-9.4s.6-5.8,1.7-7.9,2.7-3.8,4.7-5c2-1.3,4.2-2.2,6.7-2.8,2.5-.7,5.1-1.1,7.8-1.4,3.2-.3,5.8-.7,7.9-.9,2-.3,3.5-.7,4.4-1.3.9-.6,1.4-1.6,1.4-2.8v-.2c0-2.8-.8-4.9-2.4-6.4-1.6-1.5-3.9-2.3-6.9-2.3s-5.7.7-7.6,2.1c-1.8,1.4-3.1,3.1-3.7,5l-12.1-1.8c1-3.4,2.5-6.3,4.7-8.6,2.2-2.3,4.9-4.1,8.1-5.2,3.2-1.2,6.7-1.8,10.5-1.8s5.3.3,7.9,1c2.6.6,5,1.7,7.2,3.2,2.2,1.4,3.9,3.4,5.2,5.9,1.3,2.5,2,5.6,2,9.4v37.9h-12.5v-7.8h-.4c-.8,1.6-1.9,3-3.3,4.4-1.4,1.4-3.2,2.4-5.3,3.3-2.1.8-4.6,1.2-7.5,1.2ZM534.3,634.3c2.6,0,4.9-.5,6.8-1.6,1.9-1.1,3.4-2.5,4.4-4.3,1.1-1.8,1.6-3.7,1.6-5.8v-6.7c-.4.3-1.1.7-2.1,1-1,.3-2,.6-3.2.8-1.2.2-2.4.4-3.6.6-1.2.2-2.2.3-3,.4-1.9.3-3.7.7-5.2,1.3-1.5.6-2.7,1.5-3.6,2.6-.9,1.1-1.3,2.5-1.3,4.2,0,2.5.9,4.3,2.6,5.6,1.7,1.3,4,1.9,6.7,1.9ZM597.1,665.3c-4.7,0-8.7-.7-12-2-3.3-1.3-6-3-8.1-5.2-2-2.2-3.4-4.6-4.2-7.2l11.7-2.9c.5,1.1,1.3,2.2,2.3,3.3,1,1.1,2.4,2,4.1,2.7,1.7.7,3.9,1.1,6.5,1.1s6.7-.9,9.1-2.8c2.4-1.8,3.6-4.8,3.6-9v-10.7h-.6c-.7,1.4-1.7,2.8-2.9,4.2-1.3,1.5-3,2.7-5.1,3.6-2.1,1-4.7,1.5-7.9,1.5s-8.1-1-11.5-3.1c-3.4-2.1-6.1-5.1-8.2-9.2-2-4.1-3-9.2-3-15.4s1-11.5,3-15.7c2-4.3,4.8-7.5,8.2-9.8,3.4-2.2,7.3-3.4,11.5-3.4s5.9.6,8,1.7c2.1,1.1,3.8,2.4,5,4,1.2,1.5,2.2,3,2.8,4.4h.7v-9.4h12.8v57.5c0,4.8-1.1,8.8-3.4,12-2.2,3.2-5.3,5.5-9.2,7.1-3.9,1.6-8.3,2.4-13.3,2.4ZM597.2,631.6c2.7,0,5.1-.7,7-2.1,1.9-1.4,3.4-3.4,4.4-5.9,1-2.6,1.5-5.7,1.5-9.3s-.5-6.7-1.5-9.4c-1-2.7-2.4-4.8-4.4-6.2-1.9-1.5-4.3-2.2-7.1-2.2s-5.3.8-7.2,2.3c-1.9,1.5-3.4,3.7-4.4,6.4-1,2.7-1.5,5.7-1.5,9.1s.5,6.5,1.5,9.1c1,2.6,2.5,4.6,4.4,6,2,1.4,4.4,2.1,7.2,2.1ZM636.2,642.9v-56.6h13v56.6h-13ZM642.8,578.3c-2.1,0-3.8-.7-5.3-2.1-1.5-1.4-2.2-3.1-2.2-5.1s.7-3.7,2.2-5.1c1.5-1.4,3.3-2.1,5.3-2.1s3.8.7,5.3,2.1c1.5,1.4,2.2,3.1,2.2,5.1s-.7,3.7-2.2,5.1c-1.5,1.4-3.2,2.1-5.3,2.1ZM675.6,609.8v33.2h-13v-56.6h12.4v9.6h.6c1.3-3.2,3.3-5.7,6.1-7.6,2.8-1.9,6.3-2.8,10.4-2.8s7.1.8,9.9,2.5c2.8,1.7,5,4.1,6.6,7.3,1.6,3.2,2.4,7,2.3,11.5v36h-13v-34c0-3.8-1-6.7-2.9-8.9-1.9-2.1-4.5-3.2-7.9-3.2s-4.3.5-6.1,1.5c-1.7,1-3.1,2.5-4.1,4.4-1,1.9-1.5,4.2-1.5,7ZM740,644.1c-3.5,0-6.6-.6-9.4-1.9-2.8-1.3-5-3.2-6.6-5.7-1.6-2.5-2.4-5.6-2.4-9.4s.6-5.8,1.7-7.9,2.7-3.8,4.7-5c2-1.3,4.2-2.2,6.7-2.8,2.5-.7,5.1-1.1,7.8-1.4,3.2-.3,5.8-.7,7.9-.9,2-.3,3.5-.7,4.4-1.3.9-.6,1.4-1.6,1.4-2.8v-.2c0-2.8-.8-4.9-2.4-6.4-1.6-1.5-3.9-2.3-6.9-2.3s-5.7.7-7.6,2.1c-1.8,1.4-3.1,3.1-3.7,5l-12.1-1.8c1-3.4,2.5-6.3,4.7-8.6,2.2-2.3,4.9-4.1,8.1-5.2,3.2-1.2,6.7-1.8,10.5-1.8s5.3.3,7.9,1c2.6.6,5,1.7,7.2,3.2,2.2,1.4,3.9,3.4,5.2,5.9,1.3,2.5,2,5.6,2,9.4v37.9h-12.5v-7.8h-.4c-.8,1.6-1.9,3-3.3,4.4-1.4,1.4-3.2,2.4-5.3,3.3-2.1.8-4.6,1.2-7.5,1.2ZM743.4,634.3c2.6,0,4.9-.5,6.8-1.6,1.9-1.1,3.4-2.5,4.4-4.3,1.1-1.8,1.6-3.7,1.6-5.8v-6.7c-.4.3-1.1.7-2.1,1-1,.3-2,.6-3.2.8-1.2.2-2.4.4-3.6.6-1.2.2-2.2.3-3,.4-1.9.3-3.7.7-5.2,1.3-1.5.6-2.7,1.5-3.6,2.6-.9,1.1-1.3,2.5-1.3,4.2,0,2.5.9,4.3,2.6,5.6,1.7,1.3,4,1.9,6.7,1.9ZM809.6,586.3v10.3h-31.7v-10.3h31.7ZM785.8,572.8h13v53.1c0,1.8.3,3.2.8,4.1.5.9,1.3,1.6,2.2,1.9.9.3,1.9.5,2.9.5s1.6,0,2.2-.2c.7-.1,1.2-.2,1.6-.3l2.2,10.4c-.7.2-1.7.5-3,.8-1.3.3-2.8.5-4.7.5-3.3,0-6.2-.4-8.8-1.5-2.6-1.1-4.7-2.9-6.2-5.2-1.5-2.4-2.2-5.3-2.2-8.8v-55.3ZM820.5,642.9v-56.6h13v56.6h-13ZM827,578.3c-2.1,0-3.8-.7-5.3-2.1-1.5-1.4-2.2-3.1-2.2-5.1s.7-3.7,2.2-5.1c1.5-1.4,3.3-2.1,5.3-2.1s3.8.7,5.3,2.1c1.5,1.4,2.2,3.1,2.2,5.1s-.7,3.7-2.2,5.1c-1.5,1.4-3.2,2.1-5.3,2.1ZM870.9,644c-5.4,0-10-1.2-14-3.6-3.9-2.4-7-5.8-9.2-10.2-2.2-4.4-3.2-9.5-3.2-15.3s1.1-11,3.2-15.4c2.2-4.4,5.2-7.8,9.2-10.2,3.9-2.4,8.6-3.6,14-3.6s10,1.2,14,3.6c3.9,2.4,7,5.8,9.1,10.2,2.2,4.4,3.3,9.5,3.3,15.4s-1.1,11-3.3,15.3c-2.2,4.4-5.2,7.8-9.1,10.2-3.9,2.4-8.6,3.6-14,3.6ZM871,633.3c2.9,0,5.4-.8,7.3-2.5,2-1.7,3.4-3.9,4.4-6.7,1-2.8,1.5-5.9,1.5-9.4s-.5-6.6-1.5-9.4c-1-2.8-2.4-5.1-4.4-6.7-2-1.7-4.4-2.5-7.3-2.5s-5.5.8-7.5,2.5c-2,1.7-3.4,3.9-4.4,6.7-1,2.8-1.4,5.9-1.4,9.4s.5,6.6,1.4,9.4c1,2.8,2.5,5,4.4,6.7,2,1.6,4.5,2.5,7.5,2.5ZM921.3,609.8v33.2h-13v-56.6h12.4v9.6h.6c1.3-3.2,3.3-5.7,6.1-7.6,2.8-1.9,6.3-2.8,10.4-2.8s7.1.8,9.9,2.5c2.8,1.7,5,4.1,6.6,7.3,1.6,3.2,2.4,7,2.3,11.5v36h-13v-34c0-3.8-1-6.7-2.9-8.9-1.9-2.1-4.5-3.2-7.9-3.2s-4.3.5-6.1,1.5c-1.7,1-3.1,2.5-4.1,4.4-1,1.9-1.5,4.2-1.5,7ZM1007.9,567.5v75.4h-13v-75.4h13ZM1021.3,642.9v-56.6h13v56.6h-13ZM1027.8,578.3c-2.1,0-3.8-.7-5.3-2.1-1.5-1.4-2.2-3.1-2.2-5.1s.7-3.7,2.2-5.1c1.5-1.4,3.3-2.1,5.3-2.1s3.8.7,5.3,2.1c1.5,1.4,2.2,3.1,2.2,5.1s-.7,3.7-2.2,5.1c-1.5,1.4-3.2,2.1-5.3,2.1ZM1075.5,586.3v10.3h-32.6v-10.3h32.6ZM1051.1,642.9v-61.9c0-3.8.8-7,2.3-9.5,1.6-2.5,3.6-4.4,6.2-5.7,2.6-1.3,5.5-1.9,8.7-1.9s4.2.2,6,.6c1.7.4,3,.7,3.9,1l-2.6,10.3c-.5-.2-1.2-.3-2.1-.5-.8-.2-1.8-.3-2.8-.3-2.4,0-4.1.6-5.1,1.8-1,1.2-1.5,2.9-1.5,5.1v61h-13ZM1108,644c-5.5,0-10.3-1.2-14.3-3.5-4-2.4-7.1-5.7-9.2-10.1-2.2-4.4-3.2-9.5-3.2-15.4s1.1-10.9,3.2-15.3c2.2-4.4,5.2-7.9,9.1-10.3,3.9-2.5,8.5-3.7,13.7-3.7s6.6.6,9.6,1.7c3,1.1,5.7,2.8,8,5.2,2.3,2.3,4.2,5.3,5.5,8.9,1.3,3.6,2,7.9,2,12.8v4.1h-45.2v-9h32.7c0-2.6-.6-4.8-1.6-6.8-1.1-2-2.5-3.6-4.4-4.8-1.9-1.2-4-1.7-6.5-1.7s-5,.7-7,2c-2,1.3-3.6,3-4.7,5.2-1.1,2.1-1.7,4.4-1.7,7v7.8c0,3.3.6,6.1,1.8,8.5,1.2,2.3,2.8,4.1,4.9,5.4,2.1,1.2,4.6,1.8,7.4,1.8s3.6-.3,5.1-.8c1.5-.6,2.9-1.4,4-2.5s2-2.4,2.5-4l12.1,1.4c-.8,3.3-2.2,6.2-4.4,8.6-2.1,2.4-4.9,4.3-8.2,5.7-3.3,1.3-7.1,2-11.4,2Z"/>
  <path class="st0" d="M806.3,386.3c4.3,0,6.5,2.7,6.5,8.1s-2.3,11.2-7,16.3c-8.2,9.2-15.8,20.7-22.8,34.5-10.5,21-15.7,39.9-15.7,56.7s1.2,11.3,3.5,14.3c2.3,3,5,4.5,8,4.5,9,0,19.5-7.3,31.5-21.9,10.7-13.7,18.8-27,24.4-39.9,1.5-3,3-4.3,4.5-3.9,1.5.4,1.6,2.1.3,5.1-7.7,17-16.4,32-26.1,44.9-5.1,6.9-11.3,12.7-18.8,17.3-7.5,4.6-14.9,6.9-22.3,6.9s-13-2.9-16.7-8.8c-3.7-5.9-5.6-12.9-5.6-20.9s1-16,3-23.9c2-7.9,4.5-13.9,7.7-18.3-18.9,22.7-39.1,40.8-60.4,54.5-11.2,6.9-23.7,11-37.4,12.4-1.3.2-3.5.3-6.6.3s-6.8-1.1-11.1-3.4c-13.5-5.6-20.2-19.3-20.2-41.1s7.1-45.5,21.4-70.9c7.5-13.5,15.7-25.4,24.7-35.7-12.6-6-21.9-12.5-28.1-19.4-4.5-5.1-6.7-11.1-6.7-18.3s1.4-11.6,4.2-13.5c1.9-2.4,3.6-2.9,5.1-1.4,1.1,1.7,1.2,3.7.1,6.2-1,2.4-1.5,4.8-1.5,7,0,5.1,2.7,10.7,8.1,16.9,5.4,6.2,13.4,11.7,23.9,16.6,44-48.9,89.7-73.3,137.1-73.3s26.6,3.3,35.3,10c8.7,6.6,13.1,15.2,13.1,25.7s-6.4,22.5-19.1,33.1c-6.4,5.6-15.5,10.5-27.3,14.6-18,6.4-39.4,9.5-64.2,9.5s-45.4-2.6-61.7-7.9c-18.9,26.8-31.9,49-39.1,66.7-7.1,17.7-10.7,31.4-10.7,41.1s0,3.9.3,5.6c2.2,15.5,10.1,23.3,23.6,23.3s32.8-8.2,52.8-24.7c14.2-12,28.2-26.2,41.9-42.7,13.7-16.5,23.8-31,30.5-43.5,6.7-12.5,12.6-18.8,17.8-18.8ZM849.8,326.5c0-8.1-3.3-14.2-10-18.5-6.7-4.3-15.8-6.5-27.4-6.5s-23.2,1.9-34.7,5.6c-11.5,3.7-22.3,9.3-32.3,16.6-10,7.3-18.9,14.8-26.7,22.5-7.8,7.7-16.2,16.9-25.2,27.5,14.1,4.5,31.3,6.7,51.7,6.7,38.4,0,66.4-6.2,84-18.5,13.7-9.5,20.5-21.3,20.5-35.4Z"/>
  <path class="st10" d="M881.7,353.8c-5,13.6-2.4,31.1,18.9,51.9-39.3-20.8-25.4-61.9-13.3-75.8,4.4.7,31,13.5,46.7,38.5,23.1,46.6,10.1,91.9-1.2,112.7,27.4-64.9,3.1-125.8-43.6-145.9-.3.3-3.6,8-7.5,18.6Z"/>
  <path class="st13" d="M879.7,403.6c8.3,19.4,10.3,22.6,35.9,39.1-11.2-2.9-20.1-8.1-26.7-14.4-3.9,25.8,12,35.7,23.2,43.4,8.8,6.1-5.3,40.2-7.4,50.2,0,.4,0,1.3.8,1.6.4.2,2-.3,2-.5,1.6-2.8,7.2-8.4,11.2-30.5,3.7-20.5,6.9-76.5,1.9-103.9.5,1,1,8.4,6,28,3.8,26.1-3.1,88.2-7.7,97.9-2.2,6.4-4.4,11.3-17.1,14.8-1.3-.3-2-3.9-2.3-8.1-.3-5.6,4.9-13.7,7.3-21.7,3.5-11.8,4.3-23.2.5-25.3-28.5-19.1-27.5-41.9-23.5-50.8-12.3-15.2-15-34.9-12.3-48,0,0,0,0,0-.1,0,0,0,0,0,.1,0,1.5,3.6,18.5,7.9,28.5Z"/>
  <path class="st9" d="M890.3,294.5c7.6,1.8,18,7.8,19.3,11,3.1,8-12.5,20.4-23.6,19.3-22.1-2-11.1-34.1,4.3-30.4Z"/>
</svg>