<?xml version="1.0" encoding="UTF-8"?>
<!DOCTYPE svg PUBLIC "-//W3C//DTD SVG 1.1//EN" "http://www.w3.org/Graphics/SVG/1.1/DTD/svg11.dtd">
<!-- Creator: CorelDRAW -->
<svg xmlns="http://www.w3.org/2000/svg" xml:space="preserve" width="0.787402in" height="0.787402in" version="1.1" style="shape-rendering:geometricPrecision; text-rendering:geometricPrecision; image-rendering:optimizeQuality; fill-rule:evenodd; clip-rule:evenodd"
viewBox="0 0 787.4 787.4"
 xmlns:xlink="http://www.w3.org/1999/xlink"
 xmlns:xodm="http://www.corel.com/coreldraw/odm/2003">
 <defs>
  <style type="text/css">
   <![CDATA[
    .str0 {stroke:white;stroke-width:8.33;stroke-miterlimit:2.61313;stroke-opacity:0.800000}
    .fil0 {fill:none;fill-rule:nonzero}
    .fil8 {fill:white}
    .fil9 {fill:white;fill-opacity:0.301961}
    .fil7 {fill:white;fill-rule:nonzero;fill-opacity:0.701961}
    .fil4 {fill:#10B981;fill-rule:nonzero;fill-opacity:0.901961}
    .fil5 {fill:#3B82F6;fill-rule:nonzero;fill-opacity:0.901961}
    .fil3 {fill:#EF4444;fill-rule:nonzero;fill-opacity:0.901961}
    .fil6 {fill:#F59E0B;fill-rule:nonzero;fill-opacity:0.901961}
    .fil2 {fill:white;fill-rule:nonzero;fill-opacity:0.901961}
    .fil1 {fill:url(#id0);fill-rule:nonzero}
   ]]>
  </style>
  <linearGradient id="id0" gradientUnits="userSpaceOnUse" x1="90.85" y1="24.01" x2="690.62" y2="769.33">
   <stop offset="0" style="stop-opacity:1; stop-color:#3B82F6"/>
   <stop offset="0.501961" style="stop-opacity:1; stop-color:#1D4ED8"/>
   <stop offset="1" style="stop-opacity:1; stop-color:#1E40AF"/>
  </linearGradient>
 </defs>
 <g id="Layer_x0020_1">
  <metadata id="CorelCorpID_0Corel-Layer"/>
  <g id="_2505795462704">
   <polygon class="fil0 str0" points="867.56,643.13 1044.45,643.13 1044.45,510.45 867.56,510.45 "/>
   <path class="fil1" d="M24.86 207.24c0,-69.77 54.6,-126.31 121.96,-126.31l487.82 0c67.37,0 121.96,56.54 121.96,126.31l0 378.89c0,69.74 -54.59,126.28 -121.96,126.28l-487.82 0c-67.36,0 -121.96,-56.54 -121.96,-126.28l0 -378.89z"/>
   <polygon class="fil0 str0" points="885.8,629.45 1026.22,629.45 1026.22,524.13 885.8,524.13 "/>
   <path class="fil2" d="M178.12 329.79c0,-15.51 -12.56,-28.07 -28.07,-28.07 -15.51,0 -28.07,12.57 -28.07,28.07 0,15.51 12.56,28.08 28.07,28.08 15.51,0 28.07,-12.57 28.07,-28.08z"/>
   <path class="fil2" d="M458.97 329.79c0,-15.51 -12.56,-28.07 -28.07,-28.07 -15.51,0 -28.07,12.57 -28.07,28.07 0,15.51 12.56,28.08 28.07,28.08 15.51,0 28.07,-12.57 28.07,-28.08z"/>
   <path class="fil3" d="M439.4 628.06c0,-15.51 -12.56,-28.08 -28.07,-28.08 -15.51,0 -28.07,12.57 -28.07,28.08 0,15.51 12.56,28.07 28.07,28.07 15.51,0 28.07,-12.57 28.07,-28.07z"/>
   <path class="fil4" d="M492.06 628.06c0,-15.51 -12.57,-28.08 -28.08,-28.08 -15.51,0 -28.07,12.57 -28.07,28.08 0,15.51 12.57,28.07 28.07,28.07 15.51,0 28.08,-12.57 28.08,-28.07z"/>
   <path class="fil5" d="M544.72 628.06c0,-15.51 -12.57,-28.08 -28.07,-28.08 -15.51,0 -28.08,12.57 -28.08,28.08 0,15.51 12.57,28.07 28.08,28.07 15.51,0 28.07,-12.57 28.07,-28.07z"/>
   <path class="fil6" d="M597.37 628.06c0,-15.51 -12.57,-28.08 -28.08,-28.08 -15.51,0 -28.07,12.57 -28.07,28.08 0,15.51 12.57,28.07 28.07,28.07 15.51,0 28.08,-12.57 28.08,-28.07z"/>
   <path class="fil7" d="M655.57 154.26c0,-7.75 -6.29,-14.04 -14.04,-14.04 -7.75,0 -14.04,6.29 -14.04,14.04 0,7.75 6.29,14.04 14.04,14.04 7.75,0 14.04,-6.29 14.04,-14.04z"/>
   <path class="fil7" d="M687.17 119.15c0,-5.83 -4.71,-10.54 -10.54,-10.54 -5.83,0 -10.54,4.71 -10.54,10.54 0,5.82 4.71,10.54 10.54,10.54 5.83,0 10.54,-4.71 10.54,-10.54z"/>
   <path class="fil7" d="M725.77 154.26c0,-7.75 -6.29,-14.04 -14.04,-14.04 -7.75,0 -14.04,6.29 -14.04,14.04 0,7.75 6.29,14.04 14.04,14.04 7.75,0 14.04,-6.29 14.04,-14.04z"/>
   <path class="fil8" d="M598.62 119.48c38.26,0 69.3,31.04 69.3,69.3l0 415.76c0,38.26 -31.04,69.29 -69.3,69.29l-415.76 0.02c-38.26,-0.02 -69.29,-31.05 -69.29,-69.32l-0.01 -415.74c0.01,-38.26 31.05,-69.3 69.3,-69.3l415.76 0zm12.65 -16.86l-441.04 0c-40.59,0 -73.52,32.92 -73.53,73.52l0.01 441.04c0,40.59 32.93,73.52 73.5,73.53l441.06 -0.02c40.59,0 73.52,-32.92 73.52,-73.5l0 -441.05c0,-40.59 -32.93,-73.52 -73.52,-73.52z"/>
   <path class="fil8" d="M197.02 545.13l0 -105.32 146.09 0.47 0 105.32 -146.09 -0.47zm-18.24 13.68l176.89 0 0 -132.68 -176.89 0 0 132.68z"/>
   <path class="fil8" d="M536.2 229.19c36.17,0 65.49,29.32 65.49,65.49 0,36.17 -29.32,65.49 -65.49,65.49 -36.17,0 -65.49,-29.32 -65.49,-65.49 0,-36.17 29.32,-65.49 65.49,-65.49zm70.61 65.49c0,-39 -31.61,-70.61 -70.61,-70.61 -39,0 -70.61,31.61 -70.61,70.61 0,39 31.61,70.61 70.61,70.61 39,0 70.61,-31.61 70.61,-70.61z"/>
   <polygon class="fil9" points="150.04,187.46 571.27,187.46 571.27,190.94 150.04,190.94 "/>
   <polygon class="fil9" points="149.91,257.65 571.13,257.65 571.13,261.13 149.91,261.13 "/>
   <polygon class="fil9" points="149.77,327.84 570.99,327.84 570.99,331.32 149.77,331.32 "/>
   <polygon class="fil9" points="149.63,398.03 570.85,398.03 570.85,401.51 149.63,401.51 "/>
   <polygon class="fil9" points="149.49,468.22 570.72,468.22 570.72,471.7 149.49,471.7 "/>
   <polygon class="fil9" points="149.35,538.41 570.58,538.41 570.58,541.89 149.35,541.89 "/>
   <polygon class="fil9" points="148.3,540.59 148.3,189.2 151.78,189.2 151.78,540.59 "/>
   <polygon class="fil9" points="218.52,540.59 218.52,189.2 222,189.2 222,540.59 "/>
   <polygon class="fil9" points="288.72,540.59 288.72,189.2 292.2,189.2 292.2,540.59 "/>
   <polygon class="fil9" points="358.94,540.59 358.94,189.2 362.42,189.2 362.42,540.59 "/>
   <polygon class="fil9" points="429.16,540.59 429.16,189.2 432.63,189.2 432.63,540.59 "/>
   <polygon class="fil9" points="499.36,540.59 499.36,189.2 502.84,189.2 502.84,540.59 "/>
   <polygon class="fil9" points="569.58,540.59 569.58,189.2 573.06,189.2 573.06,540.59 "/>
   <path class="fil8" d="M146.13 326.34c13.26,-11.35 28.33,-30.39 66.2,-36.78 29.84,-2.1 57.99,13.56 80.94,36.56 17.3,17.33 40.5,28.67 64.97,33.54 33.61,-0.07 45.29,-13.94 68.28,-33.02l8.26 6.59c-23.82,20.16 -35.2,36.64 -75.61,36.98 -33,-2.04 -55.25,-18.85 -76.83,-38.41 -19.12,-17.32 -35.57,-33.56 -68.16,-31.69 -27.45,3.43 -38.52,13.04 -61.17,33.22 -2.3,-2.33 -4.59,-4.65 -6.88,-6.98z"/>
  </g>
 </g>
</svg>
