<svg width="70" height="57" viewBox="0 0 70 57" fill="none" xmlns="http://www.w3.org/2000/svg">
<path fill-rule="evenodd" clip-rule="evenodd" d="M8.64737 4.7863C10.0173 4.5271 45.4567 4.70662 48.6516 4.70662C51.1236 4.70662 59.9681 4.39942 61.5675 5.02246C65.3902 6.51238 64.5435 10.8449 64.5435 15.4126V42.2101C64.5435 45.667 65.4056 50.7215 60.6881 51.5768C59.2961 51.8293 23.8029 51.6527 20.5898 51.6527C18.1591 51.6527 9.30881 51.9685 7.67873 51.3272C6.24641 50.7637 4.96672 49.4437 4.74208 47.5899C4.56256 46.1086 4.69888 17.8827 4.69888 14.1492C4.69888 12.498 4.50208 9.06215 4.9792 7.78151C5.57632 6.17638 6.79457 5.1367 8.64737 4.78726V4.7863ZM25.122 12.4894C25.1969 13.5166 25.1383 14.6158 25.1383 15.666C25.1383 16.1719 25.1345 16.6778 25.1354 17.1838C25.1373 17.9307 25.0817 18.1035 25.5309 18.4366L30.8292 18.4241C31.6126 18.1073 31.3486 16.7959 31.3486 15.7927C31.3486 14.7444 31.3869 13.6164 31.3236 12.5786C31.1066 12.5786 31.1767 12.6209 31.2151 12.3722L31.1249 12.2081L30.9156 12.1639L25.5117 12.1188C25.338 12.2609 25.2641 12.3271 25.121 12.4894H25.122ZM12.2224 25.3755C12.2887 26.4132 12.2387 27.5038 12.2387 28.5588C12.2387 29.0648 12.2349 29.5707 12.2349 30.0766C12.2359 30.8532 12.1888 30.9876 12.6275 31.339L17.9623 31.3179C18.6986 30.9809 18.448 29.6667 18.448 28.6846C18.448 27.6296 18.3981 26.5563 18.474 25.507L18.3165 25.2708C18.1274 25.2641 18.1783 25.3044 18.2301 25.1038L17.9719 24.9809L12.6275 25.0193C12.3895 25.2027 12.4279 25.1576 12.2215 25.3745L12.2224 25.3755ZM38.1751 12.2676C38.2087 12.4692 38.2433 12.4078 38.0225 12.4078C37.842 13.0462 37.9246 14.7262 37.9246 15.5383C37.9246 16.0884 37.9226 16.6385 37.9207 17.1886C37.9188 17.9287 37.867 18.2023 38.4007 18.4135C39.715 18.4673 42.5739 18.5508 43.7547 18.3713L43.9457 18.2926L44.0311 18.1227C44.2731 17.4209 44.2433 13.1806 44.0532 12.427L43.9591 12.2666L43.7796 12.1927C42.9175 12.0631 39.1898 12.041 38.3498 12.1908C38.3729 12.3953 38.3988 12.3271 38.1742 12.2686L38.1751 12.2676ZM25.3025 25.0683C25.3361 25.2478 25.3687 25.2036 25.1834 25.1787L25.1325 25.3918L25.1767 30.9752C25.4983 31.6347 26.5533 31.3976 27.9213 31.3976C28.8698 31.3976 30.3645 31.4868 31.1517 31.2737C31.4935 30.5076 31.3495 29.0888 31.3495 28.0529C31.3495 27.0689 31.6414 25.4072 30.8503 25.0299L25.5242 25.0222L25.3025 25.0683ZM12.4106 37.9563C12.4317 38.1435 12.4759 38.1099 12.2944 38.0734L12.2349 38.2817L12.2291 43.8699L12.4231 44.0562C12.6803 44.0091 12.6227 43.9496 12.6227 44.2002C13.1037 44.419 14.8499 44.2981 15.5325 44.2981C18.8733 44.2981 18.4471 44.8261 18.4471 40.6933C18.4471 39.667 18.7092 38.2971 17.9469 37.9371L12.6323 37.9189L12.4096 37.9563H12.4106ZM38.3911 31.316L43.7479 31.3678C44.1607 31.05 44.1588 30.906 44.1646 30.2033C44.1694 29.6571 44.1607 29.106 44.1607 28.5588C44.1607 27.5422 44.227 26.3345 44.0993 25.3457C43.7268 24.7332 42.1995 24.9598 41.3191 24.9598C40.3918 24.9598 38.8471 24.8484 38.1175 25.1134C37.7815 25.8776 37.9217 28.8056 37.9207 30.0814C37.9198 30.835 37.8727 31.098 38.3911 31.316ZM57.0065 44.0283C57.2302 43.051 57.2216 38.7905 56.9153 38.0072C56.1915 37.7672 53.0542 37.8574 51.9377 37.8593C51.2158 37.8603 50.924 37.9093 50.8366 38.5573L50.874 43.797C51.114 44.589 52.8862 44.2981 53.8337 44.2981C54.8753 44.2981 56.3672 44.467 57.0065 44.0283ZM12.6986 12.1447C11.8883 12.5354 12.1754 13.6788 12.1754 14.7799C12.1754 18.8417 11.6819 18.4999 14.7751 18.499C18.929 18.499 18.448 18.9502 18.448 15.665C18.448 11.6311 18.8704 12.0602 15.7859 12.0602C15.0947 12.0602 13.1747 11.9153 12.6986 12.1447ZM50.8241 26.2827V30.2004C50.8241 31.7806 51.4539 31.3966 54.9713 31.3966C55.6318 31.3966 56.3806 31.435 56.9048 31.243C57.2475 30.5124 57.2465 25.8939 56.9144 25.1057C56.1579 24.8561 54.3003 24.9598 53.3278 24.9588C51.6228 24.9588 50.8241 24.5086 50.8241 26.2827ZM50.8241 13.1364C50.8241 19.2919 50.3912 18.499 53.3278 18.499C54.2917 18.499 56.1752 18.6055 56.9067 18.3425C57.2408 17.5582 57.2465 13.0049 56.9163 12.2225C56.4085 12.0286 52.5963 11.9825 51.6718 12.0602C50.9134 12.1246 50.8241 12.378 50.8241 13.1364ZM20.7568 40.4398C20.7568 44.9864 20.7271 44.2981 26.2778 44.2981H42.7102C44.0475 44.2981 45.4251 44.3317 46.7556 44.301C48.8427 44.253 48.4836 42.7938 48.4836 40.3141C48.4836 37.2277 47.4296 37.8574 42.8369 37.8574C37.3591 37.8574 31.8823 37.8574 26.4045 37.8574C25.121 37.8574 23.6071 37.7835 22.3524 37.8593C20.752 37.9553 20.7578 38.8856 20.7578 40.4398H20.7568ZM0.10527 48.0238C0.585272 52.2191 3.71968 55.4159 7.68065 56.1474C9.60641 56.5026 13.2698 56.2981 15.4067 56.2981H54.4654C59.3067 56.2981 63.5682 57.0316 66.9483 53.0466C69.9445 49.5147 69.187 44.9566 69.187 39.5547C69.187 36.9569 69.3301 10.1566 69.1333 8.32967C68.6859 4.16998 65.4728 0.917488 61.5579 0.208046C59.6081 -0.146195 55.9832 0.0592456 53.8328 0.0592456C40.8132 0.0592456 27.7937 0.0592456 14.7741 0.0592456C12.5891 0.0592456 9.09377 -0.143315 7.15169 0.320366C3.16288 1.27365 0.219511 4.8919 0.0582304 8.96423C-0.0416099 11.5025 0.0524702 14.2423 0.0524702 16.8026C0.0524702 19.3284 -0.0953701 46.2766 0.10527 48.0238Z" fill="white"/>
</svg>
