<svg width="62" height="56" viewBox="0 0 62 56" fill="none" xmlns="http://www.w3.org/2000/svg">
<path fill-rule="evenodd" clip-rule="evenodd" d="M4.21303 14.8554L4.17079 6.63492C4.19287 3.46787 7.14296 4.19459 9.95769 4.19459L51.0372 4.19939C53.4871 4.19939 57.1466 3.53411 57.546 5.90244L57.5863 14.0903C57.5584 17.2401 54.5901 16.5239 51.808 16.5239C46.3303 16.5239 40.8534 16.5249 35.3757 16.5258L6.61496 16.5325C5.24695 16.522 4.39063 15.9076 4.21303 14.8564V14.8554ZM0.111902 15.1127C0.386462 17.8823 2.44567 19.953 4.96663 20.4887C6.94232 20.9082 12.7062 20.6298 15.0927 20.6298L45.9021 20.6337C48.9991 20.6337 53.1866 20.8727 56.153 20.5962C58.9466 20.3361 61.0375 18.2759 61.5597 15.7405C61.8391 14.3841 61.8074 7.20708 61.6519 5.62499C61.3783 2.85347 59.2989 0.725142 56.8048 0.225941C54.7322 -0.18974 49.1258 0.0953807 46.672 0.0953807C39.8253 0.0963407 32.9785 0.0973006 26.1318 0.0982606C24.232 0.0982606 7.01624 0.00034052 5.61176 0.136661C2.84983 0.404502 0.733024 2.47043 0.212702 4.98947C-0.0599385 6.31044 -0.043619 13.5556 0.110941 15.1137L0.111902 15.1127Z" fill="white"/>
<path fill-rule="evenodd" clip-rule="evenodd" d="M4.23141 50.1586C4.48677 52.2523 5.76933 53.796 6.97893 54.5496C9.0007 55.8101 10.6269 55.5538 13.1863 55.5538L49.1106 55.5547C51.7534 55.5547 53.2491 55.7055 55.101 54.3509C58.4274 51.9163 57.5874 47.3534 57.5874 42.4565L57.5624 24.4967C57.4472 23.5761 56.7128 22.7975 55.7663 22.6996C52.8901 22.4039 53.4719 26.0423 53.4719 27.5649C53.4709 32.3582 53.4709 37.1505 53.4709 41.9429C53.4709 51.6802 54.3896 51.4383 48.597 51.4383L12.6525 51.4402C9.88966 51.4402 8.27686 51.7291 8.28742 48.6312L8.2855 27.0715C8.2855 26.0606 8.4583 24.5275 8.00518 23.7441C7.63269 23.099 6.72837 22.4107 5.57733 22.8023C3.64005 23.4609 4.18245 26.3188 4.18149 28.5912C4.18149 31.6526 4.04517 48.6379 4.23045 50.1595L4.23141 50.1586Z" fill="white"/>
<path fill-rule="evenodd" clip-rule="evenodd" d="M21.677 36.4221C21.7941 37.1258 22.3865 37.7335 22.9394 37.9447C23.7218 38.2433 30.1586 38.0935 31.2665 38.0935C32.9426 38.0935 38.3427 38.3834 39.3055 37.6615C39.7683 37.315 40.2415 36.6074 40.0927 35.6849C39.798 33.8666 38.023 33.9799 36.1452 33.9799L24.8489 33.9809C23.2581 33.978 21.3141 34.2439 21.677 36.4212V36.4221Z" fill="white"/>
</svg>
