<svg width="35" height="30" viewBox="0 0 35 30" fill="none" xmlns="http://www.w3.org/2000/svg">
<path fill-rule="evenodd" clip-rule="evenodd" d="M1.72892 21.6686V8.33119C1.72892 4.56419 4.91086 1.48191 8.80011 1.48191H26.1999C30.0889 1.48191 33.2711 4.56399 33.2711 8.33119V21.6686C33.2711 25.4356 30.0891 28.5179 26.1999 28.5179H8.80011C4.91106 28.5179 1.72892 25.4358 1.72892 21.6686ZM27.1536 0H7.84636C3.53085 0 0 3.42005 0 7.60012V22.3999C0 26.58 3.53085 30 7.84636 30H27.1536C31.4691 30 35 26.58 35 22.3999V7.60012C35 3.42005 31.4691 0 27.1536 0Z" fill="white"/>
<path fill-rule="evenodd" clip-rule="evenodd" d="M12.4527 5.14286H9.54729C8.77473 5.14286 8.14286 5.77473 8.14286 6.54729V9.45271C8.14286 10.2253 8.77473 10.8571 9.54729 10.8571H12.4527C13.2253 10.8571 13.8571 10.2253 13.8571 9.45271V6.54729C13.8571 5.77473 13.2253 5.14286 12.4527 5.14286Z" fill="white"/>
<path fill-rule="evenodd" clip-rule="evenodd" d="M9.27923 4.61558H12.7208C13.6358 4.61558 14.3842 5.36416 14.3842 6.27895V9.7205C14.3842 10.6356 13.6356 11.3839 12.7208 11.3839H9.27923C8.36417 11.3839 7.61585 10.6353 7.61585 9.7205V6.27895C7.61585 5.36389 8.36444 4.61558 9.27923 4.61558ZM13.0339 4H8.96614C7.8846 4 7 4.8846 7 5.96613V10.0339C7 11.1154 7.8846 12 8.96614 12H13.0339C14.1154 12 15 11.1154 15 10.0339V5.96613C15 4.8846 14.1154 4 13.0339 4Z" fill="white"/>
<path fill-rule="evenodd" clip-rule="evenodd" d="M26.4527 19.1429H23.5473C22.7747 19.1429 22.1429 19.7747 22.1429 20.5473V23.4527C22.1429 24.2253 22.7747 24.8571 23.5473 24.8571H26.4527C27.2253 24.8571 27.8571 24.2253 27.8571 23.4527V20.5473C27.8571 19.7747 27.2253 19.1429 26.4527 19.1429Z" fill="white"/>
<path fill-rule="evenodd" clip-rule="evenodd" d="M23.2792 18.6156H26.7208C27.6358 18.6156 28.3842 19.3642 28.3842 20.279V23.7205C28.3842 24.6356 27.6356 25.3839 26.7208 25.3839H23.2792C22.3642 25.3839 21.6158 24.6353 21.6158 23.7205V20.279C21.6158 19.3639 22.3644 18.6156 23.2792 18.6156ZM27.0339 18H22.9661C21.8846 18 21 18.8846 21 19.9661V24.0339C21 25.1154 21.8846 26 22.9661 26H27.0339C28.1154 26 29 25.1154 29 24.0339V19.9661C29 18.8846 28.1154 18 27.0339 18Z" fill="white"/>
<path fill-rule="evenodd" clip-rule="evenodd" d="M9.84904 16.7695H14.151C15.2948 16.7695 16.2302 17.7052 16.2302 18.8487V23.1506C16.2302 24.2944 15.2945 25.2299 14.151 25.2299H9.84904C8.70521 25.2299 7.76981 24.2941 7.76981 23.1506V18.8487C7.76981 17.7049 8.70555 16.7695 9.84904 16.7695ZM14.5423 16H9.45767C8.10575 16 7 17.1057 7 18.4577V23.5423C7 24.8942 8.10575 26 9.45767 26H14.5423C15.8943 26 17 24.8942 17 23.5423V18.4577C17 17.1057 15.8943 16 14.5423 16Z" fill="white"/>
<path fill-rule="evenodd" clip-rule="evenodd" d="M21.849 4.76946H26.151C27.2948 4.76946 28.2302 5.70519 28.2302 6.84868V11.1506C28.2302 12.2944 27.2945 13.2299 26.151 13.2299H21.849C20.7052 13.2299 19.7698 12.2941 19.7698 11.1506V6.84868C19.7698 5.70485 20.7055 4.76946 21.849 4.76946ZM26.5423 4H21.4577C20.1058 4 19 5.10574 19 6.45766V11.5423C19 12.8942 20.1058 14 21.4577 14H26.5423C27.8943 14 29 12.8942 29 11.5423V6.45766C29 5.10574 27.8943 4 26.5423 4Z" fill="white"/>
</svg>
