<svg width="61" height="35" viewBox="0 0 61 35" fill="none" xmlns="http://www.w3.org/2000/svg">
<path fill-rule="evenodd" clip-rule="evenodd" d="M34.9199 3.70448C34.6338 4.86033 33.7218 5.55921 33.1007 6.16305L22.2987 16.6962C21.6536 17.2981 21.8312 17.4863 22.389 18.0085L34.2191 29.6706C36.6268 32.446 33.0508 36.8793 29.4104 33.3474L20.8002 24.8303C20.061 24.118 19.4005 23.4748 18.6594 22.7653C17.6792 21.8255 14.9902 19.51 14.5774 18.334C13.6971 15.8284 16.0693 14.66 17.5266 13.0511C18.9896 11.4363 30.0603 0.659354 30.5211 0.403993C32.8703 -0.89585 35.5573 1.13744 34.9208 3.70544L34.9199 3.70448Z" fill="white"/>
<path fill-rule="evenodd" clip-rule="evenodd" d="M20.5525 3.60166C20.2885 4.82662 19.3918 5.47558 18.7602 6.08038L16.6232 8.24999C15.4779 9.35591 10.9448 13.6068 10.1009 14.5495C9.66509 15.0362 9.4875 15.2407 9.05646 15.6583C7.62797 17.0398 7.10861 17.1886 7.89005 17.9422L17.6504 27.4664C19.0702 28.8324 21.3886 30.403 20.4027 32.8501C20.0619 33.6949 19.1038 34.4936 17.997 34.628C16.4734 34.8123 15.7333 33.9809 15.0709 33.3291C14.3403 32.611 13.6712 31.9697 12.931 31.2632L10.7902 29.0964C10.0357 28.3668 9.3579 27.7073 8.59949 26.9787C7.12877 25.5675 5.75212 24.1889 4.26892 22.795C3.88684 22.4359 3.60268 22.0519 3.22444 21.6862C2.83372 21.3089 2.51884 21.0046 2.12908 20.6273C1.53579 20.0551 0.507633 19.2689 0.163954 18.2772C-0.61941 16.0135 1.57803 14.515 3.08236 13.0702L7.41389 8.78663C8.65709 7.58087 15.4846 0.747571 16.0875 0.431731C18.405 -0.784593 21.115 0.996212 20.5534 3.60262L20.5525 3.60166Z" fill="white"/>
<path fill-rule="evenodd" clip-rule="evenodd" d="M57.7204 14.4102H28.494C26.8899 14.4102 25.5776 15.7225 25.5776 17.3266C25.5776 18.9308 26.8899 20.2441 28.494 20.2441H57.7204C59.3245 20.2441 60.6369 18.9318 60.6369 17.3266C60.6369 15.7234 59.3245 14.4102 57.7204 14.4102Z" fill="white"/>
</svg>
