<svg width="52" height="47" viewBox="0 0 52 47" fill="none" xmlns="http://www.w3.org/2000/svg">
<path fill-rule="evenodd" clip-rule="evenodd" d="M29.6613 30.8897H29.7957C32.4166 30.8704 32.8409 29.0359 33.822 27.0746C34.2722 26.1741 34.7225 25.2794 35.1737 24.3722C36.2998 22.1104 37.2962 21.2762 40.038 21.281C41.3551 21.2829 47.2227 21.2032 47.9955 21.3194C48.4188 19.2371 47.9091 13.5875 47.2342 11.2317C45.942 6.7139 43.0188 4.54046 38.431 3.70238C37.5958 3.54974 36.8719 3.47486 36.4687 2.97278C36.0511 2.45342 35.935 1.51069 36.3084 0.849252C37.0514 -0.464992 38.8178 0.0658896 40.3606 0.433571C41.7353 0.761891 43.2367 1.30045 44.3571 1.95037C45.6473 2.69918 46.567 3.37598 47.4099 4.3043C48.2672 5.24798 48.9593 6.09471 49.6457 7.47423C52.3558 12.9194 51.655 20.8605 51.679 27.0996C51.6828 28.0077 51.6128 28.817 51.0876 29.2519C50.6201 29.6397 49.6889 29.8471 49.0256 29.4852C47.6048 28.7114 48.1625 26.6752 48.054 24.9396C46.9692 24.6861 41.7871 24.8964 40.2636 24.8887C38.6863 24.881 38.9657 24.9012 38.1026 26.6292C36.6454 29.5437 35.6297 32.4765 33.1452 33.7236C32.0402 34.2785 30.8738 34.4676 29.6489 34.5204L29.6623 30.8887L29.6613 30.8897ZM5.40112 37.3025C9.05009 44.4007 20.4472 42.9012 28.2146 42.9012C32.5846 42.9012 37.4326 43.1825 41.3158 41.6628C43.4518 40.8266 45.1519 39.3646 46.1004 37.6692C46.47 37.0077 47.1862 34.8756 49.1772 35.9748C49.9395 36.3962 50.2409 37.4513 49.7494 38.5082C49.4019 39.2561 48.8086 40.1988 48.3968 40.7537C47.3734 42.1313 46.279 43.0759 44.6191 44.0695C41.4732 45.9521 37.0601 46.4887 32.8313 46.5108C28.0773 46.5338 23.2821 46.5531 18.5311 46.5089C8.97905 46.4196 3.14128 43.5454 0.932311 35.6945C-0.236972 31.5386 0.0251085 26.7972 0.0251085 22.3735C0.0251085 16.7027 -0.265772 9.17439 3.8776 4.79486C6.53872 1.98205 9.02801 0.673571 13.3144 0.0342092C16.0101 -0.368032 16.3643 2.8979 14.3973 3.48926C12.2728 4.12862 9.40721 4.1747 6.96593 6.64287C3.14704 10.505 3.61168 16.7085 3.6472 20.704C3.69424 25.9063 2.95696 32.5495 5.40112 37.3053V37.3025Z" fill="white"/>
<path fill-rule="evenodd" clip-rule="evenodd" d="M17.6334 11.7215C16.3623 11.7897 15.2065 12.1247 14.162 12.598C13.2135 13.0281 12.6107 13.4572 11.8542 14.0793C11.5431 14.3356 10.802 15.117 10.5351 15.4569C9.52905 16.7365 8.81288 18.3522 8.56328 20.0543C8.18216 22.654 8.94921 25.2422 10.1482 26.975C10.5217 27.5135 10.7031 27.7055 11.0977 28.174C11.7822 28.9871 12.8171 29.4364 13.0484 30.5932C13.1617 31.1587 12.9543 32.2214 13.2289 32.6016C13.5803 33.0873 14.3713 33.0249 14.5787 32.4249C14.6804 32.1321 14.6228 30.6345 14.5547 30.2985C14.235 28.7414 13.4228 28.4275 12.8017 27.6815C12.6241 27.4684 12.1796 27.143 11.7582 26.5775C11.4347 26.1436 11.186 25.7788 10.9086 25.2403C9.48969 22.4927 9.74409 19.2719 11.4894 16.7606C11.9127 16.1509 12.4561 15.5375 13.0503 15.0805C13.2692 14.9116 13.4555 14.7685 13.683 14.6197C14.1294 14.3279 14.5633 14.0773 15.1076 13.8575C16.2654 13.39 17.4423 13.1778 18.8286 13.2633C23.3464 13.5426 27.2545 17.8252 26.3569 22.8796C26.1169 24.2275 25.4699 25.6972 24.6702 26.6236C24.4955 26.8262 24.3448 27.0316 24.17 27.2159C23.8206 27.5855 23.3646 27.8927 23.0516 28.2835C22.7684 28.6377 22.5448 28.6684 22.156 29.5382C21.8756 30.1651 21.8449 30.6921 21.8459 31.4313C21.8459 31.9084 21.7019 32.878 22.5649 32.9356C22.9201 32.9596 23.1745 32.7398 23.283 32.5372C23.4251 32.2713 23.3742 31.8739 23.3732 31.5484C23.3694 29.5833 24.0299 29.59 24.8603 28.6876C25.2308 28.2854 25.2673 28.2892 25.6523 27.838C27.7096 25.4236 28.515 22.173 27.7009 19.0348C27.3285 17.5986 26.716 16.4668 25.8913 15.4137C24.0385 13.0511 21.0184 11.5429 17.6343 11.7225L17.6334 11.7215Z" fill="white"/>
<path fill-rule="evenodd" clip-rule="evenodd" d="M16.1418 14.9087C14.4781 15.3359 13.017 16.6953 12.249 18.1852C11.8112 19.0348 11.5683 19.9257 11.5309 21.0009C11.5011 21.8764 11.5549 23.6841 12.6714 23.4124C13.2637 23.2684 13.2771 22.7308 13.1725 22.2662C12.632 19.8729 13.8954 17.5161 16.1667 16.5177C16.4701 16.3842 17.0797 16.317 17.0951 15.6508C17.1066 15.1497 16.6544 14.7753 16.1408 14.9077L16.1418 14.9087Z" fill="white"/>
<path fill-rule="evenodd" clip-rule="evenodd" d="M14.0718 33.7696C13.1492 33.9385 13.2673 35.1644 14.067 35.2758C14.3713 35.318 22.2481 35.3037 22.4209 35.272C23.2696 35.1193 23.2475 33.88 22.3864 33.759C22.0725 33.7148 14.2648 33.734 14.0718 33.7696Z" fill="white"/>
<path fill-rule="evenodd" clip-rule="evenodd" d="M13.9943 36.0891C13.1418 36.3502 13.2781 37.5061 14.1297 37.5915C14.7095 37.6501 18.7271 37.5992 19.6756 37.5992C20.2257 37.5992 22.0612 37.6712 22.4663 37.5771C23.267 37.3909 23.2382 36.1496 22.3329 36.0632L16.786 36.0594C16.3329 36.0594 14.2583 36.0075 13.9953 36.0882L13.9943 36.0891Z" fill="white"/>
<path fill-rule="evenodd" clip-rule="evenodd" d="M21.0622 39.3574C21.1899 38.9849 20.9893 38.3984 20.2625 38.3744C19.2353 38.3408 17.7531 38.3744 16.6683 38.3725C16.0501 38.3715 15.571 38.3686 15.4117 38.9177C15.2465 39.4851 15.6795 39.8979 16.1979 39.9075C16.7921 39.9181 17.3998 39.9056 17.996 39.9056C18.595 39.9056 19.1941 39.9056 19.7921 39.9056C20.4641 39.9056 20.8654 39.9305 21.0613 39.3574H21.0622Z" fill="white"/>
<path fill-rule="evenodd" clip-rule="evenodd" d="M30.4006 20.7436C29.5481 20.9356 29.599 22.2163 30.5686 22.2595C31.0563 22.2806 33.1164 22.3171 33.4889 22.2384C34.2684 22.0742 34.3135 20.8032 33.3065 20.7264C32.9139 20.6966 30.6857 20.6803 30.4006 20.7446V20.7436Z" fill="white"/>
<path fill-rule="evenodd" clip-rule="evenodd" d="M3.37385 20.7433C2.53 20.9401 2.5492 22.2092 3.54377 22.2591L6.42857 22.2418C7.27434 22.0873 7.28298 20.775 6.24233 20.7231C5.80073 20.702 3.68585 20.6694 3.37385 20.7423V20.7433Z" fill="white"/>
<path fill-rule="evenodd" clip-rule="evenodd" d="M18.1983 5.87912C17.8066 6.0068 17.6463 6.29288 17.6511 6.78536C17.6549 7.226 17.6021 9.36393 17.7029 9.61641C17.9909 10.3383 19.189 10.3738 19.1928 9.17001C19.1948 8.72744 19.2322 6.61736 19.142 6.34472C19.0354 6.02408 18.6341 5.73704 18.1983 5.87912Z" fill="white"/>
<path fill-rule="evenodd" clip-rule="evenodd" d="M25.6745 7.85769C25.2329 7.97961 25.1004 8.38857 24.8892 8.76105C24.6751 9.14025 24.4755 9.47625 24.2585 9.84777C24.1059 10.1089 23.7123 10.6791 23.7219 11.0055C23.7343 11.4663 24.1759 11.8503 24.6876 11.7188C25.0735 11.619 25.2742 11.1678 25.471 10.8251C25.6956 10.4324 26.6364 8.94537 26.6287 8.58345C26.6201 8.11401 26.1795 7.71753 25.6745 7.85769Z" fill="white"/>
<path fill-rule="evenodd" clip-rule="evenodd" d="M5.37092 13.3115C5.07908 13.3912 4.99364 13.4344 4.86884 13.6562C4.61348 14.1093 4.793 14.5087 5.24708 14.7727L7.40133 16.0159C8.27493 16.541 8.87493 15.7221 8.59941 15.0914C8.44869 14.7468 6.95589 13.9826 6.545 13.7464C6.24932 13.5775 5.76068 13.2059 5.37092 13.3115Z" fill="white"/>
<path fill-rule="evenodd" clip-rule="evenodd" d="M28.6866 26.8407C28.3103 26.9799 27.9791 27.4715 28.2728 27.9467C28.4668 28.2615 29.9404 29.0209 30.3532 29.2667C30.6671 29.4539 31.1231 29.8148 31.5704 29.6574C31.94 29.5278 32.2367 29.0747 32.0005 28.5956C31.8268 28.2433 30.3791 27.5127 29.9384 27.2574C29.6293 27.0759 29.1263 26.6775 28.6866 26.8398V26.8407Z" fill="white"/>
<path fill-rule="evenodd" clip-rule="evenodd" d="M7.80689 26.806C7.47761 26.8645 5.99633 27.7861 5.59504 28.0108C5.22736 28.2172 4.7848 28.3986 4.75888 28.894C4.73392 29.3721 5.14864 29.7561 5.644 29.6927C5.88401 29.662 7.51793 28.6789 7.83185 28.4927C8.19857 28.2757 8.64113 28.1097 8.66993 27.6028C8.69681 27.1429 8.25617 26.7263 7.80593 26.8069L7.80689 26.806Z" fill="white"/>
<path fill-rule="evenodd" clip-rule="evenodd" d="M31.1766 13.3063C30.809 13.3985 29.4131 14.2682 28.9686 14.5169C28.6153 14.7146 28.1689 14.9076 28.1689 15.4173C28.1689 15.905 28.623 16.3063 29.1568 16.1556C29.3747 16.0941 30.0064 15.6919 30.2397 15.5556C30.5901 15.3501 30.975 15.1303 31.3283 14.9258C31.696 14.7146 32.0992 14.5601 32.079 14.0157C32.0627 13.577 31.647 13.1892 31.1776 13.3063H31.1766Z" fill="white"/>
<path fill-rule="evenodd" clip-rule="evenodd" d="M10.7533 7.8804C10.6141 7.93416 10.5671 7.93415 10.4759 8.01575C10.4087 8.07623 10.329 8.17896 10.2896 8.25768C10.1668 8.50248 10.2023 8.7444 10.3079 8.96808L11.5463 11.1271C12.3018 12.4404 13.402 11.4228 13.0276 10.6241L11.7863 8.46792C11.5837 8.11176 11.2957 7.67207 10.7533 7.88135V7.8804Z" fill="white"/>
<path fill-rule="evenodd" clip-rule="evenodd" d="M18.2796 14.5913C17.2946 14.9666 17.8562 16.2982 18.7471 16.013C19.0745 15.9084 19.3807 15.5062 19.2223 15.0511C19.11 14.7295 18.725 14.4214 18.2796 14.5913Z" fill="white"/>
</svg>
