<svg width="27" height="21" viewBox="0 0 27 21" fill="none" xmlns="http://www.w3.org/2000/svg">
<path fill-rule="evenodd" clip-rule="evenodd" d="M2.54157 0H23.4751C24.8729 0 26.0167 1.14374 26.0167 2.54157V2.54194C26.0167 3.93977 24.8729 5.08351 23.4751 5.08351H2.54157C1.14374 5.08351 0 3.93977 0 2.54194V2.54157C0 1.14374 1.14374 0 2.54157 0Z" fill="white"/>
<path fill-rule="evenodd" clip-rule="evenodd" d="M2.54157 7.52734H15.4802C16.8784 7.52734 18.0218 8.67109 18.0218 10.0689V10.0693C18.0218 11.4671 16.878 12.6109 15.4802 12.6109H2.54157C1.14337 12.6109 0 11.4671 0 10.0693V10.0689C0 8.67109 1.14374 7.52734 2.54157 7.52734Z" fill="white"/>
<path fill-rule="evenodd" clip-rule="evenodd" d="M2.54157 15.3486H23.4751C24.8729 15.3486 26.0167 16.4924 26.0167 17.8902V17.8906C26.0167 19.2884 24.8729 20.4321 23.4751 20.4321H2.54157C1.14374 20.4321 0 19.2884 0 17.8906V17.8902C0 16.4924 1.14374 15.3486 2.54157 15.3486Z" fill="white"/>
</svg>
