<?xml version="1.0" encoding="UTF-8"?>
<!DOCTYPE svg PUBLIC "-//W3C//DTD SVG 1.1//EN" "http://www.w3.org/Graphics/SVG/1.1/DTD/svg11.dtd">
<!-- Creator: CorelDRAW -->
<svg xmlns="http://www.w3.org/2000/svg" xml:space="preserve" width="0.787402in" height="0.787402in" version="1.1" style="shape-rendering:geometricPrecision; text-rendering:geometricPrecision; image-rendering:optimizeQuality; fill-rule:evenodd; clip-rule:evenodd"
viewBox="0 0 787.4 787.4"
 xmlns:xlink="http://www.w3.org/1999/xlink"
 xmlns:xodm="http://www.corel.com/coreldraw/odm/2003">
 <defs>
  <style type="text/css">
   <![CDATA[
    .fil0 {fill:black}
   ]]>
  </style>
 </defs>
 <g id="Layer_x0020_1">
  <metadata id="CorelCorpID_0Corel-Layer"/>
  <g id="_2505819540048">
   <path class="fil0" d="M410.37 562.83l-149.46 0.02c-11.8,-0.09 -22.96,-1.68 -26.06,-11.39 -3.5,-10.96 7.18,-31.86 13.41,-41.07 26.51,-39.15 72.95,-52.48 117.88,-40.37 25.21,6.8 49.71,27.32 61.19,51 10.99,22.64 15.33,41.58 -16.96,41.81zm-249.39 44.09c2.2,8.93 8.56,16 19.37,19.59 9.86,3.28 58.24,1.63 72.31,1.63l221.98 0c25.95,0.03 33.87,-12.32 37.22,-36.42 18.31,-131.85 -112.11,-229.83 -234.52,-189.72 -79.07,25.9 -138.36,115.94 -116.37,204.92zm173.99 -214.01l0 0c5.26,0 9.55,4.3 9.55,9.55l0 22.29c0,5.26 -4.3,9.55 -9.55,9.55l-0 0c-5.26,0 -9.55,-4.3 -9.55,-9.55l0 -22.29c0,-5.26 4.3,-9.55 9.55,-9.55zm-106.84 209.78l0 0c3.28,0 5.97,2.69 5.97,5.97l0 13.93c0,3.28 -2.69,5.97 -5.97,5.97l0 0c-3.28,0 -5.97,-2.69 -5.97,-5.97l0 -13.93c0,-3.28 2.69,-5.97 5.97,-5.97zm24.77 0l0 0c3.28,0 5.97,2.69 5.97,5.97l0 13.93c0,3.28 -2.69,5.97 -5.97,5.97l0 0c-3.28,0 -5.97,-2.69 -5.97,-5.97l0 -13.93c0,-3.28 2.69,-5.97 5.97,-5.97zm24.77 0l0 0c3.28,0 5.97,2.69 5.97,5.97l0 13.93c0,3.28 -2.69,5.97 -5.97,5.97l0 0c-3.28,0 -5.97,-2.69 -5.97,-5.97l0 -13.93c0,-3.28 2.69,-5.97 5.97,-5.97zm24.77 0l0 0c3.28,0 5.97,2.69 5.97,5.97l0 13.93c0,3.28 -2.69,5.97 -5.97,5.97l0 0c-3.28,0 -5.97,-2.69 -5.97,-5.97l0 -13.93c0,-3.28 2.69,-5.97 5.97,-5.97zm24.77 0l0 0c3.28,0 5.97,2.69 5.97,5.97l0 13.93c0,3.28 -2.69,5.97 -5.97,5.97l0 0c-3.28,0 -5.97,-2.69 -5.97,-5.97l0 -13.93c0,-3.28 2.69,-5.97 5.97,-5.97zm24.77 0l0 0c3.28,0 5.97,2.69 5.97,5.97l0 13.93c0,3.28 -2.69,5.97 -5.97,5.97l0 0c-3.28,0 -5.97,-2.69 -5.97,-5.97l0 -13.93c0,-3.28 2.69,-5.97 5.97,-5.97zm24.77 0l0 0c3.28,0 5.97,2.69 5.97,5.97l0 13.93c0,3.28 -2.69,5.97 -5.97,5.97l0 0c-3.28,0 -5.97,-2.69 -5.97,-5.97l0 -13.93c0,-3.28 2.69,-5.97 5.97,-5.97zm24.77 0l0 0c3.28,0 5.97,2.69 5.97,5.97l0 13.93c0,3.28 -2.69,5.97 -5.97,5.97l0 0c-3.28,0 -5.97,-2.69 -5.97,-5.97l0 -13.93c0,-3.28 2.69,-5.97 5.97,-5.97zm24.77 0l0 0c3.28,0 5.97,2.69 5.97,5.97l0 13.93c0,3.28 -2.69,5.97 -5.97,5.97l0 0c-3.28,0 -5.97,-2.69 -5.97,-5.97l0 -13.93c0,-3.28 2.69,-5.97 5.97,-5.97zm24.77 0l0 0c3.28,0 5.97,2.69 5.97,5.97l0 13.93c0,3.28 -2.69,5.97 -5.97,5.97l0 0c-3.28,0 -5.97,-2.69 -5.97,-5.97l0 -13.93c0,-3.28 2.69,-5.97 5.97,-5.97zm-163.02 -203.71l0 0c4.76,-2.22 10.47,-0.15 12.69,4.61l9.43 20.2c2.22,4.76 0.15,10.47 -4.61,12.7l-0 0c-4.76,2.22 -10.47,0.15 -12.69,-4.61l-9.43 -20.2c-2.22,-4.76 -0.15,-10.47 4.61,-12.69zm97.11 1.43l0 0c4.73,2.29 6.73,8.02 4.44,12.76l-9.7 20.07c-2.29,4.73 -8.02,6.73 -12.76,4.44l-0 -0c-4.73,-2.29 -6.73,-8.02 -4.44,-12.76l9.7 -20.07c2.29,-4.73 8.03,-6.73 12.76,-4.44zm89.89 58.73l0 0c3.46,3.96 3.06,10.02 -0.9,13.48l-16.78 14.67c-3.96,3.46 -10.02,3.06 -13.48,-0.9l0 -0c-3.46,-3.96 -3.06,-10.02 0.9,-13.48l16.78 -14.67c3.96,-3.46 10.02,-3.05 13.48,0.91zm21.09 33.19l0 0c2.69,4.52 1.19,10.41 -3.33,13.09l-19.16 11.39c-4.52,2.69 -10.41,1.19 -13.09,-3.33l-0 -0c-2.69,-4.52 -1.19,-10.41 3.33,-13.09l19.16 -11.39c4.52,-2.69 10.41,-1.19 13.09,3.33zm13.54 38.1l0 0c1.66,4.99 -1.07,10.42 -6.06,12.07l-21.16 7.02c-4.99,1.66 -10.42,-1.07 -12.07,-6.06l-0 -0c-1.65,-4.99 1.07,-10.42 6.06,-12.07l21.16 -7.02c4.99,-1.66 10.42,1.07 12.07,6.06zm3.44 37.13l0 0c0.41,5.24 -3.53,9.86 -8.77,10.28l-22.22 1.75c-5.24,0.41 -9.86,-3.53 -10.27,-8.77l0 -0c-0.41,-5.24 3.53,-9.86 8.77,-10.27l22.22 -1.75c5.24,-0.41 9.86,3.53 10.27,8.77zm0.33 30.89l0 0c-0.16,5.25 -4.58,9.42 -9.83,9.26l-22.28 -0.67c-5.26,-0.16 -9.42,-4.58 -9.26,-9.83l0 -0c0.16,-5.26 4.58,-9.42 9.83,-9.26l22.28 0.67c5.25,0.16 9.42,4.58 9.26,9.83zm-61.04 -161.91l0 0c3.61,3.81 3.45,9.89 -0.36,13.5l-16.18 15.33c-3.81,3.62 -9.89,3.46 -13.5,-0.36l-0 -0c-3.61,-3.81 -3.45,-9.89 0.36,-13.5l16.18 -15.33c3.81,-3.62 9.89,-3.46 13.5,0.36zm-32.15 -22.73l0 0c4.42,2.85 5.69,8.79 2.84,13.2l-12.09 18.72c-2.85,4.42 -8.79,5.69 -13.2,2.84l-0 -0c-4.42,-2.85 -5.69,-8.79 -2.84,-13.2l12.09 -18.72c2.85,-4.41 8.79,-5.69 13.2,-2.84zm-165.19 -2.82l0 0c4.64,-2.48 10.45,-0.71 12.93,3.93l10.5 19.66c2.48,4.63 0.71,10.45 -3.93,12.93l-0 0c-4.64,2.48 -10.45,0.71 -12.93,-3.93l-10.5 -19.66c-2.48,-4.63 -0.71,-10.45 3.93,-12.93zm-35.15 23.45l0 -0c3.61,-3.82 9.68,-4 13.5,-0.39l16.21 15.3c3.82,3.61 4,9.68 0.39,13.5l-0 0c-3.61,3.82 -9.68,4 -13.5,0.39l-16.21 -15.3c-3.82,-3.61 -4,-9.68 -0.39,-13.5zm-28.13 29.31l0 -0c2.93,-4.37 8.89,-5.54 13.25,-2.62l18.52 12.41c4.37,2.93 5.54,8.89 2.62,13.25l0 0c-2.93,4.37 -8.89,5.54 -13.25,2.62l-18.52 -12.41c-4.37,-2.93 -5.55,-8.89 -2.62,-13.25zm-18.24 31.24l0 -0c2.29,-4.73 8.02,-6.73 12.76,-4.44l20.07 9.69c4.73,2.29 6.73,8.02 4.45,12.76l-0 0c-2.28,4.73 -8.02,6.73 -12.75,4.44l-20.07 -9.69c-4.73,-2.29 -6.73,-8.02 -4.44,-12.76zm-12.9 36.65l0 -0c1.4,-5.06 6.69,-8.06 11.75,-6.66l21.48 5.94c5.07,1.4 8.06,6.69 6.66,11.75l0 0c-1.4,5.07 -6.69,8.06 -11.75,6.66l-21.48 -5.94c-5.07,-1.4 -8.06,-6.69 -6.66,-11.75zm-3.54 37.1l0 -0c0.62,-5.22 5.39,-8.98 10.61,-8.36l22.13 2.62c5.22,0.62 8.98,5.39 8.36,10.61l0 0c-0.62,5.22 -5.39,8.98 -10.61,8.36l-22.14 -2.62c-5.22,-0.62 -8.98,-5.39 -8.36,-10.61zm3.02 29.97l0 -0c-0.2,-5.25 3.93,-9.71 9.18,-9.91l22.28 -0.85c5.25,-0.2 9.71,3.93 9.91,9.18l0 0c0.2,5.25 -3.93,9.71 -9.18,9.91l-22.28 0.85c-5.25,0.2 -9.71,-3.93 -9.91,-9.18z"/>
   <g>
    <path class="fil0" d="M711.62 631.31l-36.94 -0.37 0.18 14.6 -1.69 3.8c-1.16,11.23 -12.24,18.3 -23.48,12.32 -10.65,-5.65 -9.3,-17.04 -8.74,-30.72l-32.4 0c0,5.6 1.88,17.5 -2.37,20.54 -4.04,16.25 -26.9,16.24 -30.96,0.04 -3.89,-4.13 -2.36,-14.13 -2.36,-20.57l-32.4 0c0.56,13.87 1.73,26.11 -9.81,31.22 -11.45,5.09 -21.31,-2.3 -22.44,-12.79l-1.49 -3.88 0 -14.55 -32.23 0 0.18 14.6 -1.69 3.8c-1.16,11.23 -12.24,18.3 -23.48,12.32 -10.65,-5.65 -9.3,-17.04 -8.74,-30.72l-32.4 0c0,5.6 1.88,17.5 -2.37,20.54 -4.04,16.25 -26.9,16.24 -30.96,0.04 -3.9,-4.13 -2.36,-14.13 -2.36,-20.57l-32.4 0c0.56,13.87 1.73,26.11 -9.81,31.22 -11.46,5.09 -21.31,-2.3 -22.44,-12.79l-1.49 -3.88 -0.08 -14.55 -32.15 0 0.18 14.6 -1.69 3.8c-1.16,11.23 -12.24,18.3 -23.48,12.32 -11.72,-6.22 -7.52,-17.4 -9.46,-31.29 -71.85,0 -51.22,-8.92 -94.35,34.43l-48.49 48.48c-5.22,5.2 -12.26,10.55 -15.26,17.19l565.27 0.02c88.89,0 77.12,8.36 77.17,-64.66 0.01,-15.75 2.54,-31.39 -12.55,-34.51z"/>
    <path class="fil0" d="M137.93 514.52l3.88 -1.49 14.55 0 0.06 -32.23 -14.67 0.19 -3.8 -1.69c-11.22,-1.17 -18.31,-12.25 -12.34,-23.51 5.59,-10.53 17.16,-9.27 30.74,-8.72l0 -32.4c-5.65,0 -17.48,1.86 -20.57,-2.36 -16.15,-4.07 -16.28,-26.78 -0.07,-31 4.23,-3.81 14.12,-2.34 20.64,-2.34l0 -32.4c-13.89,0.57 -26.07,1.87 -31.24,-9.78 -5.07,-11.44 2.25,-21.35 12.81,-22.46l3.88 -1.5 14.55 0 0 -32.23 -14.6 0.19 -3.8 -1.69c-11.22,-1.16 -18.31,-12.24 -12.34,-23.51 5.59,-10.54 17.16,-9.27 30.74,-8.72l0 -32.4c-5.65,0 -17.48,1.87 -20.57,-2.36 -16.15,-4.07 -16.28,-26.78 -0.07,-31 4.23,-3.81 14.12,-2.34 20.64,-2.34l0 -32.4c-13.89,0.57 -26.07,1.87 -31.24,-9.78 -5.07,-11.44 2.25,-21.35 12.81,-22.46l3.78 -1.5 14.72 0 -0.45 -36.94c-3.18,-15.5 -20.04,-12.56 -36.07,-12.55 -53.84,0.02 -63.2,-7.63 -63.1,31.81l0.02 610.64c5.87,-2.64 4.71,-2.61 10.19,-8.21l88.17 -88.48c3.76,-6.2 1.74,-50.99 1.74,-61.43 -13.88,-1.94 -25.06,2.24 -31.3,-9.45 -5.99,-11.24 1.07,-22.33 12.3,-23.51z"/>
   </g>
  </g>
 </g>
</svg>
