<svg width="64" height="64" viewBox="0 0 64 64" fill="none" xmlns="http://www.w3.org/2000/svg">
<path fill-rule="evenodd" clip-rule="evenodd" d="M4.52819 36.9121C5.85971 36.6011 12.2197 36.8583 14.0898 36.8497C16.0261 36.8401 15.6815 36.866 16.7423 38.9857C18.5308 42.5627 19.7769 46.1608 22.8268 47.692C25.4841 49.0254 28.4313 48.6395 31.6396 48.6395C34.5148 48.6395 38.2118 48.9976 40.5657 47.8033C43.8412 46.1406 44.7888 43.0503 46.6829 39.2612C46.9603 38.7073 47.2368 38.1543 47.5075 37.5985C47.928 36.7364 48.0441 36.8411 49.1856 36.8478C52.4477 36.867 55.7155 36.8497 58.9795 36.8497C59.2752 38.3838 58.9959 43.5553 58.7904 45.2468C58.4755 47.8446 57.9408 50.0065 56.8733 52.0821C52.3958 60.7931 38.4076 58.9528 28.8758 58.9528C23.5132 58.9528 17.5631 59.2984 12.7977 57.4331C10.1768 56.4069 8.08884 54.6126 6.92532 52.5313C6.47219 51.7201 5.59187 49.1032 3.14963 50.451C2.21458 50.9675 1.84498 52.2625 2.4469 53.5595C2.87314 54.4773 3.60179 55.6341 4.10771 56.3157C5.36339 58.0062 6.70644 59.1659 8.7426 60.3851C12.6037 62.6949 18.0191 63.3544 23.2098 63.3803C29.0428 63.4091 34.9286 63.4322 40.7596 63.3774C52.4832 63.268 59.6467 59.741 62.3578 50.1054C63.792 45.0059 63.4714 39.1863 63.4714 33.7566C63.4714 26.7965 63.8285 17.5584 58.7424 12.1834C55.4774 8.73218 52.4218 7.1261 47.1609 6.33985C43.8528 5.84545 43.4188 9.85442 45.8323 10.5802C48.4387 11.3645 51.9562 11.4211 54.9514 14.45C59.8886 19.442 58.5763 27.6346 59.0899 32.4654C56.3347 32.1774 52.2317 32.4231 49.3267 32.4183C47.6774 32.4154 46.6099 32.5556 45.4339 33.3198C44.3107 34.0503 44.0237 34.7031 43.2969 36.1604C42.7478 37.2615 42.2361 38.283 41.6851 39.3851C40.4409 41.8724 39.9283 44.1707 36.7574 44.21H26.9346C23.7186 44.186 23.1974 41.9348 21.9935 39.5281C21.4415 38.4231 20.8886 37.3249 20.3346 36.2123C18.9532 33.4359 17.7292 32.4135 14.3644 32.4183C12.7477 32.4212 5.54675 32.3233 4.59923 32.4654C4.07891 29.9108 4.70579 22.9767 5.53235 20.0852C7.11828 14.5421 10.7058 11.8743 16.3362 10.8451C17.3615 10.6579 18.2495 10.5667 18.7449 9.95042C19.2565 9.31202 19.4005 8.15522 18.9417 7.34402C18.0306 5.73121 15.8629 6.38306 13.9679 6.83522C12.2812 7.23746 10.438 7.89794 9.0642 8.6957C7.4802 9.61442 6.35315 10.4458 5.31827 11.5853C4.26611 12.7431 3.41651 13.7828 2.57458 15.4752C-0.751824 22.1578 0.108338 31.9038 0.0795381 39.5607C0.0756981 40.6753 0.161138 41.6679 0.8053 42.2027C1.37938 42.6788 2.52178 42.9323 3.33587 42.4887C5.07923 41.5383 4.39475 39.0395 4.52819 36.9092V36.9121Z" fill="white"/>
<path fill-rule="evenodd" clip-rule="evenodd" d="M29.5343 17.4308C28.0972 16.1664 27.2418 14.5565 25.6089 14.7572C23.6111 15.001 23.0774 17.234 24.4674 18.6816C25.5935 19.8548 26.6985 20.9146 27.8524 22.0676C30.1919 24.4052 31.3958 26.5172 33.9062 23.8666L39.0201 18.7546C39.5136 18.2468 40.078 17.5604 39.8208 16.4525C39.6076 15.5338 39.0163 14.9434 38.0563 14.7735C36.3638 14.473 35.5084 16.1204 34.0175 17.4317C33.7852 14.3952 33.9935 6.6797 33.9926 2.80225C33.9916 1.176 33.4367 0 31.7759 0C30.2006 0 29.5689 1.10784 29.5593 2.66209C29.5334 6.74114 29.7859 14.1495 29.5343 17.4308Z" fill="white"/>
</svg>
