<?xml version="1.0" encoding="UTF-8"?>
<!DOCTYPE svg PUBLIC "-//W3C//DTD SVG 1.1//EN" "http://www.w3.org/Graphics/SVG/1.1/DTD/svg11.dtd">
<!-- Creator: CorelDRAW -->
<svg xmlns="http://www.w3.org/2000/svg" xml:space="preserve" width="0.787402in" height="0.787402in" version="1.1" style="shape-rendering:geometricPrecision; text-rendering:geometricPrecision; image-rendering:optimizeQuality; fill-rule:evenodd; clip-rule:evenodd"
viewBox="0 0 787.4 787.4"
 xmlns:xlink="http://www.w3.org/1999/xlink"
 xmlns:xodm="http://www.corel.com/coreldraw/odm/2003">
 <defs>
  <style type="text/css">
   <![CDATA[
    .fil3 {fill:black}
    .fil0 {fill:black;fill-opacity:0.431373}
    .fil1 {fill:black;fill-opacity:0.568627}
    .fil2 {fill:black;fill-opacity:0.741176}
   ]]>
  </style>
 </defs>
 <g id="Layer_x0020_1">
  <metadata id="CorelCorpID_0Corel-Layer"/>
  <g id="_2505787253952">
   <polygon class="fil0" points="289.89,451.54 384.34,498.6 384.44,378.39 289.95,331.43 "/>
   <polygon class="fil1" points="398.1,378.64 397.94,498.39 492.47,451.46 492.51,331.56 "/>
   <path class="fil2" d="M298.59 320.11c1.88,2.18 20.02,10.63 22.57,11.89 7.87,3.92 15.29,7.64 23.22,11.61 5.68,2.84 44.27,22.93 46.78,22.89 1.47,-0.02 68.56,-33.88 80.91,-40.06l8.87 -4.39c0.36,-0.19 0.96,-0.49 1.26,-0.69l1.59 -1.3c-6.46,-2.31 -16.24,-7.96 -22.87,-11.28 -9.94,-4.97 -67.82,-34.5 -69.71,-34.48 -4.11,0.04 -79.7,41.01 -92.62,45.8z"/>
   <path class="fil3" d="M98.3 351.54c23.08,-20.31 46.17,-40.61 69.25,-60.92 -10.89,9.58 36.59,-41.42 37.19,17.69l0.54 52.99 0.29 51.43c0.01,22.04 0.02,44.07 0.04,66.11 1.21,31.5 -24.61,12 -26.19,10.65 -26.93,-23.05 -53.86,-46.1 -80.8,-69.15 -47.59,-40.72 -47.41,-27.37 -0.31,-68.8z"/>
   <path class="fil3" d="M683.17 351.54c-23.08,-20.31 -46.17,-40.61 -69.25,-60.92 10.89,9.58 -36.59,-41.42 -37.19,17.69l-0.54 52.99 -0.29 51.43c-0.01,22.04 -0.02,44.07 -0.04,66.11 -1.21,31.5 24.61,12 26.19,10.65 26.93,-23.05 53.86,-46.1 80.8,-69.15 47.59,-40.72 47.41,-27.37 0.31,-68.8z"/>
   <path class="fil3" d="M427.63 106.12c20.31,23.08 40.61,46.17 60.92,69.25 -9.58,-10.89 41.42,36.59 -17.69,37.19l-52.99 0.54 -51.43 0.29c-22.04,0.01 -44.07,0.02 -66.11,0.04 -31.5,1.21 -12,-24.61 -10.65,-26.19 23.05,-26.93 46.1,-53.86 69.15,-80.8 40.72,-47.59 27.37,-47.41 68.8,-0.31z"/>
   <path class="fil3" d="M427.63 687.21c20.31,-23.08 40.61,-46.17 60.92,-69.25 -9.58,10.89 41.42,-36.59 -17.69,-37.19l-52.99 -0.54 -51.43 -0.29c-22.04,-0.01 -44.07,-0.02 -66.11,-0.04 -31.5,-1.21 -12,24.61 -10.65,26.19 23.05,26.93 46.1,53.86 69.15,80.8 40.72,47.59 27.37,47.41 68.8,0.31z"/>
  </g>
 </g>
</svg>
