<?xml version="1.0" encoding="UTF-8"?>
<!DOCTYPE svg PUBLIC "-//W3C//DTD SVG 1.1//EN" "http://www.w3.org/Graphics/SVG/1.1/DTD/svg11.dtd">
<!-- Creator: CorelDRAW -->
<svg xmlns="http://www.w3.org/2000/svg" xml:space="preserve" width="0.787402in" height="0.787402in" version="1.1" style="shape-rendering:geometricPrecision; text-rendering:geometricPrecision; image-rendering:optimizeQuality; fill-rule:evenodd; clip-rule:evenodd"
viewBox="0 0 787.4 787.4"
 xmlns:xlink="http://www.w3.org/1999/xlink"
 xmlns:xodm="http://www.corel.com/coreldraw/odm/2003">
 <defs>
  <style type="text/css">
   <![CDATA[
    .fil0 {fill:black}
    .fil1 {fill:black;fill-opacity:0.431373}
    .fil2 {fill:black;fill-opacity:0.568627}
    .fil3 {fill:black;fill-opacity:0.741176}
   ]]>
  </style>
 </defs>
 <g id="Layer_x0020_1">
  <metadata id="CorelCorpID_0Corel-Layer"/>
  <g id="_2505818451520">
   <g>
    <g>
     <path class="fil0" d="M492.51 331.56l-0.04 119.9 -94.52 46.94 0.16 -119.75 94.41 -47.09zm-202.56 -0.13l94.5 46.97 -0.1 120.2 -94.46 -47.06 0.06 -120.11zm8.65 -11.31c12.93,-4.79 88.52,-45.76 92.62,-45.8 1.89,-0.02 59.77,29.5 69.71,34.48 6.63,3.31 16.42,8.96 22.87,11.28l-1.59 1.3c-0.3,0.2 -0.9,0.5 -1.26,0.69l-8.87 4.39c-12.36,6.18 -79.44,40.04 -80.91,40.06 -2.5,0.04 -41.09,-20.05 -46.78,-22.89 -7.93,-3.96 -15.35,-7.69 -23.22,-11.61 -2.55,-1.27 -20.69,-9.71 -22.57,-11.89zm-21.85 137.54c1.4,4.48 13.67,9.03 18.71,11.55 6.93,3.46 13.37,6.69 20.26,10.13l60.79 30.39c13.42,6.71 12.93,8.31 21.83,3.82l80.62 -40.31c31.57,-15.78 27.06,-9.37 27.06,-33.95 0,-13.38 0.77,-116.83 -0.36,-120.76 -1.37,-4.76 -13.56,-9.19 -18.69,-11.76l-91.15 -45.6c-5.25,-2.63 -7.31,-0.91 -11.72,1.3 -13.48,6.79 -26.62,13.31 -40.1,20.05 -13.64,6.82 -26.91,13.45 -40.52,20.26 -6.88,3.44 -13.38,6.74 -20.26,10.13 -9.06,4.44 -6.83,7.02 -6.83,23.8 0,12.93 -0.69,117.59 0.36,120.94z"/>
     <polygon class="fil1" points="289.89,451.54 384.34,498.6 384.44,378.39 289.95,331.43 "/>
     <polygon class="fil2" points="398.1,378.64 397.94,498.39 492.47,451.46 492.51,331.56 "/>
     <path class="fil3" d="M298.59 320.11c1.88,2.18 20.02,10.63 22.57,11.89 7.87,3.92 15.29,7.64 23.22,11.61 5.68,2.84 44.27,22.93 46.78,22.89 1.47,-0.02 68.56,-33.88 80.91,-40.06l8.87 -4.39c0.36,-0.19 0.96,-0.49 1.26,-0.69l1.59 -1.3c-6.46,-2.31 -16.24,-7.96 -22.87,-11.28 -9.94,-4.97 -67.82,-34.5 -69.71,-34.48 -4.11,0.04 -79.7,41.01 -92.62,45.8z"/>
    </g>
    <path class="fil0" d="M98.3 351.54c23.08,-20.31 46.17,-40.61 69.25,-60.92 -10.89,9.58 36.59,-41.42 37.19,17.69l0.54 52.99 0.29 51.43c0.01,22.04 0.02,44.07 0.04,66.11 1.21,31.5 -24.61,12 -26.19,10.65 -26.93,-23.05 -53.86,-46.1 -80.8,-69.15 -47.59,-40.72 -47.41,-27.37 -0.31,-68.8z"/>
    <path class="fil0" d="M683.17 351.54c-23.08,-20.31 -46.17,-40.61 -69.25,-60.92 10.89,9.58 -36.59,-41.42 -37.19,17.69l-0.54 52.99 -0.29 51.43c-0.01,22.04 -0.02,44.07 -0.04,66.11 -1.21,31.5 24.61,12 26.19,10.65 26.93,-23.05 53.86,-46.1 80.8,-69.15 47.59,-40.72 47.41,-27.37 0.31,-68.8z"/>
    <path class="fil0" d="M427.63 106.12c20.31,23.08 40.61,46.17 60.92,69.25 -9.58,-10.89 41.42,36.59 -17.69,37.19l-52.99 0.54 -51.43 0.29c-22.04,0.01 -44.07,0.02 -66.11,0.04 -31.5,1.21 -12,-24.61 -10.65,-26.19 23.05,-26.93 46.1,-53.86 69.15,-80.8 40.72,-47.59 27.37,-47.41 68.8,-0.31z"/>
    <path class="fil0" d="M427.63 687.21c20.31,-23.08 40.61,-46.17 60.92,-69.25 -9.58,10.89 41.42,-36.59 -17.69,-37.19l-52.99 -0.54 -51.43 -0.29c-22.04,-0.01 -44.07,-0.02 -66.11,-0.04 -31.5,-1.21 -12,24.61 -10.65,26.19 23.05,26.93 46.1,53.86 69.15,80.8 40.72,47.59 27.37,47.41 68.8,0.31z"/>
   </g>
  </g>
 </g>
</svg>
