<svg width="57" height="65" viewBox="0 0 57 65" fill="none" xmlns="http://www.w3.org/2000/svg">
<path fill-rule="evenodd" clip-rule="evenodd" d="M23.1668 56.908H33.7431C33.4254 57.5713 33.4417 57.7777 32.9502 58.3816C32.4702 58.972 32.4068 59.0354 31.8174 59.5144C29.5556 61.3528 26.0765 60.9851 23.9597 58.3816C23.4692 57.7777 23.4855 57.5713 23.1668 56.908ZM28.0954 0H28.8135C30.5185 0.10368 32.1822 0.950403 33.218 2.53825C34.3633 4.29313 34.1204 5.81378 34.1204 8.5613C34.8644 8.6237 36.3937 9.49634 37.0177 9.81794C37.8644 10.2547 38.6574 10.8922 39.3918 11.473C40.9921 12.7383 42.05 14.1639 43.1867 15.8621C45.9217 19.9489 45.602 24.8122 45.5761 29.714C45.5704 30.9073 45.7048 32.4586 45.866 33.578C46.1972 35.8695 46.8251 37.6532 47.7985 39.7038C48.0644 40.2644 48.2401 40.4756 48.5444 40.9719L50.2331 43.4382C52.4161 46.2923 52.0984 45.3976 53.6353 46.0801C56.6017 47.3982 57.8142 51.1384 56.1947 54.0558C55.8203 54.7297 55.348 55.1896 54.7989 55.6821C54.2689 56.1563 53.5864 56.4683 52.8001 56.7054C51.4235 57.1211 39.8449 56.9099 37.7703 56.9099C37.298 57.8949 37.034 60.3179 34.6964 62.1458C32.9223 63.532 31.0417 64.3077 29.1505 64.4642H27.7066C25.8029 64.3058 23.9137 63.5176 22.1396 62.091C21.1709 61.3125 20.0679 59.6738 19.6234 58.4382C19.4842 58.0523 19.3018 57.2526 19.1376 56.9099C16.9364 56.9099 5.51425 57.1441 4.01089 56.6757C1.77024 55.9777 0 53.8283 0 51.6213C0 46.2251 4.35169 45.9534 4.93537 45.4772L6.78146 43.2942C7.0877 42.8852 7.3325 42.5771 7.63106 42.1287L9.1901 39.5329C12.9188 31.0993 10.392 27.5953 11.6592 21.7306C12.4925 17.8743 14.7495 13.8 17.6804 11.5104C19.0724 10.4227 21.0337 8.97122 22.7895 8.56226C22.7895 5.81569 22.5466 4.29505 23.6909 2.53921C24.7268 0.950402 26.3905 0.10464 28.0954 0.000959841V0ZM6.04418 49.3537H50.8657C53.8561 49.3537 53.8561 53.1304 50.8657 53.1304H6.04418C3.05377 53.1304 3.05377 49.3537 6.04418 49.3537ZM46.9624 45.5761H9.94659C10.4179 44.6852 11.4451 43.5985 12.4647 41.5479C16.3191 33.7969 14.5056 31.2337 15.2151 24.5319C15.432 22.4823 15.4762 21.3197 16.4919 19.2615C17.6448 16.9248 18.9322 15.337 20.9713 13.7943C22.466 12.6634 24.9255 11.6621 26.8349 11.4749C30.8545 11.0803 34.9172 12.2852 37.7406 15.1392C40.6331 18.0624 41.3463 20.4135 41.7812 24.3178C42.3678 29.5767 40.7281 32.2167 43.3835 39.2094C43.7425 40.155 43.9796 40.6187 44.402 41.4644C45.458 43.5832 46.4699 44.6459 46.9624 45.5771V45.5761ZM26.5661 6.04322C26.5661 4.57057 27.579 3.42145 29.0631 3.91777C30.4801 4.39201 30.3428 5.79649 30.3428 7.68002C29.8513 7.40354 27.2919 7.55426 26.5661 7.55426V6.04322Z" fill="white"/>
</svg>
