<svg width="55" height="55" viewBox="0 0 55 55" fill="none" xmlns="http://www.w3.org/2000/svg">
<path fill-rule="evenodd" clip-rule="evenodd" d="M15.6697 4.23204H39.3303C45.6214 4.23204 50.7661 9.37857 50.7661 15.6678V39.3284C50.7661 45.6195 45.6195 50.7642 39.3303 50.7642H15.6697C9.37864 50.7642 4.23394 45.6176 4.23394 39.3284V15.6678C4.23394 9.3767 9.38051 4.23204 15.6697 4.23204ZM41.4828 0H13.5172C6.08163 0 0 6.08156 0 13.5171V41.4828C0 48.9183 6.08163 55 13.5172 55H41.4828C48.9184 55 55 48.9183 55 41.4828V13.5171C55 6.08156 48.9184 0 41.4828 0Z" fill="white"/>
<path d="M14.8413 6.54762C14.8413 5.82439 14.255 5.2381 13.5317 5.2381C12.8085 5.2381 12.2222 5.82439 12.2222 6.54762C12.2222 7.27085 12.8085 7.85714 13.5317 7.85714C14.255 7.85714 14.8413 7.27085 14.8413 6.54762Z" fill="#D9D9D9"/>
<path d="M14.8413 10.0397C14.8413 9.31645 14.255 8.73016 13.5317 8.73016C12.8085 8.73016 12.2222 9.31645 12.2222 10.0397C12.2222 10.7629 12.8085 11.3492 13.5317 11.3492C14.255 11.3492 14.8413 10.7629 14.8413 10.0397Z" fill="#D9D9D9"/>
<path d="M14.8413 13.5317C14.8413 12.8085 14.255 12.2222 13.5317 12.2222C12.8085 12.2222 12.2222 12.8085 12.2222 13.5317C12.2222 14.255 12.8085 14.8413 13.5317 14.8413C14.255 14.8413 14.8413 14.255 14.8413 13.5317Z" fill="#D9D9D9"/>
<path d="M14.8413 17.0238C14.8413 16.3006 14.255 15.7143 13.5317 15.7143C12.8085 15.7143 12.2222 16.3006 12.2222 17.0238C12.2222 17.747 12.8085 18.3333 13.5317 18.3333C14.255 18.3333 14.8413 17.747 14.8413 17.0238Z" fill="#D9D9D9"/>
<path d="M14.8413 20.5159C14.8413 19.7926 14.255 19.2063 13.5317 19.2063C12.8085 19.2063 12.2222 19.7926 12.2222 20.5159C12.2222 21.2391 12.8085 21.8254 13.5317 21.8254C14.255 21.8254 14.8413 21.2391 14.8413 20.5159Z" fill="#D9D9D9"/>
<path d="M14.8413 24.0079C14.8413 23.2847 14.255 22.6984 13.5317 22.6984C12.8085 22.6984 12.2222 23.2847 12.2222 24.0079C12.2222 24.7312 12.8085 25.3175 13.5317 25.3175C14.255 25.3175 14.8413 24.7312 14.8413 24.0079Z" fill="#D9D9D9"/>
<path d="M18.3333 6.54762C18.3333 5.82439 17.747 5.2381 17.0238 5.2381C16.3006 5.2381 15.7143 5.82439 15.7143 6.54762C15.7143 7.27085 16.3006 7.85714 17.0238 7.85714C17.747 7.85714 18.3333 7.27085 18.3333 6.54762Z" fill="#D9D9D9"/>
<path d="M18.3333 10.0397C18.3333 9.31645 17.747 8.73016 17.0238 8.73016C16.3006 8.73016 15.7143 9.31645 15.7143 10.0397C15.7143 10.7629 16.3006 11.3492 17.0238 11.3492C17.747 11.3492 18.3333 10.7629 18.3333 10.0397Z" fill="#D9D9D9"/>
<path d="M18.3333 13.5317C18.3333 12.8085 17.747 12.2222 17.0238 12.2222C16.3006 12.2222 15.7143 12.8085 15.7143 13.5317C15.7143 14.255 16.3006 14.8413 17.0238 14.8413C17.747 14.8413 18.3333 14.255 18.3333 13.5317Z" fill="#D9D9D9"/>
<path d="M18.3333 17.0238C18.3333 16.3006 17.747 15.7143 17.0238 15.7143C16.3006 15.7143 15.7143 16.3006 15.7143 17.0238C15.7143 17.747 16.3006 18.3333 17.0238 18.3333C17.747 18.3333 18.3333 17.747 18.3333 17.0238Z" fill="#D9D9D9"/>
<path d="M18.3333 20.5159C18.3333 19.7926 17.747 19.2063 17.0238 19.2063C16.3006 19.2063 15.7143 19.7926 15.7143 20.5159C15.7143 21.2391 16.3006 21.8254 17.0238 21.8254C17.747 21.8254 18.3333 21.2391 18.3333 20.5159Z" fill="#D9D9D9"/>
<path d="M18.3333 24.0079C18.3333 23.2847 17.747 22.6984 17.0238 22.6984C16.3006 22.6984 15.7143 23.2847 15.7143 24.0079C15.7143 24.7312 16.3006 25.3175 17.0238 25.3175C17.747 25.3175 18.3333 24.7312 18.3333 24.0079Z" fill="#D9D9D9"/>
<path d="M21.8254 6.54762C21.8254 5.82439 21.2391 5.2381 20.5159 5.2381C19.7926 5.2381 19.2063 5.82439 19.2063 6.54762C19.2063 7.27085 19.7926 7.85714 20.5159 7.85714C21.2391 7.85714 21.8254 7.27085 21.8254 6.54762Z" fill="#D9D9D9"/>
<path d="M21.8254 10.0397C21.8254 9.31645 21.2391 8.73016 20.5159 8.73016C19.7926 8.73016 19.2063 9.31645 19.2063 10.0397C19.2063 10.7629 19.7926 11.3492 20.5159 11.3492C21.2391 11.3492 21.8254 10.7629 21.8254 10.0397Z" fill="#D9D9D9"/>
<path d="M21.8254 13.5317C21.8254 12.8085 21.2391 12.2222 20.5159 12.2222C19.7926 12.2222 19.2063 12.8085 19.2063 13.5317C19.2063 14.255 19.7926 14.8413 20.5159 14.8413C21.2391 14.8413 21.8254 14.255 21.8254 13.5317Z" fill="#D9D9D9"/>
<path d="M21.8254 17.0238C21.8254 16.3006 21.2391 15.7143 20.5159 15.7143C19.7926 15.7143 19.2063 16.3006 19.2063 17.0238C19.2063 17.747 19.7926 18.3333 20.5159 18.3333C21.2391 18.3333 21.8254 17.747 21.8254 17.0238Z" fill="#D9D9D9"/>
<path d="M21.8254 20.5159C21.8254 19.7926 21.2391 19.2063 20.5159 19.2063C19.7926 19.2063 19.2063 19.7926 19.2063 20.5159C19.2063 21.2391 19.7926 21.8254 20.5159 21.8254C21.2391 21.8254 21.8254 21.2391 21.8254 20.5159Z" fill="#D9D9D9"/>
<path d="M21.8254 24.0079C21.8254 23.2847 21.2391 22.6984 20.5159 22.6984C19.7926 22.6984 19.2063 23.2847 19.2063 24.0079C19.2063 24.7312 19.7926 25.3175 20.5159 25.3175C21.2391 25.3175 21.8254 24.7312 21.8254 24.0079Z" fill="#D9D9D9"/>
<path d="M25.3175 6.54762C25.3175 5.82439 24.7312 5.2381 24.0079 5.2381C23.2847 5.2381 22.6984 5.82439 22.6984 6.54762C22.6984 7.27085 23.2847 7.85714 24.0079 7.85714C24.7312 7.85714 25.3175 7.27085 25.3175 6.54762Z" fill="#D9D9D9"/>
<path d="M25.3175 10.0397C25.3175 9.31645 24.7312 8.73016 24.0079 8.73016C23.2847 8.73016 22.6984 9.31645 22.6984 10.0397C22.6984 10.7629 23.2847 11.3492 24.0079 11.3492C24.7312 11.3492 25.3175 10.7629 25.3175 10.0397Z" fill="#D9D9D9"/>
<path d="M25.3175 13.5317C25.3175 12.8085 24.7312 12.2222 24.0079 12.2222C23.2847 12.2222 22.6984 12.8085 22.6984 13.5317C22.6984 14.255 23.2847 14.8413 24.0079 14.8413C24.7312 14.8413 25.3175 14.255 25.3175 13.5317Z" fill="#D9D9D9"/>
<path d="M25.3175 17.0238C25.3175 16.3006 24.7312 15.7143 24.0079 15.7143C23.2847 15.7143 22.6984 16.3006 22.6984 17.0238C22.6984 17.747 23.2847 18.3333 24.0079 18.3333C24.7312 18.3333 25.3175 17.747 25.3175 17.0238Z" fill="#D9D9D9"/>
<path d="M25.3175 20.5159C25.3175 19.7926 24.7312 19.2063 24.0079 19.2063C23.2847 19.2063 22.6984 19.7926 22.6984 20.5159C22.6984 21.2391 23.2847 21.8254 24.0079 21.8254C24.7312 21.8254 25.3175 21.2391 25.3175 20.5159Z" fill="#D9D9D9"/>
<path d="M25.3175 24.0079C25.3175 23.2847 24.7312 22.6984 24.0079 22.6984C23.2847 22.6984 22.6984 23.2847 22.6984 24.0079C22.6984 24.7312 23.2847 25.3175 24.0079 25.3175C24.7312 25.3175 25.3175 24.7312 25.3175 24.0079Z" fill="#D9D9D9"/>
<path d="M28.8095 6.54762C28.8095 5.82439 28.2232 5.2381 27.5 5.2381C26.7768 5.2381 26.1905 5.82439 26.1905 6.54762C26.1905 7.27085 26.7768 7.85714 27.5 7.85714C28.2232 7.85714 28.8095 7.27085 28.8095 6.54762Z" fill="#D9D9D9"/>
<path d="M28.8095 10.0397C28.8095 9.31645 28.2232 8.73016 27.5 8.73016C26.7768 8.73016 26.1905 9.31645 26.1905 10.0397C26.1905 10.7629 26.7768 11.3492 27.5 11.3492C28.2232 11.3492 28.8095 10.7629 28.8095 10.0397Z" fill="#D9D9D9"/>
<path d="M28.8095 13.5317C28.8095 12.8085 28.2232 12.2222 27.5 12.2222C26.7768 12.2222 26.1905 12.8085 26.1905 13.5317C26.1905 14.255 26.7768 14.8413 27.5 14.8413C28.2232 14.8413 28.8095 14.255 28.8095 13.5317Z" fill="#D9D9D9"/>
<path d="M28.8095 17.0238C28.8095 16.3006 28.2232 15.7143 27.5 15.7143C26.7768 15.7143 26.1905 16.3006 26.1905 17.0238C26.1905 17.747 26.7768 18.3333 27.5 18.3333C28.2232 18.3333 28.8095 17.747 28.8095 17.0238Z" fill="#D9D9D9"/>
<path d="M28.8095 20.5159C28.8095 19.7926 28.2232 19.2063 27.5 19.2063C26.7768 19.2063 26.1905 19.7926 26.1905 20.5159C26.1905 21.2391 26.7768 21.8254 27.5 21.8254C28.2232 21.8254 28.8095 21.2391 28.8095 20.5159Z" fill="#D9D9D9"/>
<path d="M28.8095 24.0079C28.8095 23.2847 28.2232 22.6984 27.5 22.6984C26.7768 22.6984 26.1905 23.2847 26.1905 24.0079C26.1905 24.7312 26.7768 25.3175 27.5 25.3175C28.2232 25.3175 28.8095 24.7312 28.8095 24.0079Z" fill="#D9D9D9"/>
<path d="M32.3016 6.54762C32.3016 5.82439 31.7153 5.2381 30.9921 5.2381C30.2688 5.2381 29.6825 5.82439 29.6825 6.54762C29.6825 7.27085 30.2688 7.85714 30.9921 7.85714C31.7153 7.85714 32.3016 7.27085 32.3016 6.54762Z" fill="#D9D9D9"/>
<path d="M32.3016 10.0397C32.3016 9.31645 31.7153 8.73016 30.9921 8.73016C30.2688 8.73016 29.6825 9.31645 29.6825 10.0397C29.6825 10.7629 30.2688 11.3492 30.9921 11.3492C31.7153 11.3492 32.3016 10.7629 32.3016 10.0397Z" fill="#D9D9D9"/>
<path d="M32.3016 13.5317C32.3016 12.8085 31.7153 12.2222 30.9921 12.2222C30.2688 12.2222 29.6825 12.8085 29.6825 13.5317C29.6825 14.255 30.2688 14.8413 30.9921 14.8413C31.7153 14.8413 32.3016 14.255 32.3016 13.5317Z" fill="#D9D9D9"/>
<path d="M32.3016 17.0238C32.3016 16.3006 31.7153 15.7143 30.9921 15.7143C30.2688 15.7143 29.6825 16.3006 29.6825 17.0238C29.6825 17.747 30.2688 18.3333 30.9921 18.3333C31.7153 18.3333 32.3016 17.747 32.3016 17.0238Z" fill="#D9D9D9"/>
<path d="M32.3016 20.5159C32.3016 19.7926 31.7153 19.2063 30.9921 19.2063C30.2688 19.2063 29.6825 19.7926 29.6825 20.5159C29.6825 21.2391 30.2688 21.8254 30.9921 21.8254C31.7153 21.8254 32.3016 21.2391 32.3016 20.5159Z" fill="#D9D9D9"/>
<path d="M32.3016 24.0079C32.3016 23.2847 31.7153 22.6984 30.9921 22.6984C30.2688 22.6984 29.6825 23.2847 29.6825 24.0079C29.6825 24.7312 30.2688 25.3175 30.9921 25.3175C31.7153 25.3175 32.3016 24.7312 32.3016 24.0079Z" fill="#D9D9D9"/>
<path d="M35.7937 6.54762C35.7937 5.82439 35.2074 5.2381 34.4841 5.2381C33.7609 5.2381 33.1746 5.82439 33.1746 6.54762C33.1746 7.27085 33.7609 7.85714 34.4841 7.85714C35.2074 7.85714 35.7937 7.27085 35.7937 6.54762Z" fill="#D9D9D9"/>
<path d="M35.7937 10.0397C35.7937 9.31645 35.2074 8.73016 34.4841 8.73016C33.7609 8.73016 33.1746 9.31645 33.1746 10.0397C33.1746 10.7629 33.7609 11.3492 34.4841 11.3492C35.2074 11.3492 35.7937 10.7629 35.7937 10.0397Z" fill="#D9D9D9"/>
<path d="M35.7937 13.5317C35.7937 12.8085 35.2074 12.2222 34.4841 12.2222C33.7609 12.2222 33.1746 12.8085 33.1746 13.5317C33.1746 14.255 33.7609 14.8413 34.4841 14.8413C35.2074 14.8413 35.7937 14.255 35.7937 13.5317Z" fill="#D9D9D9"/>
<path d="M35.7937 17.0238C35.7937 16.3006 35.2074 15.7143 34.4841 15.7143C33.7609 15.7143 33.1746 16.3006 33.1746 17.0238C33.1746 17.747 33.7609 18.3333 34.4841 18.3333C35.2074 18.3333 35.7937 17.747 35.7937 17.0238Z" fill="#D9D9D9"/>
<path d="M35.7937 20.5159C35.7937 19.7926 35.2074 19.2063 34.4841 19.2063C33.7609 19.2063 33.1746 19.7926 33.1746 20.5159C33.1746 21.2391 33.7609 21.8254 34.4841 21.8254C35.2074 21.8254 35.7937 21.2391 35.7937 20.5159Z" fill="#D9D9D9"/>
<path d="M35.7937 24.0079C35.7937 23.2847 35.2074 22.6984 34.4841 22.6984C33.7609 22.6984 33.1746 23.2847 33.1746 24.0079C33.1746 24.7312 33.7609 25.3175 34.4841 25.3175C35.2074 25.3175 35.7937 24.7312 35.7937 24.0079Z" fill="#D9D9D9"/>
<path d="M39.2857 6.54762C39.2857 5.82439 38.6994 5.2381 37.9762 5.2381C37.253 5.2381 36.6667 5.82439 36.6667 6.54762C36.6667 7.27085 37.253 7.85714 37.9762 7.85714C38.6994 7.85714 39.2857 7.27085 39.2857 6.54762Z" fill="#D9D9D9"/>
<path d="M39.2857 10.0397C39.2857 9.31645 38.6994 8.73016 37.9762 8.73016C37.253 8.73016 36.6667 9.31645 36.6667 10.0397C36.6667 10.7629 37.253 11.3492 37.9762 11.3492C38.6994 11.3492 39.2857 10.7629 39.2857 10.0397Z" fill="#D9D9D9"/>
<path d="M39.2857 13.5317C39.2857 12.8085 38.6994 12.2222 37.9762 12.2222C37.253 12.2222 36.6667 12.8085 36.6667 13.5317C36.6667 14.255 37.253 14.8413 37.9762 14.8413C38.6994 14.8413 39.2857 14.255 39.2857 13.5317Z" fill="#D9D9D9"/>
<path d="M39.2857 17.0238C39.2857 16.3006 38.6994 15.7143 37.9762 15.7143C37.253 15.7143 36.6667 16.3006 36.6667 17.0238C36.6667 17.747 37.253 18.3333 37.9762 18.3333C38.6994 18.3333 39.2857 17.747 39.2857 17.0238Z" fill="#D9D9D9"/>
<path d="M39.2857 20.5159C39.2857 19.7926 38.6994 19.2063 37.9762 19.2063C37.253 19.2063 36.6667 19.7926 36.6667 20.5159C36.6667 21.2391 37.253 21.8254 37.9762 21.8254C38.6994 21.8254 39.2857 21.2391 39.2857 20.5159Z" fill="#D9D9D9"/>
<path d="M39.2857 24.0079C39.2857 23.2847 38.6994 22.6984 37.9762 22.6984C37.253 22.6984 36.6667 23.2847 36.6667 24.0079C36.6667 24.7312 37.253 25.3175 37.9762 25.3175C38.6994 25.3175 39.2857 24.7312 39.2857 24.0079Z" fill="#D9D9D9"/>
<path d="M42.7778 6.54762C42.7778 5.82439 42.1915 5.2381 41.4683 5.2381C40.745 5.2381 40.1587 5.82439 40.1587 6.54762C40.1587 7.27085 40.745 7.85714 41.4683 7.85714C42.1915 7.85714 42.7778 7.27085 42.7778 6.54762Z" fill="#D9D9D9"/>
<path d="M42.7778 10.0397C42.7778 9.31645 42.1915 8.73016 41.4683 8.73016C40.745 8.73016 40.1587 9.31645 40.1587 10.0397C40.1587 10.7629 40.745 11.3492 41.4683 11.3492C42.1915 11.3492 42.7778 10.7629 42.7778 10.0397Z" fill="#D9D9D9"/>
<path d="M46.2698 10.0397C46.2698 9.31645 45.6835 8.73016 44.9603 8.73016C44.2371 8.73016 43.6508 9.31645 43.6508 10.0397C43.6508 10.7629 44.2371 11.3492 44.9603 11.3492C45.6835 11.3492 46.2698 10.7629 46.2698 10.0397Z" fill="#D9D9D9"/>
<path d="M8.73016 10.0397C8.73016 9.31645 9.31645 8.73016 10.0397 8.73016C10.7629 8.73016 11.3492 9.31645 11.3492 10.0397C11.3492 10.7629 10.7629 11.3492 10.0397 11.3492C9.31645 11.3492 8.73016 10.7629 8.73016 10.0397Z" fill="#D9D9D9"/>
<path d="M42.7778 13.5317C42.7778 12.8085 42.1915 12.2222 41.4683 12.2222C40.745 12.2222 40.1587 12.8085 40.1587 13.5317C40.1587 14.255 40.745 14.8413 41.4683 14.8413C42.1915 14.8413 42.7778 14.255 42.7778 13.5317Z" fill="#D9D9D9"/>
<path d="M46.2698 13.5317C46.2698 12.8085 45.6835 12.2222 44.9603 12.2222C44.2371 12.2222 43.6508 12.8085 43.6508 13.5317C43.6508 14.255 44.2371 14.8413 44.9603 14.8413C45.6835 14.8413 46.2698 14.255 46.2698 13.5317Z" fill="#D9D9D9"/>
<path d="M8.73016 13.5317C8.73016 12.8085 9.31645 12.2222 10.0397 12.2222C10.7629 12.2222 11.3492 12.8085 11.3492 13.5317C11.3492 14.255 10.7629 14.8413 10.0397 14.8413C9.31645 14.8413 8.73016 14.255 8.73016 13.5317Z" fill="#D9D9D9"/>
<path d="M49.7619 13.5317C49.7619 12.8085 49.1756 12.2222 48.4524 12.2222C47.7292 12.2222 47.1429 12.8085 47.1429 13.5317C47.1429 14.255 47.7292 14.8413 48.4524 14.8413C49.1756 14.8413 49.7619 14.255 49.7619 13.5317Z" fill="#D9D9D9"/>
<path d="M5.2381 13.5317C5.2381 12.8085 5.82439 12.2222 6.54762 12.2222C7.27085 12.2222 7.85714 12.8085 7.85714 13.5317C7.85714 14.255 7.27085 14.8413 6.54762 14.8413C5.82439 14.8413 5.2381 14.255 5.2381 13.5317Z" fill="#D9D9D9"/>
<path d="M42.7778 17.0238C42.7778 16.3006 42.1915 15.7143 41.4683 15.7143C40.745 15.7143 40.1587 16.3006 40.1587 17.0238C40.1587 17.747 40.745 18.3333 41.4683 18.3333C42.1915 18.3333 42.7778 17.747 42.7778 17.0238Z" fill="#D9D9D9"/>
<path d="M46.2698 17.0238C46.2698 16.3006 45.6835 15.7143 44.9603 15.7143C44.2371 15.7143 43.6508 16.3006 43.6508 17.0238C43.6508 17.747 44.2371 18.3333 44.9603 18.3333C45.6835 18.3333 46.2698 17.747 46.2698 17.0238Z" fill="#D9D9D9"/>
<path d="M8.73016 17.0238C8.73016 16.3006 9.31645 15.7143 10.0397 15.7143C10.7629 15.7143 11.3492 16.3006 11.3492 17.0238C11.3492 17.747 10.7629 18.3333 10.0397 18.3333C9.31645 18.3333 8.73016 17.747 8.73016 17.0238Z" fill="#D9D9D9"/>
<path d="M49.7619 17.0238C49.7619 16.3006 49.1756 15.7143 48.4524 15.7143C47.7292 15.7143 47.1429 16.3006 47.1429 17.0238C47.1429 17.747 47.7292 18.3333 48.4524 18.3333C49.1756 18.3333 49.7619 17.747 49.7619 17.0238Z" fill="#D9D9D9"/>
<path d="M5.2381 17.0238C5.2381 16.3006 5.82439 15.7143 6.54762 15.7143C7.27085 15.7143 7.85714 16.3006 7.85714 17.0238C7.85714 17.747 7.27085 18.3333 6.54762 18.3333C5.82439 18.3333 5.2381 17.747 5.2381 17.0238Z" fill="#D9D9D9"/>
<path d="M42.7778 20.5159C42.7778 19.7926 42.1915 19.2063 41.4683 19.2063C40.745 19.2063 40.1587 19.7926 40.1587 20.5159C40.1587 21.2391 40.745 21.8254 41.4683 21.8254C42.1915 21.8254 42.7778 21.2391 42.7778 20.5159Z" fill="#D9D9D9"/>
<path d="M46.2698 20.5159C46.2698 19.7926 45.6835 19.2063 44.9603 19.2063C44.2371 19.2063 43.6508 19.7926 43.6508 20.5159C43.6508 21.2391 44.2371 21.8254 44.9603 21.8254C45.6835 21.8254 46.2698 21.2391 46.2698 20.5159Z" fill="#D9D9D9"/>
<path d="M8.73016 20.5159C8.73016 19.7926 9.31645 19.2063 10.0397 19.2063C10.7629 19.2063 11.3492 19.7926 11.3492 20.5159C11.3492 21.2391 10.7629 21.8254 10.0397 21.8254C9.31645 21.8254 8.73016 21.2391 8.73016 20.5159Z" fill="#D9D9D9"/>
<path d="M49.7619 20.5159C49.7619 19.7926 49.1756 19.2063 48.4524 19.2063C47.7292 19.2063 47.1429 19.7926 47.1429 20.5159C47.1429 21.2391 47.7292 21.8254 48.4524 21.8254C49.1756 21.8254 49.7619 21.2391 49.7619 20.5159Z" fill="#D9D9D9"/>
<path d="M5.2381 20.5159C5.2381 19.7926 5.82439 19.2063 6.54762 19.2063C7.27085 19.2063 7.85714 19.7926 7.85714 20.5159C7.85714 21.2391 7.27085 21.8254 6.54762 21.8254C5.82439 21.8254 5.2381 21.2391 5.2381 20.5159Z" fill="#D9D9D9"/>
<path d="M42.7778 24.0079C42.7778 23.2847 42.1915 22.6984 41.4683 22.6984C40.745 22.6984 40.1587 23.2847 40.1587 24.0079C40.1587 24.7312 40.745 25.3175 41.4683 25.3175C42.1915 25.3175 42.7778 24.7312 42.7778 24.0079Z" fill="#D9D9D9"/>
<path d="M46.2698 24.0079C46.2698 23.2847 45.6835 22.6984 44.9603 22.6984C44.2371 22.6984 43.6508 23.2847 43.6508 24.0079C43.6508 24.7312 44.2371 25.3175 44.9603 25.3175C45.6835 25.3175 46.2698 24.7312 46.2698 24.0079Z" fill="#D9D9D9"/>
<path d="M8.73016 24.0079C8.73016 23.2847 9.31645 22.6984 10.0397 22.6984C10.7629 22.6984 11.3492 23.2847 11.3492 24.0079C11.3492 24.7312 10.7629 25.3175 10.0397 25.3175C9.31645 25.3175 8.73016 24.7312 8.73016 24.0079Z" fill="#D9D9D9"/>
<path d="M49.7619 24.0079C49.7619 23.2847 49.1756 22.6984 48.4524 22.6984C47.7292 22.6984 47.1429 23.2847 47.1429 24.0079C47.1429 24.7312 47.7292 25.3175 48.4524 25.3175C49.1756 25.3175 49.7619 24.7312 49.7619 24.0079Z" fill="#D9D9D9"/>
<path d="M5.2381 24.0079C5.2381 23.2847 5.82439 22.6984 6.54762 22.6984C7.27085 22.6984 7.85714 23.2847 7.85714 24.0079C7.85714 24.7312 7.27085 25.3175 6.54762 25.3175C5.82439 25.3175 5.2381 24.7312 5.2381 24.0079Z" fill="#D9D9D9"/>
<path d="M14.8413 48.4524C14.8413 49.1756 14.255 49.7619 13.5317 49.7619C12.8085 49.7619 12.2222 49.1756 12.2222 48.4524C12.2222 47.7292 12.8085 47.1429 13.5317 47.1429C14.255 47.1429 14.8413 47.7292 14.8413 48.4524Z" fill="#D9D9D9"/>
<path d="M14.8413 44.9603C14.8413 45.6835 14.255 46.2698 13.5317 46.2698C12.8085 46.2698 12.2222 45.6835 12.2222 44.9603C12.2222 44.2371 12.8085 43.6508 13.5317 43.6508C14.255 43.6508 14.8413 44.2371 14.8413 44.9603Z" fill="#D9D9D9"/>
<path d="M14.8413 41.4683C14.8413 42.1915 14.255 42.7778 13.5317 42.7778C12.8085 42.7778 12.2222 42.1915 12.2222 41.4683C12.2222 40.745 12.8085 40.1587 13.5317 40.1587C14.255 40.1587 14.8413 40.745 14.8413 41.4683Z" fill="#D9D9D9"/>
<path d="M14.8413 37.9762C14.8413 38.6994 14.255 39.2857 13.5317 39.2857C12.8085 39.2857 12.2222 38.6994 12.2222 37.9762C12.2222 37.253 12.8085 36.6667 13.5317 36.6667C14.255 36.6667 14.8413 37.253 14.8413 37.9762Z" fill="#D9D9D9"/>
<path d="M14.8413 34.4841C14.8413 35.2074 14.255 35.7937 13.5317 35.7937C12.8085 35.7937 12.2222 35.2074 12.2222 34.4841C12.2222 33.7609 12.8085 33.1746 13.5317 33.1746C14.255 33.1746 14.8413 33.7609 14.8413 34.4841Z" fill="#D9D9D9"/>
<path d="M14.8413 30.9921C14.8413 31.7153 14.255 32.3016 13.5317 32.3016C12.8085 32.3016 12.2222 31.7153 12.2222 30.9921C12.2222 30.2688 12.8085 29.6825 13.5317 29.6825C14.255 29.6825 14.8413 30.2688 14.8413 30.9921Z" fill="#D9D9D9"/>
<path d="M14.8413 27.5C14.8413 28.2232 14.255 28.8095 13.5317 28.8095C12.8085 28.8095 12.2222 28.2232 12.2222 27.5C12.2222 26.7768 12.8085 26.1905 13.5317 26.1905C14.255 26.1905 14.8413 26.7768 14.8413 27.5Z" fill="#D9D9D9"/>
<path d="M18.3333 48.4524C18.3333 49.1756 17.747 49.7619 17.0238 49.7619C16.3006 49.7619 15.7143 49.1756 15.7143 48.4524C15.7143 47.7292 16.3006 47.1429 17.0238 47.1429C17.747 47.1429 18.3333 47.7292 18.3333 48.4524Z" fill="#D9D9D9"/>
<path d="M18.3333 44.9603C18.3333 45.6835 17.747 46.2698 17.0238 46.2698C16.3006 46.2698 15.7143 45.6835 15.7143 44.9603C15.7143 44.2371 16.3006 43.6508 17.0238 43.6508C17.747 43.6508 18.3333 44.2371 18.3333 44.9603Z" fill="#D9D9D9"/>
<path d="M18.3333 41.4683C18.3333 42.1915 17.747 42.7778 17.0238 42.7778C16.3006 42.7778 15.7143 42.1915 15.7143 41.4683C15.7143 40.745 16.3006 40.1587 17.0238 40.1587C17.747 40.1587 18.3333 40.745 18.3333 41.4683Z" fill="#D9D9D9"/>
<path d="M18.3333 37.9762C18.3333 38.6994 17.747 39.2857 17.0238 39.2857C16.3006 39.2857 15.7143 38.6994 15.7143 37.9762C15.7143 37.253 16.3006 36.6667 17.0238 36.6667C17.747 36.6667 18.3333 37.253 18.3333 37.9762Z" fill="#D9D9D9"/>
<path d="M18.3333 34.4841C18.3333 35.2074 17.747 35.7937 17.0238 35.7937C16.3006 35.7937 15.7143 35.2074 15.7143 34.4841C15.7143 33.7609 16.3006 33.1746 17.0238 33.1746C17.747 33.1746 18.3333 33.7609 18.3333 34.4841Z" fill="#D9D9D9"/>
<path d="M18.3333 30.9921C18.3333 31.7153 17.747 32.3016 17.0238 32.3016C16.3006 32.3016 15.7143 31.7153 15.7143 30.9921C15.7143 30.2688 16.3006 29.6825 17.0238 29.6825C17.747 29.6825 18.3333 30.2688 18.3333 30.9921Z" fill="#D9D9D9"/>
<path d="M18.3333 27.5C18.3333 28.2232 17.747 28.8095 17.0238 28.8095C16.3006 28.8095 15.7143 28.2232 15.7143 27.5C15.7143 26.7768 16.3006 26.1905 17.0238 26.1905C17.747 26.1905 18.3333 26.7768 18.3333 27.5Z" fill="#D9D9D9"/>
<path d="M21.8254 48.4524C21.8254 49.1756 21.2391 49.7619 20.5159 49.7619C19.7926 49.7619 19.2063 49.1756 19.2063 48.4524C19.2063 47.7292 19.7926 47.1429 20.5159 47.1429C21.2391 47.1429 21.8254 47.7292 21.8254 48.4524Z" fill="#D9D9D9"/>
<path d="M21.8254 44.9603C21.8254 45.6835 21.2391 46.2698 20.5159 46.2698C19.7926 46.2698 19.2063 45.6835 19.2063 44.9603C19.2063 44.2371 19.7926 43.6508 20.5159 43.6508C21.2391 43.6508 21.8254 44.2371 21.8254 44.9603Z" fill="#D9D9D9"/>
<path d="M21.8254 41.4683C21.8254 42.1915 21.2391 42.7778 20.5159 42.7778C19.7926 42.7778 19.2063 42.1915 19.2063 41.4683C19.2063 40.745 19.7926 40.1587 20.5159 40.1587C21.2391 40.1587 21.8254 40.745 21.8254 41.4683Z" fill="#D9D9D9"/>
<path d="M21.8254 37.9762C21.8254 38.6994 21.2391 39.2857 20.5159 39.2857C19.7926 39.2857 19.2063 38.6994 19.2063 37.9762C19.2063 37.253 19.7926 36.6667 20.5159 36.6667C21.2391 36.6667 21.8254 37.253 21.8254 37.9762Z" fill="#D9D9D9"/>
<path d="M21.8254 34.4841C21.8254 35.2074 21.2391 35.7937 20.5159 35.7937C19.7926 35.7937 19.2063 35.2074 19.2063 34.4841C19.2063 33.7609 19.7926 33.1746 20.5159 33.1746C21.2391 33.1746 21.8254 33.7609 21.8254 34.4841Z" fill="#D9D9D9"/>
<path d="M21.8254 30.9921C21.8254 31.7153 21.2391 32.3016 20.5159 32.3016C19.7926 32.3016 19.2063 31.7153 19.2063 30.9921C19.2063 30.2688 19.7926 29.6825 20.5159 29.6825C21.2391 29.6825 21.8254 30.2688 21.8254 30.9921Z" fill="#D9D9D9"/>
<path d="M21.8254 27.5C21.8254 28.2232 21.2391 28.8095 20.5159 28.8095C19.7926 28.8095 19.2063 28.2232 19.2063 27.5C19.2063 26.7768 19.7926 26.1905 20.5159 26.1905C21.2391 26.1905 21.8254 26.7768 21.8254 27.5Z" fill="#D9D9D9"/>
<path d="M25.3175 48.4524C25.3175 49.1756 24.7312 49.7619 24.0079 49.7619C23.2847 49.7619 22.6984 49.1756 22.6984 48.4524C22.6984 47.7292 23.2847 47.1429 24.0079 47.1429C24.7312 47.1429 25.3175 47.7292 25.3175 48.4524Z" fill="#D9D9D9"/>
<path d="M25.3175 44.9603C25.3175 45.6835 24.7312 46.2698 24.0079 46.2698C23.2847 46.2698 22.6984 45.6835 22.6984 44.9603C22.6984 44.2371 23.2847 43.6508 24.0079 43.6508C24.7312 43.6508 25.3175 44.2371 25.3175 44.9603Z" fill="#D9D9D9"/>
<path d="M25.3175 41.4683C25.3175 42.1915 24.7312 42.7778 24.0079 42.7778C23.2847 42.7778 22.6984 42.1915 22.6984 41.4683C22.6984 40.745 23.2847 40.1587 24.0079 40.1587C24.7312 40.1587 25.3175 40.745 25.3175 41.4683Z" fill="#D9D9D9"/>
<path d="M25.3175 37.9762C25.3175 38.6994 24.7312 39.2857 24.0079 39.2857C23.2847 39.2857 22.6984 38.6994 22.6984 37.9762C22.6984 37.253 23.2847 36.6667 24.0079 36.6667C24.7312 36.6667 25.3175 37.253 25.3175 37.9762Z" fill="#D9D9D9"/>
<path d="M25.3175 34.4841C25.3175 35.2074 24.7312 35.7937 24.0079 35.7937C23.2847 35.7937 22.6984 35.2074 22.6984 34.4841C22.6984 33.7609 23.2847 33.1746 24.0079 33.1746C24.7312 33.1746 25.3175 33.7609 25.3175 34.4841Z" fill="#D9D9D9"/>
<path d="M25.3175 30.9921C25.3175 31.7153 24.7312 32.3016 24.0079 32.3016C23.2847 32.3016 22.6984 31.7153 22.6984 30.9921C22.6984 30.2688 23.2847 29.6825 24.0079 29.6825C24.7312 29.6825 25.3175 30.2688 25.3175 30.9921Z" fill="#D9D9D9"/>
<path d="M25.3175 27.5C25.3175 28.2232 24.7312 28.8095 24.0079 28.8095C23.2847 28.8095 22.6984 28.2232 22.6984 27.5C22.6984 26.7768 23.2847 26.1905 24.0079 26.1905C24.7312 26.1905 25.3175 26.7768 25.3175 27.5Z" fill="#D9D9D9"/>
<path d="M28.8095 48.4524C28.8095 49.1756 28.2232 49.7619 27.5 49.7619C26.7768 49.7619 26.1905 49.1756 26.1905 48.4524C26.1905 47.7292 26.7768 47.1429 27.5 47.1429C28.2232 47.1429 28.8095 47.7292 28.8095 48.4524Z" fill="#D9D9D9"/>
<path d="M28.8095 44.9603C28.8095 45.6835 28.2232 46.2698 27.5 46.2698C26.7768 46.2698 26.1905 45.6835 26.1905 44.9603C26.1905 44.2371 26.7768 43.6508 27.5 43.6508C28.2232 43.6508 28.8095 44.2371 28.8095 44.9603Z" fill="#D9D9D9"/>
<path d="M28.8095 41.4683C28.8095 42.1915 28.2232 42.7778 27.5 42.7778C26.7768 42.7778 26.1905 42.1915 26.1905 41.4683C26.1905 40.745 26.7768 40.1587 27.5 40.1587C28.2232 40.1587 28.8095 40.745 28.8095 41.4683Z" fill="#D9D9D9"/>
<path d="M28.8095 37.9762C28.8095 38.6994 28.2232 39.2857 27.5 39.2857C26.7768 39.2857 26.1905 38.6994 26.1905 37.9762C26.1905 37.253 26.7768 36.6667 27.5 36.6667C28.2232 36.6667 28.8095 37.253 28.8095 37.9762Z" fill="#D9D9D9"/>
<path d="M28.8095 34.4841C28.8095 35.2074 28.2232 35.7937 27.5 35.7937C26.7768 35.7937 26.1905 35.2074 26.1905 34.4841C26.1905 33.7609 26.7768 33.1746 27.5 33.1746C28.2232 33.1746 28.8095 33.7609 28.8095 34.4841Z" fill="#D9D9D9"/>
<path d="M28.8095 30.9921C28.8095 31.7153 28.2232 32.3016 27.5 32.3016C26.7768 32.3016 26.1905 31.7153 26.1905 30.9921C26.1905 30.2688 26.7768 29.6825 27.5 29.6825C28.2232 29.6825 28.8095 30.2688 28.8095 30.9921Z" fill="#D9D9D9"/>
<path d="M28.8095 27.5C28.8095 28.2232 28.2232 28.8095 27.5 28.8095C26.7768 28.8095 26.1905 28.2232 26.1905 27.5C26.1905 26.7768 26.7768 26.1905 27.5 26.1905C28.2232 26.1905 28.8095 26.7768 28.8095 27.5Z" fill="#D9D9D9"/>
<path d="M32.3016 48.4524C32.3016 49.1756 31.7153 49.7619 30.9921 49.7619C30.2688 49.7619 29.6825 49.1756 29.6825 48.4524C29.6825 47.7292 30.2688 47.1429 30.9921 47.1429C31.7153 47.1429 32.3016 47.7292 32.3016 48.4524Z" fill="#D9D9D9"/>
<path d="M32.3016 44.9603C32.3016 45.6835 31.7153 46.2698 30.9921 46.2698C30.2688 46.2698 29.6825 45.6835 29.6825 44.9603C29.6825 44.2371 30.2688 43.6508 30.9921 43.6508C31.7153 43.6508 32.3016 44.2371 32.3016 44.9603Z" fill="#D9D9D9"/>
<path d="M32.3016 41.4683C32.3016 42.1915 31.7153 42.7778 30.9921 42.7778C30.2688 42.7778 29.6825 42.1915 29.6825 41.4683C29.6825 40.745 30.2688 40.1587 30.9921 40.1587C31.7153 40.1587 32.3016 40.745 32.3016 41.4683Z" fill="#D9D9D9"/>
<path d="M32.3016 37.9762C32.3016 38.6994 31.7153 39.2857 30.9921 39.2857C30.2688 39.2857 29.6825 38.6994 29.6825 37.9762C29.6825 37.253 30.2688 36.6667 30.9921 36.6667C31.7153 36.6667 32.3016 37.253 32.3016 37.9762Z" fill="#D9D9D9"/>
<path d="M32.3016 34.4841C32.3016 35.2074 31.7153 35.7937 30.9921 35.7937C30.2688 35.7937 29.6825 35.2074 29.6825 34.4841C29.6825 33.7609 30.2688 33.1746 30.9921 33.1746C31.7153 33.1746 32.3016 33.7609 32.3016 34.4841Z" fill="#D9D9D9"/>
<path d="M32.3016 30.9921C32.3016 31.7153 31.7153 32.3016 30.9921 32.3016C30.2688 32.3016 29.6825 31.7153 29.6825 30.9921C29.6825 30.2688 30.2688 29.6825 30.9921 29.6825C31.7153 29.6825 32.3016 30.2688 32.3016 30.9921Z" fill="#D9D9D9"/>
<path d="M32.3016 27.5C32.3016 28.2232 31.7153 28.8095 30.9921 28.8095C30.2688 28.8095 29.6825 28.2232 29.6825 27.5C29.6825 26.7768 30.2688 26.1905 30.9921 26.1905C31.7153 26.1905 32.3016 26.7768 32.3016 27.5Z" fill="#D9D9D9"/>
<path d="M35.7937 48.4524C35.7937 49.1756 35.2074 49.7619 34.4841 49.7619C33.7609 49.7619 33.1746 49.1756 33.1746 48.4524C33.1746 47.7292 33.7609 47.1429 34.4841 47.1429C35.2074 47.1429 35.7937 47.7292 35.7937 48.4524Z" fill="#D9D9D9"/>
<path d="M35.7937 44.9603C35.7937 45.6835 35.2074 46.2698 34.4841 46.2698C33.7609 46.2698 33.1746 45.6835 33.1746 44.9603C33.1746 44.2371 33.7609 43.6508 34.4841 43.6508C35.2074 43.6508 35.7937 44.2371 35.7937 44.9603Z" fill="#D9D9D9"/>
<path d="M35.7937 41.4683C35.7937 42.1915 35.2074 42.7778 34.4841 42.7778C33.7609 42.7778 33.1746 42.1915 33.1746 41.4683C33.1746 40.745 33.7609 40.1587 34.4841 40.1587C35.2074 40.1587 35.7937 40.745 35.7937 41.4683Z" fill="#D9D9D9"/>
<path d="M35.7937 37.9762C35.7937 38.6994 35.2074 39.2857 34.4841 39.2857C33.7609 39.2857 33.1746 38.6994 33.1746 37.9762C33.1746 37.253 33.7609 36.6667 34.4841 36.6667C35.2074 36.6667 35.7937 37.253 35.7937 37.9762Z" fill="#D9D9D9"/>
<path d="M35.7937 34.4841C35.7937 35.2074 35.2074 35.7937 34.4841 35.7937C33.7609 35.7937 33.1746 35.2074 33.1746 34.4841C33.1746 33.7609 33.7609 33.1746 34.4841 33.1746C35.2074 33.1746 35.7937 33.7609 35.7937 34.4841Z" fill="#D9D9D9"/>
<path d="M35.7937 30.9921C35.7937 31.7153 35.2074 32.3016 34.4841 32.3016C33.7609 32.3016 33.1746 31.7153 33.1746 30.9921C33.1746 30.2688 33.7609 29.6825 34.4841 29.6825C35.2074 29.6825 35.7937 30.2688 35.7937 30.9921Z" fill="#D9D9D9"/>
<path d="M35.7937 27.5C35.7937 28.2232 35.2074 28.8095 34.4841 28.8095C33.7609 28.8095 33.1746 28.2232 33.1746 27.5C33.1746 26.7768 33.7609 26.1905 34.4841 26.1905C35.2074 26.1905 35.7937 26.7768 35.7937 27.5Z" fill="#D9D9D9"/>
<path d="M39.2857 48.4524C39.2857 49.1756 38.6994 49.7619 37.9762 49.7619C37.253 49.7619 36.6667 49.1756 36.6667 48.4524C36.6667 47.7292 37.253 47.1429 37.9762 47.1429C38.6994 47.1429 39.2857 47.7292 39.2857 48.4524Z" fill="#D9D9D9"/>
<path d="M39.2857 44.9603C39.2857 45.6835 38.6994 46.2698 37.9762 46.2698C37.253 46.2698 36.6667 45.6835 36.6667 44.9603C36.6667 44.2371 37.253 43.6508 37.9762 43.6508C38.6994 43.6508 39.2857 44.2371 39.2857 44.9603Z" fill="#D9D9D9"/>
<path d="M39.2857 41.4683C39.2857 42.1915 38.6994 42.7778 37.9762 42.7778C37.253 42.7778 36.6667 42.1915 36.6667 41.4683C36.6667 40.745 37.253 40.1587 37.9762 40.1587C38.6994 40.1587 39.2857 40.745 39.2857 41.4683Z" fill="#D9D9D9"/>
<path d="M39.2857 37.9762C39.2857 38.6994 38.6994 39.2857 37.9762 39.2857C37.253 39.2857 36.6667 38.6994 36.6667 37.9762C36.6667 37.253 37.253 36.6667 37.9762 36.6667C38.6994 36.6667 39.2857 37.253 39.2857 37.9762Z" fill="#D9D9D9"/>
<path d="M39.2857 34.4841C39.2857 35.2074 38.6994 35.7937 37.9762 35.7937C37.253 35.7937 36.6667 35.2074 36.6667 34.4841C36.6667 33.7609 37.253 33.1746 37.9762 33.1746C38.6994 33.1746 39.2857 33.7609 39.2857 34.4841Z" fill="#D9D9D9"/>
<path d="M39.2857 30.9921C39.2857 31.7153 38.6994 32.3016 37.9762 32.3016C37.253 32.3016 36.6667 31.7153 36.6667 30.9921C36.6667 30.2688 37.253 29.6825 37.9762 29.6825C38.6994 29.6825 39.2857 30.2688 39.2857 30.9921Z" fill="#D9D9D9"/>
<path d="M39.2857 27.5C39.2857 28.2232 38.6994 28.8095 37.9762 28.8095C37.253 28.8095 36.6667 28.2232 36.6667 27.5C36.6667 26.7768 37.253 26.1905 37.9762 26.1905C38.6994 26.1905 39.2857 26.7768 39.2857 27.5Z" fill="#D9D9D9"/>
<path d="M42.7778 48.4524C42.7778 49.1756 42.1915 49.7619 41.4683 49.7619C40.745 49.7619 40.1587 49.1756 40.1587 48.4524C40.1587 47.7292 40.745 47.1429 41.4683 47.1429C42.1915 47.1429 42.7778 47.7292 42.7778 48.4524Z" fill="#D9D9D9"/>
<path d="M42.7778 44.9603C42.7778 45.6835 42.1915 46.2698 41.4683 46.2698C40.745 46.2698 40.1587 45.6835 40.1587 44.9603C40.1587 44.2371 40.745 43.6508 41.4683 43.6508C42.1915 43.6508 42.7778 44.2371 42.7778 44.9603Z" fill="#D9D9D9"/>
<path d="M46.2698 44.9603C46.2698 45.6835 45.6835 46.2698 44.9603 46.2698C44.2371 46.2698 43.6508 45.6835 43.6508 44.9603C43.6508 44.2371 44.2371 43.6508 44.9603 43.6508C45.6835 43.6508 46.2698 44.2371 46.2698 44.9603Z" fill="#D9D9D9"/>
<path d="M8.73016 44.9603C8.73016 45.6835 9.31645 46.2698 10.0397 46.2698C10.7629 46.2698 11.3492 45.6835 11.3492 44.9603C11.3492 44.2371 10.7629 43.6508 10.0397 43.6508C9.31645 43.6508 8.73016 44.2371 8.73016 44.9603Z" fill="#D9D9D9"/>
<path d="M42.7778 41.4683C42.7778 42.1915 42.1915 42.7778 41.4683 42.7778C40.745 42.7778 40.1587 42.1915 40.1587 41.4683C40.1587 40.745 40.745 40.1587 41.4683 40.1587C42.1915 40.1587 42.7778 40.745 42.7778 41.4683Z" fill="#D9D9D9"/>
<path d="M46.2698 41.4683C46.2698 42.1915 45.6835 42.7778 44.9603 42.7778C44.2371 42.7778 43.6508 42.1915 43.6508 41.4683C43.6508 40.745 44.2371 40.1587 44.9603 40.1587C45.6835 40.1587 46.2698 40.745 46.2698 41.4683Z" fill="#D9D9D9"/>
<path d="M8.73016 41.4683C8.73016 42.1915 9.31645 42.7778 10.0397 42.7778C10.7629 42.7778 11.3492 42.1915 11.3492 41.4683C11.3492 40.745 10.7629 40.1587 10.0397 40.1587C9.31645 40.1587 8.73016 40.745 8.73016 41.4683Z" fill="#D9D9D9"/>
<path d="M49.7619 41.4683C49.7619 42.1915 49.1756 42.7778 48.4524 42.7778C47.7292 42.7778 47.1429 42.1915 47.1429 41.4683C47.1429 40.745 47.7292 40.1587 48.4524 40.1587C49.1756 40.1587 49.7619 40.745 49.7619 41.4683Z" fill="#D9D9D9"/>
<path d="M5.2381 41.4683C5.2381 42.1915 5.82439 42.7778 6.54762 42.7778C7.27085 42.7778 7.85714 42.1915 7.85714 41.4683C7.85714 40.745 7.27085 40.1587 6.54762 40.1587C5.82439 40.1587 5.2381 40.745 5.2381 41.4683Z" fill="#D9D9D9"/>
<path d="M42.7778 37.9762C42.7778 38.6994 42.1915 39.2857 41.4683 39.2857C40.745 39.2857 40.1587 38.6994 40.1587 37.9762C40.1587 37.253 40.745 36.6667 41.4683 36.6667C42.1915 36.6667 42.7778 37.253 42.7778 37.9762Z" fill="#D9D9D9"/>
<path d="M46.2698 37.9762C46.2698 38.6994 45.6835 39.2857 44.9603 39.2857C44.2371 39.2857 43.6508 38.6994 43.6508 37.9762C43.6508 37.253 44.2371 36.6667 44.9603 36.6667C45.6835 36.6667 46.2698 37.253 46.2698 37.9762Z" fill="#D9D9D9"/>
<path d="M8.73016 37.9762C8.73016 38.6994 9.31645 39.2857 10.0397 39.2857C10.7629 39.2857 11.3492 38.6994 11.3492 37.9762C11.3492 37.253 10.7629 36.6667 10.0397 36.6667C9.31645 36.6667 8.73016 37.253 8.73016 37.9762Z" fill="#D9D9D9"/>
<path d="M49.7619 37.9762C49.7619 38.6994 49.1756 39.2857 48.4524 39.2857C47.7292 39.2857 47.1429 38.6994 47.1429 37.9762C47.1429 37.253 47.7292 36.6667 48.4524 36.6667C49.1756 36.6667 49.7619 37.253 49.7619 37.9762Z" fill="#D9D9D9"/>
<path d="M5.2381 37.9762C5.2381 38.6994 5.82439 39.2857 6.54762 39.2857C7.27085 39.2857 7.85714 38.6994 7.85714 37.9762C7.85714 37.253 7.27085 36.6667 6.54762 36.6667C5.82439 36.6667 5.2381 37.253 5.2381 37.9762Z" fill="#D9D9D9"/>
<path d="M42.7778 34.4841C42.7778 35.2074 42.1915 35.7937 41.4683 35.7937C40.745 35.7937 40.1587 35.2074 40.1587 34.4841C40.1587 33.7609 40.745 33.1746 41.4683 33.1746C42.1915 33.1746 42.7778 33.7609 42.7778 34.4841Z" fill="#D9D9D9"/>
<path d="M46.2698 34.4841C46.2698 35.2074 45.6835 35.7937 44.9603 35.7937C44.2371 35.7937 43.6508 35.2074 43.6508 34.4841C43.6508 33.7609 44.2371 33.1746 44.9603 33.1746C45.6835 33.1746 46.2698 33.7609 46.2698 34.4841Z" fill="#D9D9D9"/>
<path d="M8.73016 34.4841C8.73016 35.2074 9.31645 35.7937 10.0397 35.7937C10.7629 35.7937 11.3492 35.2074 11.3492 34.4841C11.3492 33.7609 10.7629 33.1746 10.0397 33.1746C9.31645 33.1746 8.73016 33.7609 8.73016 34.4841Z" fill="#D9D9D9"/>
<path d="M49.7619 34.4841C49.7619 35.2074 49.1756 35.7937 48.4524 35.7937C47.7292 35.7937 47.1429 35.2074 47.1429 34.4841C47.1429 33.7609 47.7292 33.1746 48.4524 33.1746C49.1756 33.1746 49.7619 33.7609 49.7619 34.4841Z" fill="#D9D9D9"/>
<path d="M5.2381 34.4841C5.2381 35.2074 5.82439 35.7937 6.54762 35.7937C7.27085 35.7937 7.85714 35.2074 7.85714 34.4841C7.85714 33.7609 7.27085 33.1746 6.54762 33.1746C5.82439 33.1746 5.2381 33.7609 5.2381 34.4841Z" fill="#D9D9D9"/>
<path d="M42.7778 30.9921C42.7778 31.7153 42.1915 32.3016 41.4683 32.3016C40.745 32.3016 40.1587 31.7153 40.1587 30.9921C40.1587 30.2688 40.745 29.6825 41.4683 29.6825C42.1915 29.6825 42.7778 30.2688 42.7778 30.9921Z" fill="#D9D9D9"/>
<path d="M46.2698 30.9921C46.2698 31.7153 45.6835 32.3016 44.9603 32.3016C44.2371 32.3016 43.6508 31.7153 43.6508 30.9921C43.6508 30.2688 44.2371 29.6825 44.9603 29.6825C45.6835 29.6825 46.2698 30.2688 46.2698 30.9921Z" fill="#D9D9D9"/>
<path d="M8.73016 30.9921C8.73016 31.7153 9.31645 32.3016 10.0397 32.3016C10.7629 32.3016 11.3492 31.7153 11.3492 30.9921C11.3492 30.2688 10.7629 29.6825 10.0397 29.6825C9.31645 29.6825 8.73016 30.2688 8.73016 30.9921Z" fill="#D9D9D9"/>
<path d="M49.7619 30.9921C49.7619 31.7153 49.1756 32.3016 48.4524 32.3016C47.7292 32.3016 47.1429 31.7153 47.1429 30.9921C47.1429 30.2688 47.7292 29.6825 48.4524 29.6825C49.1756 29.6825 49.7619 30.2688 49.7619 30.9921Z" fill="#D9D9D9"/>
<path d="M5.2381 30.9921C5.2381 31.7153 5.82439 32.3016 6.54762 32.3016C7.27085 32.3016 7.85714 31.7153 7.85714 30.9921C7.85714 30.2688 7.27085 29.6825 6.54762 29.6825C5.82439 29.6825 5.2381 30.2688 5.2381 30.9921Z" fill="#D9D9D9"/>
<path d="M42.7778 27.5C42.7778 28.2232 42.1915 28.8095 41.4683 28.8095C40.745 28.8095 40.1587 28.2232 40.1587 27.5C40.1587 26.7768 40.745 26.1905 41.4683 26.1905C42.1915 26.1905 42.7778 26.7768 42.7778 27.5Z" fill="#D9D9D9"/>
<path d="M46.2698 27.5C46.2698 28.2232 45.6835 28.8095 44.9603 28.8095C44.2371 28.8095 43.6508 28.2232 43.6508 27.5C43.6508 26.7768 44.2371 26.1905 44.9603 26.1905C45.6835 26.1905 46.2698 26.7768 46.2698 27.5Z" fill="#D9D9D9"/>
<path d="M8.73016 27.5C8.73016 28.2232 9.31645 28.8095 10.0397 28.8095C10.7629 28.8095 11.3492 28.2232 11.3492 27.5C11.3492 26.7768 10.7629 26.1905 10.0397 26.1905C9.31645 26.1905 8.73016 26.7768 8.73016 27.5Z" fill="#D9D9D9"/>
<path d="M49.7619 27.5C49.7619 28.2232 49.1756 28.8095 48.4524 28.8095C47.7292 28.8095 47.1429 28.2232 47.1429 27.5C47.1429 26.7768 47.7292 26.1905 48.4524 26.1905C49.1756 26.1905 49.7619 26.7768 49.7619 27.5Z" fill="#D9D9D9"/>
<path d="M5.2381 27.5C5.2381 28.2232 5.82439 28.8095 6.54762 28.8095C7.27085 28.8095 7.85714 28.2232 7.85714 27.5C7.85714 26.7768 7.27085 26.1905 6.54762 26.1905C5.82439 26.1905 5.2381 26.7768 5.2381 27.5Z" fill="#D9D9D9"/>
</svg>
