<svg width="40" height="50" viewBox="0 0 40 50" fill="none" xmlns="http://www.w3.org/2000/svg">
<path fill-rule="evenodd" clip-rule="evenodd" d="M14.7592 44.7884C14.8456 43.8591 16.8319 39.3951 17.2571 37.7622C14.9944 36.998 13.2472 34.0489 13.8808 31.2044C15.2306 25.1439 23.8552 25.3071 25.1666 31.2044C25.8511 34.285 23.8312 37.0633 21.7903 37.7641C22.0696 38.823 22.6552 40.213 23.0728 41.2863C23.3311 41.9497 24.2316 44.1971 24.2863 44.7903L14.7602 44.7884H14.7592ZM26.4453 21.7234C21.1173 21.7234 15.6866 21.6207 10.371 21.733C10.42 18.5314 9.98224 14.2709 11.1323 11.5483C13.6552 5.57327 21.1499 4.61615 25.2127 7.98959C27.0444 9.5112 28.516 11.6098 28.6744 15.1435L34.6975 15.1359C34.6581 9.804 31.9317 5.71919 29.356 3.57934C21.9227 -2.59443 11.1266 -0.384507 6.62223 7.16591C3.14798 12.9883 4.8299 16.3714 4.31246 21.6667C2.77838 22.1938 2.79374 21.7791 1.54285 22.8562C0.937093 23.3775 0.301572 24.252 0.134531 25.4357C-0.140029 27.3836 0.090371 31.2361 0.092291 33.3826C0.095171 36.0457 0.0990106 38.7087 0.100931 41.3718C0.102851 44.0665 -0.30515 46.4377 1.16749 48.2761C2.53646 49.9859 4.9883 49.7583 7.67439 49.7583L31.6389 49.7497C34.4834 49.7497 36.5973 49.9686 37.997 48.1263C39.3775 46.311 38.9599 43.6815 38.957 41.1049C38.9541 38.4418 38.9484 35.7788 38.9484 33.1157C38.9465 28.5144 40.3212 21.8136 34.4412 21.7215C31.7906 21.6792 29.1016 21.7224 26.4463 21.7224L26.4453 21.7234Z" fill="white"/>
</svg>
