<?xml version="1.0" encoding="UTF-8"?>
<!DOCTYPE svg PUBLIC "-//W3C//DTD SVG 1.1//EN" "http://www.w3.org/Graphics/SVG/1.1/DTD/svg11.dtd">
<!-- Creator: CorelDRAW -->
<svg xmlns="http://www.w3.org/2000/svg" xml:space="preserve" width="0.787402in" height="0.787402in" version="1.1" style="shape-rendering:geometricPrecision; text-rendering:geometricPrecision; image-rendering:optimizeQuality; fill-rule:evenodd; clip-rule:evenodd"
viewBox="0 0 787.4 787.4"
 xmlns:xlink="http://www.w3.org/1999/xlink"
 xmlns:xodm="http://www.corel.com/coreldraw/odm/2003">
 <defs>
  <style type="text/css">
   <![CDATA[
    .fil0 {fill:black}
    .fil1 {fill:black;fill-opacity:0.678431}
   ]]>
  </style>
 </defs>
 <g id="Layer_x0020_1">
  <metadata id="CorelCorpID_0Corel-Layer"/>
  <g id="_2505786073072">
   <path class="fil0" d="M204.8 124.02l371.87 0c47.69,0 86.71,39.02 86.71,86.71l0 371.87c0,47.69 -39.02,86.71 -86.71,86.71l-371.87 0c-47.69,0 -86.71,-39.02 -86.71,-86.71l0 -371.87c0,-47.69 39.02,-86.71 86.71,-86.71zm400.37 -41.78l-428.86 0c-55,0 -100,45 -100,100l0 428.86c0,55 45,100 100,100l428.86 0c55,0 100,-45 100,-100l0 -428.86c0,-55 -45,-100 -100,-100z"/>
   <path class="fil0" d="M461.13 263.73c0,-35.15 28.5,-63.65 63.66,-63.65 35.15,0 63.65,28.5 63.65,63.65 0,35.16 -28.5,63.66 -63.65,63.66 -35.16,0 -63.66,-28.5 -63.66,-63.66zm155.93 0c0,-50.95 -41.31,-92.26 -92.26,-92.26 -50.96,0 -92.27,41.31 -92.27,92.26 0,50.96 41.31,92.27 92.27,92.27 50.95,0 92.26,-41.31 92.26,-92.27z"/>
   <path class="fil1" d="M275 497.31c-49.99,26.09 -120.79,70.67 -151.96,114.1 21.67,51.72 59.92,57.9 81.76,57.9l371.87 0c47.69,0 86.71,-39.02 86.71,-86.71l0 -103.06c-43.29,16.77 -124.77,83.77 -150.49,106.68 -46.35,41.28 -52.2,78.7 -88.5,52.97 -29.55,-20.94 -79.61,-84.74 -93.05,-97.54 -23.1,-21.99 -32.95,-56.56 -56.34,-44.35z"/>
  </g>
 </g>
</svg>
