<svg width="549" height="549" viewBox="0 0 549 549" fill="none" xmlns="http://www.w3.org/2000/svg">
<g filter="url(#filter0_biiiiii_203_166)">
<path d="M86.4179 309.658C71.1332 295.721 73.6508 268.073 92.0412 247.904L230.988 95.5147C249.378 75.3452 276.677 70.2923 291.962 84.2287L462.04 239.305C477.325 253.241 474.808 280.889 456.417 301.059L317.47 453.448C299.08 473.617 271.781 478.67 256.496 464.734L86.4179 309.658Z" fill="black" fill-opacity="0.01"/>
</g>
<g filter="url(#filter1_i_203_166)">
<g clip-path="url(#clip0_203_166)">
<rect x="37.0094" y="284.982" width="335.575" height="335.575" rx="120" transform="rotate(-47.6417 37.0094 284.982)" fill="#A8A8A8" fill-opacity="0.05"/>
<g filter="url(#filter2_b_203_166)">
<mask id="path-3-inside-1_203_166" fill="white">
<path d="M55.851 264.317L303.823 490.416L284.981 511.08L37.0094 284.982L55.851 264.317Z"/>
</mask>
<path d="M55.851 264.317L303.823 490.416L284.981 511.08L37.0094 284.982L55.851 264.317Z" fill="url(#paint0_linear_203_166)" fill-opacity="0.2" style="mix-blend-mode:overlay"/>
<path d="M290.372 505.169L42.3995 279.07L31.6193 290.893L279.591 516.992L290.372 505.169Z" fill="white" fill-opacity="0.2" style="mix-blend-mode:overlay" mask="url(#path-3-inside-1_203_166)"/>
</g>
<g filter="url(#filter3_b_203_166)">
<mask id="path-5-inside-2_203_166" fill="white">
<path d="M74.6925 243.653L322.665 469.752L303.823 490.416L55.8509 264.317L74.6925 243.653Z"/>
</mask>
<path d="M74.6925 243.653L322.665 469.752L303.823 490.416L55.8509 264.317L74.6925 243.653Z" fill="url(#paint1_linear_203_166)" fill-opacity="0.2" style="mix-blend-mode:overlay"/>
<path d="M309.213 484.504L61.2411 258.406L50.4608 270.229L298.433 496.328L309.213 484.504Z" fill="white" fill-opacity="0.2" style="mix-blend-mode:overlay" mask="url(#path-5-inside-2_203_166)"/>
</g>
<g filter="url(#filter4_b_203_166)">
<mask id="path-7-inside-3_203_166" fill="white">
<path d="M93.5341 222.989L341.506 449.087L322.665 469.752L74.6925 243.653L93.5341 222.989Z"/>
</mask>
<path d="M93.5341 222.989L341.506 449.087L322.665 469.752L74.6925 243.653L93.5341 222.989Z" fill="url(#paint2_linear_203_166)" fill-opacity="0.2" style="mix-blend-mode:overlay"/>
<path d="M328.055 463.84L80.0826 237.741L69.3024 249.564L317.274 475.663L328.055 463.84Z" fill="white" fill-opacity="0.2" style="mix-blend-mode:overlay" mask="url(#path-7-inside-3_203_166)"/>
</g>
<g filter="url(#filter5_b_203_166)">
<mask id="path-9-inside-4_203_166" fill="white">
<path d="M112.376 202.324L360.348 428.423L341.506 449.087L93.534 222.989L112.376 202.324Z"/>
</mask>
<path d="M112.376 202.324L360.348 428.423L341.506 449.087L93.534 222.989L112.376 202.324Z" fill="url(#paint3_linear_203_166)" fill-opacity="0.2" style="mix-blend-mode:overlay"/>
<path d="M346.896 443.176L98.9242 217.077L88.1439 228.9L336.116 454.999L346.896 443.176Z" fill="white" fill-opacity="0.2" style="mix-blend-mode:overlay" mask="url(#path-9-inside-4_203_166)"/>
</g>
<g filter="url(#filter6_b_203_166)">
<mask id="path-11-inside-5_203_166" fill="white">
<path d="M131.217 181.66L379.189 407.759L360.348 428.423L112.376 202.324L131.217 181.66Z"/>
</mask>
<path d="M131.217 181.66L379.189 407.759L360.348 428.423L112.376 202.324L131.217 181.66Z" fill="url(#paint4_linear_203_166)" fill-opacity="0.2" style="mix-blend-mode:overlay"/>
<path d="M365.738 422.511L117.766 196.413L106.985 208.236L354.958 434.334L365.738 422.511Z" fill="white" fill-opacity="0.2" style="mix-blend-mode:overlay" mask="url(#path-11-inside-5_203_166)"/>
</g>
<g filter="url(#filter7_b_203_166)">
<mask id="path-13-inside-6_203_166" fill="white">
<path d="M150.059 160.995L398.031 387.094L379.189 407.759L131.217 181.66L150.059 160.995Z"/>
</mask>
<path d="M150.059 160.995L398.031 387.094L379.189 407.759L131.217 181.66L150.059 160.995Z" fill="url(#paint5_linear_203_166)" fill-opacity="0.2" style="mix-blend-mode:overlay"/>
<path d="M384.579 401.847L136.607 175.748L125.827 187.571L373.799 413.67L384.579 401.847Z" fill="white" fill-opacity="0.2" style="mix-blend-mode:overlay" mask="url(#path-13-inside-6_203_166)"/>
</g>
<g filter="url(#filter8_b_203_166)">
<mask id="path-15-inside-7_203_166" fill="white">
<path d="M168.9 140.331L416.872 366.43L398.031 387.094L150.059 160.996L168.9 140.331Z"/>
</mask>
<path d="M168.9 140.331L416.872 366.43L398.031 387.094L150.059 160.996L168.9 140.331Z" fill="url(#paint6_linear_203_166)" fill-opacity="0.2" style="mix-blend-mode:overlay"/>
<path d="M403.421 381.183L155.449 155.084L144.669 166.907L392.641 393.006L403.421 381.183Z" fill="white" fill-opacity="0.2" style="mix-blend-mode:overlay" mask="url(#path-15-inside-7_203_166)"/>
</g>
<g filter="url(#filter9_b_203_166)">
<mask id="path-17-inside-8_203_166" fill="white">
<path d="M187.742 119.667L435.714 345.766L416.872 366.43L168.9 140.331L187.742 119.667Z"/>
</mask>
<path d="M187.742 119.667L435.714 345.766L416.872 366.43L168.9 140.331L187.742 119.667Z" fill="url(#paint7_linear_203_166)" fill-opacity="0.2" style="mix-blend-mode:overlay"/>
<path d="M422.263 360.518L174.29 134.42L163.51 146.243L411.482 372.341L422.263 360.518Z" fill="white" fill-opacity="0.2" style="mix-blend-mode:overlay" mask="url(#path-17-inside-8_203_166)"/>
</g>
<g filter="url(#filter10_b_203_166)">
<mask id="path-19-inside-9_203_166" fill="white">
<path d="M206.583 99.0024L454.556 325.101L435.714 345.766L187.742 119.667L206.583 99.0024Z"/>
</mask>
<path d="M206.583 99.0024L454.556 325.101L435.714 345.766L187.742 119.667L206.583 99.0024Z" fill="url(#paint8_linear_203_166)" fill-opacity="0.2" style="mix-blend-mode:overlay"/>
<path d="M441.104 339.854L193.132 113.755L182.352 125.578L430.324 351.677L441.104 339.854Z" fill="white" fill-opacity="0.2" style="mix-blend-mode:overlay" mask="url(#path-19-inside-9_203_166)"/>
</g>
<g filter="url(#filter11_b_203_166)">
<mask id="path-21-inside-10_203_166" fill="white">
<path d="M225.425 78.3381L473.397 304.437L454.556 325.101L206.583 99.0025L225.425 78.3381Z"/>
</mask>
<path d="M225.425 78.3381L473.397 304.437L454.556 325.101L206.583 99.0025L225.425 78.3381Z" fill="url(#paint9_linear_203_166)" fill-opacity="0.2" style="mix-blend-mode:overlay"/>
<path d="M459.946 319.19L211.974 93.0909L201.193 104.914L449.165 331.013L459.946 319.19Z" fill="white" fill-opacity="0.2" style="mix-blend-mode:overlay" mask="url(#path-21-inside-10_203_166)"/>
</g>
<g filter="url(#filter12_b_203_166)">
<mask id="path-23-inside-11_203_166" fill="white">
<path d="M244.267 57.6738L492.239 283.772L473.397 304.437L225.425 78.3381L244.267 57.6738Z"/>
</mask>
<path d="M244.267 57.6738L492.239 283.772L473.397 304.437L225.425 78.3381L244.267 57.6738Z" fill="url(#paint10_linear_203_166)" fill-opacity="0.2" style="mix-blend-mode:overlay"/>
<path d="M478.787 298.525L230.815 72.4265L220.035 84.2497L468.007 310.348L478.787 298.525Z" fill="white" fill-opacity="0.2" style="mix-blend-mode:overlay" mask="url(#path-23-inside-11_203_166)"/>
</g>
<g filter="url(#filter13_b_203_166)">
<mask id="path-25-inside-12_203_166" fill="white">
<path d="M263.108 37.0095L511.08 263.108L492.239 283.773L244.267 57.6738L263.108 37.0095Z"/>
</mask>
<path d="M263.108 37.0095L511.08 263.108L492.239 283.773L244.267 57.6738L263.108 37.0095Z" fill="url(#paint11_linear_203_166)" fill-opacity="0.2" style="mix-blend-mode:overlay"/>
<path d="M497.629 277.861L249.657 51.7622L238.876 63.5854L486.849 289.684L497.629 277.861Z" fill="white" fill-opacity="0.2" style="mix-blend-mode:overlay" mask="url(#path-25-inside-12_203_166)"/>
</g>
</g>
</g>
<g filter="url(#filter14_i_203_166)">
<g clip-path="url(#clip1_203_166)">
<rect x="432.072" y="229.833" width="231.852" height="231.852" rx="115.926" transform="rotate(119.358 432.072 229.833)" fill="#A8A8A8" fill-opacity="0.05"/>
<g filter="url(#filter15_b_203_166)">
<mask id="path-28-inside-13_203_166" fill="white">
<path d="M422.6 246.672L220.524 133.002L229.997 116.163L432.072 229.833L422.6 246.672Z"/>
</mask>
<path d="M422.6 246.672L220.524 133.002L229.997 116.163L432.072 229.833L422.6 246.672Z" fill="url(#paint12_linear_203_166)" fill-opacity="0.2" style="mix-blend-mode:overlay"/>
<path d="M226.074 123.135L428.15 236.805L435.994 222.86L233.919 109.19L226.074 123.135Z" fill="white" fill-opacity="0.2" style="mix-blend-mode:overlay" mask="url(#path-28-inside-13_203_166)"/>
</g>
<g filter="url(#filter16_b_203_166)">
<mask id="path-30-inside-14_203_166" fill="white">
<path d="M413.127 263.512L211.052 149.842L220.524 133.002L422.6 246.672L413.127 263.512Z"/>
</mask>
<path d="M413.127 263.512L211.052 149.842L220.524 133.002L422.6 246.672L413.127 263.512Z" fill="url(#paint13_linear_203_166)" fill-opacity="0.2" style="mix-blend-mode:overlay"/>
<path d="M216.602 139.975L418.677 253.645L426.522 239.7L224.446 126.03L216.602 139.975Z" fill="white" fill-opacity="0.2" style="mix-blend-mode:overlay" mask="url(#path-30-inside-14_203_166)"/>
</g>
<g filter="url(#filter17_b_203_166)">
<mask id="path-32-inside-15_203_166" fill="white">
<path d="M403.655 280.352L201.579 166.682L211.051 149.842L413.127 263.512L403.655 280.352Z"/>
</mask>
<path d="M403.655 280.352L201.579 166.682L211.051 149.842L413.127 263.512L403.655 280.352Z" fill="url(#paint14_linear_203_166)" fill-opacity="0.2" style="mix-blend-mode:overlay"/>
<path d="M207.129 156.815L409.205 270.485L417.049 256.539L214.974 142.869L207.129 156.815Z" fill="white" fill-opacity="0.2" style="mix-blend-mode:overlay" mask="url(#path-32-inside-15_203_166)"/>
</g>
<g filter="url(#filter18_b_203_166)">
<mask id="path-34-inside-16_203_166" fill="white">
<path d="M394.182 297.191L192.107 183.521L201.579 166.682L403.655 280.352L394.182 297.191Z"/>
</mask>
<path d="M394.182 297.191L192.107 183.521L201.579 166.682L403.655 280.352L394.182 297.191Z" fill="url(#paint15_linear_203_166)" fill-opacity="0.2" style="mix-blend-mode:overlay"/>
<path d="M197.657 173.654L399.732 287.324L407.577 273.379L205.501 159.709L197.657 173.654Z" fill="white" fill-opacity="0.2" style="mix-blend-mode:overlay" mask="url(#path-34-inside-16_203_166)"/>
</g>
<g filter="url(#filter19_b_203_166)">
<mask id="path-36-inside-17_203_166" fill="white">
<path d="M384.71 314.031L182.634 200.361L192.107 183.521L394.182 297.191L384.71 314.031Z"/>
</mask>
<path d="M384.71 314.031L182.634 200.361L192.107 183.521L394.182 297.191L384.71 314.031Z" fill="url(#paint16_linear_203_166)" fill-opacity="0.2" style="mix-blend-mode:overlay"/>
<path d="M188.184 190.494L390.26 304.164L398.104 290.219L196.029 176.549L188.184 190.494Z" fill="white" fill-opacity="0.2" style="mix-blend-mode:overlay" mask="url(#path-36-inside-17_203_166)"/>
</g>
<g filter="url(#filter20_b_203_166)">
<mask id="path-38-inside-18_203_166" fill="white">
<path d="M375.237 330.87L173.162 217.201L182.634 200.361L384.71 314.031L375.237 330.87Z"/>
</mask>
<path d="M375.237 330.87L173.162 217.201L182.634 200.361L384.71 314.031L375.237 330.87Z" fill="url(#paint17_linear_203_166)" fill-opacity="0.2" style="mix-blend-mode:overlay"/>
<path d="M178.712 207.333L380.787 321.003L388.632 307.058L186.556 193.388L178.712 207.333Z" fill="white" fill-opacity="0.2" style="mix-blend-mode:overlay" mask="url(#path-38-inside-18_203_166)"/>
</g>
<g filter="url(#filter21_b_203_166)">
<mask id="path-40-inside-19_203_166" fill="white">
<path d="M365.765 347.71L163.689 234.04L173.162 217.201L375.237 330.871L365.765 347.71Z"/>
</mask>
<path d="M365.765 347.71L163.689 234.04L173.162 217.201L375.237 330.871L365.765 347.71Z" fill="url(#paint18_linear_203_166)" fill-opacity="0.2" style="mix-blend-mode:overlay"/>
<path d="M169.239 224.173L371.315 337.843L379.159 323.898L177.084 210.228L169.239 224.173Z" fill="white" fill-opacity="0.2" style="mix-blend-mode:overlay" mask="url(#path-40-inside-19_203_166)"/>
</g>
<g filter="url(#filter22_b_203_166)">
<mask id="path-42-inside-20_203_166" fill="white">
<path d="M356.292 364.55L154.217 250.88L163.689 234.04L365.765 347.71L356.292 364.55Z"/>
</mask>
<path d="M356.292 364.55L154.217 250.88L163.689 234.04L365.765 347.71L356.292 364.55Z" fill="url(#paint19_linear_203_166)" fill-opacity="0.2" style="mix-blend-mode:overlay"/>
<path d="M159.767 241.013L361.842 354.683L369.687 340.738L167.611 227.068L159.767 241.013Z" fill="white" fill-opacity="0.2" style="mix-blend-mode:overlay" mask="url(#path-42-inside-20_203_166)"/>
</g>
<g filter="url(#filter23_b_203_166)">
<mask id="path-44-inside-21_203_166" fill="white">
<path d="M346.82 381.389L144.744 267.719L154.217 250.88L356.292 364.55L346.82 381.389Z"/>
</mask>
<path d="M346.82 381.389L144.744 267.719L154.217 250.88L356.292 364.55L346.82 381.389Z" fill="url(#paint20_linear_203_166)" fill-opacity="0.2" style="mix-blend-mode:overlay"/>
<path d="M150.294 257.852L352.37 371.522L360.214 357.577L158.139 243.907L150.294 257.852Z" fill="white" fill-opacity="0.2" style="mix-blend-mode:overlay" mask="url(#path-44-inside-21_203_166)"/>
</g>
<g filter="url(#filter24_b_203_166)">
<mask id="path-46-inside-22_203_166" fill="white">
<path d="M337.347 398.229L135.272 284.559L144.744 267.719L346.82 381.389L337.347 398.229Z"/>
</mask>
<path d="M337.347 398.229L135.272 284.559L144.744 267.719L346.82 381.389L337.347 398.229Z" fill="url(#paint21_linear_203_166)" fill-opacity="0.2" style="mix-blend-mode:overlay"/>
<path d="M140.822 274.692L342.898 388.362L350.742 374.417L148.666 260.747L140.822 274.692Z" fill="white" fill-opacity="0.2" style="mix-blend-mode:overlay" mask="url(#path-46-inside-22_203_166)"/>
</g>
<g filter="url(#filter25_b_203_166)">
<mask id="path-48-inside-23_203_166" fill="white">
<path d="M327.875 415.069L125.799 301.399L135.272 284.559L337.347 398.229L327.875 415.069Z"/>
</mask>
<path d="M327.875 415.069L125.799 301.399L135.272 284.559L337.347 398.229L327.875 415.069Z" fill="url(#paint22_linear_203_166)" fill-opacity="0.2" style="mix-blend-mode:overlay"/>
<path d="M131.349 291.532L333.425 405.202L341.269 391.256L139.194 277.586L131.349 291.532Z" fill="white" fill-opacity="0.2" style="mix-blend-mode:overlay" mask="url(#path-48-inside-23_203_166)"/>
</g>
<g filter="url(#filter26_b_203_166)">
<mask id="path-50-inside-24_203_166" fill="white">
<path d="M318.402 431.908L116.327 318.238L125.799 301.399L327.875 415.069L318.402 431.908Z"/>
</mask>
<path d="M318.402 431.908L116.327 318.238L125.799 301.399L327.875 415.069L318.402 431.908Z" fill="url(#paint23_linear_203_166)" fill-opacity="0.2" style="mix-blend-mode:overlay"/>
<path d="M121.877 308.371L323.953 422.041L331.797 408.096L129.721 294.426L121.877 308.371Z" fill="white" fill-opacity="0.2" style="mix-blend-mode:overlay" mask="url(#path-50-inside-24_203_166)"/>
</g>
</g>
</g>
<g filter="url(#filter27_biiiiii_203_166)">
<rect x="380.821" y="380.537" width="213.548" height="213.548" rx="106.774" transform="rotate(-180 380.821 380.537)" fill="white" fill-opacity="0.01"/>
</g>
<path fill-rule="evenodd" clip-rule="evenodd" d="M290.039 416.652L342.085 116.659L238.533 412.941L390.278 148.908L191.387 391.875L424.529 195.649L154.287 355.997L440.705 251.245L131.709 309.632L436.857 308.99L126.376 258.374L413.448 361.918L138.931 208.405L373.302 403.647L167.859 165.752L321.261 429.142L209.672 135.559L263.602 435.329L259.326 121.469L207.279 421.462L310.832 125.18L159.087 389.213L357.978 146.246L124.836 342.472L395.077 182.125L108.66 286.876L417.655 228.489L112.508 229.131L422.989 279.747L135.917 176.203L410.434 329.716L176.063 134.474L381.506 372.369L228.104 108.979L339.693 402.562L285.763 102.792L290.039 416.652Z" stroke="#9C7BFF" stroke-width="0.377953" stroke-miterlimit="22.9256" stroke-dasharray="0.38 0.38"/>
<defs>
<filter id="filter0_biiiiii_203_166" x="-23.5828" y="-23.6453" width="595.624" height="596.253" filterUnits="userSpaceOnUse" color-interpolation-filters="sRGB">
<feFlood flood-opacity="0" result="BackgroundImageFix"/>
<feGaussianBlur in="BackgroundImageFix" stdDeviation="50"/>
<feComposite in2="SourceAlpha" operator="in" result="effect1_backgroundBlur_203_166"/>
<feBlend mode="normal" in="SourceGraphic" in2="effect1_backgroundBlur_203_166" result="shape"/>
<feColorMatrix in="SourceAlpha" type="matrix" values="0 0 0 0 0 0 0 0 0 0 0 0 0 0 0 0 0 0 127 0" result="hardAlpha"/>
<feOffset dy="1"/>
<feGaussianBlur stdDeviation="20"/>
<feComposite in2="hardAlpha" operator="arithmetic" k2="-1" k3="1"/>
<feColorMatrix type="matrix" values="0 0 0 0 0.890196 0 0 0 0 0.929412 0 0 0 0 0.937255 0 0 0 0.2 0"/>
<feBlend mode="normal" in2="shape" result="effect2_innerShadow_203_166"/>
<feColorMatrix in="SourceAlpha" type="matrix" values="0 0 0 0 0 0 0 0 0 0 0 0 0 0 0 0 0 0 127 0" result="hardAlpha"/>
<feOffset dy="4"/>
<feGaussianBlur stdDeviation="9"/>
<feComposite in2="hardAlpha" operator="arithmetic" k2="-1" k3="1"/>
<feColorMatrix type="matrix" values="0 0 0 0 0.603922 0 0 0 0 0.572549 0 0 0 0 0.823529 0 0 0 0.3 0"/>
<feBlend mode="normal" in2="effect2_innerShadow_203_166" result="effect3_innerShadow_203_166"/>
<feColorMatrix in="SourceAlpha" type="matrix" values="0 0 0 0 0 0 0 0 0 0 0 0 0 0 0 0 0 0 127 0" result="hardAlpha"/>
<feOffset dy="98"/>
<feGaussianBlur stdDeviation="50"/>
<feComposite in2="hardAlpha" operator="arithmetic" k2="-1" k3="1"/>
<feColorMatrix type="matrix" values="0 0 0 0 0.792157 0 0 0 0 0.67451 0 0 0 0 1 0 0 0 0.3 0"/>
<feBlend mode="normal" in2="effect3_innerShadow_203_166" result="effect4_innerShadow_203_166"/>
<feColorMatrix in="SourceAlpha" type="matrix" values="0 0 0 0 0 0 0 0 0 0 0 0 0 0 0 0 0 0 127 0" result="hardAlpha"/>
<feOffset dy="-82"/>
<feGaussianBlur stdDeviation="34"/>
<feComposite in2="hardAlpha" operator="arithmetic" k2="-1" k3="1"/>
<feColorMatrix type="matrix" values="0 0 0 0 0.376471 0 0 0 0 0.266667 0 0 0 0 0.564706 0 0 0 0.3 0"/>
<feBlend mode="normal" in2="effect4_innerShadow_203_166" result="effect5_innerShadow_203_166"/>
<feColorMatrix in="SourceAlpha" type="matrix" values="0 0 0 0 0 0 0 0 0 0 0 0 0 0 0 0 0 0 127 0" result="hardAlpha"/>
<feOffset dy="7"/>
<feGaussianBlur stdDeviation="5.5"/>
<feComposite in2="hardAlpha" operator="arithmetic" k2="-1" k3="1"/>
<feColorMatrix type="matrix" values="0 0 0 0 1 0 0 0 0 1 0 0 0 0 1 0 0 0 1 0"/>
<feBlend mode="normal" in2="effect5_innerShadow_203_166" result="effect6_innerShadow_203_166"/>
<feColorMatrix in="SourceAlpha" type="matrix" values="0 0 0 0 0 0 0 0 0 0 0 0 0 0 0 0 0 0 127 0" result="hardAlpha"/>
<feOffset dy="39"/>
<feGaussianBlur stdDeviation="28"/>
<feComposite in2="hardAlpha" operator="arithmetic" k2="-1" k3="1"/>
<feColorMatrix type="matrix" values="0 0 0 0 1 0 0 0 0 1 0 0 0 0 1 0 0 0 0.5 0"/>
<feBlend mode="normal" in2="effect6_innerShadow_203_166" result="effect7_innerShadow_203_166"/>
</filter>
<filter id="filter1_i_203_166" x="37.0094" y="37.0095" width="478.071" height="478.071" filterUnits="userSpaceOnUse" color-interpolation-filters="sRGB">
<feFlood flood-opacity="0" result="BackgroundImageFix"/>
<feBlend mode="normal" in="SourceGraphic" in2="BackgroundImageFix" result="shape"/>
<feColorMatrix in="SourceAlpha" type="matrix" values="0 0 0 0 0 0 0 0 0 0 0 0 0 0 0 0 0 0 127 0" result="hardAlpha"/>
<feOffset dx="8" dy="8"/>
<feGaussianBlur stdDeviation="2"/>
<feComposite in2="hardAlpha" operator="arithmetic" k2="-1" k3="1"/>
<feColorMatrix type="matrix" values="0 0 0 0 1 0 0 0 0 1 0 0 0 0 1 0 0 0 0.3 0"/>
<feBlend mode="overlay" in2="shape" result="effect1_innerShadow_203_166"/>
</filter>
<filter id="filter2_b_203_166" x="-362.991" y="-135.683" width="1066.81" height="1046.76" filterUnits="userSpaceOnUse" color-interpolation-filters="sRGB">
<feFlood flood-opacity="0" result="BackgroundImageFix"/>
<feGaussianBlur in="BackgroundImageFix" stdDeviation="200"/>
<feComposite in2="SourceAlpha" operator="in" result="effect1_backgroundBlur_203_166"/>
<feBlend mode="normal" in="SourceGraphic" in2="effect1_backgroundBlur_203_166" result="shape"/>
</filter>
<filter id="filter3_b_203_166" x="-344.149" y="-156.347" width="1066.81" height="1046.76" filterUnits="userSpaceOnUse" color-interpolation-filters="sRGB">
<feFlood flood-opacity="0" result="BackgroundImageFix"/>
<feGaussianBlur in="BackgroundImageFix" stdDeviation="200"/>
<feComposite in2="SourceAlpha" operator="in" result="effect1_backgroundBlur_203_166"/>
<feBlend mode="normal" in="SourceGraphic" in2="effect1_backgroundBlur_203_166" result="shape"/>
</filter>
<filter id="filter4_b_203_166" x="-325.307" y="-177.011" width="1066.81" height="1046.76" filterUnits="userSpaceOnUse" color-interpolation-filters="sRGB">
<feFlood flood-opacity="0" result="BackgroundImageFix"/>
<feGaussianBlur in="BackgroundImageFix" stdDeviation="200"/>
<feComposite in2="SourceAlpha" operator="in" result="effect1_backgroundBlur_203_166"/>
<feBlend mode="normal" in="SourceGraphic" in2="effect1_backgroundBlur_203_166" result="shape"/>
</filter>
<filter id="filter5_b_203_166" x="-306.466" y="-197.676" width="1066.81" height="1046.76" filterUnits="userSpaceOnUse" color-interpolation-filters="sRGB">
<feFlood flood-opacity="0" result="BackgroundImageFix"/>
<feGaussianBlur in="BackgroundImageFix" stdDeviation="200"/>
<feComposite in2="SourceAlpha" operator="in" result="effect1_backgroundBlur_203_166"/>
<feBlend mode="normal" in="SourceGraphic" in2="effect1_backgroundBlur_203_166" result="shape"/>
</filter>
<filter id="filter6_b_203_166" x="-287.624" y="-218.34" width="1066.81" height="1046.76" filterUnits="userSpaceOnUse" color-interpolation-filters="sRGB">
<feFlood flood-opacity="0" result="BackgroundImageFix"/>
<feGaussianBlur in="BackgroundImageFix" stdDeviation="200"/>
<feComposite in2="SourceAlpha" operator="in" result="effect1_backgroundBlur_203_166"/>
<feBlend mode="normal" in="SourceGraphic" in2="effect1_backgroundBlur_203_166" result="shape"/>
</filter>
<filter id="filter7_b_203_166" x="-268.783" y="-239.005" width="1066.81" height="1046.76" filterUnits="userSpaceOnUse" color-interpolation-filters="sRGB">
<feFlood flood-opacity="0" result="BackgroundImageFix"/>
<feGaussianBlur in="BackgroundImageFix" stdDeviation="200"/>
<feComposite in2="SourceAlpha" operator="in" result="effect1_backgroundBlur_203_166"/>
<feBlend mode="normal" in="SourceGraphic" in2="effect1_backgroundBlur_203_166" result="shape"/>
</filter>
<filter id="filter8_b_203_166" x="-249.941" y="-259.669" width="1066.81" height="1046.76" filterUnits="userSpaceOnUse" color-interpolation-filters="sRGB">
<feFlood flood-opacity="0" result="BackgroundImageFix"/>
<feGaussianBlur in="BackgroundImageFix" stdDeviation="200"/>
<feComposite in2="SourceAlpha" operator="in" result="effect1_backgroundBlur_203_166"/>
<feBlend mode="normal" in="SourceGraphic" in2="effect1_backgroundBlur_203_166" result="shape"/>
</filter>
<filter id="filter9_b_203_166" x="-231.1" y="-280.333" width="1066.81" height="1046.76" filterUnits="userSpaceOnUse" color-interpolation-filters="sRGB">
<feFlood flood-opacity="0" result="BackgroundImageFix"/>
<feGaussianBlur in="BackgroundImageFix" stdDeviation="200"/>
<feComposite in2="SourceAlpha" operator="in" result="effect1_backgroundBlur_203_166"/>
<feBlend mode="normal" in="SourceGraphic" in2="effect1_backgroundBlur_203_166" result="shape"/>
</filter>
<filter id="filter10_b_203_166" x="-212.258" y="-300.998" width="1066.81" height="1046.76" filterUnits="userSpaceOnUse" color-interpolation-filters="sRGB">
<feFlood flood-opacity="0" result="BackgroundImageFix"/>
<feGaussianBlur in="BackgroundImageFix" stdDeviation="200"/>
<feComposite in2="SourceAlpha" operator="in" result="effect1_backgroundBlur_203_166"/>
<feBlend mode="normal" in="SourceGraphic" in2="effect1_backgroundBlur_203_166" result="shape"/>
</filter>
<filter id="filter11_b_203_166" x="-193.417" y="-321.662" width="1066.81" height="1046.76" filterUnits="userSpaceOnUse" color-interpolation-filters="sRGB">
<feFlood flood-opacity="0" result="BackgroundImageFix"/>
<feGaussianBlur in="BackgroundImageFix" stdDeviation="200"/>
<feComposite in2="SourceAlpha" operator="in" result="effect1_backgroundBlur_203_166"/>
<feBlend mode="normal" in="SourceGraphic" in2="effect1_backgroundBlur_203_166" result="shape"/>
</filter>
<filter id="filter12_b_203_166" x="-174.575" y="-342.326" width="1066.81" height="1046.76" filterUnits="userSpaceOnUse" color-interpolation-filters="sRGB">
<feFlood flood-opacity="0" result="BackgroundImageFix"/>
<feGaussianBlur in="BackgroundImageFix" stdDeviation="200"/>
<feComposite in2="SourceAlpha" operator="in" result="effect1_backgroundBlur_203_166"/>
<feBlend mode="normal" in="SourceGraphic" in2="effect1_backgroundBlur_203_166" result="shape"/>
</filter>
<filter id="filter13_b_203_166" x="-155.733" y="-362.991" width="1066.81" height="1046.76" filterUnits="userSpaceOnUse" color-interpolation-filters="sRGB">
<feFlood flood-opacity="0" result="BackgroundImageFix"/>
<feGaussianBlur in="BackgroundImageFix" stdDeviation="200"/>
<feComposite in2="SourceAlpha" operator="in" result="effect1_backgroundBlur_203_166"/>
<feBlend mode="normal" in="SourceGraphic" in2="effect1_backgroundBlur_203_166" result="shape"/>
</filter>
<filter id="filter14_i_203_166" x="116.327" y="116.163" width="319.745" height="319.745" filterUnits="userSpaceOnUse" color-interpolation-filters="sRGB">
<feFlood flood-opacity="0" result="BackgroundImageFix"/>
<feBlend mode="normal" in="SourceGraphic" in2="BackgroundImageFix" result="shape"/>
<feColorMatrix in="SourceAlpha" type="matrix" values="0 0 0 0 0 0 0 0 0 0 0 0 0 0 0 0 0 0 127 0" result="hardAlpha"/>
<feOffset dx="8" dy="8"/>
<feGaussianBlur stdDeviation="2"/>
<feComposite in2="hardAlpha" operator="arithmetic" k2="-1" k3="1"/>
<feColorMatrix type="matrix" values="0 0 0 0 1 0 0 0 0 1 0 0 0 0 1 0 0 0 0.3 0"/>
<feBlend mode="overlay" in2="shape" result="effect1_innerShadow_203_166"/>
</filter>
<filter id="filter15_b_203_166" x="-179.476" y="-283.837" width="1011.55" height="930.51" filterUnits="userSpaceOnUse" color-interpolation-filters="sRGB">
<feFlood flood-opacity="0" result="BackgroundImageFix"/>
<feGaussianBlur in="BackgroundImageFix" stdDeviation="200"/>
<feComposite in2="SourceAlpha" operator="in" result="effect1_backgroundBlur_203_166"/>
<feBlend mode="normal" in="SourceGraphic" in2="effect1_backgroundBlur_203_166" result="shape"/>
</filter>
<filter id="filter16_b_203_166" x="-188.948" y="-266.998" width="1011.55" height="930.51" filterUnits="userSpaceOnUse" color-interpolation-filters="sRGB">
<feFlood flood-opacity="0" result="BackgroundImageFix"/>
<feGaussianBlur in="BackgroundImageFix" stdDeviation="200"/>
<feComposite in2="SourceAlpha" operator="in" result="effect1_backgroundBlur_203_166"/>
<feBlend mode="normal" in="SourceGraphic" in2="effect1_backgroundBlur_203_166" result="shape"/>
</filter>
<filter id="filter17_b_203_166" x="-198.421" y="-250.158" width="1011.55" height="930.51" filterUnits="userSpaceOnUse" color-interpolation-filters="sRGB">
<feFlood flood-opacity="0" result="BackgroundImageFix"/>
<feGaussianBlur in="BackgroundImageFix" stdDeviation="200"/>
<feComposite in2="SourceAlpha" operator="in" result="effect1_backgroundBlur_203_166"/>
<feBlend mode="normal" in="SourceGraphic" in2="effect1_backgroundBlur_203_166" result="shape"/>
</filter>
<filter id="filter18_b_203_166" x="-207.893" y="-233.318" width="1011.55" height="930.51" filterUnits="userSpaceOnUse" color-interpolation-filters="sRGB">
<feFlood flood-opacity="0" result="BackgroundImageFix"/>
<feGaussianBlur in="BackgroundImageFix" stdDeviation="200"/>
<feComposite in2="SourceAlpha" operator="in" result="effect1_backgroundBlur_203_166"/>
<feBlend mode="normal" in="SourceGraphic" in2="effect1_backgroundBlur_203_166" result="shape"/>
</filter>
<filter id="filter19_b_203_166" x="-217.366" y="-216.479" width="1011.55" height="930.51" filterUnits="userSpaceOnUse" color-interpolation-filters="sRGB">
<feFlood flood-opacity="0" result="BackgroundImageFix"/>
<feGaussianBlur in="BackgroundImageFix" stdDeviation="200"/>
<feComposite in2="SourceAlpha" operator="in" result="effect1_backgroundBlur_203_166"/>
<feBlend mode="normal" in="SourceGraphic" in2="effect1_backgroundBlur_203_166" result="shape"/>
</filter>
<filter id="filter20_b_203_166" x="-226.839" y="-199.639" width="1011.55" height="930.51" filterUnits="userSpaceOnUse" color-interpolation-filters="sRGB">
<feFlood flood-opacity="0" result="BackgroundImageFix"/>
<feGaussianBlur in="BackgroundImageFix" stdDeviation="200"/>
<feComposite in2="SourceAlpha" operator="in" result="effect1_backgroundBlur_203_166"/>
<feBlend mode="normal" in="SourceGraphic" in2="effect1_backgroundBlur_203_166" result="shape"/>
</filter>
<filter id="filter21_b_203_166" x="-236.311" y="-182.799" width="1011.55" height="930.51" filterUnits="userSpaceOnUse" color-interpolation-filters="sRGB">
<feFlood flood-opacity="0" result="BackgroundImageFix"/>
<feGaussianBlur in="BackgroundImageFix" stdDeviation="200"/>
<feComposite in2="SourceAlpha" operator="in" result="effect1_backgroundBlur_203_166"/>
<feBlend mode="normal" in="SourceGraphic" in2="effect1_backgroundBlur_203_166" result="shape"/>
</filter>
<filter id="filter22_b_203_166" x="-245.783" y="-165.96" width="1011.55" height="930.51" filterUnits="userSpaceOnUse" color-interpolation-filters="sRGB">
<feFlood flood-opacity="0" result="BackgroundImageFix"/>
<feGaussianBlur in="BackgroundImageFix" stdDeviation="200"/>
<feComposite in2="SourceAlpha" operator="in" result="effect1_backgroundBlur_203_166"/>
<feBlend mode="normal" in="SourceGraphic" in2="effect1_backgroundBlur_203_166" result="shape"/>
</filter>
<filter id="filter23_b_203_166" x="-255.256" y="-149.12" width="1011.55" height="930.51" filterUnits="userSpaceOnUse" color-interpolation-filters="sRGB">
<feFlood flood-opacity="0" result="BackgroundImageFix"/>
<feGaussianBlur in="BackgroundImageFix" stdDeviation="200"/>
<feComposite in2="SourceAlpha" operator="in" result="effect1_backgroundBlur_203_166"/>
<feBlend mode="normal" in="SourceGraphic" in2="effect1_backgroundBlur_203_166" result="shape"/>
</filter>
<filter id="filter24_b_203_166" x="-264.728" y="-132.281" width="1011.55" height="930.51" filterUnits="userSpaceOnUse" color-interpolation-filters="sRGB">
<feFlood flood-opacity="0" result="BackgroundImageFix"/>
<feGaussianBlur in="BackgroundImageFix" stdDeviation="200"/>
<feComposite in2="SourceAlpha" operator="in" result="effect1_backgroundBlur_203_166"/>
<feBlend mode="normal" in="SourceGraphic" in2="effect1_backgroundBlur_203_166" result="shape"/>
</filter>
<filter id="filter25_b_203_166" x="-274.201" y="-115.441" width="1011.55" height="930.51" filterUnits="userSpaceOnUse" color-interpolation-filters="sRGB">
<feFlood flood-opacity="0" result="BackgroundImageFix"/>
<feGaussianBlur in="BackgroundImageFix" stdDeviation="200"/>
<feComposite in2="SourceAlpha" operator="in" result="effect1_backgroundBlur_203_166"/>
<feBlend mode="normal" in="SourceGraphic" in2="effect1_backgroundBlur_203_166" result="shape"/>
</filter>
<filter id="filter26_b_203_166" x="-283.673" y="-98.6014" width="1011.55" height="930.51" filterUnits="userSpaceOnUse" color-interpolation-filters="sRGB">
<feFlood flood-opacity="0" result="BackgroundImageFix"/>
<feGaussianBlur in="BackgroundImageFix" stdDeviation="200"/>
<feComposite in2="SourceAlpha" operator="in" result="effect1_backgroundBlur_203_166"/>
<feBlend mode="normal" in="SourceGraphic" in2="effect1_backgroundBlur_203_166" result="shape"/>
</filter>
<filter id="filter27_biiiiii_203_166" x="67.2726" y="66.9886" width="413.548" height="413.548" filterUnits="userSpaceOnUse" color-interpolation-filters="sRGB">
<feFlood flood-opacity="0" result="BackgroundImageFix"/>
<feGaussianBlur in="BackgroundImageFix" stdDeviation="50"/>
<feComposite in2="SourceAlpha" operator="in" result="effect1_backgroundBlur_203_166"/>
<feBlend mode="normal" in="SourceGraphic" in2="effect1_backgroundBlur_203_166" result="shape"/>
<feColorMatrix in="SourceAlpha" type="matrix" values="0 0 0 0 0 0 0 0 0 0 0 0 0 0 0 0 0 0 127 0" result="hardAlpha"/>
<feOffset dy="1"/>
<feGaussianBlur stdDeviation="20"/>
<feComposite in2="hardAlpha" operator="arithmetic" k2="-1" k3="1"/>
<feColorMatrix type="matrix" values="0 0 0 0 0.890196 0 0 0 0 0.929412 0 0 0 0 0.937255 0 0 0 0.2 0"/>
<feBlend mode="normal" in2="shape" result="effect2_innerShadow_203_166"/>
<feColorMatrix in="SourceAlpha" type="matrix" values="0 0 0 0 0 0 0 0 0 0 0 0 0 0 0 0 0 0 127 0" result="hardAlpha"/>
<feOffset dy="4"/>
<feGaussianBlur stdDeviation="9"/>
<feComposite in2="hardAlpha" operator="arithmetic" k2="-1" k3="1"/>
<feColorMatrix type="matrix" values="0 0 0 0 0.603922 0 0 0 0 0.572549 0 0 0 0 0.823529 0 0 0 0.3 0"/>
<feBlend mode="normal" in2="effect2_innerShadow_203_166" result="effect3_innerShadow_203_166"/>
<feColorMatrix in="SourceAlpha" type="matrix" values="0 0 0 0 0 0 0 0 0 0 0 0 0 0 0 0 0 0 127 0" result="hardAlpha"/>
<feOffset dy="98"/>
<feGaussianBlur stdDeviation="50"/>
<feComposite in2="hardAlpha" operator="arithmetic" k2="-1" k3="1"/>
<feColorMatrix type="matrix" values="0 0 0 0 0.792157 0 0 0 0 0.67451 0 0 0 0 1 0 0 0 0.3 0"/>
<feBlend mode="normal" in2="effect3_innerShadow_203_166" result="effect4_innerShadow_203_166"/>
<feColorMatrix in="SourceAlpha" type="matrix" values="0 0 0 0 0 0 0 0 0 0 0 0 0 0 0 0 0 0 127 0" result="hardAlpha"/>
<feOffset dy="-82"/>
<feGaussianBlur stdDeviation="34"/>
<feComposite in2="hardAlpha" operator="arithmetic" k2="-1" k3="1"/>
<feColorMatrix type="matrix" values="0 0 0 0 0.376471 0 0 0 0 0.266667 0 0 0 0 0.564706 0 0 0 0.3 0"/>
<feBlend mode="normal" in2="effect4_innerShadow_203_166" result="effect5_innerShadow_203_166"/>
<feColorMatrix in="SourceAlpha" type="matrix" values="0 0 0 0 0 0 0 0 0 0 0 0 0 0 0 0 0 0 127 0" result="hardAlpha"/>
<feOffset dy="7"/>
<feGaussianBlur stdDeviation="5.5"/>
<feComposite in2="hardAlpha" operator="arithmetic" k2="-1" k3="1"/>
<feColorMatrix type="matrix" values="0 0 0 0 1 0 0 0 0 1 0 0 0 0 1 0 0 0 1 0"/>
<feBlend mode="normal" in2="effect5_innerShadow_203_166" result="effect6_innerShadow_203_166"/>
<feColorMatrix in="SourceAlpha" type="matrix" values="0 0 0 0 0 0 0 0 0 0 0 0 0 0 0 0 0 0 127 0" result="hardAlpha"/>
<feOffset dy="39"/>
<feGaussianBlur stdDeviation="28"/>
<feComposite in2="hardAlpha" operator="arithmetic" k2="-1" k3="1"/>
<feColorMatrix type="matrix" values="0 0 0 0 1 0 0 0 0 1 0 0 0 0 1 0 0 0 0.5 0"/>
<feBlend mode="normal" in2="effect6_innerShadow_203_166" result="effect7_innerShadow_203_166"/>
</filter>
<linearGradient id="paint0_linear_203_166" x1="179.837" y1="377.367" x2="158.984" y2="400.237" gradientUnits="userSpaceOnUse">
<stop offset="0.0001" stop-color="white"/>
<stop offset="0.28125" stop-color="#040914"/>
<stop offset="1" stop-color="white"/>
</linearGradient>
<linearGradient id="paint1_linear_203_166" x1="198.679" y1="356.702" x2="177.826" y2="379.572" gradientUnits="userSpaceOnUse">
<stop offset="0.0001" stop-color="white"/>
<stop offset="0.28125" stop-color="#040914"/>
<stop offset="1" stop-color="white"/>
</linearGradient>
<linearGradient id="paint2_linear_203_166" x1="217.52" y1="336.038" x2="196.667" y2="358.908" gradientUnits="userSpaceOnUse">
<stop offset="0.0001" stop-color="white"/>
<stop offset="0.28125" stop-color="#040914"/>
<stop offset="1" stop-color="white"/>
</linearGradient>
<linearGradient id="paint3_linear_203_166" x1="236.362" y1="315.374" x2="215.509" y2="338.244" gradientUnits="userSpaceOnUse">
<stop offset="0.0001" stop-color="white"/>
<stop offset="0.28125" stop-color="#040914"/>
<stop offset="1" stop-color="white"/>
</linearGradient>
<linearGradient id="paint4_linear_203_166" x1="255.203" y1="294.709" x2="234.35" y2="317.579" gradientUnits="userSpaceOnUse">
<stop offset="0.0001" stop-color="white"/>
<stop offset="0.28125" stop-color="#040914"/>
<stop offset="1" stop-color="white"/>
</linearGradient>
<linearGradient id="paint5_linear_203_166" x1="274.045" y1="274.045" x2="253.192" y2="296.915" gradientUnits="userSpaceOnUse">
<stop offset="0.0001" stop-color="white"/>
<stop offset="0.28125" stop-color="#040914"/>
<stop offset="1" stop-color="white"/>
</linearGradient>
<linearGradient id="paint6_linear_203_166" x1="292.886" y1="253.381" x2="272.034" y2="276.251" gradientUnits="userSpaceOnUse">
<stop offset="0.0001" stop-color="white"/>
<stop offset="0.28125" stop-color="#040914"/>
<stop offset="1" stop-color="white"/>
</linearGradient>
<linearGradient id="paint7_linear_203_166" x1="311.728" y1="232.716" x2="290.875" y2="255.586" gradientUnits="userSpaceOnUse">
<stop offset="0.0001" stop-color="white"/>
<stop offset="0.28125" stop-color="#040914"/>
<stop offset="1" stop-color="white"/>
</linearGradient>
<linearGradient id="paint8_linear_203_166" x1="330.57" y1="212.052" x2="309.717" y2="234.922" gradientUnits="userSpaceOnUse">
<stop offset="0.0001" stop-color="white"/>
<stop offset="0.28125" stop-color="#040914"/>
<stop offset="1" stop-color="white"/>
</linearGradient>
<linearGradient id="paint9_linear_203_166" x1="349.411" y1="191.387" x2="328.558" y2="214.258" gradientUnits="userSpaceOnUse">
<stop offset="0.0001" stop-color="white"/>
<stop offset="0.28125" stop-color="#040914"/>
<stop offset="1" stop-color="white"/>
</linearGradient>
<linearGradient id="paint10_linear_203_166" x1="368.253" y1="170.723" x2="347.4" y2="193.593" gradientUnits="userSpaceOnUse">
<stop offset="0.0001" stop-color="white"/>
<stop offset="0.28125" stop-color="#040914"/>
<stop offset="1" stop-color="white"/>
</linearGradient>
<linearGradient id="paint11_linear_203_166" x1="387.094" y1="150.059" x2="366.241" y2="172.929" gradientUnits="userSpaceOnUse">
<stop offset="0.0001" stop-color="white"/>
<stop offset="0.28125" stop-color="#040914"/>
<stop offset="1" stop-color="white"/>
</linearGradient>
<linearGradient id="paint12_linear_203_166" x1="321.562" y1="189.837" x2="332.046" y2="171.2" gradientUnits="userSpaceOnUse">
<stop offset="0.0001" stop-color="white"/>
<stop offset="0.28125" stop-color="#040914"/>
<stop offset="1" stop-color="white"/>
</linearGradient>
<linearGradient id="paint13_linear_203_166" x1="312.089" y1="206.677" x2="322.573" y2="188.04" gradientUnits="userSpaceOnUse">
<stop offset="0.0001" stop-color="white"/>
<stop offset="0.28125" stop-color="#040914"/>
<stop offset="1" stop-color="white"/>
</linearGradient>
<linearGradient id="paint14_linear_203_166" x1="302.617" y1="223.517" x2="313.1" y2="204.879" gradientUnits="userSpaceOnUse">
<stop offset="0.0001" stop-color="white"/>
<stop offset="0.28125" stop-color="#040914"/>
<stop offset="1" stop-color="white"/>
</linearGradient>
<linearGradient id="paint15_linear_203_166" x1="293.144" y1="240.356" x2="303.628" y2="221.719" gradientUnits="userSpaceOnUse">
<stop offset="0.0001" stop-color="white"/>
<stop offset="0.28125" stop-color="#040914"/>
<stop offset="1" stop-color="white"/>
</linearGradient>
<linearGradient id="paint16_linear_203_166" x1="283.672" y1="257.196" x2="294.155" y2="238.559" gradientUnits="userSpaceOnUse">
<stop offset="0.0001" stop-color="white"/>
<stop offset="0.28125" stop-color="#040914"/>
<stop offset="1" stop-color="white"/>
</linearGradient>
<linearGradient id="paint17_linear_203_166" x1="274.199" y1="274.036" x2="284.683" y2="255.398" gradientUnits="userSpaceOnUse">
<stop offset="0.0001" stop-color="white"/>
<stop offset="0.28125" stop-color="#040914"/>
<stop offset="1" stop-color="white"/>
</linearGradient>
<linearGradient id="paint18_linear_203_166" x1="264.727" y1="290.875" x2="275.211" y2="272.238" gradientUnits="userSpaceOnUse">
<stop offset="0.0001" stop-color="white"/>
<stop offset="0.28125" stop-color="#040914"/>
<stop offset="1" stop-color="white"/>
</linearGradient>
<linearGradient id="paint19_linear_203_166" x1="255.254" y1="307.715" x2="265.738" y2="289.078" gradientUnits="userSpaceOnUse">
<stop offset="0.0001" stop-color="white"/>
<stop offset="0.28125" stop-color="#040914"/>
<stop offset="1" stop-color="white"/>
</linearGradient>
<linearGradient id="paint20_linear_203_166" x1="245.782" y1="324.554" x2="256.265" y2="305.917" gradientUnits="userSpaceOnUse">
<stop offset="0.0001" stop-color="white"/>
<stop offset="0.28125" stop-color="#040914"/>
<stop offset="1" stop-color="white"/>
</linearGradient>
<linearGradient id="paint21_linear_203_166" x1="236.309" y1="341.394" x2="246.793" y2="322.757" gradientUnits="userSpaceOnUse">
<stop offset="0.0001" stop-color="white"/>
<stop offset="0.28125" stop-color="#040914"/>
<stop offset="1" stop-color="white"/>
</linearGradient>
<linearGradient id="paint22_linear_203_166" x1="226.837" y1="358.234" x2="237.321" y2="339.596" gradientUnits="userSpaceOnUse">
<stop offset="0.0001" stop-color="white"/>
<stop offset="0.28125" stop-color="#040914"/>
<stop offset="1" stop-color="white"/>
</linearGradient>
<linearGradient id="paint23_linear_203_166" x1="217.364" y1="375.073" x2="227.848" y2="356.436" gradientUnits="userSpaceOnUse">
<stop offset="0.0001" stop-color="white"/>
<stop offset="0.28125" stop-color="#040914"/>
<stop offset="1" stop-color="white"/>
</linearGradient>
<clipPath id="clip0_203_166">
<rect x="37.0094" y="284.982" width="335.575" height="335.575" rx="120" transform="rotate(-47.6417 37.0094 284.982)" fill="white"/>
</clipPath>
<clipPath id="clip1_203_166">
<rect x="432.072" y="229.833" width="231.852" height="231.852" rx="115.926" transform="rotate(119.358 432.072 229.833)" fill="white"/>
</clipPath>
</defs>
</svg>
