<svg width="13" height="13" viewBox="0 0 13 13" fill="none" xmlns="http://www.w3.org/2000/svg">
<path d="M7.20514 12.4909C7.20514 12.767 6.98129 12.9909 6.70514 12.9909H5.54514C5.269 12.9909 5.04514 12.767 5.04514 12.4909V0.5C5.04514 0.223858 5.269 0 5.54514 0H6.70514C6.98129 0 7.20514 0.223858 7.20514 0.5V12.4909ZM0.500001 7.51372C0.223858 7.51372 0 7.28986 0 7.01372V5.97714C0 5.701 0.223858 5.47714 0.5 5.47714H11.7503C12.0264 5.47714 12.2503 5.701 12.2503 5.97714V7.01372C12.2503 7.28986 12.0264 7.51372 11.7503 7.51372H0.500001Z" fill="white"/>
</svg>
