<?xml version="1.0" encoding="UTF-8"?>
<!DOCTYPE svg PUBLIC "-//W3C//DTD SVG 1.1//EN" "http://www.w3.org/Graphics/SVG/1.1/DTD/svg11.dtd">
<!-- Creator: CorelDRAW -->
<svg xmlns="http://www.w3.org/2000/svg" xml:space="preserve" width="0.787402in" height="0.787402in" version="1.1" style="shape-rendering:geometricPrecision; text-rendering:geometricPrecision; image-rendering:optimizeQuality; fill-rule:evenodd; clip-rule:evenodd"
viewBox="0 0 787.4 787.4"
 xmlns:xlink="http://www.w3.org/1999/xlink"
 xmlns:xodm="http://www.corel.com/coreldraw/odm/2003">
 <defs>
  <style type="text/css">
   <![CDATA[
    .fil0 {fill:black}
   ]]>
  </style>
 </defs>
 <g id="Layer_x0020_1">
  <metadata id="CorelCorpID_0Corel-Layer"/>
  <g id="_2505751668576">
   <path class="fil0" d="M402.29 697.25l208.1 0.03 -0.04 23.09 -208.05 -0.02 -0.01 -23.09zm-276.56 -150.29c-14.4,-94.73 124.47,-110.81 137,-22.57 6.02,42.37 -21.81,74.46 -57.52,79.54 -42.47,6.03 -74.08,-21.41 -79.48,-56.96zm368.97 -245.56c-18.89,-10.52 -14.71,-43.46 11.63,-43.38 27.63,0.08 29.57,36 11.56,43.37l0.11 -20.39 -23.22 0.06 -0.09 20.34zm0.07 129.45c-79.58,-5.79 -142.87,-71.2 -138.49,-157.07 4.13,-81.05 67.35,-143.7 151.5,-142.97 82.87,0.72 146.69,63.98 148.73,145.9 2.11,84.39 -59.37,147.98 -138.54,154.1l-0.08 -105.47c18.27,-4.84 38.31,-25.78 34.13,-51.04 -3.28,-19.81 -22.72,-39.54 -45.69,-39.5 -23.13,0.03 -42.94,19.99 -45.85,40.75 -3.46,24.65 16.33,45.11 34.26,49.8l0.04 105.51zm-369.94 -381l531.72 0c0.19,39.74 1.25,107.83 -0.12,144.81l-22.96 -30.64c-8.37,-9.87 -17.55,-16.23 -28.59,-24.86 -17.61,-13.76 -48.7,-26.4 -76.85,-30.05 -34.28,-4.44 -62.32,1.46 -90.76,13.32 -23.22,9.69 -49.54,30.86 -60.64,44.83 -42.53,53.54 -32.67,60.98 -47.04,113.37l-54.85 209.85c-4.35,-4.74 -7.72,-11.02 -12.2,-16.19 -3.85,-4.45 -9.62,-9.83 -15.19,-13.72 -10.92,-7.62 -24.66,-14.61 -41.07,-16.85 -39.04,-5.31 -63.65,14.32 -81.21,30.88l-0.24 -11.46c-1.17,-132.38 -0.07,-271.57 0,-404.63l0 -8.67zm-104.05 0l80.93 0.03 -0.08 416.15c-0.07,47.15 -6.44,87.93 17.74,122.52 16.13,23.08 52.89,47.37 96.63,36.52 33.27,-8.26 60.87,-36.06 68.41,-70.2 2.39,-10.82 2.33,-18.79 5.26,-29.49 2.52,-9.24 4.83,-18.26 7.18,-27.5l43.82 -165.94c15.67,37.88 10.87,26.67 29.38,55.09 2.87,4.41 4.33,5.53 7.83,9.47 12.23,13.74 21.32,20.8 37.79,31.59 21.7,14.22 50.97,23.93 78.15,25.91 3.21,10.01 0.93,129.72 0.96,150.76l-115.61 -0.02 -0.04 138.75 46.28 0.02 0 23.1 23.13 0 0.04 -23.12 46.2 0.05 -0.02 23.07 23.15 0 0.06 -23.02 46.18 -0.09 0 23.11 23.13 0 0 -23.12 46.35 0.05 -0.09 -138.8 -92.61 -0 0.13 23.18 69.34 0.01 -0.02 46.2 -208.07 -0.03 0.04 -46.1c24.01,-0.39 48.24,-0.13 72.21,-0.11 26.15,0.02 43.31,-0.73 43.48,-28.85 0.13,-21.74 -2.68,-133.62 0.88,-145 77.74,-7.2 136.72,-61.84 154.61,-127.28 10.04,-36.73 6.26,-94.61 6.23,-135.28 -0.03,-47.2 0.07,-94.41 0.01,-141.62l80.93 0 0 -23.12 -739.89 0 0 23.12z"/>
   <path class="fil0" d="M187.25 513.3c32.64,-9.19 40.7,37.27 14.66,44.19 -33.41,8.86 -42.2,-36.44 -14.66,-44.19zm-1.22 -23.04c-21.25,4.88 -43.63,26.17 -37,54.25 4.86,20.56 27.22,42.21 54.27,36 20.17,-4.63 42.5,-27.52 36.09,-54.25 -4.91,-20.48 -26.74,-42.12 -53.37,-36.01z"/>
   <path class="fil0" d="M379.16 281.06l23.27 0.08c0.47,-60.03 43.95,-103.52 104.02,-103.99l-0.14 -23.27c-69.03,0.45 -126.7,58.14 -127.15,127.18z"/>
   <polygon class="fil0" points="182.64,289.73 182.55,304.19 205.87,304.26 205.74,281.04 191.31,281.05 182.64,281.06 "/>
   <polygon class="fil0" points="182.64,350.52 197.14,350.43 205.76,350.43 205.78,341.76 205.79,327.33 182.57,327.2 "/>
   <polygon class="fil0" points="182.59,396.67 191.31,396.71 205.83,396.67 205.76,382.22 205.76,373.51 182.61,373.55 "/>
  </g>
 </g>
</svg>
