<?xml version="1.0" encoding="UTF-8"?>
<!DOCTYPE svg PUBLIC "-//W3C//DTD SVG 1.1//EN" "http://www.w3.org/Graphics/SVG/1.1/DTD/svg11.dtd">
<!-- Creator: CorelDRAW -->
<svg xmlns="http://www.w3.org/2000/svg" xml:space="preserve" width="0.787402in" height="0.787402in" version="1.1" style="shape-rendering:geometricPrecision; text-rendering:geometricPrecision; image-rendering:optimizeQuality; fill-rule:evenodd; clip-rule:evenodd"
viewBox="0 0 787.4 787.4"
 xmlns:xlink="http://www.w3.org/1999/xlink"
 xmlns:xodm="http://www.corel.com/coreldraw/odm/2003">
 <defs>
  <style type="text/css">
   <![CDATA[
    .fil0 {fill:black}
   ]]>
  </style>
 </defs>
 <g id="Layer_x0020_1">
  <metadata id="CorelCorpID_0Corel-Layer"/>
  <g id="_2505788954176">
   <path class="fil0" d="M193.1 440.86c0,-40.66 13.93,-80.61 32.36,-107.48 7.9,-11.52 21.7,-29.31 32.09,-37.9 8.28,-6.84 28.65,-23.8 40.97,-28.17l0.01 -95.12c-16.85,3.9 -44.24,19.01 -59.69,28.33l-48.17 37.81c-5.47,5.21 -8.93,10 -13.93,15.32 -4.93,5.23 -8.57,9.31 -13,15.34 -15.84,21.58 -29.83,44.28 -41.04,74.17 -41.88,111.71 -6.28,226.83 65.58,300.87 7.59,7.82 29.88,26.57 39.23,32.56 7.78,4.98 14.07,9.38 22.16,14.17 73.4,43.5 170.93,49.57 250,16.07 46.29,-19.61 79.96,-45.39 111.55,-82.54 81.15,-95.41 86.51,-236.52 18.03,-339.69 -11.55,-17.4 -15.57,-21.51 -28.21,-36.51 -25.19,-29.87 -79.21,-65.25 -117.35,-76.35 -1.01,13.12 -0.25,76.5 -0.25,94.54 0,3.15 2.8,3.31 5.8,5 14.84,8.38 30.88,20.61 42.3,32.16 46.81,47.33 69.25,119.85 50.78,189.13 -12.73,47.72 -39.05,81.17 -66.19,103.11 -29.82,24.1 -72.07,43.94 -123.79,44.35 -111.02,0.89 -199.22,-88.59 -199.22,-199.16z"/>
   <path class="fil0" d="M344.85 416.93c1.94,32.91 38.88,56.26 71.19,36.11 10.94,-6.82 21,-20.01 21.22,-39.63 0.91,-79.65 0,-163.48 0,-243.75 0,-19.46 0.84,-40.83 -0.06,-60.06 -1.52,-32.45 -39.25,-58.35 -71.35,-36.44 -11.07,7.56 -20.96,19.35 -21.11,39.75l0 243.74c0,19.24 -1.01,41.37 0.11,60.26z"/>
  </g>
 </g>
</svg>
