<svg width="60" height="64" viewBox="0 0 60 64" fill="none" xmlns="http://www.w3.org/2000/svg">
<path fill-rule="evenodd" clip-rule="evenodd" d="M18.6242 49.6655L30.7451 49.6847L35.5116 61.8546L13.9249 61.8642L18.6242 49.6655ZM36.8911 60.7814L32.6527 49.8911C32.1314 48.6239 32.5557 48.4357 34.0994 46.2402L36.4581 42.7794C37.0053 42.0191 37.5496 41.2367 38.0901 40.5685L47.2034 45.7525L42.2047 53.2885C41.2937 54.5788 40.4229 55.7692 39.6021 57.0345L36.8911 60.7823V60.7814ZM2.16875 45.718C3.92651 45.068 9.83245 41.0667 11.4664 40.5579C11.7294 41.2895 13.8693 44.2635 14.5528 45.2495C16.3825 47.8876 17.2638 48.5068 16.6705 49.964C16.3345 50.7887 12.9265 60.2255 12.2248 60.7958C11.8792 59.9442 6.82956 52.8748 5.88684 51.4492C5.23116 50.4575 2.32523 46.3208 2.16875 45.718ZM1.72523 19.6433C2.90891 20.0811 9.07117 24.068 10.7272 24.6987L10.7281 38.9576C8.93965 39.5922 3.52619 43.3487 1.72139 44.014L1.72619 19.6433H1.72523ZM2.16971 17.9384C2.30795 17.395 3.05195 16.3582 3.37547 15.8648C4.33452 14.3969 11.8619 3.76585 12.2209 2.85768C12.7537 3.28776 13.1627 4.74409 13.4872 5.58217L16.7233 13.82C17.02 14.5486 17.1409 14.5275 16.78 15.1534C15.9265 16.6308 11.8321 22.1614 11.4645 23.0965C9.58573 22.508 4.30667 18.7256 2.17163 17.9393L2.16971 17.9384ZM13.924 1.79016L35.5154 1.80264L30.7528 13.9784L18.6242 13.988L13.924 1.7892V1.79016ZM0.00682362 19.3083V44.3461C0.00682362 46.2268 0.0452241 45.9205 0.951466 47.2079C4.12331 51.7132 7.33932 56.7714 10.4593 61.1519C10.9585 61.8537 11.5921 63.1593 12.2171 63.4578C13.1896 63.7564 36.582 63.6738 37.1484 63.4281C37.902 63.045 41.7957 56.7417 42.6837 55.533L46.782 49.5752C47.4473 48.5615 49.301 46.3429 49.3615 45.2437C49.4182 44.2098 49.3548 42.9397 49.3548 41.8779L49.3596 25.124C49.373 23.611 49.4518 22.8661 47.8121 23.2789C47.3292 26.2395 47.6153 38.9365 47.6431 43.9468C47.0287 43.894 46.0553 43.1355 45.4053 42.7842C44.6143 42.356 43.9461 41.9451 43.1599 41.5055C41.5567 40.6098 40.0677 39.6498 38.6364 38.8347C38.6383 36.4203 38.8975 26.1483 38.4319 24.7227C37.8991 24.5806 37.6312 24.5845 37.1224 24.7448C36.4264 26.563 37.3279 37.4091 36.8488 39.1343L30.797 47.9336L18.365 47.9528C17.6574 46.5263 16.2318 44.7656 15.3563 43.3871C14.8379 42.5711 14.3233 41.8098 13.8107 41.0523C13.3374 40.3515 12.4312 39.4664 12.4312 38.5266V25.1259C12.4312 24.2437 17.6641 16.772 18.5406 15.6939L29.3858 15.692C31.2549 15.692 30.6136 15.284 32.3666 17.9144C32.7266 18.4548 33.1077 19.0222 33.4475 19.482C33.94 20.1502 34.3528 20.1732 35.0527 19.8708C35.3301 18.7582 34.9884 18.6209 34.3855 17.8318C33.9314 17.2366 33.6463 16.6433 33.2018 16.0193C32.5893 15.1592 32.1487 15.116 32.5442 14.0216C32.8101 13.2871 33.1538 12.4855 33.4475 11.7406C34.588 8.84426 36.006 5.66089 36.8892 2.86824C37.2146 3.0852 36.9871 2.8452 37.3221 3.2484L45.173 14.8059C45.6175 15.45 46.1599 16.1124 46.5573 16.7681C47.0633 17.6024 47.3138 18.1764 48.4562 17.6062C48.7606 16.4417 47.7756 15.5028 46.8684 14.1627C46.1215 13.0587 45.4994 12.1303 44.7026 11.0446C42.7932 8.4449 40.0802 4.01641 38.2053 1.49064C36.941 -0.212405 37.636 0.083276 34.3231 0.085196C27.8431 0.089036 19.1291 -0.101045 12.9707 0.0746359C11.7745 0.108236 11.8965 0.409677 11.4174 1.16424C11.0641 1.72008 10.6907 2.08776 10.3144 2.70504C9.64045 3.81097 8.77165 4.91113 8.10828 5.96233C7.72524 6.57001 7.40364 6.94537 7.01676 7.51658L0.522345 17.0715C-0.109336 17.9076 0.00874404 18.0545 0.00874404 19.3073L0.00682362 19.3083Z" fill="white"/>
<path fill-rule="evenodd" clip-rule="evenodd" d="M22.7904 41.6344C23.9808 42.1643 24.1882 41.3858 25.9709 39.8795C26.6045 39.3448 26.7744 39.2037 27.4148 38.4981C27.9053 37.9566 28.3632 37.6571 28.897 37.1618L33.3236 33.1182C33.9735 32.5365 34.3479 32.3464 34.0637 31.1781C32.9309 30.7365 32.0352 31.6763 30.8439 32.9339L25.0656 38.4405C23.5459 39.7672 22.5619 40.4843 22.7895 41.6354L22.7904 41.6344Z" fill="white"/>
<path fill-rule="evenodd" clip-rule="evenodd" d="M28.4986 24.771C27.3005 24.3697 27.1066 25.1194 25.2759 26.6631C24.6903 27.1575 24.4196 27.5089 23.8551 28.057L20.9453 30.7892C20.4231 31.2529 19.9037 31.6235 19.4285 32.0996C18.0538 33.4791 16.5274 34.4699 17.4768 35.2753C18.3571 36.0231 19.9527 33.8689 20.522 33.3735L27.8832 26.6209C28.5197 26.0698 28.8855 25.8442 28.4986 24.77V24.771Z" fill="white"/>
<path fill-rule="evenodd" clip-rule="evenodd" d="M41.9277 23.3533C41.488 23.696 41.5591 23.6259 41.5274 24.4054C41.49 25.3165 41.2932 28.8954 42.9693 27.4563C43.3476 27.1309 43.8007 21.8902 41.9277 23.3542V23.3533Z" fill="white"/>
<path fill-rule="evenodd" clip-rule="evenodd" d="M48.7596 20.7084C47.9829 20.19 46.973 20.3705 45.7826 20.3743C43.6092 20.3906 43.8693 22.0543 45.5954 22.0869C47.1996 22.1167 49.1234 22.5775 48.7596 20.7084Z" fill="white"/>
<path fill-rule="evenodd" clip-rule="evenodd" d="M37.1422 22.0751C38.3902 22.0751 39.4395 22.2143 40.364 21.8457C40.8017 19.9401 39.0641 20.3558 37.482 20.3615C35.395 20.3702 35.3393 22.0742 37.1422 22.0742V22.0751Z" fill="white"/>
<path fill-rule="evenodd" clip-rule="evenodd" d="M43.0338 14.8457C41.7858 14.5558 41.5324 14.9897 41.5295 16.2991C41.5276 17.1698 41.3586 18.7145 41.9336 19.1177C43.7912 20.4223 43.2613 15.5474 43.0338 14.8457Z" fill="white"/>
<path fill-rule="evenodd" clip-rule="evenodd" d="M54.1644 12.96C54.1644 12.2121 54.1846 11.5737 53.9455 10.966C52.0975 10.367 52.254 12.4147 52.4489 14.0294C52.5238 14.6486 52.8876 15.2496 53.6028 14.974C54.342 14.6889 54.1644 13.7692 54.1644 12.96Z" fill="white"/>
<path fill-rule="evenodd" clip-rule="evenodd" d="M58.5742 9.93181C59.2855 9.52573 59.1483 9.25117 58.8756 8.53405C57.8599 8.25565 55.0222 7.97725 54.8935 9.13693C54.7428 10.4963 58.1441 10.1958 58.5742 9.93181Z" fill="white"/>
<path fill-rule="evenodd" clip-rule="evenodd" d="M51.4372 9.94247C52.7121 7.5655 48.1367 8.3623 47.8708 8.54374C47.0903 9.07558 47.5396 10.0106 48.5966 10.0845C49.3694 10.1383 50.8209 10.0989 51.4382 9.94247H51.4372Z" fill="white"/>
<path fill-rule="evenodd" clip-rule="evenodd" d="M52.4419 5.20066C52.4419 6.0253 52.2604 8.04803 53.5977 7.5517C54.43 7.24258 54.5212 3.70305 53.494 3.45729C52.3958 3.19425 52.4419 4.30402 52.4419 5.20162V5.20066Z" fill="white"/>
</svg>
