<svg width="41" height="42" viewBox="0 0 41 42" fill="none" xmlns="http://www.w3.org/2000/svg">
<path fill-rule="evenodd" clip-rule="evenodd" d="M41 22.5345L37.5801 22.5075C37.3615 26.3152 35.8784 29.5882 34.1489 31.9014C29.996 37.4564 22.4569 39.8482 15.6629 37.9061C9.38543 36.1121 4.57891 30.6463 3.60018 24.1224C2.76003 18.5214 4.72608 13.5875 8.28096 9.85564C10.4077 7.62245 13.3525 5.91409 16.5895 5.16757C17.4868 4.96075 18.4055 4.82122 19.3464 4.75748C20.6859 4.66611 21.3431 4.55916 21.3703 6.00758L24.4165 3.05762L21.406 0C21.3224 2.12341 20.0686 0.850638 15.565 1.92651C13.6047 2.39468 11.5072 3.27223 10.0298 4.17599C2.94149 8.51346 -1.05417 16.2145 0.24247 24.8066C0.6754 27.6709 1.92275 30.856 3.54874 33.0778C5.31189 35.4874 6.84929 37.1688 9.4433 38.7816C11.0707 39.793 12.7253 40.6011 14.8063 41.1932C19.3942 42.4993 23.8893 42.1756 28.1193 40.5402C35.677 37.6179 40.5171 30.5833 41 22.5345Z" fill="white"/>
</svg>
