<svg width="61" height="35" viewBox="0 0 61 35" fill="none" xmlns="http://www.w3.org/2000/svg">
<path fill-rule="evenodd" clip-rule="evenodd" d="M25.717 3.70448C26.0031 4.86033 26.9151 5.55921 27.5362 6.16305L38.3381 16.6962C38.9832 17.2981 38.8056 17.4863 38.2479 18.0085L26.4178 29.6706C24.0101 32.446 27.5861 36.8793 31.2264 33.3474L39.8367 24.8303C40.5759 24.118 41.2364 23.4748 41.9775 22.7653C42.9577 21.8255 45.6466 19.51 46.0594 18.334C46.9398 15.8284 44.5676 14.66 43.1103 13.0511C41.6473 11.4363 30.5765 0.659354 30.1157 0.403993C27.7666 -0.89585 25.0795 1.13744 25.716 3.70544L25.717 3.70448Z" fill="white"/>
<path fill-rule="evenodd" clip-rule="evenodd" d="M40.0844 3.60166C40.3484 4.82662 41.245 5.47558 41.8767 6.08038L44.0137 8.24999C45.1589 9.35591 49.6921 13.6068 50.5359 14.5495C50.9718 15.0362 51.1494 15.2407 51.5804 15.6583C53.0089 17.0398 53.5282 17.1886 52.7468 17.9422L42.9865 27.4664C41.5666 28.8324 39.2482 30.403 40.2341 32.8501C40.5749 33.6949 41.533 34.4936 42.6399 34.628C44.1634 34.8123 44.9036 33.9809 45.566 33.3291C46.2965 32.611 46.9657 31.9697 47.7058 31.2632L49.8466 29.0964C50.6012 28.3668 51.279 27.7073 52.0374 26.9787C53.5081 25.5675 54.8847 24.1889 56.3679 22.795C56.75 22.4359 57.0342 22.0519 57.4124 21.6862C57.8031 21.3089 58.118 21.0046 58.5078 20.6273C59.1011 20.0551 60.1292 19.2689 60.4729 18.2772C61.2563 16.0135 59.0588 14.515 57.5545 13.0702L53.223 8.78663C51.9798 7.58087 45.1522 0.747571 44.5493 0.431731C42.2319 -0.784593 39.5218 0.996212 40.0834 3.60262L40.0844 3.60166Z" fill="white"/>
<path fill-rule="evenodd" clip-rule="evenodd" d="M2.91649 14.4102H32.1428C33.747 14.4102 35.0593 15.7225 35.0593 17.3266C35.0593 18.9308 33.747 20.2441 32.1428 20.2441H2.91649C1.31232 20.2441 0 18.9318 0 17.3266C0 15.7234 1.31232 14.4102 2.91649 14.4102Z" fill="white"/>
</svg>
