<?xml version="1.0" encoding="UTF-8"?>
<!DOCTYPE svg PUBLIC "-//W3C//DTD SVG 1.1//EN" "http://www.w3.org/Graphics/SVG/1.1/DTD/svg11.dtd">
<!-- Creator: CorelDRAW -->
<svg xmlns="http://www.w3.org/2000/svg" xml:space="preserve" width="0.787402in" height="0.787402in" version="1.1" style="shape-rendering:geometricPrecision; text-rendering:geometricPrecision; image-rendering:optimizeQuality; fill-rule:evenodd; clip-rule:evenodd"
viewBox="0 0 787.4 787.4"
 xmlns:xlink="http://www.w3.org/1999/xlink"
 xmlns:xodm="http://www.corel.com/coreldraw/odm/2003">
 <defs>
  <style type="text/css">
   <![CDATA[
    .fil0 {fill:black}
   ]]>
  </style>
 </defs>
 <g id="Layer_x0020_1">
  <metadata id="CorelCorpID_0Corel-Layer"/>
  <g id="_2505753838256">
   <path class="fil0" d="M342.5 621.78l96.48 0c-2.91,6.05 -2.75,7.93 -7.23,13.44 -4.38,5.39 -4.95,5.96 -10.34,10.34 -20.63,16.77 -52.37,13.41 -71.68,-10.34 -4.48,-5.51 -4.33,-7.39 -7.23,-13.44zm44.96 -519.15l6.55 0c15.56,0.95 30.73,8.67 40.18,23.16 10.44,16.01 8.23,29.89 8.23,54.94 6.79,0.56 20.74,8.53 26.43,11.47 7.73,3.98 14.96,9.8 21.66,15.1 14.6,11.54 24.26,24.54 34.62,40.04 24.95,37.28 22.03,81.65 21.8,126.36 -0.06,10.88 1.17,25.04 2.65,35.26 3.02,20.9 8.75,37.18 17.63,55.88 2.43,5.11 4.03,7.04 6.81,11.57l15.41 22.5c19.92,26.04 17.02,17.87 31.03,24.1 27.06,12.02 38.12,46.14 23.35,72.76 -3.41,6.15 -7.72,10.34 -12.73,14.83 -4.83,4.33 -11.06,7.17 -18.23,9.33 -12.56,3.79 -118.19,1.86 -137.11,1.86 -4.31,8.98 -6.71,31.09 -28.04,47.76 -16.18,12.64 -33.34,19.72 -50.59,21.15l-13.17 0c-17.37,-1.45 -34.6,-8.64 -50.79,-21.65 -8.83,-7.11 -18.9,-22.05 -22.96,-33.32 -1.27,-3.53 -2.94,-10.82 -4.43,-13.94 -20.08,0 -124.28,2.14 -137.99,-2.13 -20.44,-6.37 -36.59,-25.97 -36.59,-46.11 0,-49.23 39.7,-51.7 45.02,-56.05l16.84 -19.91c2.79,-3.73 5.02,-6.54 7.74,-10.63l14.22 -23.68c34.02,-76.93 10.96,-108.9 22.52,-162.4 7.6,-35.18 28.19,-72.35 54.93,-93.24 12.69,-9.92 30.59,-23.17 46.61,-26.9 0,-25.06 -2.22,-38.93 8.23,-54.94 9.45,-14.49 24.63,-22.21 40.18,-23.16zm-201.17 450.24l408.89 0c27.28,0 27.28,34.46 0,34.46l-408.89 0c-27.28,0 -27.28,-34.46 0,-34.46zm373.28 -34.46l-337.68 0c4.3,-8.13 13.67,-18.04 22.97,-36.75 35.17,-70.72 18.62,-94.09 25.09,-155.23 1.98,-18.7 2.38,-29.3 11.65,-48.08 10.52,-21.32 22.26,-35.8 40.86,-49.87 13.64,-10.32 36.07,-19.45 53.5,-21.16 36.67,-3.6 73.72,7.39 99.49,33.43 26.38,26.67 32.89,48.11 36.86,83.73 5.35,47.98 -9.61,72.06 14.61,135.85 3.28,8.62 5.44,12.85 9.29,20.57 9.63,19.33 18.86,29.02 23.35,37.52zm-186.07 -360.65c0,-13.43 9.24,-23.92 22.78,-19.39 12.93,4.33 11.68,17.15 11.68,34.32 -4.49,-2.52 -27.84,-1.15 -34.46,-1.15l0 -13.78z"/>
   <path class="fil0" d="M96.7 319.71c0,35.07 1.49,55.83 11.08,88.85 2.55,8.79 6.65,24.3 12.17,29.18 8.48,7.5 22.02,4.41 26.9,-4.73 6.31,-11.81 -8.59,-36.54 -12.06,-65.25 -0.79,-6.53 -1.98,-12.57 -2.43,-18.25 -0.57,-7.27 -0.02,-13.57 -0.9,-19.79l2.48 -38.24c3.58,-25.65 9.66,-44.8 17.71,-64.98 3.71,-9.3 12.02,-18.42 7.45,-30.05 -3.99,-10.17 -16.62,-14.02 -26.38,-7.26 -8.09,5.61 -22.43,46.24 -25.22,57.48 -6.09,24.46 -10.8,46.04 -10.8,73.04z"/>
   <path class="fil0" d="M684.77 336.94l0 -1.13 0 -1.1 0 -3.17c-0,-20.11 -0.16,-27.35 -3.25,-49.92 -1.78,-12.96 -4.4,-22.51 -7.33,-34.02 -3.14,-12.37 -17.24,-52 -24.78,-57.91 -9.23,-7.24 -22.49,-3.73 -26.71,5.94 -5.19,11.93 2.93,20.53 6.79,30.05 8.33,20.53 19.88,58.5 19.67,83.7 -0.06,7.89 1.87,11.91 1,19.34 -0.77,6.53 -0.59,12.01 -0.99,19.72l-5.75 35.6c-4.1,17.26 -13.48,39.03 -9.2,48.22 4.28,9.19 17.48,13.22 26.67,6.01 12.93,-10.15 23.87,-78.67 23.87,-101.32z"/>
   <path class="fil0" d="M575.65 276.07c0,10.02 2.09,13.8 3.27,22 1.04,7.28 1.51,16.08 2.32,22.98 0.51,4.33 0.06,6.93 -0.51,10.64 -0.69,4.51 -0.34,7.61 -0.45,12.19 -0.33,13.47 -6.64,24.25 2.87,33.81 6.43,6.47 16.12,6.71 22.7,0.94 9.59,-8.39 10,-28.63 10,-41.69 0,-15.81 2.33,-75.81 -20.67,-75.81 -11.15,0 -19.53,5.59 -19.53,14.93z"/>
   <path class="fil0" d="M165.62 318.56c0,15.86 -2.06,48.38 8.83,58.93 2.01,1.94 1.91,2.26 4.59,3.45 14.09,6.24 24.48,-5.91 24.48,-14.14 0,-9.12 -1.92,-14.09 -2.3,-21.82 -0.2,-4.23 0.28,-8.07 -0.31,-12.33 -2.94,-21.28 4.91,-42.66 4.91,-56.59 0,-14.33 -22.41,-21.38 -31.73,-7.61 -5.27,7.78 -8.47,39.61 -8.47,50.11z"/>
  </g>
 </g>
</svg>
