<svg width="55" height="55" viewBox="0 0 55 55" fill="none" xmlns="http://www.w3.org/2000/svg">
<foreignObject x="-88.7852" y="-98.4619" width="241.812" height="241.73"><div xmlns="http://www.w3.org/1999/xhtml" style="backdrop-filter:blur(50px);clip-path:url(#bgblur_0_375_676_clip_path);height:100%;width:100%"></div></foreignObject><g filter="url(#filter0_iiiiii_375_676)" data-figma-bg-blur-radius="100">
<path fill-rule="evenodd" clip-rule="evenodd" d="M43.7288 19.1445C43.2239 22.9769 39.8168 26.2322 35.3163 25.6457C31.5147 25.1503 28.2593 21.6645 28.8613 17.1746C29.3681 13.3951 32.8625 10.2031 37.3074 10.781C41.0427 11.2668 44.3067 14.7669 43.7288 19.1455V19.1445ZM22.0865 14.9772L13.2459 28.8463C12.9646 29.2937 12.2715 30.4601 11.9479 30.798C11.3508 31.9327 10.7066 32.981 11.8327 34.2185C12.5153 34.7129 19.9851 42.2182 20.228 42.679C20.658 42.7894 20.8078 43.1792 21.6219 43.255C22.5089 43.3376 22.65 43.0198 23.2894 42.8883C23.2088 42.7155 23.1934 42.7683 23.3912 42.7683L35.3067 35.0758C36.6814 34.1715 37.9755 33.2988 39.3282 32.479C40.9803 31.3836 42.3723 30.5446 43.8171 29.2966L45.8552 27.4351C47.0783 26.1727 48.357 24.7001 49.318 23.2197C51.8543 19.3164 51.3052 19.566 53.0264 15.6578C52.3861 15.2988 50.1733 12.9016 49.4706 12.2008C48.2591 10.9912 47.1397 9.86515 45.9272 8.65746C43.5215 6.25938 41.2232 3.94097 38.8117 1.53809C37.6894 1.69265 34.435 3.26225 33.5336 3.77873C30.1381 5.72562 27.7112 7.70226 25.2382 10.5986C24.2312 11.7784 22.3755 14.6968 22.0865 14.9781V14.9772Z" fill="white"/>
</g>
<path fill-rule="evenodd" clip-rule="evenodd" d="M11.9476 30.7969C12.272 30.459 12.9642 29.2926 13.2455 28.8453L22.0861 14.9761C19.5844 14.5086 18.2154 13.9115 15.3085 14.2734C9.38339 15.0126 5.26113 19.6004 2.77857 24.6308C2.40897 25.3806 -2.33825 36.1931 1.472 35.3742C1.85504 35.2917 5.94369 32.3272 10.4931 31.0523C10.76 30.9774 10.9923 30.9083 11.24 30.8411C11.6778 30.7211 11.721 30.7067 11.9476 30.7969Z" fill="white"/>
<path fill-rule="evenodd" clip-rule="evenodd" d="M23.3905 42.7678L23.2888 42.8878C23.2657 44.0581 21.818 47.3614 21.3179 48.3762C20.9022 49.221 20.427 50.0658 19.9652 50.7992C19.6283 51.3339 18.6625 52.4859 18.8065 53.251C19.3201 55.9746 28.323 52.0472 29.7966 51.2946C34.7406 48.7688 39.0914 44.8616 39.8911 39.0901C40.3375 35.8692 39.6703 34.8526 39.3285 32.4785C37.9758 33.2984 36.6818 34.171 35.307 35.0753L23.3915 42.7678H23.3905Z" fill="white"/>
<foreignObject x="-61.1895" y="-100" width="215.729" height="215.656"><div xmlns="http://www.w3.org/1999/xhtml" style="backdrop-filter:blur(50px);clip-path:url(#bgblur_1_375_676_clip_path);height:100%;width:100%"></div></foreignObject><g filter="url(#filter1_iiiiii_375_676)" data-figma-bg-blur-radius="100">
<path fill-rule="evenodd" clip-rule="evenodd" d="M38.8105 1.53631C41.2221 3.9392 43.5203 6.2576 45.9261 8.65569C47.1386 9.86337 48.2579 10.9895 49.4695 12.1991C50.1712 12.8999 52.385 15.297 53.0253 15.656C54.1456 12.2336 55.769 3.74432 53.0551 1.29343C50.6877 -0.843536 43.7642 0.113586 40.4473 1.00255C39.9136 1.14559 39.2886 1.26847 38.8105 1.53631Z" fill="white"/>
</g>
<foreignObject x="-69.4658" y="-87.5342" width="211.535" height="211.534"><div xmlns="http://www.w3.org/1999/xhtml" style="backdrop-filter:blur(50px);clip-path:url(#bgblur_2_375_676_clip_path);height:100%;width:100%"></div></foreignObject><g filter="url(#filter2_iiiiii_375_676)" data-figma-bg-blur-radius="100">
<path fill-rule="evenodd" clip-rule="evenodd" d="M35.0355 12.6392C31.8252 13.436 29.9263 16.364 30.7107 19.6242C31.3452 22.2633 34.134 24.6652 37.6409 23.8319C40.3683 23.1829 42.6992 20.446 41.9149 16.9237C41.3187 14.2444 38.4944 11.7819 35.0355 12.6392Z" fill="white"/>
</g>
<path fill-rule="evenodd" clip-rule="evenodd" d="M17.0169 43.6874C16.991 43.1056 16.4783 42.7466 16.0963 42.5133C15.6239 43.7028 14.471 44.154 13.1097 44.6522C12.1823 44.992 9.94457 46.002 9.22361 45.2397C8.53528 44.512 9.48185 42.3799 9.81881 41.4804C10.0569 40.8439 10.2969 40.2727 10.6089 39.6727C11.0255 38.872 11.1667 38.824 11.9615 38.3959C11.7475 38.0176 11.4047 37.6442 10.9958 37.4541C6.9772 37.7795 5.64856 42.64 4.54264 46.361C4.23159 47.4064 3.28695 49.6125 4.05399 50.4122C4.81912 51.2109 6.99832 50.2913 8.04568 49.9821C9.34649 49.5991 10.5839 49.1825 11.8435 48.7015C14.3145 47.7578 16.6329 46.7527 17.0179 43.6874H17.0169Z" fill="white"/>
<defs>
<filter id="filter0_iiiiii_375_676" x="-88.7852" y="-98.4619" width="241.812" height="241.73" filterUnits="userSpaceOnUse" color-interpolation-filters="sRGB">
<feFlood flood-opacity="0" result="BackgroundImageFix"/>
<feBlend mode="normal" in="SourceGraphic" in2="BackgroundImageFix" result="shape"/>
<feColorMatrix in="SourceAlpha" type="matrix" values="0 0 0 0 0 0 0 0 0 0 0 0 0 0 0 0 0 0 127 0" result="hardAlpha"/>
<feOffset dy="1"/>
<feGaussianBlur stdDeviation="20"/>
<feComposite in2="hardAlpha" operator="arithmetic" k2="-1" k3="1"/>
<feColorMatrix type="matrix" values="0 0 0 0 0.890196 0 0 0 0 0.929412 0 0 0 0 0.937255 0 0 0 0.2 0"/>
<feBlend mode="normal" in2="shape" result="effect1_innerShadow_375_676"/>
<feColorMatrix in="SourceAlpha" type="matrix" values="0 0 0 0 0 0 0 0 0 0 0 0 0 0 0 0 0 0 127 0" result="hardAlpha"/>
<feOffset dy="4"/>
<feGaussianBlur stdDeviation="9"/>
<feComposite in2="hardAlpha" operator="arithmetic" k2="-1" k3="1"/>
<feColorMatrix type="matrix" values="0 0 0 0 0.603922 0 0 0 0 0.572549 0 0 0 0 0.823529 0 0 0 0.3 0"/>
<feBlend mode="normal" in2="effect1_innerShadow_375_676" result="effect2_innerShadow_375_676"/>
<feColorMatrix in="SourceAlpha" type="matrix" values="0 0 0 0 0 0 0 0 0 0 0 0 0 0 0 0 0 0 127 0" result="hardAlpha"/>
<feOffset dy="98"/>
<feGaussianBlur stdDeviation="50"/>
<feComposite in2="hardAlpha" operator="arithmetic" k2="-1" k3="1"/>
<feColorMatrix type="matrix" values="0 0 0 0 0.792157 0 0 0 0 0.67451 0 0 0 0 1 0 0 0 0.3 0"/>
<feBlend mode="normal" in2="effect2_innerShadow_375_676" result="effect3_innerShadow_375_676"/>
<feColorMatrix in="SourceAlpha" type="matrix" values="0 0 0 0 0 0 0 0 0 0 0 0 0 0 0 0 0 0 127 0" result="hardAlpha"/>
<feOffset dy="-82"/>
<feGaussianBlur stdDeviation="34"/>
<feComposite in2="hardAlpha" operator="arithmetic" k2="-1" k3="1"/>
<feColorMatrix type="matrix" values="0 0 0 0 0.376471 0 0 0 0 0.266667 0 0 0 0 0.564706 0 0 0 0.3 0"/>
<feBlend mode="normal" in2="effect3_innerShadow_375_676" result="effect4_innerShadow_375_676"/>
<feColorMatrix in="SourceAlpha" type="matrix" values="0 0 0 0 0 0 0 0 0 0 0 0 0 0 0 0 0 0 127 0" result="hardAlpha"/>
<feOffset dy="7"/>
<feGaussianBlur stdDeviation="5.5"/>
<feComposite in2="hardAlpha" operator="arithmetic" k2="-1" k3="1"/>
<feColorMatrix type="matrix" values="0 0 0 0 1 0 0 0 0 1 0 0 0 0 1 0 0 0 1 0"/>
<feBlend mode="normal" in2="effect4_innerShadow_375_676" result="effect5_innerShadow_375_676"/>
<feColorMatrix in="SourceAlpha" type="matrix" values="0 0 0 0 0 0 0 0 0 0 0 0 0 0 0 0 0 0 127 0" result="hardAlpha"/>
<feOffset dy="39"/>
<feGaussianBlur stdDeviation="28"/>
<feComposite in2="hardAlpha" operator="arithmetic" k2="-1" k3="1"/>
<feColorMatrix type="matrix" values="0 0 0 0 1 0 0 0 0 1 0 0 0 0 1 0 0 0 0.5 0"/>
<feBlend mode="normal" in2="effect5_innerShadow_375_676" result="effect6_innerShadow_375_676"/>
</filter>
<clipPath id="bgblur_0_375_676_clip_path" transform="translate(88.7852 98.4619)"><path fill-rule="evenodd" clip-rule="evenodd" d="M43.7288 19.1445C43.2239 22.9769 39.8168 26.2322 35.3163 25.6457C31.5147 25.1503 28.2593 21.6645 28.8613 17.1746C29.3681 13.3951 32.8625 10.2031 37.3074 10.781C41.0427 11.2668 44.3067 14.7669 43.7288 19.1455V19.1445ZM22.0865 14.9772L13.2459 28.8463C12.9646 29.2937 12.2715 30.4601 11.9479 30.798C11.3508 31.9327 10.7066 32.981 11.8327 34.2185C12.5153 34.7129 19.9851 42.2182 20.228 42.679C20.658 42.7894 20.8078 43.1792 21.6219 43.255C22.5089 43.3376 22.65 43.0198 23.2894 42.8883C23.2088 42.7155 23.1934 42.7683 23.3912 42.7683L35.3067 35.0758C36.6814 34.1715 37.9755 33.2988 39.3282 32.479C40.9803 31.3836 42.3723 30.5446 43.8171 29.2966L45.8552 27.4351C47.0783 26.1727 48.357 24.7001 49.318 23.2197C51.8543 19.3164 51.3052 19.566 53.0264 15.6578C52.3861 15.2988 50.1733 12.9016 49.4706 12.2008C48.2591 10.9912 47.1397 9.86515 45.9272 8.65746C43.5215 6.25938 41.2232 3.94097 38.8117 1.53809C37.6894 1.69265 34.435 3.26225 33.5336 3.77873C30.1381 5.72562 27.7112 7.70226 25.2382 10.5986C24.2312 11.7784 22.3755 14.6968 22.0865 14.9781V14.9772Z"/>
</clipPath><filter id="filter1_iiiiii_375_676" x="-61.1895" y="-100" width="215.729" height="215.656" filterUnits="userSpaceOnUse" color-interpolation-filters="sRGB">
<feFlood flood-opacity="0" result="BackgroundImageFix"/>
<feBlend mode="normal" in="SourceGraphic" in2="BackgroundImageFix" result="shape"/>
<feColorMatrix in="SourceAlpha" type="matrix" values="0 0 0 0 0 0 0 0 0 0 0 0 0 0 0 0 0 0 127 0" result="hardAlpha"/>
<feOffset dy="1"/>
<feGaussianBlur stdDeviation="20"/>
<feComposite in2="hardAlpha" operator="arithmetic" k2="-1" k3="1"/>
<feColorMatrix type="matrix" values="0 0 0 0 0.890196 0 0 0 0 0.929412 0 0 0 0 0.937255 0 0 0 0.2 0"/>
<feBlend mode="normal" in2="shape" result="effect1_innerShadow_375_676"/>
<feColorMatrix in="SourceAlpha" type="matrix" values="0 0 0 0 0 0 0 0 0 0 0 0 0 0 0 0 0 0 127 0" result="hardAlpha"/>
<feOffset dy="4"/>
<feGaussianBlur stdDeviation="9"/>
<feComposite in2="hardAlpha" operator="arithmetic" k2="-1" k3="1"/>
<feColorMatrix type="matrix" values="0 0 0 0 0.603922 0 0 0 0 0.572549 0 0 0 0 0.823529 0 0 0 0.3 0"/>
<feBlend mode="normal" in2="effect1_innerShadow_375_676" result="effect2_innerShadow_375_676"/>
<feColorMatrix in="SourceAlpha" type="matrix" values="0 0 0 0 0 0 0 0 0 0 0 0 0 0 0 0 0 0 127 0" result="hardAlpha"/>
<feOffset dy="98"/>
<feGaussianBlur stdDeviation="50"/>
<feComposite in2="hardAlpha" operator="arithmetic" k2="-1" k3="1"/>
<feColorMatrix type="matrix" values="0 0 0 0 0.792157 0 0 0 0 0.67451 0 0 0 0 1 0 0 0 0.3 0"/>
<feBlend mode="normal" in2="effect2_innerShadow_375_676" result="effect3_innerShadow_375_676"/>
<feColorMatrix in="SourceAlpha" type="matrix" values="0 0 0 0 0 0 0 0 0 0 0 0 0 0 0 0 0 0 127 0" result="hardAlpha"/>
<feOffset dy="-82"/>
<feGaussianBlur stdDeviation="34"/>
<feComposite in2="hardAlpha" operator="arithmetic" k2="-1" k3="1"/>
<feColorMatrix type="matrix" values="0 0 0 0 0.376471 0 0 0 0 0.266667 0 0 0 0 0.564706 0 0 0 0.3 0"/>
<feBlend mode="normal" in2="effect3_innerShadow_375_676" result="effect4_innerShadow_375_676"/>
<feColorMatrix in="SourceAlpha" type="matrix" values="0 0 0 0 0 0 0 0 0 0 0 0 0 0 0 0 0 0 127 0" result="hardAlpha"/>
<feOffset dy="7"/>
<feGaussianBlur stdDeviation="5.5"/>
<feComposite in2="hardAlpha" operator="arithmetic" k2="-1" k3="1"/>
<feColorMatrix type="matrix" values="0 0 0 0 1 0 0 0 0 1 0 0 0 0 1 0 0 0 1 0"/>
<feBlend mode="normal" in2="effect4_innerShadow_375_676" result="effect5_innerShadow_375_676"/>
<feColorMatrix in="SourceAlpha" type="matrix" values="0 0 0 0 0 0 0 0 0 0 0 0 0 0 0 0 0 0 127 0" result="hardAlpha"/>
<feOffset dy="39"/>
<feGaussianBlur stdDeviation="28"/>
<feComposite in2="hardAlpha" operator="arithmetic" k2="-1" k3="1"/>
<feColorMatrix type="matrix" values="0 0 0 0 0.792387 0 0 0 0 0.792387 0 0 0 0 0.792387 0 0 0 0.48 0"/>
<feBlend mode="normal" in2="effect5_innerShadow_375_676" result="effect6_innerShadow_375_676"/>
</filter>
<clipPath id="bgblur_1_375_676_clip_path" transform="translate(61.1895 100)"><path fill-rule="evenodd" clip-rule="evenodd" d="M38.8105 1.53631C41.2221 3.9392 43.5203 6.2576 45.9261 8.65569C47.1386 9.86337 48.2579 10.9895 49.4695 12.1991C50.1712 12.8999 52.385 15.297 53.0253 15.656C54.1456 12.2336 55.769 3.74432 53.0551 1.29343C50.6877 -0.843536 43.7642 0.113586 40.4473 1.00255C39.9136 1.14559 39.2886 1.26847 38.8105 1.53631Z"/>
</clipPath><filter id="filter2_iiiiii_375_676" x="-69.4658" y="-87.5342" width="211.535" height="211.534" filterUnits="userSpaceOnUse" color-interpolation-filters="sRGB">
<feFlood flood-opacity="0" result="BackgroundImageFix"/>
<feBlend mode="normal" in="SourceGraphic" in2="BackgroundImageFix" result="shape"/>
<feColorMatrix in="SourceAlpha" type="matrix" values="0 0 0 0 0 0 0 0 0 0 0 0 0 0 0 0 0 0 127 0" result="hardAlpha"/>
<feOffset dy="1"/>
<feGaussianBlur stdDeviation="20"/>
<feComposite in2="hardAlpha" operator="arithmetic" k2="-1" k3="1"/>
<feColorMatrix type="matrix" values="0 0 0 0 0.890196 0 0 0 0 0.929412 0 0 0 0 0.937255 0 0 0 0.2 0"/>
<feBlend mode="normal" in2="shape" result="effect1_innerShadow_375_676"/>
<feColorMatrix in="SourceAlpha" type="matrix" values="0 0 0 0 0 0 0 0 0 0 0 0 0 0 0 0 0 0 127 0" result="hardAlpha"/>
<feOffset dy="4"/>
<feGaussianBlur stdDeviation="9"/>
<feComposite in2="hardAlpha" operator="arithmetic" k2="-1" k3="1"/>
<feColorMatrix type="matrix" values="0 0 0 0 0.603922 0 0 0 0 0.572549 0 0 0 0 0.823529 0 0 0 0.3 0"/>
<feBlend mode="normal" in2="effect1_innerShadow_375_676" result="effect2_innerShadow_375_676"/>
<feColorMatrix in="SourceAlpha" type="matrix" values="0 0 0 0 0 0 0 0 0 0 0 0 0 0 0 0 0 0 127 0" result="hardAlpha"/>
<feOffset dy="98"/>
<feGaussianBlur stdDeviation="50"/>
<feComposite in2="hardAlpha" operator="arithmetic" k2="-1" k3="1"/>
<feColorMatrix type="matrix" values="0 0 0 0 0.792157 0 0 0 0 0.67451 0 0 0 0 1 0 0 0 0.3 0"/>
<feBlend mode="normal" in2="effect2_innerShadow_375_676" result="effect3_innerShadow_375_676"/>
<feColorMatrix in="SourceAlpha" type="matrix" values="0 0 0 0 0 0 0 0 0 0 0 0 0 0 0 0 0 0 127 0" result="hardAlpha"/>
<feOffset dy="-82"/>
<feGaussianBlur stdDeviation="34"/>
<feComposite in2="hardAlpha" operator="arithmetic" k2="-1" k3="1"/>
<feColorMatrix type="matrix" values="0 0 0 0 0.376471 0 0 0 0 0.266667 0 0 0 0 0.564706 0 0 0 0.3 0"/>
<feBlend mode="normal" in2="effect3_innerShadow_375_676" result="effect4_innerShadow_375_676"/>
<feColorMatrix in="SourceAlpha" type="matrix" values="0 0 0 0 0 0 0 0 0 0 0 0 0 0 0 0 0 0 127 0" result="hardAlpha"/>
<feOffset dy="7"/>
<feGaussianBlur stdDeviation="5.5"/>
<feComposite in2="hardAlpha" operator="arithmetic" k2="-1" k3="1"/>
<feColorMatrix type="matrix" values="0 0 0 0 1 0 0 0 0 1 0 0 0 0 1 0 0 0 1 0"/>
<feBlend mode="normal" in2="effect4_innerShadow_375_676" result="effect5_innerShadow_375_676"/>
<feColorMatrix in="SourceAlpha" type="matrix" values="0 0 0 0 0 0 0 0 0 0 0 0 0 0 0 0 0 0 127 0" result="hardAlpha"/>
<feOffset dy="39"/>
<feGaussianBlur stdDeviation="28"/>
<feComposite in2="hardAlpha" operator="arithmetic" k2="-1" k3="1"/>
<feColorMatrix type="matrix" values="0 0 0 0 1 0 0 0 0 1 0 0 0 0 1 0 0 0 0.5 0"/>
<feBlend mode="normal" in2="effect5_innerShadow_375_676" result="effect6_innerShadow_375_676"/>
</filter>
<clipPath id="bgblur_2_375_676_clip_path" transform="translate(69.4658 87.5342)"><path fill-rule="evenodd" clip-rule="evenodd" d="M35.0355 12.6392C31.8252 13.436 29.9263 16.364 30.7107 19.6242C31.3452 22.2633 34.134 24.6652 37.6409 23.8319C40.3683 23.1829 42.6992 20.446 41.9149 16.9237C41.3187 14.2444 38.4944 11.7819 35.0355 12.6392Z"/>
</clipPath></defs>
</svg>
