<svg width="52" height="52" viewBox="0 0 52 52" fill="none" xmlns="http://www.w3.org/2000/svg">
<path fill-rule="evenodd" clip-rule="evenodd" d="M35.4381 30.948L40.271 35.7811C40.271 35.7811 38.4405 36.6873 37.5639 37.5641C36.6871 38.4407 35.7811 40.271 35.7811 40.271L30.948 35.4381C27.7236 37.7583 23.8363 39.1747 19.5873 39.1747C8.76906 39.1747 0 30.4056 0 19.5873C1.8498e-05 8.76909 8.76908 1.82925e-05 19.5873 0C30.4056 0 39.1747 8.76907 39.1747 19.5873C39.1747 23.8363 37.7583 27.7236 35.4381 30.948ZM19.5873 6.0269C12.0839 6.02686 6.02687 12.0839 6.02691 19.5873C6.02687 27.0907 12.0839 33.1478 19.5873 33.1478C27.0907 33.1478 33.1478 27.0907 33.1478 19.5873C33.1478 12.0839 27.0907 6.02692 19.5873 6.0269Z" fill="white"/>
<path d="M38.8249 46.6193L41.7941 49.5886C44.049 51.8435 47.7048 51.8435 49.9597 49.5886C52.2146 47.3337 52.029 43.8635 49.7741 41.6086L46.8048 38.6394C44.5501 36.3845 40.8942 36.3845 38.6393 38.6394C36.3844 40.8941 36.57 44.3646 38.8249 46.6193Z" fill="white"/>
</svg>
