<svg width="60" height="62" viewBox="0 0 60 62" fill="none" xmlns="http://www.w3.org/2000/svg">
<path fill-rule="evenodd" clip-rule="evenodd" d="M29.6481 61.4409C29.9822 61.2393 31.0123 60.4003 31.2791 60.1459C31.6343 59.807 31.7649 59.7206 32.0519 59.4499C35.3995 56.2924 39.2548 52.1318 41.8056 48.2697L43.5864 45.5203C45.5141 42.407 48.5438 36.5404 49.1189 33.022C48.8539 33.3436 46.2965 38.0438 45.1809 39.6489C43.7928 41.6457 41.6846 44.59 40.1323 46.3334L38.218 48.4204C35.964 50.999 33.1867 53.1782 30.4775 55.2076C29.6443 55.8316 29.8276 56.2425 26.6683 54.0288L22.5172 51.1123C22.0353 50.7215 21.6532 50.3884 21.1962 50.0323C20.746 49.6799 20.3188 49.2835 19.8935 48.935L16.3732 45.3897C15.5898 44.4988 14.8324 43.8162 14.1105 42.8553C13.7601 42.3878 13.4634 42.0038 13.0497 41.5113L10.089 37.2757C1.75523 24.478 0.558104 10.22 0.0387426 9.27344C-0.232938 14.6581 0.968985 22.605 2.24387 27.5192C3.73571 33.2668 6.10212 39.095 9.09925 43.5974C9.43141 44.0966 9.77221 44.6774 10.1168 45.1113C12.4045 47.9913 11.8007 47.6361 14.6788 50.6841L18.6609 54.4348L23.0788 57.7516C24.4737 58.6838 28.1121 60.8697 29.6481 61.4429V61.4409Z" fill="white"/>
<path fill-rule="evenodd" clip-rule="evenodd" d="M1.54102 7.44756C1.76854 10.5608 2.7535 14.6562 3.4879 17.6053C4.2895 20.8223 5.3263 23.83 6.49943 26.734C7.65623 29.5967 9.07128 32.4047 10.5132 34.8489L14.141 40.2902C14.5999 40.8988 15.2652 41.5708 15.4947 42.0163C15.6905 41.7993 15.6579 42.0057 15.1692 41.1273L13.7647 38.5353C9.23352 29.4038 6.25175 20.0505 6.47831 9.31956C19.8031 3.15155 38.4522 1.74418 53.0605 6.17267C55.0516 6.77652 57.3421 7.6962 58.8992 8.22612C57.0407 6.28404 49.6343 3.25427 46.4835 2.34898C35.9753 -0.669263 24.8556 -0.749903 14.2793 1.94002C11.9378 2.53523 9.60888 3.36563 7.51127 4.24403C5.82743 4.94963 2.70262 6.42996 1.54102 7.44852V7.44756Z" fill="white"/>
<path fill-rule="evenodd" clip-rule="evenodd" d="M23.5215 6.09393C30.6783 6.54129 33.3913 6.45201 40.6863 8.26833C43.2601 8.90865 45.855 9.66225 48.1475 10.5455C50.1395 11.3135 53.1711 12.4722 54.7916 13.58C55.0124 20.854 51.9961 32.5334 49.0431 39.1055C46.8082 44.0803 45.6495 45.9302 42.7225 50.256C41.654 51.8361 37.4137 56.8541 36.1791 57.5894C36.4421 57.815 36.2991 57.719 36.4633 57.5817L36.9154 57.2496C41.151 54.4176 44.5196 51.0566 47.6866 47.087C52.4223 41.1503 55.7046 33.4185 57.4163 26.0005C58.4032 21.7228 59.4284 14.8674 59.2451 10.2469C58.2188 9.47505 53.2652 7.93713 51.6265 7.46481C45.8166 5.78864 39.2281 5.03504 33.1148 5.17328C31.1928 5.21648 24.9327 5.5448 23.5205 6.092L23.5215 6.09393Z" fill="white"/>
<path fill-rule="evenodd" clip-rule="evenodd" d="M19.8521 28.9951H39.414C40.3635 28.9951 41.1392 29.7718 41.1392 30.7212C41.1392 31.6706 40.3625 32.4473 39.414 32.4473H19.8521C18.9026 32.4473 18.127 31.6706 18.127 30.7212C18.127 29.7718 18.9036 28.9951 19.8521 28.9951Z" fill="white"/>
<path fill-rule="evenodd" clip-rule="evenodd" d="M27.9072 40.501V20.939C27.9072 19.9895 28.6839 19.2139 29.6333 19.2139C30.5828 19.2139 31.3594 19.9905 31.3594 20.939V40.501C31.3594 41.4504 30.5828 42.2261 29.6333 42.2261C28.6839 42.2261 27.9072 41.4494 27.9072 40.501Z" fill="white"/>
</svg>
