<svg width="41" height="23" viewBox="0 0 41 23" fill="none" xmlns="http://www.w3.org/2000/svg">
<path fill-rule="evenodd" clip-rule="evenodd" d="M15.1565 6.47964L18.9681 2.70777C20.71 0.98396 22.3488 -1.18774 24.6271 0.780077L40.0443 14.0978C43.0515 16.6953 38.4946 25.2016 32.8776 22.4637L30.3956 20.417L29.4846 14.931C29.4485 14.7128 24.9738 10.5811 23.3929 9.24624C22.4776 8.47353 20.9857 11.8863 20.0597 12.6448L7.93425 22.5765C4.37694 23.5601 -1.22271 22.7682 0.237855 14.427C2.26627 12.4048 3.99312 11.211 6.25457 9.25023C11.2625 10.1602 11.9002 9.70209 15.1565 6.47964Z" fill="white"/>
<path fill-rule="evenodd" clip-rule="evenodd" d="M15.1565 6.47964C12.0027 9.80022 11.2625 10.1604 6.25457 9.25023C3.99312 11.211 2.26627 12.4048 0.237855 14.427C-1.22271 22.7682 4.37694 23.5601 7.93425 22.5765L19.5561 13.0619L19.4854 1.92175L15.1565 6.47964Z" fill="#E0DBEF"/>
<path fill-rule="evenodd" clip-rule="evenodd" d="M22.7262 13.9842L30.3956 20.417C30.5178 14.0337 28.6148 12.9799 23.5985 9.02408C23.3961 9.03682 23.2182 9.0507 23.0276 9.06421C22.9094 11.3424 22.8832 12.0001 22.7262 13.9842Z" fill="#DACAF7"/>
</svg>
