<svg width="28" height="28" viewBox="0 0 28 28" fill="none" xmlns="http://www.w3.org/2000/svg">
<g clip-path="url(#clip0_376_1368)">
<path fill-rule="evenodd" clip-rule="evenodd" d="M15.6748 10.3936C15.5311 10.341 15.0553 10.1778 14.912 10.1255C14.8694 10.2425 14.9778 10.4793 14.9351 10.5963L13.8047 13.6847L14.2357 13.8426C14.6222 12.7868 14.9807 11.8071 15.3672 10.7513C15.4099 10.6351 15.6325 10.5099 15.6751 10.3936H15.6748Z" fill="white"/>
<path fill-rule="evenodd" clip-rule="evenodd" d="M9.7904 14.4193C9.81671 14.5701 9.91343 15.0637 9.93939 15.2141C10.0621 15.1928 10.2128 14.9801 10.3355 14.9588L13.5754 14.3934L13.4965 13.9414C12.3888 14.1345 11.3614 14.3141 10.2537 14.5072C10.1318 14.5285 9.91201 14.398 9.79004 14.4193H9.7904Z" fill="white"/>
<path fill-rule="evenodd" clip-rule="evenodd" d="M16.2191 17.5023C16.3365 17.4042 16.7155 17.0738 16.8329 16.9757C16.7529 16.88 16.4933 16.8558 16.4136 16.7602L14.3042 14.2368L13.9521 14.5313C14.6733 15.3939 15.3422 16.194 16.0633 17.0567C16.1426 17.1517 16.1398 17.4074 16.2191 17.5023Z" fill="white"/>
<path fill-rule="evenodd" clip-rule="evenodd" d="M7.14306 20.0415C3.86193 16.3041 4.23069 10.6251 7.95703 7.34793C11.6869 4.07036 17.3773 4.44267 20.6509 8.17292V8.17648C23.9246 11.9028 23.5597 17.5892 19.8298 20.8629C16.1035 24.1365 10.4171 23.7717 7.14342 20.0418L7.14306 20.0415ZM27.5915 13.6691C27.5769 13.1435 27.5257 12.6215 27.4493 12.1105L24.7375 11.6617L23.8175 9.09606L25.624 7.02291C25.0767 6.11044 24.4231 5.27122 23.686 4.51557L21.2259 5.74915L18.9703 4.21615L19.215 1.47127C18.2808 1.07691 17.2916 0.781406 16.2624 0.602539L14.9851 3.04445L12.2587 3.11024L10.8573 0.738023C9.80971 0.975209 8.80585 1.33294 7.86813 1.79629L8.26961 4.51913L6.10186 6.17587L3.57639 5.08453C2.88297 5.87645 2.27702 6.75265 1.7806 7.69428L3.70405 9.65791L2.93026 12.2712L0.244052 12.8772C0.196757 13.4173 0.17471 13.9721 0.192846 14.5307C0.210981 15.0417 0.258632 15.5452 0.327974 16.0417L3.04334 16.4979L3.95581 19.0675L2.13443 21.1331C2.68561 22.0456 3.33529 22.8959 4.07245 23.6515L6.53605 22.4254L8.78807 23.9655L8.53275 26.7104C9.49607 27.119 10.5145 27.4259 11.5731 27.6083L12.8433 25.1632L15.5697 25.0864L16.9747 27.455C18.0223 27.2104 19.0223 26.8491 19.9639 26.3857L19.5553 23.6629L21.7159 21.9948L24.2453 23.0786C24.9387 22.2792 25.5411 21.4034 26.034 20.4618L24.0995 18.5053L24.8658 15.8848L27.5521 15.275C27.5958 14.7423 27.6139 14.2057 27.5958 13.6616L27.5919 13.6691H27.5915Z" fill="white"/>
<path fill-rule="evenodd" clip-rule="evenodd" d="M10.8946 16.7434C9.43664 15.0827 9.60022 12.559 11.2562 11.1025C12.9137 9.64593 15.4424 9.81164 16.8971 11.4691V11.4709C18.3519 13.1269 18.1898 15.6535 16.5323 17.1086C14.8763 18.5633 12.3497 18.4012 10.895 16.7437L10.8946 16.7434ZM19.9813 13.9117C19.9749 13.6781 19.9521 13.4462 19.918 13.219L18.7128 13.0195L18.3039 11.8795L19.1068 10.9581C18.8636 10.5527 18.5731 10.1797 18.2456 9.844L17.1525 10.3923L16.15 9.71101L16.2588 8.4913C15.8439 8.31598 15.404 8.18477 14.947 8.10547L14.3795 9.19041L13.168 9.21957L12.5453 8.16521C12.0798 8.27047 11.6339 8.42942 11.2171 8.63531L11.3956 9.84507L10.4323 10.5812L9.31004 10.0965C9.00174 10.4482 8.73255 10.8375 8.51208 11.2561L9.36694 12.1287L9.02308 13.2901L7.82932 13.5593C7.80834 13.7993 7.79839 14.0458 7.80656 14.294C7.81474 14.5212 7.83572 14.7449 7.86666 14.9654L9.07321 15.1681L9.4786 16.3099L8.66925 17.2277C8.91426 17.6334 9.20301 18.0111 9.53052 18.3468L10.6251 17.8016L11.6257 18.4858L11.5123 19.7055C11.9404 19.8872 12.3927 20.0234 12.8632 20.1045L13.4275 19.0178L14.6391 18.9837L15.2635 20.0362C15.729 19.9274 16.1735 19.767 16.5917 19.5608L16.41 18.351L17.3701 17.61L18.4941 18.0918C18.8025 17.7366 19.0699 17.3472 19.2889 16.929L18.4294 16.0595L18.7697 14.8953L19.9635 14.6243C19.983 14.3875 19.9912 14.1493 19.983 13.9075L19.9813 13.9107V13.9117Z" fill="white"/>
<path fill-rule="evenodd" clip-rule="evenodd" d="M8.53883 8.00991C5.17734 10.966 4.84165 16.0902 7.80523 19.4588C10.7581 22.8239 15.8859 23.1525 19.247 20.1995C22.6121 17.2434 22.9442 12.1157 19.9878 8.75418C17.0352 5.38913 11.9039 5.05344 8.53848 8.00955L8.53883 8.00991ZM17.943 18.7181C15.3994 20.9516 11.5159 20.7145 9.27137 18.1559C7.03784 15.6009 7.28605 11.7249 9.83713 9.49134C12.3811 7.24323 16.2643 7.495 18.5017 10.0425C20.7498 12.5975 20.4945 16.4807 17.9434 18.7181H17.943Z" fill="white"/>
<path fill-rule="evenodd" clip-rule="evenodd" d="M14.0042 13.9038C14.0754 13.9426 14.1234 14.0183 14.1234 14.1051C14.1234 14.2135 14.0483 14.3042 13.9473 14.3284C13.9303 14.3327 13.9125 14.3348 13.894 14.3348C13.8759 14.3348 13.8581 14.3327 13.841 14.3287C13.7397 14.3049 13.6646 14.2139 13.6646 14.1054C13.6646 14.0187 13.713 13.9429 13.7841 13.9042C13.8168 13.8864 13.8542 13.8761 13.894 13.8761C13.9338 13.8761 13.9715 13.8864 14.0042 13.9042V13.9038ZM13.6646 13.2883C13.3076 13.3882 13.0459 13.7164 13.0459 14.1051C13.0459 14.1741 13.0541 14.2409 13.0697 14.3053C13.1071 14.4593 13.1864 14.5969 13.2948 14.7053C13.4481 14.8586 13.6604 14.9535 13.8944 14.9535C14.1283 14.9535 14.3403 14.8586 14.4939 14.7053C14.6024 14.5969 14.6817 14.4596 14.7186 14.3056C14.7343 14.2416 14.7425 14.1744 14.7425 14.1054C14.7425 13.7164 14.4807 13.3885 14.1237 13.2886C14.0508 13.2683 13.9737 13.2573 13.8944 13.2573C13.8147 13.2573 13.7379 13.2683 13.665 13.2886L13.6646 13.2883Z" fill="white"/>
</g>
<defs>
<clipPath id="clip0_376_1368">
<rect width="28" height="28" fill="white"/>
</clipPath>
</defs>
</svg>
