<svg width="64" height="36" viewBox="0 0 64 36" fill="none" xmlns="http://www.w3.org/2000/svg">
<path fill-rule="evenodd" clip-rule="evenodd" d="M37.8575 7.01167C37.7122 7.60307 37.249 7.96067 36.9335 8.26963L31.4468 13.6591C31.1191 13.9671 31.2093 14.0633 31.4926 14.3306L37.5016 20.2977C38.7245 21.7177 36.9082 23.9861 35.0591 22.179L30.6856 17.821C30.3102 17.4566 29.9747 17.1275 29.5982 16.7645C29.1004 16.2836 27.7346 15.0988 27.5249 14.4971C27.0777 13.215 28.2826 12.6173 29.0228 11.794C29.766 10.9678 35.3892 5.45358 35.6233 5.32292C36.8165 4.65783 38.1813 5.6982 37.858 7.01216L37.8575 7.01167Z" fill="white"/>
<path fill-rule="evenodd" clip-rule="evenodd" d="M29.3912 2.89493C29.1833 3.89087 28.4772 4.4185 27.9797 4.91022L26.2969 6.67419C25.395 7.57335 21.8251 11.0295 21.1605 11.7959C20.8173 12.1917 20.6775 12.3579 20.338 12.6974C19.2131 13.8206 18.8041 13.9416 19.4195 14.5543L27.1058 22.2978C28.2239 23.4085 30.0497 24.6854 29.2733 26.6749C29.0049 27.3618 28.2504 28.0112 27.3787 28.1204C26.1789 28.2703 25.596 27.5944 25.0744 27.0644C24.4991 26.4806 23.9721 25.9592 23.3893 25.3847L21.7034 23.6231C21.1091 23.0299 20.5754 22.4937 19.9782 21.9013C18.8199 20.7539 17.7358 19.6331 16.5678 18.4998C16.2669 18.2079 16.0431 17.8957 15.7453 17.5983C15.4376 17.2916 15.1896 17.0441 14.8827 16.7374C14.4154 16.2722 13.6058 15.633 13.3351 14.8267C12.7182 12.9862 14.4487 11.7678 15.6334 10.5932L19.0445 7.1105C20.0235 6.13017 25.4002 0.574455 25.875 0.317665C27.7 -0.671249 29.8342 0.776609 29.392 2.89571L29.3912 2.89493Z" fill="white"/>
<path fill-rule="evenodd" clip-rule="evenodd" d="M49.4385 12.4902H34.5934C33.7786 12.4902 33.112 13.1617 33.112 13.9825C33.112 14.8033 33.7786 15.4753 34.5934 15.4753H49.4385C50.2533 15.4753 50.9199 14.8038 50.9199 13.9825C50.9199 13.1622 50.2533 12.4902 49.4385 12.4902Z" fill="white"/>
<path d="M45.7662 31.0345C53.0173 31.0345 58.9631 25.1143 59.0717 17.8327C59.0738 17.6981 59.0841 17.563 59.1058 17.4302C59.5959 14.4204 64 14.7818 64 17.8319V20.155C64 28.8708 56.9232 35.9996 48.2709 35.9996H15.7291C7.07681 35.9996 0 28.8708 0 20.155L0.0532616 17.9183C0.125353 14.8908 4.50307 14.6316 4.92676 17.6297C4.92676 25.0018 10.9133 31.0345 18.2338 31.0345H45.7662Z" fill="white"/>
</svg>
