<svg width="30" height="31" viewBox="0 0 30 31" fill="none" xmlns="http://www.w3.org/2000/svg">
<path fill-rule="evenodd" clip-rule="evenodd" d="M15.0075 30.999C15.1767 30.8973 15.6981 30.474 15.8332 30.3456C16.013 30.1747 16.079 30.1311 16.2243 29.9945C17.9188 28.4014 19.8704 26.3023 21.1615 24.3537L22.0629 22.9665C23.0387 21.3958 24.5724 18.4359 24.8634 16.6607C24.7293 16.823 23.4348 19.1944 22.8701 20.0042C22.1674 21.0117 21.1003 22.4972 20.3145 23.3768L19.3456 24.4297C18.2046 25.7307 16.7987 26.8302 15.4274 27.8541C15.0056 28.169 15.0984 28.3763 13.4992 27.2593L11.398 25.7879C11.154 25.5907 10.9606 25.4227 10.7293 25.243C10.5014 25.0652 10.2852 24.8652 10.0699 24.6894L8.28793 22.9006C7.8914 22.4512 7.50799 22.1068 7.14256 21.622C6.96519 21.3861 6.81503 21.1923 6.60559 20.9439L5.10694 18.8069C0.888476 12.35 0.282506 5.15635 0.0196111 4.67878C-0.117911 7.39552 0.49049 11.405 1.13582 13.8844C1.89098 16.7842 3.08882 19.7247 4.60594 21.9964C4.77407 22.2482 4.94658 22.5413 5.12104 22.7602C6.27904 24.2132 5.97338 24.034 7.43024 25.5719L9.44593 27.4642L11.6822 29.1377C12.3883 29.608 14.23 30.7099 15.0075 30.999Z" fill="white"/>
<path fill-rule="evenodd" clip-rule="evenodd" d="M0.780107 3.75754C0.895275 5.3283 1.39385 7.39455 1.7656 8.88249C2.17136 10.5056 2.69618 12.023 3.29 13.4882C3.87556 14.9325 4.59184 16.3493 5.32173 17.5824L7.1581 20.3278C7.39039 20.6348 7.72714 20.9739 7.84328 21.1986C7.94242 21.0892 7.92589 21.1933 7.67855 20.7501L6.96762 19.4424C4.67397 14.8352 3.16463 10.1161 3.27931 4.70203C10.0242 1.59006 19.4641 0.879999 26.8587 3.11432C27.8666 3.41898 29.026 3.88299 29.8142 4.15035C28.8734 3.17051 25.1244 1.64189 23.5295 1.18514C18.2104 -0.337666 12.5817 -0.378351 7.22808 0.978807C6.04287 1.27911 4.86397 1.69807 3.80218 2.14126C2.94984 2.49726 1.3681 3.24364 0.780107 3.75754Z" fill="white"/>
<path fill-rule="evenodd" clip-rule="evenodd" d="M11.9062 3.0746C15.5289 3.30031 16.9022 3.25527 20.5949 4.17166C21.8977 4.49473 23.2112 4.87495 24.3716 5.32055C25.38 5.70803 26.9146 6.29265 27.7349 6.85159C27.8466 10.5215 26.3198 16.4142 24.825 19.7301C23.6938 22.24 23.1072 23.1733 21.6256 25.3558C21.0847 26.1531 18.9383 28.6848 18.3134 29.0558C18.4465 29.1696 18.3741 29.1212 18.4572 29.0519L18.6861 28.8843C20.8301 27.4555 22.5353 25.7598 24.1384 23.757C26.5356 20.7617 28.197 16.8608 29.0634 13.1182C29.563 10.9599 30.082 7.50111 29.9891 5.16992C29.4697 4.7805 26.9622 4.00456 26.1327 3.76626C23.1918 2.92058 19.8568 2.54036 16.7623 2.61011C15.7894 2.63191 12.6206 2.79755 11.9058 3.07364L11.9062 3.0746Z" fill="white"/>
<path fill-rule="evenodd" clip-rule="evenodd" d="M17.1294 11.3634C16.981 11.309 16.4896 11.1404 16.3416 11.0865C16.2975 11.2073 16.4095 11.4519 16.3654 11.5727L15.1978 14.7626L15.643 14.9257C16.0422 13.8352 16.4124 12.8234 16.8117 11.7329C16.8558 11.6128 17.0853 11.4835 17.1294 11.3634Z" fill="white"/>
<path fill-rule="evenodd" clip-rule="evenodd" d="M11.0517 15.5214C11.0789 15.6772 11.1788 16.187 11.2056 16.3423C11.3323 16.3203 11.4881 16.1006 11.6148 16.0786L14.9611 15.4946L14.8796 15.0278C13.7355 15.2272 12.6744 15.4127 11.5303 15.6121C11.4043 15.6342 11.1777 15.4994 11.0517 15.5214Z" fill="white"/>
<path fill-rule="evenodd" clip-rule="evenodd" d="M17.6917 18.7058C17.8129 18.6045 18.2045 18.2633 18.3257 18.1619C18.243 18.0631 17.9749 18.0381 17.8926 17.9393L15.7139 15.333L15.3503 15.6372C16.0951 16.5282 16.786 17.3546 17.5309 18.2456C17.6128 18.3437 17.6098 18.6078 17.6917 18.7058Z" fill="white"/>
<path fill-rule="evenodd" clip-rule="evenodd" d="M12.1925 17.9218C10.6866 16.2065 10.8555 13.5999 12.566 12.0955C14.2779 10.5911 16.8897 10.7622 18.3923 12.4742V12.476C19.8948 14.1865 19.7274 16.796 18.0154 18.299C16.305 19.8015 13.695 19.6337 12.1925 17.9218ZM21.5778 14.9971C21.5711 14.7558 21.5476 14.5163 21.5124 14.2816L20.2676 14.0755L19.8453 12.898L20.6746 11.9464C20.4234 11.5277 20.1233 11.1424 19.785 10.7957L18.656 11.362L17.6206 10.6583L17.733 9.39851C17.3044 9.21743 16.85 9.08191 16.3781 9L15.7919 10.1206L14.5405 10.1507L13.8974 9.0617C13.4166 9.17042 12.9561 9.3346 12.5256 9.54726L12.71 10.7968L11.715 11.5571L10.5558 11.0564C10.2374 11.4197 9.95936 11.8219 9.73164 12.2542L10.6146 13.1555L10.2594 14.355L9.02645 14.6331C9.00478 14.881 8.9945 15.1355 9.00295 15.3919C9.0114 15.6266 9.03307 15.8576 9.06502 16.0853L10.3112 16.2947L10.7299 17.474L9.89399 18.422C10.147 18.8411 10.4453 19.2311 10.7836 19.5779L11.9141 19.0148L12.9476 19.7215L12.8304 20.9813C13.2727 21.169 13.7398 21.3096 14.2258 21.3934L14.8087 20.2709L16.06 20.2357L16.705 21.3228C17.1857 21.2105 17.6448 21.0448 18.0768 20.8318L17.8891 19.5823L18.8808 18.8168L20.0418 19.3145C20.3602 18.9476 20.6364 18.5454 20.8626 18.1135L19.9749 17.2155L20.3264 16.013L21.5594 15.7331C21.5796 15.4885 21.588 15.2424 21.5796 14.9927L21.5778 14.996V14.9971Z" fill="white"/>
<path fill-rule="evenodd" clip-rule="evenodd" d="M15.4048 14.9892C15.4782 15.0293 15.5278 15.1075 15.5278 15.1971C15.5278 15.3091 15.4503 15.4028 15.346 15.4278C15.3284 15.4322 15.31 15.4344 15.2909 15.4344C15.2722 15.4344 15.2538 15.4322 15.2362 15.4281C15.1315 15.4035 15.054 15.3095 15.054 15.1975C15.054 15.1079 15.1039 15.0296 15.1774 14.9896C15.2112 14.9712 15.2498 14.9606 15.2909 14.9606C15.332 14.9606 15.371 14.9709 15.4048 14.9892ZM15.054 14.3535C14.6852 14.4567 14.4149 14.7957 14.4149 15.1971C14.4149 15.2684 14.4234 15.3374 14.4395 15.4039C14.4781 15.5629 14.56 15.7051 14.672 15.8171C14.8303 15.9754 15.0496 16.0735 15.2913 16.0735C15.5329 16.0735 15.7518 15.9754 15.9105 15.8171C16.0225 15.7051 16.1044 15.5633 16.1426 15.4043C16.1588 15.3382 16.1672 15.2687 16.1672 15.1975C16.1672 14.7957 15.8969 14.457 15.5282 14.3538C15.4529 14.3329 15.3732 14.3215 15.2913 14.3215C15.209 14.3215 15.1293 14.3325 15.054 14.3535Z" fill="white"/>
</svg>
