<svg width="66" height="59" viewBox="0 0 66 59" fill="none" xmlns="http://www.w3.org/2000/svg">
<path fill-rule="evenodd" clip-rule="evenodd" d="M3.24792 42.0251V16.1579C3.24792 8.85199 9.22545 2.87409 16.5317 2.87409H49.2186C56.5245 2.87409 62.5024 8.8516 62.5024 16.1579V42.0251C62.5024 49.331 56.5249 55.3089 49.2186 55.3089H16.5317C9.22583 55.3089 3.24792 49.3314 3.24792 42.0251ZM51.0103 0H14.74C6.63299 0 0 6.63299 0 14.74V43.4433C0 51.5504 6.63299 58.1833 14.74 58.1833H51.0103C59.1174 58.1833 65.7504 51.5504 65.7504 43.4433V14.74C65.7504 6.63299 59.1174 0 51.0103 0ZM22.448 2.87447V55.3093H26.0861V2.87447H22.448Z" fill="white"/>
<path fill-rule="evenodd" clip-rule="evenodd" d="M15.3602 10.5908H11.1759C10.0633 10.5908 9.15332 11.5008 9.15332 12.6134V16.7977C9.15332 17.9103 10.0633 18.8203 11.1759 18.8203H15.3602C16.4728 18.8203 17.3828 17.9103 17.3828 16.7977V12.6134C17.3828 11.5008 16.4728 10.5908 15.3602 10.5908Z" fill="white"/>
<path fill-rule="evenodd" clip-rule="evenodd" d="M10.8183 9.88547H15.7196C17.0228 9.88547 18.0885 10.9516 18.0885 12.2544V17.1557C18.0885 18.4589 17.0224 19.5247 15.7196 19.5247H10.8183C9.51506 19.5247 8.44933 18.4585 8.44933 17.1557V12.2544C8.44933 10.9512 9.51545 9.88547 10.8183 9.88547ZM16.1655 9.00879H10.3724C8.83208 9.00879 7.57227 10.2686 7.57227 11.8089V17.602C7.57227 19.1423 8.83208 20.4021 10.3724 20.4021H16.1655C17.7058 20.4021 18.9656 19.1423 18.9656 17.602V11.8089C18.9656 10.2686 17.7058 9.00879 16.1655 9.00879Z" fill="white"/>
<path fill-rule="evenodd" clip-rule="evenodd" d="M10.8183 24.7751H15.7196C17.0228 24.7751 18.0885 25.8412 18.0885 27.144V32.0454C18.0885 33.3486 17.0224 34.4143 15.7196 34.4143H10.8183C9.51506 34.4143 8.44933 33.3482 8.44933 32.0454V27.144C8.44933 25.8408 9.51545 24.7751 10.8183 24.7751ZM16.1655 23.8984H10.3724C8.83208 23.8984 7.57227 25.1582 7.57227 26.6985V32.4916C7.57227 34.0319 8.83208 35.2917 10.3724 35.2917H16.1655C17.7058 35.2917 18.9656 34.0319 18.9656 32.4916V26.6985C18.9656 25.1582 17.7058 23.8984 16.1655 23.8984Z" fill="white"/>
<path fill-rule="evenodd" clip-rule="evenodd" d="M10.8183 38.8601H15.7196C17.0228 38.8601 18.0885 39.9262 18.0885 41.229V46.1303C18.0885 47.4335 17.0224 48.4992 15.7196 48.4992H10.8183C9.51506 48.4992 8.44933 47.4331 8.44933 46.1303V41.229C8.44933 39.9258 9.51545 38.8601 10.8183 38.8601ZM16.1655 37.9834H10.3724C8.83208 37.9834 7.57227 39.2432 7.57227 40.7835V46.5766C7.57227 48.1169 8.83208 49.3767 10.3724 49.3767H16.1655C17.7058 49.3767 18.9656 48.1169 18.9656 46.5766V40.7835C18.9656 39.2432 17.7058 37.9834 16.1655 37.9834Z" fill="white"/>
</svg>
