<?xml version="1.0" encoding="UTF-8"?>
<!DOCTYPE svg PUBLIC "-//W3C//DTD SVG 1.1//EN" "http://www.w3.org/Graphics/SVG/1.1/DTD/svg11.dtd">
<!-- Creator: CorelDRAW -->
<svg xmlns="http://www.w3.org/2000/svg" xml:space="preserve" width="0.787402in" height="0.787402in" version="1.1" style="shape-rendering:geometricPrecision; text-rendering:geometricPrecision; image-rendering:optimizeQuality; fill-rule:evenodd; clip-rule:evenodd"
viewBox="0 0 787.4 787.4"
 xmlns:xlink="http://www.w3.org/1999/xlink"
 xmlns:xodm="http://www.corel.com/coreldraw/odm/2003">
 <defs>
  <style type="text/css">
   <![CDATA[
    .fil0 {fill:black}
   ]]>
  </style>
 </defs>
 <g id="Layer_x0020_1">
  <metadata id="CorelCorpID_0Corel-Layer"/>
  <path class="fil0" d="M366.91 61.96l-29.42 90.64c-13.38,40.44 -26.48,80.56 -39.21,120.82 -3.65,11.54 -7.54,19.08 -20.24,21.04l-119.39 0.39c-21.13,0 -103.09,-1.17 -120.13,0.07 -15.94,1.17 -18.52,13.28 -21.87,18.64l0 9.52c9.85,17.13 4.94,10.07 22.04,22.36 5.27,3.78 7.89,6.06 12.67,9.27 4.86,3.26 8.41,6.52 13.41,9.81l154.63 112.57c13,14 -1.35,42.93 -9.13,67.16l-54.46 167.59c-4.19,12.88 -9.03,23.31 1.21,34.17 17.21,18.24 37.18,-0.28 57.77,-16.49l154.68 -112.52c18.66,-13.22 26.5,-13.46 45.16,1.77 15.56,12.7 49.57,34.83 65.1,47.24 4.81,3.85 8.66,6.03 12.79,9.16 5.13,3.89 7.87,5.91 12.71,9.23 25.72,17.66 66.3,50.34 90.33,65.82 15.84,10.2 39.17,-2.88 35.03,-24.65 -1.69,-8.87 -7.62,-23.92 -10.72,-33.2l-54.74 -168.59c-15.11,-49.31 -13.45,-37.86 38.66,-76.56 21.68,-16.09 58.02,-41.13 77.56,-56.66l77.14 -55.83c8.58,-8.44 8.53,-24.67 -0.54,-33.46 -9.06,-8.79 -23.04,-6.45 -37.77,-6.45 -37.71,0 -211.52,1.99 -221.27,-1.73 -11.39,-4.33 -13.28,-13.2 -17.4,-26.52 -3.5,-11.32 -7.22,-22.55 -11.07,-34.08l-43.66 -134.5c-3.7,-11.35 -7.31,-21.84 -10.78,-33.11 -5.75,-18.68 -6.33,-16.47 -20.32,-25.34l-9.35 0c-12.25,7.66 -14.19,5.57 -19.42,22.39zm-249.66 255.7c13.23,-0.97 76.87,-0.06 93.28,-0.06l92.7 -0.3c9.86,-1.52 12.89,-7.37 15.72,-16.33 9.89,-31.26 20.06,-62.41 30.45,-93.81l22.84 -70.38c4.06,-13.06 5.57,-11.44 15.08,-17.39l7.26 0c10.86,6.89 11.32,5.18 15.78,19.68 2.69,8.75 5.49,16.89 8.37,25.71l33.9 104.44c2.99,8.96 5.88,17.67 8.6,26.46 3.2,10.34 4.67,17.22 13.51,20.59 7.57,2.89 142.53,1.34 171.81,1.34 11.44,0 22.29,-1.82 29.33,5.01 7.04,6.83 7.08,19.43 0.42,25.98l-59.9 43.35c-15.17,12.06 -43.39,31.5 -60.22,44 -40.46,30.05 -41.75,21.16 -30.02,59.44l42.5 130.91c2.41,7.21 7.02,18.89 8.32,25.78 3.21,16.9 -14.89,27.06 -27.2,19.14 -18.67,-12.02 -50.17,-37.39 -70.14,-51.11 -3.76,-2.58 -5.89,-4.15 -9.87,-7.17 -3.2,-2.43 -6.19,-4.12 -9.93,-7.11 -12.06,-9.63 -38.47,-26.82 -50.55,-36.68 -14.49,-11.82 -20.58,-11.64 -35.07,-1.37l-120.11 87.37c-15.99,12.58 -31.49,26.96 -44.86,12.8 -7.95,-8.43 -4.19,-16.53 -0.94,-26.53l42.28 -130.13c6.04,-18.81 17.19,-41.28 7.09,-52.15l-120.07 -87.41c-3.87,-2.56 -6.63,-5.09 -10.41,-7.62 -3.72,-2.49 -5.75,-4.26 -9.84,-7.2 -13.28,-9.54 -9.46,-4.06 -17.11,-17.36l0 -7.4c2.6,-4.17 4.61,-13.57 16.98,-14.47z"/>
 </g>
</svg>
