<?xml version="1.0" encoding="UTF-8"?>
<!DOCTYPE svg PUBLIC "-//W3C//DTD SVG 1.1//EN" "http://www.w3.org/Graphics/SVG/1.1/DTD/svg11.dtd">
<!-- Creator: CorelDRAW -->
<svg xmlns="http://www.w3.org/2000/svg" xml:space="preserve" width="0.787402in" height="0.787402in" version="1.1" style="shape-rendering:geometricPrecision; text-rendering:geometricPrecision; image-rendering:optimizeQuality; fill-rule:evenodd; clip-rule:evenodd"
viewBox="0 0 787.4 787.4"
 xmlns:xlink="http://www.w3.org/1999/xlink"
 xmlns:xodm="http://www.corel.com/coreldraw/odm/2003">
 <defs>
  <style type="text/css">
   <![CDATA[
    .fil0 {fill:black}
    .fil2 {fill:black;fill-opacity:0.211765}
    .fil1 {fill:black;fill-opacity:0.658824}
   ]]>
  </style>
 </defs>
 <g id="Layer_x0020_1">
  <metadata id="CorelCorpID_0Corel-Layer"/>
  <g id="_2505790045056">
   <g>
    <path class="fil0" d="M623.37 122.94l0 545.58c0,25.06 -20.5,45.56 -45.55,45.56l-374.16 0c-25.06,0 -45.55,-20.5 -45.55,-45.56l0 -545.58c0,-25.06 20.5,-45.55 45.55,-45.55l374.16 0c25.06,0 45.55,20.5 45.55,45.55zm22.7 182.26c3.02,0.64 5.3,3.32 5.3,6.52l0 21.91c0,3.2 -2.28,5.88 -5.3,6.52l0 346.97c0,27.5 -22.5,50 -50,50l-410.68 0c-27.5,0 -50,-22.5 -50,-50l0 -580.9c0,-27.5 22.5,-50 50,-50l410.68 0c27.5,0 50,22.5 50,50l0 95.22c3.02,0.64 5.3,3.32 5.3,6.52l0 50.81c0,3.2 -2.28,5.88 -5.3,6.52l0 39.92z"/>
    <g>
     <path class="fil0" d="M393.39 86.17c3.41,0 6.16,2.76 6.16,6.16 0,3.41 -2.76,6.16 -6.16,6.16 -3.41,0 -6.16,-2.76 -6.16,-6.16 0,-3.41 2.76,-6.16 6.16,-6.16z"/>
     <path class="fil0" d="M406.58 92.33c0,-7.29 -5.91,-13.2 -13.2,-13.2 -7.29,0 -13.2,5.91 -13.2,13.2 0,7.29 5.91,13.2 13.2,13.2 7.29,0 13.2,-5.91 13.2,-13.2zm-13.2 -9.14c5.05,0 9.14,4.09 9.14,9.14 0,5.05 -4.09,9.14 -9.14,9.14 -5.05,0 -9.14,-4.09 -9.14,-9.14 0,-5.05 4.09,-9.14 9.14,-9.14z"/>
    </g>
   </g>
   <g>
    <path class="fil1" d="M256.97 448.7l204.17 -261.06c3.19,-4.08 9.13,-4.81 13.21,-1.62l0 0c4.08,3.19 4.81,9.13 1.62,13.21l-204.17 261.06c-3.19,4.08 -9.13,4.81 -13.22,1.62l0 -0c-4.08,-3.19 -4.81,-9.13 -1.62,-13.21z"/>
    <path class="fil1" d="M310.81 486.39l204.17 -261.06c3.19,-4.08 9.13,-4.81 13.21,-1.62l0 0c4.08,3.19 4.81,9.13 1.62,13.21l-204.17 261.06c-3.19,4.08 -9.13,4.81 -13.22,1.62l0 -0c-4.08,-3.19 -4.81,-9.13 -1.62,-13.21z"/>
    <path class="fil1" d="M310.81 486.39l204.17 -261.06c3.19,-4.08 9.13,-4.81 13.21,-1.62l0 0c4.08,3.19 4.81,9.13 1.62,13.21l-204.17 261.06c-3.19,4.08 -9.13,4.81 -13.22,1.62l0 -0c-4.08,-3.19 -4.81,-9.13 -1.62,-13.21z"/>
   </g>
   <path class="fil2" d="M393.39 631.89c15.05,0 27.24,12.2 27.24,27.24 0,15.05 -12.2,27.24 -27.24,27.24 -15.05,0 -27.24,-12.2 -27.24,-27.24 0,-15.05 12.2,-27.24 27.24,-27.24z"/>
  </g>
 </g>
</svg>
