<svg width="50" height="66" viewBox="0 0 50 66" fill="none" xmlns="http://www.w3.org/2000/svg">
<path fill-rule="evenodd" clip-rule="evenodd" d="M46.8462 6.40514V58.781C46.8462 61.1867 44.8782 63.1547 42.4734 63.1547H6.55394C4.14817 63.1547 2.18113 61.1867 2.18113 58.781V6.40514C2.18113 3.99937 4.14913 2.03233 6.55394 2.03233H42.4734C44.8792 2.03233 46.8462 4.00033 46.8462 6.40514ZM49.0254 23.9021C49.3153 23.9636 49.5342 24.2209 49.5342 24.5281V26.6314C49.5342 26.9386 49.3153 27.1959 49.0254 27.2573V60.5666C49.0254 63.2066 46.8654 65.3666 44.2254 65.3666H4.80001C2.16001 65.3666 0 63.2066 0 60.5666V4.80001C0 2.16001 2.16001 0 4.80001 0H44.2254C46.8654 0 49.0254 2.16001 49.0254 4.80001V13.9412C49.3153 14.0026 49.5342 14.2599 49.5342 14.5671V19.4448C49.5342 19.7521 49.3153 20.0093 49.0254 20.0708V23.9031V23.9021Z" fill="white"/>
<path fill-rule="evenodd" clip-rule="evenodd" d="M24.7681 2.875C25.0955 2.875 25.3595 3.13996 25.3595 3.46636C25.3595 3.79372 25.0945 4.05772 24.7681 4.05772C24.4408 4.05772 24.1768 3.79276 24.1768 3.46636C24.1768 3.139 24.4417 2.875 24.7681 2.875Z" fill="white"/>
<path fill-rule="evenodd" clip-rule="evenodd" d="M26.0344 3.46642C26.0344 2.76658 25.467 2.19922 24.7672 2.19922C24.0674 2.19922 23.5 2.76658 23.5 3.46642C23.5 4.16626 24.0674 4.73363 24.7672 4.73363C25.467 4.73363 26.0344 4.16626 26.0344 3.46642ZM24.7672 2.58898C25.252 2.58898 25.6446 2.98162 25.6446 3.46642C25.6446 3.95122 25.252 4.34386 24.7672 4.34386C24.2824 4.34386 23.8898 3.95122 23.8898 3.46642C23.8898 2.98162 24.2824 2.58898 24.7672 2.58898Z" fill="white"/>
<path fill-rule="evenodd" clip-rule="evenodd" d="M11.6722 37.6786L31.2726 12.6168C31.5788 12.2251 32.1491 12.155 32.5407 12.4613C32.9324 12.7675 33.0025 13.3378 32.6963 13.7294L13.0959 38.7913C12.7896 39.1829 12.2194 39.253 11.8268 38.9468C11.4351 38.6405 11.365 38.0703 11.6712 37.6786H11.6722Z" fill="white" fill-opacity="0.658824"/>
<path fill-rule="evenodd" clip-rule="evenodd" d="M16.8411 41.2968L36.4415 16.235C36.7478 15.8433 37.318 15.7732 37.7097 16.0794C38.1014 16.3857 38.1714 16.9559 37.8652 17.3476L18.2648 42.4094C17.9586 42.8011 17.3883 42.8712 16.9957 42.5649C16.604 42.2587 16.5339 41.6885 16.8402 41.2968H16.8411Z" fill="white" fill-opacity="0.658824"/>
<path fill-rule="evenodd" clip-rule="evenodd" d="M16.8411 41.2968L36.4415 16.235C36.7478 15.8433 37.318 15.7732 37.7097 16.0794C38.1014 16.3857 38.1714 16.9559 37.8652 17.3476L18.2648 42.4094C17.9586 42.8011 17.3883 42.8712 16.9957 42.5649C16.604 42.2587 16.5339 41.6885 16.8402 41.2968H16.8411Z" fill="white" fill-opacity="0.658824"/>
<path fill-rule="evenodd" clip-rule="evenodd" d="M24.7684 55.2646C26.2132 55.2646 27.3834 56.4359 27.3834 57.8797C27.3834 59.3245 26.2122 60.4947 24.7684 60.4947C23.3236 60.4947 22.1533 59.3235 22.1533 57.8797C22.1533 56.4349 23.3245 55.2646 24.7684 55.2646Z" fill="white" fill-opacity="0.211765"/>
</svg>
