<?xml version="1.0" encoding="UTF-8"?>
<!DOCTYPE svg PUBLIC "-//W3C//DTD SVG 1.1//EN" "http://www.w3.org/Graphics/SVG/1.1/DTD/svg11.dtd">
<!-- Creator: CorelDRAW -->
<svg xmlns="http://www.w3.org/2000/svg" xml:space="preserve" width="0.787402in" height="0.787402in" version="1.1" style="shape-rendering:geometricPrecision; text-rendering:geometricPrecision; image-rendering:optimizeQuality; fill-rule:evenodd; clip-rule:evenodd"
viewBox="0 0 787.4 787.4"
 xmlns:xlink="http://www.w3.org/1999/xlink"
 xmlns:xodm="http://www.corel.com/coreldraw/odm/2003">
 <defs>
  <style type="text/css">
   <![CDATA[
    .fil0 {fill:black}
   ]]>
  </style>
 </defs>
 <g id="Layer_x0020_1">
  <metadata id="CorelCorpID_0Corel-Layer"/>
  <g id="_2505819121520">
   <path class="fil0" d="M127.11 192.39l458.95 0c66.69,0 155.38,90.54 155.38,23.91l0 -0.02c0,-66.66 -54.57,-121.24 -121.23,-121.24l-458.95 0c-66.66,0 -121.23,54.54 -121.23,121.24l0 0.02c0,66.67 20.39,-23.91 87.08,-23.91z"/>
   <path class="fil0" d="M439.52 367.57l-149.57 -16.36c-6.41,-0.7 -11.8,-12.72 -10.12,-18.92l31.04 -114.38c1.69,-6.2 14.22,-14.94 20.64,-14.48l154.98 11.07c6.42,0.46 17.38,12.45 15.21,18.51l-43.15 120.39c-2.17,6.06 -12.61,14.88 -19.02,14.18z"/>
   <path class="fil0" d="M439.52 536.48l-149.57 -16.36c-6.41,-0.7 -11.8,-12.72 -10.12,-18.92l31.04 -114.38c1.69,-6.2 14.22,-14.94 20.64,-14.48l154.98 11.07c6.42,0.46 17.38,12.45 15.21,18.51l-43.15 120.39c-2.17,6.06 -12.61,14.88 -19.02,14.18z"/>
   <path class="fil0" d="M439.52 698.25l-149.57 -16.36c-6.41,-0.7 -11.8,-12.72 -10.12,-18.92l31.04 -114.38c1.69,-6.2 14.22,-14.94 20.64,-14.48l154.98 11.07c6.42,0.46 17.38,12.45 15.21,18.51l-43.15 120.39c-2.17,6.06 -12.61,14.88 -19.02,14.18z"/>
  </g>
 </g>
</svg>
