<svg width="51" height="47" viewBox="0 0 51 47" fill="none" xmlns="http://www.w3.org/2000/svg">
<path fill-rule="evenodd" clip-rule="evenodd" d="M32.443 44.4318C29.5389 44.7111 26.9165 43.7532 25.2527 42.3678C24.4763 41.7217 23.7836 40.9026 23.274 39.6771C23.1391 39.3521 22.7047 38.2414 22.8653 37.9203C22.9382 37.7737 23.8589 37.0011 24.0799 36.7754C25.5405 35.2862 25.4358 35.2699 26.7854 36.0789C27.886 36.7382 28.5562 37.1819 29.1123 38.412C29.58 39.4468 29.767 40.7762 30.2812 41.897C30.5418 42.4648 30.8847 42.9333 31.2329 43.3258C31.6247 43.7671 32.0427 43.9905 32.4422 44.4318H32.443ZM20.8688 37.1795C20.5205 36.9724 20.5523 36.9499 20.3188 36.635C20.4429 36.3744 24.2172 32.8499 24.5383 32.6955C24.8308 32.8763 24.9618 32.9779 25.0673 33.4208C24.1241 34.0723 21.6731 36.7157 20.8688 37.1795ZM4.11866 12.8506C5.43571 13.6317 12.6135 20.6831 13.7212 21.9629L16.9308 25.6945C18.2641 27.2637 19.8108 29.4332 20.93 31.1171C21.2558 31.6081 21.6987 32.1316 21.8096 32.7297C21.3396 33.0415 20.7765 33.7729 20.2738 33.9746C18.261 32.4473 17.0797 31.2296 15.471 29.4355C11.5416 25.0523 8.02016 19.3761 4.96566 14.3623C4.62283 13.8 4.35678 13.4222 4.11943 12.8514L4.11866 12.8506ZM18.9304 35.1931C18.7675 35.7415 18.0454 36.5358 18.9172 37.7939C19.35 38.4182 19.9744 39.0147 21.1588 39.0108C22.5379 43.944 26.5108 46.2577 31.5797 46.2802C32.5128 46.2849 33.4777 46.2197 34.3115 45.9094C34.9723 45.6636 35.7736 45.1206 35.4362 44.1906C35.053 43.1342 33.0875 43.3995 32.0303 41.3401C31.3136 39.9447 31.1352 38.0211 30.3138 36.8096C29.8407 36.1123 29.4567 35.7679 28.8122 35.2311C28.4344 34.9162 27.364 34.2654 26.7869 34.0793C26.9529 32.7622 26.6582 32.0921 25.933 31.47C24.5787 30.3081 23.7177 31.1225 23.1383 31.3017C22.6946 30.2057 20.4282 27.2869 19.6378 26.1623C18.2983 24.2565 14.486 20.1037 12.9191 18.5012C12.0652 17.6278 9.49932 15.0651 8.53597 14.2584L2.30054 8.98477C1.89177 8.62254 1.03934 7.71504 0.295493 8.32857C-0.350621 8.86067 0.219479 9.67044 0.526635 10.2685C2.17178 13.4758 7.21349 21.6674 9.36824 24.5388C9.7708 25.0748 10.1563 25.6565 10.5713 26.2049C12.4344 28.6645 16.3847 33.7077 18.9296 35.1923L18.9304 35.1931Z" fill="white"/>
<path fill-rule="evenodd" clip-rule="evenodd" d="M25.4428 1.88932C34.1316 1.2114 40.6036 5.76367 44.0087 10.0282C50.9709 18.748 49.9563 31.5345 41.9943 39.1149C40.9713 40.0892 39.5797 41.1859 38.1518 42.0151C37.8648 42.1819 37.328 42.4285 37.1512 42.7015C36.8789 43.1227 37.0387 43.7238 37.3598 43.9488C38.0587 44.4382 39.164 43.5586 39.655 43.2235C41.183 42.1811 42.1991 41.4334 43.4269 40.2497C46.8763 36.9261 49.4506 32.1597 50.2247 26.9187C52.509 11.4461 39.2881 -1.89739 23.9342 0.222452C18.3511 0.993445 14.0679 3.38554 10.3883 6.91473C9.75068 7.52672 7.24069 9.92269 8.01944 10.907C8.30798 11.2715 8.94401 11.2871 9.31787 10.9977C9.55445 10.8147 9.85695 10.2865 10.0447 10.0398C10.5318 9.39758 11.1065 8.77086 11.6192 8.24342C12.3382 7.50267 14.4271 5.80633 15.3617 5.24089C18.2588 3.4887 21.2807 2.21431 25.4436 1.88932H25.4428Z" fill="white"/>
<path fill-rule="evenodd" clip-rule="evenodd" d="M20.2394 9.00809C22.1816 8.68387 23.7709 10.1467 24.0269 11.7601C24.7157 16.1029 18.0971 17.1501 17.4494 12.7917C17.1531 10.7967 18.6051 9.28034 20.2386 9.00809H20.2394ZM19.7228 7.27141C12.9786 8.68464 15.1651 18.668 21.7884 17.3199C24.2169 16.8258 26.4229 14.3205 25.7698 11.2295C25.2594 8.81185 22.8146 6.62375 19.7228 7.27141Z" fill="white"/>
<path fill-rule="evenodd" clip-rule="evenodd" d="M37.5039 24.6788C41.8251 24.0567 42.7163 30.6334 38.4207 31.2664C36.3583 31.5704 34.8295 30.0548 34.6309 28.3585C34.4037 26.4147 35.8107 24.9223 37.5039 24.6788ZM32.819 28.4034C33.0207 31.1043 35.3996 33.3622 38.4262 33.0884C41.106 32.8464 43.3112 30.4946 43.0607 27.5177C42.8349 24.8362 40.4847 22.5644 37.4372 22.8552C34.8186 23.105 32.5972 25.4374 32.819 28.4042V28.4034Z" fill="white"/>
<path fill-rule="evenodd" clip-rule="evenodd" d="M34.1202 11.2813C36.0446 10.9664 37.6548 12.4401 37.8984 14.0395C38.2001 16.0259 36.7194 17.609 35.1317 17.8495C30.7477 18.515 29.7642 11.9933 34.1202 11.2805V11.2813ZM33.5214 9.56632C31.1099 10.1636 28.8916 12.4292 29.5966 15.7032C30.1031 18.0542 32.6597 20.278 35.746 19.576C38.1396 19.0315 40.3114 16.5549 39.6242 13.4182C39.1107 11.0726 36.5395 8.8186 33.5206 9.56555L33.5214 9.56632Z" fill="white"/>
<path fill-rule="evenodd" clip-rule="evenodd" d="M4.89095 22.4528C5.23379 20.9783 3.72205 20.7153 3.28226 21.5344C3.01544 22.0324 2.78507 23.9428 2.7556 24.6308C2.66175 26.8391 3.03018 29.0093 3.76937 30.8173C7.26366 39.3642 14.3244 36.2864 14.9177 35.3456C15.2738 34.7809 14.9286 34.203 14.5392 34.0378C13.9699 33.7958 13.603 34.1317 13.2059 34.3349C7.93149 37.0334 3.26054 29.4638 4.89018 22.4535L4.89095 22.4528Z" fill="white"/>
</svg>
