<svg width="67" height="67" viewBox="0 0 67 67" fill="none" xmlns="http://www.w3.org/2000/svg">
<path fill-rule="evenodd" clip-rule="evenodd" d="M55.0949 40.2495L50.4994 40.213C50.2056 45.374 48.2127 49.8102 45.8885 52.9455C40.308 60.4748 30.1771 63.7168 21.0475 61.0844C12.6119 58.6527 6.15304 51.2444 4.83784 42.4018C3.70888 34.8101 6.3508 28.1227 11.1278 23.0645C13.9857 20.0376 17.9428 17.7221 22.2926 16.7102C23.4984 16.4299 24.7329 16.2408 25.9973 16.1544C27.7973 16.0306 28.6805 15.8856 28.7169 17.8488L32.8104 13.8504L28.7649 9.70605C28.6526 12.5841 26.9678 10.859 20.916 12.3173C18.2817 12.9518 15.4631 14.1413 13.4779 15.3662C3.95272 21.2453 -1.41658 31.6834 0.325827 43.3292C0.907588 47.2114 2.58375 51.5286 4.76872 54.5401C7.138 57.806 9.20393 60.0851 12.6897 62.271C14.8766 63.6419 17.0999 64.7372 19.8964 65.5398C26.0616 67.31 32.1019 66.8713 37.7861 64.6547C47.942 60.6937 54.446 51.1599 55.0949 40.2505V40.2495Z" fill="white"/>
<path fill-rule="evenodd" clip-rule="evenodd" d="M52.9739 16.1141H64.3874L64.3163 16.2408V18.3941H52.9749L52.8482 18.4651L52.9749 16.1131L52.9739 16.1141ZM48.2536 16.1141H50.5163V18.4661L50.3896 18.395H48.3793L48.2517 18.4661L48.2536 16.1141ZM43.66 16.1141H45.9227V18.4661L45.796 18.395H43.7857L43.659 18.4661L43.6609 16.1141H43.66ZM41.3444 20.6923H66.6127V13.8014L41.3281 13.7822L41.3444 20.6923Z" fill="white"/>
<path fill-rule="evenodd" clip-rule="evenodd" d="M52.8299 2.33185H64.3864L64.3154 2.45857V4.61185H52.9739L52.8472 4.68289L52.8309 2.33089L52.8299 2.33185ZM48.2516 2.33185H50.5163V4.68385L50.3896 4.61281H48.3793L48.2516 4.68385V2.33185ZM43.6638 2.33185H45.9217V4.68385L45.795 4.61281H43.7848L43.658 4.68385L43.6638 2.33185ZM41.3435 6.9101H66.6117V0.0192001L41.3271 0L41.3435 6.9101Z" fill="white"/>
<path fill-rule="evenodd" clip-rule="evenodd" d="M43.6521 24.074L43.6396 25.2865H64.3162L64.3171 22.9883L63.1037 22.9988L63.1315 24.074H43.6521Z" fill="black" fill-opacity="0.701961"/>
<path fill-rule="evenodd" clip-rule="evenodd" d="M43.6521 10.2908L43.6396 11.5043H64.2442L64.3171 9.2041L63.1037 9.21562L63.168 10.2908H43.6521Z" fill="black" fill-opacity="0.470588"/>
<path fill-rule="evenodd" clip-rule="evenodd" d="M43.6514 10.291H63.1673L63.1029 9.21582L43.6619 9.22638L43.6514 10.291Z" fill="white"/>
<path fill-rule="evenodd" clip-rule="evenodd" d="M43.6514 24.0742H63.1308L63.1029 22.999L43.6619 23.0096L43.6514 24.0742Z" fill="white"/>
<path fill-rule="evenodd" clip-rule="evenodd" d="M19.7402 33.824C19.5338 33.7414 19.0135 33.1894 18.8234 33.0099C18.5239 32.7267 18.2484 32.2544 18.6967 31.8282C19.1479 31.3981 19.5607 31.7293 19.8353 31.9981C20.0974 32.2554 20.4641 32.5549 20.6839 32.816C20.5879 33.0099 19.9486 33.4947 19.7402 33.824ZM36.3099 33.0378C36.3636 32.8448 36.3905 32.8458 36.5288 32.719C36.6248 32.6298 36.6814 32.5837 36.7774 32.4915C36.9953 32.2813 37.5214 31.7178 37.7979 31.6563C38.3672 31.5306 38.7857 32.0202 38.6475 32.5501C38.5572 32.8947 37.5348 33.823 37.2929 33.9738C37.1547 33.8989 37.1518 33.8595 37.0356 33.7386C36.9454 33.6445 36.8907 33.5917 36.8024 33.4986C36.644 33.3296 36.499 33.1606 36.3099 33.0378ZM26.538 28.5219L26.5572 30.0147C26.4439 30.1069 25.3802 30.3046 25.1249 30.3805C24.2695 30.6349 23.299 31.0314 22.5521 31.4845C22.3428 31.6112 22.1594 31.7149 21.9914 31.8291C21.7841 31.9712 21.6305 32.0979 21.451 32.217C21.0046 31.8627 20.5534 31.2714 20.0657 30.9574C19.3303 30.4841 18.5229 30.7107 18.041 31.1715C17.5927 31.6016 17.3172 32.4138 17.7405 33.1405C17.9402 33.4832 18.1044 33.6022 18.3636 33.8518C18.5508 34.0314 18.8945 34.3904 19.0855 34.5094C19.0538 34.6813 18.3511 35.7075 18.2234 35.935C16.1009 39.7415 16.3668 44.3533 18.7725 47.9984C21.1687 51.6311 25.4638 53.6615 29.995 53.049C30.5777 52.9703 31.1383 52.8503 31.6884 52.6861C31.8612 52.6343 32.2827 52.5258 32.4209 52.4231C32.6609 52.2455 32.635 51.8183 32.4161 51.6733C32.1127 51.4717 31.4273 51.8154 30.7659 51.9613C30.259 52.0736 29.4391 52.2176 28.8948 52.1946C28.8948 51.7309 28.9179 51.2663 28.9332 50.8064C28.9486 50.3188 29.0043 49.7879 28.4667 49.8032C27.9732 49.8176 28.0164 50.2804 28.003 50.7575C27.9895 51.2404 27.978 51.7338 27.955 52.2052C26.5447 52.162 25.2622 51.8096 24.1294 51.3239C23.5428 51.0724 23.1098 50.7997 22.6135 50.5012C22.3591 50.3476 21.4039 49.6132 21.33 49.4692C21.6785 49.1476 21.9108 48.9277 22.2516 48.6004C22.4532 48.4064 23.1223 47.9648 22.673 47.5309C22.2708 47.1411 21.785 47.722 21.5854 47.9312C21.2676 48.2644 20.8913 48.5207 20.6398 48.8183C19.3073 47.4964 17.9076 44.9955 17.7617 42.2423C18.9271 42.2298 20.2183 42.5495 20.1742 41.7872C20.1367 41.1344 18.8618 41.3946 17.7434 41.2947C17.6887 39.9843 18.0996 38.5088 18.5373 37.4403C18.9501 36.4314 19.7326 35.1382 20.3537 34.5373C20.9604 34.9117 21.8561 36.6694 22.4628 36.0214C23.0206 35.4262 21.3694 34.4643 21.017 33.7942C21.9338 32.9917 22.7066 32.3955 23.8702 31.8454C24.8196 31.3971 26.4967 30.8537 27.7399 30.8691C27.7889 32.073 27.3953 33.5005 28.1335 33.5206C28.6788 33.535 28.6212 32.9581 28.6327 32.481C28.6452 31.9453 28.6673 31.4096 28.6807 30.8749C29.5198 30.6473 31.9447 31.4048 32.635 31.6976C33.5489 32.0864 34.1566 32.4742 34.8939 33.0176C35.0945 33.1654 35.3662 33.393 35.5534 33.5782C35.4862 33.7117 34.7383 34.3741 34.5348 34.591C34.3217 34.8186 33.4932 35.2995 33.9492 35.7766C34.1748 36.0128 34.4321 35.9514 34.6462 35.7517C34.8372 35.5741 34.9985 35.4243 35.1953 35.2506L36.2427 34.2733C37.8334 35.9936 38.8385 37.8723 39.0996 41.073C38.7022 41.1219 38.0081 41.0576 37.578 41.0471C37.0827 41.0346 36.4376 40.9184 36.4539 41.4992C36.4683 42.0282 37.028 41.9619 37.531 41.9773C38.0436 41.9936 38.5601 41.9994 39.0756 42.0253C39.0977 42.4343 39.0132 42.9978 38.946 43.3981C38.8654 43.8743 39.0852 44.3053 39.5844 44.0807C39.8878 43.9434 39.9022 43.3751 39.956 42.9642C40.2555 40.6506 39.7976 38.1075 38.7156 36.1174L37.8785 34.7254C38.083 34.5814 38.3854 34.2474 38.5822 34.0582C38.8088 33.8403 39.1169 33.5869 39.2926 33.3363C39.7716 32.6538 39.6536 31.7139 39.1486 31.1994C38.7012 30.7433 37.7451 30.4765 37.0616 30.9651C36.7678 31.1753 35.9777 32.0029 35.5745 32.3408C35.3585 32.2362 35.2001 32.072 34.986 31.9242C33.6084 30.9718 31.5262 30.127 29.8385 30.0022V28.5219C29.8385 28.1571 29.6417 27.8893 29.2318 27.9872C28.7931 28.0918 28.9025 28.8301 28.9025 29.4291V29.9168L27.475 29.9379C27.4634 29.4377 27.5422 28.4057 27.3914 28.159C27.1994 27.8451 26.5361 27.848 26.5351 28.5219H26.538Z" fill="white"/>
<path fill-rule="evenodd" clip-rule="evenodd" d="M28.9999 41.8825C28.6975 42.7695 27.3065 42.35 27.6463 41.3967C27.943 40.5663 29.3052 40.9897 28.9999 41.8825ZM27.9142 36.1081L27.9122 40.021C27.9017 40.0297 27.8854 40.0278 27.8796 40.045L27.582 40.1881C27.0108 40.454 26.6076 41.1145 26.6786 41.8364C26.7132 42.1897 26.9004 42.3855 26.959 42.6754C26.4348 43.0498 24.823 44.6511 24.175 45.1782C23.4492 45.7686 24.0041 46.1382 24.2239 46.1603C24.5878 46.1977 25.8972 44.8614 26.2025 44.5791C26.5183 44.2863 26.8361 44.0454 27.1385 43.7526C27.9641 42.9548 27.6703 43.3062 28.3231 43.3062C29.1737 43.3062 29.8092 42.7148 29.9407 41.967C30.1807 40.6047 28.9951 40.1986 28.8444 40.0681C28.8089 39.0073 28.8396 37.8908 28.8396 36.8233C28.8396 36.3778 28.949 35.5993 28.6735 35.3708C28.5084 35.2335 28.2002 35.2527 28.0476 35.4044C27.871 35.5791 27.9142 35.8181 27.9142 36.1081Z" fill="white"/>
<path fill-rule="evenodd" clip-rule="evenodd" d="M40.7826 37.5295C40.3947 37.6956 40.3957 38.165 40.7278 38.3532C41.6034 38.8505 42.3157 39.0857 42.8139 40.3692C43.4917 42.1164 42.4971 43.5171 41.6283 44.2591C40.2315 45.4524 37.8891 46.3241 35.9221 46.7628C35.5477 46.8463 35.0878 46.8675 34.9592 47.1766C34.7816 47.6009 35.155 47.8707 35.612 47.7871C38.4766 47.262 41.6312 45.8566 42.9742 44.2207C44.4594 42.4121 44.2539 39.8844 42.5653 38.4223C42.3493 38.2351 41.2482 37.3289 40.7826 37.5286V37.5295Z" fill="white"/>
<path fill-rule="evenodd" clip-rule="evenodd" d="M26.1317 26.5031L26.1144 26.3274L26.1173 25.3731L26.1231 25.185H30.254L30.2569 26.4723C29.9986 26.5837 26.6722 26.5299 26.1317 26.504V26.5031ZM25.1832 25.4672C25.1832 26.5971 25.0124 27.4448 26.1269 27.4448H30.278C31.4127 27.4448 31.1938 26.4992 31.1967 25.5152C31.2005 24.1866 30.8569 24.2557 29.6108 24.2557C28.6719 24.2557 27.734 24.2557 26.7951 24.2557C25.5778 24.2557 25.1832 24.1549 25.1832 25.4672Z" fill="white"/>
<path fill-rule="evenodd" clip-rule="evenodd" d="M45.3097 42.6468C45.3097 45.4365 43.4405 46.9841 41.3775 47.8289C39.9404 48.4174 38.5762 48.7793 37.0018 49.0884C36.6821 49.1508 36.3912 49.2574 36.4412 49.6519C36.5256 50.3191 37.597 49.9217 38.1096 49.8074C39.3154 49.5406 40.4876 49.2161 41.5532 48.7658C43.7026 47.8577 45.4911 46.5185 46.0652 44.2116C46.1631 43.817 46.6546 41.2673 45.5391 41.7309C45.2031 41.8701 45.3087 42.2426 45.3087 42.6468H45.3097Z" fill="white"/>
<path fill-rule="evenodd" clip-rule="evenodd" d="M31.822 49.3199C32.1205 48.9551 32.5122 48.5826 32.8453 48.2178L35.4278 45.4549C35.5871 45.1305 35.3663 44.8242 35.0956 44.7858C34.75 44.7369 34.582 45.0239 34.4389 45.1833L32.8636 46.8527C32.1628 47.6178 31.4591 48.3215 30.7497 49.0809C29.9989 49.8854 30.9522 50.0274 31.3487 50.1589C31.9084 50.3442 32.4335 50.5046 32.9797 50.6793C34.0789 51.0316 35.1465 51.3676 36.2332 51.7218C37.1385 52.0175 37.2988 51.1257 36.7218 50.8982C36.2399 50.7081 35.6092 50.5458 35.0966 50.3817C34.5503 50.206 34.0194 50.0294 33.4693 49.8604C33.0085 49.7183 32.2281 49.5033 31.821 49.3199H31.822Z" fill="white"/>
<path fill-rule="evenodd" clip-rule="evenodd" d="M6.36566 41.1456C6.06134 41.2311 5.87414 41.5997 6.12374 41.8935C6.31766 42.1229 6.76406 42.0538 7.13654 42.0538C8.21078 42.0538 14.0361 42.1027 14.2607 42.0288C14.4969 41.9511 14.6918 41.5911 14.4882 41.305C14.3097 41.0544 13.8604 41.1274 13.4822 41.1274C12.3494 41.1274 6.65654 41.0631 6.36566 41.1456Z" fill="white"/>
<path fill-rule="evenodd" clip-rule="evenodd" d="M8.70449 44.9151C8.42897 44.9814 8.22449 45.23 8.37329 45.5564C8.50289 45.8406 8.80913 45.8358 9.18737 45.8348C9.96497 45.831 15.4475 45.877 15.7058 45.8185C15.965 45.7599 16.1589 45.4882 16.0322 45.1561C15.9189 44.8614 15.5839 44.8969 15.1999 44.8978C14.4424 44.9007 8.94737 44.8566 8.70449 44.9161V44.9151Z" fill="white"/>
<path fill-rule="evenodd" clip-rule="evenodd" d="M10.094 38.2859H14.6271C15.0831 38.2859 15.6293 38.3751 15.7138 37.9076C15.8204 37.3182 15.2492 37.3489 14.7701 37.3489H10.094C9.25589 37.3489 9.24917 38.2859 10.094 38.2859Z" fill="white"/>
</svg>
