<?xml version="1.0" encoding="UTF-8"?>
<!DOCTYPE svg PUBLIC "-//W3C//DTD SVG 1.1//EN" "http://www.w3.org/Graphics/SVG/1.1/DTD/svg11.dtd">
<!-- Creator: CorelDRAW -->
<svg xmlns="http://www.w3.org/2000/svg" xml:space="preserve" width="0.787402in" height="0.787402in" version="1.1" style="shape-rendering:geometricPrecision; text-rendering:geometricPrecision; image-rendering:optimizeQuality; fill-rule:evenodd; clip-rule:evenodd"
viewBox="0 0 787.4 787.4"
 xmlns:xlink="http://www.w3.org/1999/xlink"
 xmlns:xodm="http://www.corel.com/coreldraw/odm/2003">
 <defs>
  <style type="text/css">
   <![CDATA[
    .fil0 {fill:black}
   ]]>
  </style>
 </defs>
 <g id="Layer_x0020_1">
  <metadata id="CorelCorpID_0Corel-Layer"/>
  <g id="_2505754021760">
   <path class="fil0" d="M364.34 122.37c-236.19,23.24 -331.47,310.81 -167.75,470.48 169.43,165.23 449.76,55.85 468.42,-172.83 2.05,-25.07 -0.59,-83.75 -11.02,-101.57 -6.32,-10.8 -24.95,-16.93 -38.63,-5.78 -14.23,11.6 -8.44,26.44 -5.11,44.73 12.62,69.14 -12.23,137.65 -44.03,177.15 -82.15,102.04 -230.89,112.06 -320.48,31.25 -160.18,-144.5 -56.67,-387.03 138.37,-392.45 86.73,-2.41 114.64,38 138.43,33.72 12.9,-2.31 61.75,-42.58 -56.26,-75.41 -33.33,-9.27 -66.09,-12.81 -101.94,-9.28z"/>
   <path class="fil0" d="M664.22 213.67c7.08,-17.19 -1.98,-33.49 -16.16,-37.4 -14.5,-4 -27.31,4.6 -40.19,14.21l-61.06 49.25c-31.55,30.3 -82.19,77 -111.02,109.23l-52.66 57.63c-17.25,14.4 -26.77,-2.95 -33.8,-10.57 -10.8,-11.71 -16.64,-17.97 -25.77,-29.27 -9.09,-11.25 -12.07,-19.84 -28.67,-26.39 -14.53,-5.74 -33.68,-4.88 -46.09,2.31 -21.35,12.37 -38.5,45.51 -19,73.75 6.63,9.6 19.77,21.16 27.65,29.61l81.5 83.79c27.76,21.53 53.94,12.08 73.96,-16.44 15.68,-22.35 31.63,-42.26 46.38,-63.74l47.93 -62.32c41.02,-49.33 57.29,-69.92 101.44,-118.7 16.27,-17.97 51.87,-46.06 55.54,-54.97z"/>
  </g>
 </g>
</svg>
