<svg width="11" height="12" viewBox="0 0 11 12" fill="none" xmlns="http://www.w3.org/2000/svg">
<path d="M5.54172 4.55554C5.46678 4.40096 5.47645 4.21874 5.56731 4.07296L7.95913 0.235524C8.05043 0.0890342 8.21084 0 8.38345 0H9.69901C10.1027 0 10.3399 0.453634 10.1097 0.785189L6.83096 5.5068C6.61284 5.82092 6.13717 5.78384 5.97035 5.43972L5.54172 4.55554ZM10.5079 10.7841C10.7493 11.1144 10.5134 11.5791 10.1042 11.5791H8.30417C8.1454 11.5791 7.99606 11.5036 7.90181 11.3759L0.0975869 0.796824C-0.145929 0.466725 0.0897473 0 0.499949 0H2.37433C2.53391 0 2.6839 0.0761694 2.77805 0.205015L10.5079 10.7841ZM4.95018 6.98771C5.0704 7.15855 5.07174 7.38612 4.95354 7.55837L2.34335 11.362C2.2501 11.4979 2.09588 11.5791 1.93108 11.5791H0.612939C0.207022 11.5791 -0.0297254 11.1209 0.205095 10.7898L3.52044 6.11512C3.72018 5.83348 4.13848 5.83425 4.33719 6.11662L4.95018 6.98771Z" fill="white"/>
</svg>
