<svg width="721" height="781" viewBox="0 0 721 781" fill="none" xmlns="http://www.w3.org/2000/svg">
<path fill-rule="evenodd" clip-rule="evenodd" d="M138.536 402.313C140.599 399.053 144.642 384.573 146.594 379.722C149.646 372.134 153.257 364.922 157.273 358.329C192.643 300.294 261.047 294.396 276.42 285.593C273.823 283.42 267.69 282.274 263.03 280.949C213.939 266.993 167.647 244.498 148.085 194.119C141.286 176.607 139.452 144.268 149.746 133.705C152.751 135.209 155.644 137.805 158.942 139.779C168.556 145.535 180.367 151.545 190.961 155.379C245.885 175.264 299.546 172.387 352.736 152.258C368.423 146.321 381.237 138.64 398.989 135.433C418.764 131.86 438.804 138.095 448.279 148.5C477.391 180.47 449.113 234.001 426.491 262.22C421.251 268.756 416.932 273.576 411.616 279.412C406.004 285.575 402.112 290.033 395.791 295.69L309.87 370.168C281.618 393.474 228.56 433.718 188.019 439.632C162.671 443.33 154.06 437.385 139.484 426.731C134.148 432.935 125.101 455.687 122.168 466.045C108.477 514.382 113.032 567.818 135.683 610.102C162.145 659.505 207.801 694.623 286.58 686.95C282.35 684.954 273.693 683.951 268.303 682.344C210.236 665.034 194.996 598.151 220.314 543.452C225.046 533.23 230.997 521.18 236.553 513.126C243.421 503.167 249.037 494.595 255.905 485.914C267.109 471.751 287.018 449.111 300.345 436.193C308.216 428.562 316.455 421.592 324.094 413.384L374.082 369.183C376.384 367.337 377.847 365.652 380.07 363.823L398.741 347.278C435.749 313.776 481.546 259.913 495.325 210.03C510.844 153.846 478.753 107.542 421.958 105.734C392.113 104.782 369.118 113.174 344.267 122.043C275.832 146.468 216.217 123.823 169.977 81.1409C161.368 73.1947 155.845 65.6311 147.834 56.7562C129.341 36.2681 112.84 2.36863 110.724 0C104.718 59.1961 110.095 90.2495 126.233 144.533C131.38 161.846 132.583 174.052 127.542 191.979C119.386 220.978 99.2172 241.126 78.7732 253.938C48.4506 272.941 3.61065 282.899 0 285.593C15.5073 293.987 83.8484 300.19 119.435 357.3C131.713 377.004 131.611 385.077 138.536 402.313Z" fill="white"/>
<path fill-rule="evenodd" clip-rule="evenodd" d="M608.33 780.278C612.52 772.012 611.938 739.722 611.695 728.521C611.31 710.825 608.482 696.035 605.383 679.775C599.298 647.833 583.152 622.725 592.766 587.818C600.672 559.113 621.195 539.215 641.194 526.611C666.757 510.498 688.109 505.139 715.046 496.994L719.534 495.056C719.695 494.967 720.006 494.781 720.228 494.622C660.31 478.945 614.502 459.391 589.526 401.522C587.499 396.824 583.207 381.105 581.292 378.268C575.353 387.851 570.028 439.016 512.83 468.608C487.129 481.905 470.609 486.318 442.496 494.766C447.077 497.682 462.791 501.39 469.794 503.697C492.942 511.321 526.712 525.694 541.478 541.705C544.798 545.308 547.589 547.213 550.205 550.559C552.785 553.861 555.533 557.476 558.229 561.174C563.106 567.861 568.058 576.481 571.416 585.223C576.867 599.417 579.994 617.488 575.842 633.012C574.391 638.436 572.29 642.778 571.124 647.024C562.449 643.371 554.851 634.893 529.327 625.238C476.269 605.17 418.338 608.499 367.177 628.251C351.947 634.132 337.731 642.64 320.883 645.135C299.692 648.273 281.859 643.276 271.481 631.622C246.182 603.209 264.873 562.564 280.595 536.487C302.334 500.434 336.128 474.242 366.527 447.499C392.356 424.776 418.45 402.78 446.405 382.525C475.063 361.762 525.028 331.423 560.834 342.244C564.702 343.413 568.264 345.137 571.48 347.149C574.838 349.25 577.873 352.265 580.943 353.608C626.712 273.611 607.948 157.808 529.3 110.945C500.965 94.0623 472.116 90.7414 434.188 93.4229C447.379 99.1885 471.431 98.0285 493.589 126.991C525.914 169.245 510.039 225.768 483.829 266.783C467.186 292.826 442.507 321.887 420.052 343.746C393.745 369.356 375.325 386.015 346.944 410.385C313.987 438.684 282.235 468.586 256.323 507.024C232.389 542.53 202.549 596.335 235.01 644.286C248.075 663.585 273.697 673.847 297.701 674.861C326.553 676.079 351.455 667.227 375.611 658.426C400.46 649.371 429.391 647.037 457.188 650.812C495.743 656.047 535.805 682.542 560.511 709.973C576.078 727.256 599.323 757.456 608.33 780.278Z" fill="white"/>
</svg>
