<svg width="284" height="340" viewBox="0 0 284 340" fill="none" xmlns="http://www.w3.org/2000/svg">
<path d="M109.289 89.5696C104.523 107.268 122.021 115.142 113.83 112.085C105.64 109.028 102.054 98.3681 105.821 88.275C109.588 78.182 119.281 72.4782 127.472 75.5352C135.662 78.5922 114.178 74.4156 109.289 89.5696Z" fill="white"/>
<path fill-rule="evenodd" clip-rule="evenodd" d="M154.097 178.86L154.097 271.903H129.903L129.903 178.86C114.964 176.424 100.675 169.767 89.227 158.319C60.08 129.172 60.08 81.92 89.227 52.773C118.374 23.6261 165.626 23.6261 194.773 52.773C223.92 81.92 223.92 129.172 194.773 158.319C183.325 169.767 169.036 176.424 154.097 178.86ZM178.535 69.0109C158.319 48.7947 125.681 48.7947 105.465 69.0109C85.2487 89.227 85.2487 121.865 105.465 142.081C125.681 162.297 158.319 162.297 178.535 142.081C198.751 121.865 198.751 89.227 178.535 69.0109Z" fill="white"/>
<rect x="120" y="335.204" width="127" height="44" rx="22" transform="rotate(-90 120 335.204)" fill="white" stroke="black" stroke-width="8"/>
</svg>
